<svg width="1669" height="1669" viewBox="0 0 1669 1669" fill="none" xmlns="http://www.w3.org/2000/svg">
<path d="M178.022 747.161V906.17C178.022 934.94 201.341 958.263 230.115 958.263H800.272C829.042 958.263 852.365 934.94 852.365 906.17V771.816L923.348 697.238L230.279 695.072C201.442 694.975 178.022 718.327 178.022 747.161Z" fill="#295671"/>
<path d="M768.318 791.403L250.938 789.013L250.991 773.111L768.371 775.501L768.318 791.403Z" fill="#E0E0E0"/>
<path d="M768.318 843.719L250.938 841.33L250.991 825.427L768.371 827.817L768.318 843.719Z" fill="#E0E0E0"/>
<path d="M563.675 877.78L563.597 893.682L768.31 894.685L768.388 878.783L563.675 877.78Z" fill="#E0E0E0"/>
<path d="M706.328 1296.59V1455.6C706.328 1484.37 729.647 1507.69 758.42 1507.69H1328.58C1357.35 1507.69 1380.67 1484.37 1380.67 1455.6V1321.25L1451.65 1246.67L758.584 1244.5C729.747 1244.41 706.328 1267.76 706.328 1296.59Z" fill="#1E3F52"/>
<path d="M1299.1 1336.71L781.72 1334.32L781.773 1318.41L1299.15 1320.8L1299.1 1336.71Z" fill="#E0E0E0"/>
<path d="M1299.1 1389.02L781.72 1386.63L781.773 1370.73L1299.15 1373.12L1299.1 1389.02Z" fill="#E0E0E0"/>
<path d="M1094.45 1423.07L1094.38 1438.97L1299.09 1439.97L1299.17 1424.07L1094.45 1423.07Z" fill="#E0E0E0"/>
<path d="M482.775 148.17H819.058C835.705 148.17 849.201 161.663 849.201 178.309V342.793C849.201 359.439 835.705 372.931 819.058 372.931H533.696C517.049 372.931 503.554 359.436 503.554 342.793V168.949L482.775 148.17Z" fill="#E8505B"/>
<path d="M677.724 308.077V413.538C677.724 432.618 662.256 448.09 643.173 448.09H265.021C245.937 448.09 230.469 432.621 230.469 413.538V324.43L183.39 274.964L643.066 273.529C662.189 273.469 677.724 288.954 677.724 308.077Z" fill="#1E3F52"/>
<path d="M286.213 337.422L629.363 335.836L629.326 325.291L286.177 326.877L286.213 337.422Z" fill="#F5F5F5"/>
<path d="M286.213 372.12L629.363 370.534L629.326 359.99L286.177 361.575L286.213 372.12Z" fill="#F5F5F5"/>
<path d="M421.936 394.742L286.16 395.407L286.212 405.955L421.988 405.29L421.936 394.742Z" fill="#F5F5F5"/>
<path d="M1394.1 797.128V902.589C1394.1 921.669 1378.63 937.137 1359.55 937.137H981.392C962.309 937.137 946.84 921.669 946.84 902.589V813.481L899.761 764.015L1359.44 762.576C1378.56 762.519 1394.1 778.004 1394.1 797.128Z" fill="#5F879E"/>
<path d="M1002.58 826.475L1345.73 824.89L1345.7 814.342L1002.55 815.927L1002.58 826.475Z" fill="#F5F5F5"/>
<path d="M1002.58 861.174L1345.73 859.588L1345.7 849.04L1002.55 850.626L1002.58 861.174Z" fill="#F5F5F5"/>
<path d="M1138.31 883.814L1002.53 884.479L1002.58 895.028L1138.36 894.362L1138.31 883.814Z" fill="#F5F5F5"/>
<path d="M1070.16 1320.68C1013.64 1265.65 1012.71 1180.51 1027.42 1106.53C1029.87 1094.19 1030.65 1080.87 1038.34 1070.94C1046.03 1061.02 1061.03 1055.82 1071.29 1062.88C1079.81 1068.73 1082.07 1080.12 1085.77 1089.83C1090.7 1102.76 1099.33 1114.2 1110.35 1122.42C1117.58 1127.81 1126.96 1131.93 1135.46 1128.9C1147.14 1124.74 1150.83 1110.15 1152.77 1097.78C1156.4 1074.74 1160.03 1051.7 1163.65 1028.66C1165.6 1016.29 1167.62 1003.68 1173.38 992.584C1179.15 981.492 1189.42 971.992 1201.7 970.624C1213.99 969.258 1227.41 978.411 1227.91 990.905C1228.12 996.106 1226.24 1001.16 1225.75 1006.34C1225.25 1011.52 1226.71 1017.59 1231.34 1019.81C1236.04 1022.07 1241.55 1019.38 1245.83 1016.36C1260.63 1005.98 1271.9 991.332 1282.61 976.682C1293.31 962.028 1303.83 946.957 1317.63 935.251C1331.42 923.541 1349.18 915.383 1367.03 917.279C1384.89 919.175 1401.95 933.178 1403.57 951.273C1405.2 969.419 1392.15 985.424 1378.79 997.708C1358.97 1015.94 1336.54 1031.25 1312.43 1043.02C1308.09 1045.15 1303.38 1047.44 1301.14 1051.78C1297.11 1059.57 1303.57 1069.03 1311.26 1073.06C1319.96 1077.64 1330.11 1078.32 1339.55 1081.03C1349 1083.74 1358.73 1089.69 1360.89 1099.39C1363.88 1112.85 1351.15 1124.35 1339.35 1131.31C1315.7 1145.26 1289.7 1155.08 1262.85 1160.22C1253.22 1162.05 1243.18 1163.41 1234.81 1168.59C1226.43 1173.78 1220.2 1184.15 1223.2 1193.58C1226.2 1203.01 1237.11 1207.65 1246.91 1207.44C1256.71 1207.24 1266.08 1203.47 1275.71 1201.53C1293.73 1197.9 1315.46 1202.66 1323.93 1219.11C1329.5 1229.92 1327.93 1243.45 1322.43 1254.35C1316.94 1265.26 1307.99 1273.96 1298.71 1281.81C1266.28 1309.27 1227.25 1329.27 1185.64 1336.47C1144.03 1343.68 1106.94 1341.4 1070.16 1320.68Z" fill="#E8505B"/>
<path d="M1060.15 1375.68C1067.67 1346.65 1079.83 1312.9 1097 1277.19C1114.09 1241.44 1136.08 1203.8 1160.44 1165.23C1166.56 1155.61 1172.61 1146.1 1178.57 1136.74C1184.55 1127.4 1190.47 1118.14 1196.82 1109.44C1209.46 1091.98 1222.94 1076.16 1236.2 1061.54C1249.46 1046.91 1262.58 1033.51 1274.93 1021.07C1287.32 1008.65 1299.09 997.298 1310.25 987.404C1332.53 967.526 1352.36 953.653 1366.36 944.684C1373.35 940.174 1378.89 936.856 1382.68 934.657C1384.5 933.615 1385.92 932.797 1387 932.183C1387.97 931.639 1388.49 931.375 1388.5 931.412C1388.53 931.449 1388.05 931.779 1387.11 932.39C1386.07 933.054 1384.68 933.936 1382.91 935.061C1379.21 937.39 1373.75 940.829 1366.83 945.445C1353 954.638 1333.4 968.668 1311.32 988.639C1300.26 998.583 1288.59 1009.98 1276.28 1022.44C1263.99 1034.93 1250.94 1048.36 1237.75 1062.99C1224.57 1077.61 1211.18 1093.4 1198.64 1110.78C1192.33 1119.45 1186.47 1128.63 1180.49 1137.99C1174.53 1147.36 1168.49 1156.86 1162.37 1166.48C1138.04 1205.02 1116.05 1242.53 1098.89 1278.12C1081.68 1313.67 1069.41 1347.22 1061.72 1376.1" fill="#263238"/>
<path d="M1197.49 1109.46C1197.33 1109.46 1197.22 1107.51 1197.14 1103.99C1197.05 1100.47 1197.09 1095.38 1197.23 1089.08C1197.5 1076.5 1198.46 1059.13 1199.59 1039.99C1200.73 1020.84 1201.44 1003.52 1201.52 990.962C1201.57 984.686 1201.57 979.606 1201.52 976.095C1201.49 972.58 1201.55 970.63 1201.7 970.62C1201.86 970.61 1202.1 972.543 1202.41 976.051C1202.73 979.556 1202.99 984.65 1203.14 990.942C1203.48 1003.54 1203.03 1020.95 1201.89 1040.12C1200.73 1059 1199.67 1076.09 1198.86 1089.14C1198.53 1095.04 1198.26 1100.01 1198.04 1104C1197.83 1107.51 1197.65 1109.46 1197.49 1109.46Z" fill="#263238"/>
<path d="M1361.14 1105.78C1361.12 1105.94 1358.82 1105.83 1354.68 1105.51C1350.55 1105.2 1344.57 1104.73 1337.16 1104.38C1322.36 1103.57 1301.88 1103.17 1279.26 1103.71C1256.63 1104.29 1236.18 1105.69 1221.42 1107.13C1214.03 1107.8 1208.06 1108.5 1203.94 1108.95C1199.81 1109.43 1197.52 1109.62 1197.49 1109.46C1197.47 1109.3 1199.72 1108.81 1203.81 1108.06C1207.91 1107.32 1213.86 1106.37 1221.25 1105.49C1236.01 1103.63 1256.52 1101.96 1279.21 1101.38C1301.9 1100.84 1322.46 1101.5 1337.28 1102.74C1344.69 1103.3 1350.67 1104.02 1354.78 1104.61C1358.9 1105.21 1361.16 1105.62 1361.14 1105.78Z" fill="#263238"/>
<path d="M1099.43 1274.59C1099.35 1274.61 1099.09 1273.88 1098.66 1272.48C1098.18 1270.8 1097.59 1268.76 1096.88 1266.29C1095.36 1260.91 1093.37 1253.06 1091.04 1243.34C1086.35 1223.89 1080.73 1196.83 1074.93 1166.88C1069.12 1136.92 1063.76 1109.84 1059.49 1090.33C1057.38 1080.84 1055.65 1073.03 1054.36 1067.23C1053.82 1064.71 1053.37 1062.64 1053.01 1060.93C1052.72 1059.49 1052.6 1058.72 1052.68 1058.69C1052.76 1058.68 1053.03 1059.4 1053.46 1060.81C1053.94 1062.49 1054.52 1064.52 1055.23 1067C1056.75 1072.38 1058.74 1080.22 1061.08 1089.95C1065.76 1109.39 1071.38 1136.46 1077.19 1166.42C1082.99 1196.37 1088.35 1223.45 1092.62 1242.96C1094.73 1252.45 1096.46 1260.26 1097.75 1266.06C1098.29 1268.58 1098.74 1270.66 1099.11 1272.36C1099.39 1273.8 1099.51 1274.57 1099.43 1274.59Z" fill="#263238"/>
<path d="M1321.57 1241.13C1321.58 1241.21 1320.81 1241.39 1319.34 1241.65C1317.6 1241.93 1315.46 1242.28 1312.87 1242.7C1306.91 1243.61 1298.87 1244.84 1289.08 1246.32C1268.98 1249.39 1241.29 1253.94 1210.68 1259.01C1180.07 1264.08 1152.3 1268.38 1132.14 1271.03C1122.06 1272.36 1113.89 1273.35 1108.24 1273.91C1105.62 1274.16 1103.47 1274.36 1101.72 1274.53C1100.22 1274.65 1099.43 1274.67 1099.43 1274.59C1099.42 1274.51 1100.19 1274.33 1101.66 1274.06C1103.4 1273.78 1105.54 1273.44 1108.13 1273.02C1114.09 1272.11 1122.13 1270.88 1131.92 1269.39C1152.01 1266.33 1179.71 1261.78 1210.32 1256.71C1240.92 1251.63 1268.69 1247.34 1288.85 1244.69C1298.93 1243.36 1307.1 1242.37 1312.76 1241.8C1315.37 1241.55 1317.52 1241.35 1319.28 1241.18C1320.77 1241.07 1321.56 1241.05 1321.57 1241.13Z" fill="#263238"/>
<path d="M508.634 570.097C498.317 562.096 493.704 547.926 495.86 535.048C498.016 522.17 506.328 510.771 517.1 503.387C522.08 499.972 528.248 497.265 534.043 498.971C539.457 500.563 543.229 505.831 544.324 511.365C545.419 516.903 544.238 522.651 542.392 527.985C536.056 546.277 526.573 562.817 508.634 570.097Z" fill="#455A64"/>
<path d="M491.707 601.344C471.369 582.792 441.707 575.027 414.887 581.236C408.057 582.818 400.37 586.427 399.245 593.346C398.12 600.279 404.309 606.154 410.384 609.676C435.659 624.33 469.9 621.576 492.509 603.067" fill="#455A64"/>
<path d="M393.717 456.682C404.99 453.591 417.347 456.371 427.324 462.463C437.301 468.555 445.106 477.695 451.358 487.572C463.455 506.682 467.714 532.364 468.251 554.973C443.153 553.958 421.71 534.234 411.459 523.542C395.259 506.648 376.236 466.275 393.717 456.682Z" fill="#455A64"/>
<path d="M529.667 635.485C528.195 632.815 525.798 630.929 523.405 626.025C518.695 616.232 512.346 602.306 509.269 585.729C506.204 569.126 508.281 553.461 512.403 543.223C514.413 538.079 516.662 534.19 518.475 531.703C520.271 529.207 521.462 527.988 521.576 528.078C522.01 528.359 517.57 533.626 514.089 543.83C510.514 553.935 508.785 569.099 511.762 585.275C514.76 601.458 520.748 615.327 525.031 625.274" fill="#263238"/>
<path d="M529.901 635.789C526.543 631.456 522.14 625.781 516.832 618.935C505.834 604.679 490.592 585.021 473.472 563.531C456.351 542.054 440.596 522.811 429.153 508.908C423.662 502.205 419.113 496.648 415.641 492.405C412.473 488.486 410.784 486.266 410.918 486.15C411.051 486.036 412.991 488.039 416.389 491.761C419.793 495.479 424.624 500.94 430.522 507.75C442.322 521.369 458.314 540.449 475.455 561.949C492.592 583.462 507.623 603.313 518.264 617.854C523.585 625.124 527.831 631.052 530.695 635.201" fill="#263238"/>
<path d="M430.559 596.087C430.519 595.917 432.064 595.453 434.911 594.755C436.33 594.378 438.086 593.99 440.155 593.753C442.222 593.49 444.568 593.049 447.199 592.999C452.443 592.589 458.731 592.809 465.634 593.7C472.514 594.738 479.998 596.534 487.515 599.405C494.999 602.372 501.731 606.101 507.503 609.986C513.197 613.995 517.981 618.084 521.569 621.93C523.472 623.742 524.907 625.655 526.249 627.244C527.614 628.819 528.646 630.288 529.437 631.526C531.066 633.966 530.835 635.108 530.692 635.205C530.291 635.495 527.734 630.358 520.304 623.198C516.626 619.586 511.829 615.734 506.198 611.922C500.486 608.234 493.894 604.662 486.594 601.765C479.26 598.967 471.987 597.148 465.284 596.007C458.561 595.012 452.419 594.611 447.269 594.788C436.958 595.045 430.659 596.571 430.559 596.087Z" fill="#263238"/>
<path d="M990.531 1447.81L604.993 1446.02C558.624 1445.81 521.202 1408.06 521.399 1361.69L525.485 395.132C525.682 348.738 563.458 311.288 609.856 311.502L995.398 313.285C1041.77 313.498 1079.19 351.254 1078.99 397.623L1074.91 1364.18C1074.71 1410.58 1036.93 1448.02 990.531 1447.81Z" fill="#263238"/>
<path d="M994.844 346.641L920.096 346.298C910.072 346.254 901.908 354.713 901.868 365.187L901.808 378.746C901.767 389.228 893.603 397.686 883.579 397.639L737.875 396.965C727.851 396.918 719.76 388.386 719.803 377.905L719.86 364.346C719.903 353.868 711.812 345.333 701.788 345.286L675.498 345.163L610.073 344.862C577.581 344.712 551.124 370.939 550.984 403.431L546.995 1346.86C546.858 1379.34 573.065 1405.78 605.54 1405.93L990.311 1407.71C1022.8 1407.86 1049.26 1381.63 1049.4 1349.14L1053.39 405.704C1053.52 373.232 1027.32 346.792 994.844 346.641Z" fill="#FAFAFA"/>
<path d="M777.086 1317.39C777.07 1321.15 773.501 1324.19 769.119 1324.17C764.736 1324.14 761.194 1321.08 761.208 1317.31C761.224 1313.54 764.793 1310.5 769.175 1310.53C773.558 1310.55 777.1 1313.62 777.086 1317.39Z" fill="#455A64"/>
<path d="M801.684 1317.5C801.667 1321.26 798.102 1324.3 793.716 1324.28C789.333 1324.26 785.792 1321.19 785.805 1317.42C785.822 1313.66 789.39 1310.62 793.773 1310.64C798.156 1310.66 801.701 1313.73 801.684 1317.5Z" fill="#455A64"/>
<path d="M826.285 1317.61C826.272 1321.37 822.703 1324.41 818.317 1324.39C813.935 1324.37 810.393 1321.3 810.406 1317.54C810.423 1313.77 813.991 1310.73 818.374 1310.75C822.757 1310.77 826.302 1313.84 826.285 1317.61Z" fill="#455A64"/>
<path d="M665.988 801.454C672.257 802.348 1050.48 876.529 1050.48 876.529V801.454H665.988Z" fill="#EBEBEB"/>
<path d="M546.995 1278.1C546.995 1278.1 958.423 1219.9 954.842 1221.69C951.26 1223.48 546.995 1221.69 546.995 1221.69V1278.1Z" fill="#EBEBEB"/>
<path d="M1024.8 176.597C1025.28 176.597 1025.66 197.399 1025.66 223.052C1025.66 248.714 1025.27 269.51 1024.8 269.51C1024.32 269.51 1023.93 248.714 1023.93 223.052C1023.92 197.399 1024.32 176.597 1024.8 176.597Z" fill="#E8505B"/>
<path d="M1189.43 283.513C1189.62 283.953 1170.75 292.706 1147.28 303.064C1123.8 313.425 1104.62 321.466 1104.43 321.025C1104.23 320.585 1123.1 311.832 1146.58 301.471C1170.05 291.117 1189.24 283.076 1189.43 283.513Z" fill="#E8505B"/>
<path d="M1185.27 121.38C1185.32 121.41 1185.01 122.024 1184.38 123.159C1183.63 124.447 1182.68 126.076 1181.52 128.082C1179.03 132.348 1175.3 138.447 1170.63 145.951C1161.29 160.948 1147.83 181.327 1132.6 203.554C1117.36 225.789 1103.76 246.034 1094.16 260.851C1089.46 268.121 1085.62 274.073 1082.81 278.412C1081.54 280.345 1080.5 281.917 1079.68 283.162C1078.95 284.237 1078.54 284.788 1078.49 284.758C1078.44 284.728 1078.74 284.114 1079.38 282.979C1080.13 281.69 1081.07 280.061 1082.24 278.055C1084.73 273.789 1088.46 267.691 1093.12 260.187C1102.47 245.189 1115.93 224.808 1131.16 202.573C1146.4 180.345 1160 160.104 1169.6 145.286C1174.3 138.016 1178.14 132.065 1180.95 127.722C1182.22 125.789 1183.26 124.217 1184.08 122.972C1184.81 121.897 1185.22 121.35 1185.27 121.38Z" fill="#E8505B"/>
<path d="M1416.07 514.359H663.534C647.282 514.359 634.106 527.534 634.106 543.787V777.217C634.106 793.469 647.282 806.644 663.534 806.644H719.599C724.116 831.022 729.4 861.778 729.4 861.778L780.144 806.644H1416.07C1432.32 806.644 1445.5 793.469 1445.5 777.217V543.787C1445.49 527.534 1432.32 514.359 1416.07 514.359Z" fill="#1E3F52"/>
<path d="M1105.59 640.979C1105.59 641.46 1016.02 641.847 905.559 641.847C795.061 641.847 705.513 641.457 705.513 640.979C705.513 640.499 795.061 640.112 905.559 640.112C1016.02 640.112 1105.59 640.499 1105.59 640.979Z" fill="white" stroke="white"/>
<path d="M1105.59 605.099C1105.59 605.58 1016.02 605.967 905.559 605.967C795.061 605.967 705.513 605.577 705.513 605.099C705.513 604.619 795.061 604.231 905.559 604.231C1016.02 604.228 1105.59 604.619 1105.59 605.099Z" fill="white" stroke="white"/>
<path d="M1105.59 676.466C1105.59 676.946 1016.02 677.334 905.559 677.334C795.061 677.334 705.513 676.943 705.513 676.466C705.513 675.985 795.061 675.598 905.559 675.598C1016.02 675.598 1105.59 675.985 1105.59 676.466Z" fill="white" stroke="white"/>
<path d="M967.569 713.224C967.569 713.704 908.901 714.092 836.55 714.092C764.172 714.092 705.516 713.701 705.516 713.224C705.516 712.746 764.172 712.356 836.55 712.356C908.901 712.356 967.569 712.746 967.569 713.224Z" fill="white" stroke="white"/>
<path d="M1076.05 934.026H317.344C305.971 934.026 296.755 943.245 296.755 954.615V1201.58C296.755 1212.95 305.974 1222.17 317.344 1222.17H868.377L918.537 1276.67C918.537 1276.67 923.801 1246.04 928.231 1222.17H1076.05C1087.42 1222.17 1096.64 1212.95 1096.64 1201.58V954.615C1096.64 943.245 1087.42 934.026 1076.05 934.026Z" fill="#AAC7D8"/>
<path d="M1046.29 1061.38C1046.29 1061.86 956.728 1062.25 846.267 1062.25C735.769 1062.25 646.22 1061.85 646.22 1061.38C646.22 1060.9 735.765 1060.51 846.267 1060.51C956.724 1060.51 1046.29 1060.9 1046.29 1061.38Z" fill="#F5F5F5"/>
<path d="M1046.29 1025.5C1046.29 1025.98 956.728 1026.36 846.267 1026.36C735.769 1026.36 646.22 1025.97 646.22 1025.5C646.22 1025.02 735.765 1024.63 846.267 1024.63C956.724 1024.63 1046.29 1025.02 1046.29 1025.5Z" fill="#F5F5F5"/>
<path d="M1046.29 1096.86C1046.29 1097.34 956.728 1097.73 846.267 1097.73C735.769 1097.73 646.22 1097.34 646.22 1096.86C646.22 1096.39 735.765 1096 846.267 1096C956.724 1096 1046.29 1096.38 1046.29 1096.86Z" fill="#F5F5F5"/>
<path d="M908.273 1133.62C908.273 1134.1 849.605 1134.49 777.253 1134.49C704.876 1134.49 646.22 1134.1 646.22 1133.62C646.22 1133.14 704.876 1132.75 777.253 1132.75C849.605 1132.75 908.273 1133.14 908.273 1133.62Z" fill="#F5F5F5"/>
<path d="M1226.89 415.351C1227.34 409.215 1221.87 400.754 1216.79 395.89C1211.72 391.027 1208.58 384.431 1211.22 374.624C1213.27 367.043 1218.07 367.611 1219.97 363.154C1221.38 359.856 1220.79 356.094 1221.08 352.519C1222.08 340.246 1235.58 330.625 1247.5 333.693C1250.86 322.02 1261.74 312.904 1273.82 311.649C1285.9 310.391 1298.43 317.07 1304.12 327.802C1311.01 324.217 1319.7 324.34 1326.49 328.119C1333.28 331.897 1337.96 339.214 1338.55 346.962C1345.27 342.108 1355.58 343.977 1360.9 350.336C1366.22 356.695 1366.54 366.432 1362.51 373.672C1358.47 380.912 1350.64 385.626 1342.45 386.884C1334.25 388.143 1325.78 386.207 1318.36 382.508C1310.94 378.81 1304.48 373.425 1298.6 367.58" fill="#263238"/>
<path d="M1281.47 798.927C1361.27 798.927 1425.97 735.748 1425.97 657.813C1425.97 579.878 1361.27 516.699 1281.47 516.699C1201.66 516.699 1136.97 579.878 1136.97 657.813C1136.97 735.748 1201.66 798.927 1281.47 798.927Z" fill="#E0E0E0"/>
<path d="M1426.56 657.933L1410.57 616.919L1353.25 652.933L1404.32 731.696C1404.32 731.696 1425.1 704.712 1426.56 657.933Z" fill="#EB996E"/>
<path d="M1268.31 569.132C1288.91 569.166 1305.91 553.163 1306.92 532.771C1307.77 515.788 1308.48 499.435 1308.48 499.435C1308.48 499.435 1340.02 497.148 1342.92 466.322C1345.83 435.495 1346.23 364.202 1346.23 364.202C1311.44 345.944 1269.42 347.766 1236.39 368.972L1233.39 370.898L1229.75 530.431C1229.51 551.715 1246.84 569.102 1268.31 569.132Z" fill="#FFBE9D"/>
<path d="M1286.41 411.625C1288.78 412.406 1290.07 414.953 1289.28 417.306C1288.49 419.663 1285.93 420.938 1283.55 420.157C1281.17 419.376 1279.88 416.829 1280.67 414.476C1281.46 412.119 1284.03 410.844 1286.41 411.625Z" fill="#263238"/>
<path d="M1295.04 413.228C1294.52 413.735 1291.6 411.215 1287.31 410.941C1283.02 410.604 1279.77 412.68 1279.33 412.103C1279.11 411.846 1279.65 410.911 1281.07 409.966C1282.47 409.025 1284.82 408.181 1287.5 408.371C1290.17 408.561 1292.38 409.733 1293.62 410.861C1294.89 412.003 1295.3 413.007 1295.04 413.228Z" fill="#263238"/>
<path d="M1333.47 411.625C1335.84 412.407 1337.14 414.953 1336.34 417.307C1335.56 419.663 1332.99 420.938 1330.61 420.157C1328.23 419.376 1326.95 416.829 1327.73 414.476C1328.52 412.119 1331.09 410.844 1333.47 411.625Z" fill="#263238"/>
<path d="M1342.68 413.325C1342.16 413.832 1339.24 411.312 1334.95 411.038C1330.66 410.701 1327.41 412.777 1326.97 412.203C1326.75 411.946 1327.29 411.011 1328.71 410.067C1330.11 409.125 1332.46 408.281 1335.14 408.471C1337.81 408.661 1340.01 409.833 1341.26 410.961C1342.53 412.096 1342.93 413.101 1342.68 413.325Z" fill="#263238"/>
<path d="M1310.3 446.658C1310.29 446.324 1312.99 446.003 1317.35 445.76C1318.48 445.73 1319.38 445.549 1319.51 444.959C1319.77 444.301 1319.43 443.079 1318.97 441.711C1318.09 438.81 1317.21 435.876 1316.28 432.802C1312.61 420.121 1310.15 409.693 1310.8 409.509C1311.45 409.325 1314.96 419.453 1318.64 432.134C1319.5 435.225 1320.32 438.179 1321.14 441.097C1321.44 442.415 1322.1 443.981 1321.37 445.766C1320.99 446.661 1320.05 447.252 1319.29 447.385C1318.53 447.549 1317.9 447.499 1317.36 447.479C1313 447.282 1310.3 446.991 1310.3 446.658Z" fill="#263238"/>
<path d="M1308.57 498.994C1308.57 498.994 1288.76 498.994 1268.91 484.287C1268.91 484.287 1276.69 507.269 1307.99 506.995L1308.57 498.994Z" fill="#EB996E"/>
<path d="M1232.63 416.182C1232.66 413.688 1230.74 411.535 1228.23 411.419C1222.42 411.145 1212.86 413.248 1211.65 429.14C1209.93 451.842 1232.1 446.601 1232.19 445.953C1232.26 445.446 1232.52 425.014 1232.63 416.182Z" fill="#FFBE9D"/>
<path d="M1227.31 436.924C1227.21 436.844 1226.89 437.171 1226.19 437.428C1225.51 437.675 1224.37 437.799 1223.2 437.265C1220.85 436.203 1219.1 432.244 1219.3 428.145C1219.4 426.076 1219.99 424.14 1220.85 422.568C1221.67 420.959 1222.84 419.88 1224.08 419.757C1225.31 419.57 1226.12 420.358 1226.35 421.019C1226.61 421.676 1226.43 422.12 1226.55 422.167C1226.61 422.23 1227.07 421.823 1226.96 420.872C1226.9 420.414 1226.66 419.857 1226.16 419.383C1225.64 418.899 1224.85 418.612 1224 418.639C1222.22 418.629 1220.51 420.121 1219.56 421.846C1218.52 423.576 1217.81 425.745 1217.7 428.072C1217.5 432.658 1219.54 437.115 1222.78 438.31C1224.36 438.847 1225.74 438.466 1226.47 437.982C1227.23 437.468 1227.39 436.971 1227.31 436.924Z" fill="#EB996E"/>
<path d="M1274.73 401.137C1275.86 402.593 1279.81 401.912 1284.93 401.695C1290.05 401.284 1294.06 401.478 1294.99 399.896C1296.05 398.247 1291.09 394.465 1284.49 395.006C1277.88 395.276 1273.46 399.632 1274.73 401.137Z" fill="#263238"/>
<path d="M1324.71 399.629C1325.33 401.611 1329.09 402.206 1333.26 402.179C1337.44 402.095 1341.18 401.401 1341.75 399.405C1342.34 397.466 1338.55 394.678 1333.17 394.755C1327.8 394.819 1324.08 397.703 1324.71 399.629Z" fill="#263238"/>
<path d="M1350.61 373.966C1350.61 373.966 1331.91 383.022 1307.56 370.872C1291.59 362.897 1272.96 359.002 1268.86 362.216C1264.75 365.427 1263.89 381.89 1248.06 386.694C1248.06 386.694 1249.15 418.101 1236.63 416.979C1224.11 415.858 1231.93 367.217 1231.93 367.217L1262.57 352.256L1296 345.94L1327.49 350.38L1351.86 357.052L1350.61 373.966Z" fill="#263238"/>
<path d="M1140.97 555.7C1173.7 522.036 1231.32 525.708 1231.32 525.708L1279.08 559.899L1306.16 528.368C1306.16 528.368 1334.62 531.493 1361.29 545.429L1363.13 545.996L1363.1 546.377C1384.05 557.753 1413.72 585.038 1441.98 611.515L1408.16 642.899L1370.73 676.125C1370.73 676.125 1370.88 676.365 1370.79 676.789C1370.4 678.802 1376 724.506 1381.73 759.241C1347.64 791.77 1304.19 805.696 1255.95 797.244C1240.63 794.561 1233.23 790.829 1219.05 787.11C1198.09 781.612 1182.9 763.444 1181.02 741.86C1178.47 712.746 1176.53 676.703 1176.53 676.703" fill="#455A64"/>
<path d="M1336.11 534.24C1336.22 534.203 1336.95 536.116 1338.16 539.611C1339.39 543.102 1341.05 548.19 1343.02 554.505C1346.97 567.133 1351.99 584.721 1356.73 604.345C1361.47 623.982 1365.03 641.921 1367.28 654.959C1368.42 661.478 1369.25 666.762 1369.76 670.43C1370.27 674.096 1370.5 676.128 1370.38 676.148C1370.26 676.168 1369.81 674.172 1369.09 670.544C1368.32 666.632 1367.3 661.455 1366.08 655.186C1363.51 642.224 1359.77 624.356 1355.04 604.755C1350.31 585.165 1345.48 567.56 1341.85 554.855C1340.08 548.717 1338.62 543.643 1337.52 539.811C1336.5 536.263 1335.99 534.277 1336.11 534.24Z" fill="#263238"/>
<path d="M1366.86 654.585C1366.55 654.214 1380.83 642.077 1398.75 627.484C1416.66 612.883 1431.43 601.354 1431.73 601.728C1432.04 602.098 1417.76 614.232 1399.84 628.832C1381.93 643.423 1367.16 654.955 1366.86 654.585Z" fill="#263238"/>
<path opacity="0.2" d="M1184.18 601.908L1154.88 698.289L1165.78 703.961L1176.53 676.703C1176.53 676.703 1187.58 619.439 1184.18 601.908Z" fill="black"/>
<g opacity="0.2">
<path d="M1332.93 534.3C1348.73 542.628 1309.14 562.663 1291.27 562.122L1304.25 527.868C1304.25 527.868 1327.63 531.506 1332.93 534.3Z" fill="black"/>
</g>
<path d="M1226.61 527.868V502.345C1226.61 502.345 1276.46 515.173 1278.27 545.002C1278.27 545.002 1284.61 512.032 1310.29 510.45L1313.92 556.828L1284.04 582.835H1253.74L1229.74 562.136L1226.61 529.931" fill="#455A64"/>
<path d="M1289.49 688.068C1289.37 688.062 1289.35 686.106 1289.4 682.577C1289.48 679.053 1289.54 673.949 1289.56 667.647C1289.6 655.042 1289.21 637.628 1287.62 618.468C1286.02 599.304 1283.53 582.06 1281.41 569.636C1280.35 563.655 1279.47 558.704 1278.79 554.936C1278.16 551.468 1277.86 549.535 1277.97 549.508C1278.09 549.481 1278.61 551.364 1279.46 554.795C1280.31 558.224 1281.4 563.217 1282.62 569.416C1285.06 581.813 1287.74 599.091 1289.35 618.324C1290.94 637.551 1291.14 655.036 1290.78 667.663C1290.61 673.979 1290.35 679.086 1290.07 682.608C1289.81 686.132 1289.61 688.075 1289.49 688.068Z" fill="#263238"/>
<path d="M1275.98 536.416C1275.96 536.563 1274.85 535.986 1273.02 536.69C1271.11 537.304 1269.41 539.678 1268.02 543.062C1264.96 549.698 1261.17 559.258 1258.53 570.641L1258.27 571.779L1257.26 571.172C1254.28 569.372 1251.23 567.426 1248.16 565.34C1242.2 561.284 1236.75 557.152 1231.99 553.06C1229.6 551.003 1227.62 548.507 1226.49 545.856C1225.37 543.202 1224.94 540.549 1224.81 538.159C1224.62 533.355 1225.41 529.57 1225.92 526.997C1226.48 524.42 1226.9 523.024 1227.01 523.048C1227.14 523.071 1226.94 524.516 1226.58 527.113C1226.27 529.7 1225.69 533.482 1226.04 538.079C1226.23 540.365 1226.72 542.849 1227.81 545.269C1228.91 547.685 1230.71 549.895 1233.05 551.858C1237.76 555.797 1243.24 559.896 1249.13 563.905C1252.18 565.974 1255.2 567.914 1258.15 569.72L1256.88 570.25C1259.63 558.738 1263.67 549.137 1267.02 542.582C1267.85 540.946 1268.65 539.431 1269.65 538.286C1270.62 537.124 1271.81 536.416 1272.83 536.129C1274.94 535.538 1276.06 536.39 1275.98 536.416Z" fill="#263238"/>
<path d="M1310.3 510.45C1310.42 510.447 1310.57 511.866 1310.76 514.436C1310.98 517.363 1311.24 520.995 1311.56 525.298C1311.93 529.874 1312.49 535.312 1313.43 541.3C1313.79 544.254 1314.83 547.465 1314.02 551.097C1312.99 554.665 1310.31 557.326 1307.47 559.472C1303.48 562.44 1299.3 564.659 1296.5 567.804L1295.17 569.292L1295.04 567.306C1294.35 556.765 1290.83 548.089 1287.68 542.448C1284.51 536.764 1281.9 533.84 1282.1 533.673C1282.17 533.613 1282.88 534.284 1284.07 535.642C1285.25 537.007 1286.86 539.097 1288.59 541.918C1292.05 547.509 1295.88 556.331 1296.71 567.193L1295.25 566.695C1298.3 563.231 1302.61 560.937 1306.42 558.087C1309.13 556.064 1311.53 553.557 1312.37 550.673C1313.09 547.749 1312.2 544.561 1311.84 541.534C1310.98 535.479 1310.55 529.988 1310.33 525.378C1310.11 520.768 1310.07 517.036 1310.08 514.459C1310.1 511.879 1310.17 510.454 1310.3 510.45Z" fill="#263238"/>
<path d="M1470.75 516.853C1468.72 519.239 1395.33 617.373 1395.33 617.373L1405.66 623.228L1480.97 526.342L1470.75 516.853Z" fill="#263238"/>
<path d="M1175.92 594.441C1175.92 594.441 1253.13 705.576 1257.78 707.763C1266.94 712.062 1372.57 620.788 1382.64 612.056C1384.02 610.203 1386.89 606.288 1392.52 598.503C1392.52 598.503 1400.85 560.37 1409.75 563.301C1418.64 566.232 1404.87 582.678 1410.67 597.165C1416.46 611.652 1442.98 577.097 1444.04 573.996L1450.88 565.06C1450.88 565.06 1458.06 585.398 1457.57 593.89C1456.01 621.095 1430.27 653.45 1430.27 653.45C1430.27 653.45 1314.68 796.644 1235.5 801.087C1212.7 802.365 1172.17 737.658 1145.07 689.137C1128.71 659.836 1136.88 622.921 1163.99 603.147L1175.92 594.441Z" fill="#FFBE9D"/>
<path d="M1444.58 598.72C1444.32 598.563 1446.79 594.191 1449.52 588.653C1452.27 583.118 1454.24 578.505 1454.53 578.612C1454.78 578.706 1453.23 583.529 1450.46 589.117C1447.7 594.708 1444.81 598.867 1444.58 598.72Z" fill="#EB996E"/>
<path d="M1162.85 540.205C1162.85 540.205 1079.98 569.666 1141.6 709.021L1237.26 651.284L1223.65 618.698L1162.85 540.205Z" fill="#455A64"/>
<path d="M1156.5 542.615C1156.5 542.615 1160.12 542.018 1166.48 543.453C1169.62 544.261 1173.39 545.649 1177.35 548.039C1181.31 550.413 1185.42 553.751 1189.42 557.943C1197.46 566.325 1204.97 578.025 1211.93 591.573C1218.94 605.122 1225.48 620.554 1232.19 636.77C1234.2 641.627 1236.18 646.413 1238.05 650.95L1238.35 651.667L1237.67 652.038C1209.99 667.126 1185.89 681.256 1168.86 691.83C1160.34 697.108 1153.55 701.444 1148.89 704.458C1146.66 705.887 1144.88 707.032 1143.52 707.906C1142.29 708.68 1141.63 709.064 1141.6 709.018C1141.56 708.971 1142.16 708.5 1143.34 707.636C1144.51 706.781 1146.25 705.509 1148.54 703.934C1153.09 700.753 1159.79 696.263 1168.24 690.849C1185.13 680 1209.16 665.674 1236.85 650.523L1236.46 651.611C1234.58 647.078 1232.6 642.291 1230.58 637.434C1223.88 621.225 1217.4 605.817 1210.51 592.304C1203.66 578.789 1196.33 567.146 1188.53 558.788C1184.65 554.605 1180.67 551.267 1176.84 548.867C1173.01 546.447 1169.36 545.002 1166.31 544.107C1160.13 542.495 1156.49 542.855 1156.5 542.615Z" fill="#263238"/>
<path d="M1334.77 336.006C1334.83 335.993 1334.97 336.49 1335.18 337.462C1335.34 338.436 1335.54 339.898 1335.42 341.788C1335.24 345.493 1333.89 351.231 1329.1 356.238C1324.47 361.255 1315.67 364.423 1306.8 361.869C1302.45 360.601 1298.06 357.954 1295.38 353.591C1294.07 351.431 1293.29 348.744 1293.67 346.054C1294.03 343.42 1295.36 340.75 1297.77 339.164C1300.18 337.532 1303.34 337.579 1305.78 338.65C1308.26 339.702 1310.3 341.718 1311.26 344.154C1313.22 349.055 1311.77 354.349 1309.07 358.027C1303.32 365.638 1292.93 366.252 1287.18 362.784C1284.14 361.389 1281.46 360.073 1278.94 359.619C1276.42 359.105 1274.19 359.543 1272.56 360.29C1269.28 361.866 1267.96 363.608 1267.81 363.418C1267.77 363.378 1268.1 362.984 1268.79 362.27C1269.13 361.909 1269.54 361.459 1270.15 361.041C1270.72 360.591 1271.39 360.073 1272.27 359.676C1273.95 358.785 1276.38 358.197 1279.1 358.658C1281.82 359.052 1284.65 360.35 1287.67 361.652C1289.19 362.27 1290.78 362.941 1292.49 363.244C1294.15 363.531 1296.02 363.498 1297.86 363.144C1301.54 362.483 1305.31 360.464 1307.78 357.072C1310.19 353.755 1311.39 348.924 1309.69 344.802C1308.2 340.773 1302.58 338.046 1298.72 340.609C1296.84 341.835 1295.69 344.048 1295.38 346.274C1295.07 348.517 1295.7 350.78 1296.84 352.71C1299.19 356.588 1303.23 359.115 1307.25 360.324C1315.5 362.78 1323.78 359.973 1328.23 355.363C1332.86 350.747 1334.37 345.299 1334.75 341.724C1335.14 338.073 1334.58 336.03 1334.77 336.006Z" fill="#455A64"/>
<path d="M1316.72 461.882C1316.76 462.093 1315.7 462.533 1313.86 462.61C1312.04 462.697 1309.45 462.29 1306.93 461.025C1304.41 459.749 1302.55 457.913 1301.53 456.398C1300.5 454.876 1300.22 453.761 1300.41 453.668C1300.85 453.404 1303.08 457.206 1307.71 459.472C1312.29 461.849 1316.67 461.372 1316.72 461.882Z" fill="#263238"/>
<path d="M1229.19 447.125C1229.34 446.982 1230.28 448.594 1229.06 450.89C1228.47 451.965 1227.36 453.127 1225.66 453.591C1223.96 454.068 1221.93 453.507 1220.48 452.232C1219.01 450.967 1218.2 449.084 1218.28 447.385C1218.34 445.693 1219.05 444.321 1219.81 443.39C1221.41 441.504 1223.04 441.33 1223.07 441.517C1223.19 441.768 1221.89 442.358 1220.8 444.108C1219.68 445.76 1219.24 448.944 1221.62 450.92C1222.72 451.872 1224.13 452.286 1225.3 452.032C1226.48 451.795 1227.45 451.014 1228.03 450.236C1229.24 448.61 1228.91 447.162 1229.19 447.125Z" fill="#263238"/>
<path d="M1340.26 347.252C1340.42 347.172 1341.65 349.388 1341.87 353.384C1342.12 357.296 1340.98 363.114 1336.92 367.831C1332.82 372.527 1327.22 374.473 1323.31 374.781C1319.33 375.131 1316.96 374.226 1317.02 374.06C1317.06 373.762 1319.44 374.203 1323.15 373.562C1326.8 372.968 1331.87 370.972 1335.6 366.689C1339.31 362.39 1340.57 357.093 1340.64 353.391C1340.75 349.632 1339.98 347.332 1340.26 347.252Z" fill="#455A64"/>
<path d="M1227.38 626.539C1227.6 626.97 1205.59 638.286 1178.23 651.815C1150.86 665.347 1128.51 675.965 1128.3 675.534C1128.08 675.104 1150.09 663.788 1177.46 650.256C1204.81 636.727 1227.17 626.109 1227.38 626.539Z" fill="#E0E0E0"/>
<path d="M1207.32 588.679C1207.55 589.103 1187.95 600.059 1163.56 613.15C1139.17 626.245 1119.21 636.513 1118.98 636.092C1118.75 635.669 1138.34 624.713 1162.74 611.618C1187.13 598.53 1207.09 588.259 1207.32 588.679Z" fill="#E0E0E0"/>
<path d="M1187.94 558.067C1188.06 558.287 1184.28 560.45 1178.14 563.865C1171.58 567.527 1163.32 572.136 1154.18 577.234C1145.09 582.418 1136.87 587.107 1130.34 590.829C1124.24 594.314 1120.43 596.427 1120.3 596.217C1120.18 596.017 1123.76 593.536 1129.7 589.774C1135.65 586.013 1143.97 580.996 1153.32 575.718C1162.67 570.447 1171.27 565.918 1177.57 562.777C1183.86 559.636 1187.84 557.86 1187.94 558.067Z" fill="#E0E0E0"/>
<path d="M1261.25 550.827C1261.2 551.027 1258.63 550.69 1254.8 549.091C1250.97 547.525 1246.01 544.511 1241.3 540.305C1236.6 536.1 1232.95 531.723 1230.42 528.516C1227.89 525.291 1226.47 523.198 1226.65 523.048C1226.84 522.891 1228.6 524.714 1231.35 527.721C1234.12 530.712 1237.87 534.904 1242.46 539.007C1247.05 543.109 1251.72 546.17 1255.32 547.976C1258.91 549.812 1261.32 550.563 1261.25 550.827Z" fill="#E0E0E0"/>
<path d="M1309.94 532.748C1310.37 532.871 1308.34 538.302 1303.01 542.752C1297.71 547.252 1292.02 548.316 1291.97 547.879C1291.8 547.382 1296.93 545.649 1301.89 541.42C1306.9 537.264 1309.48 532.498 1309.94 532.748Z" fill="#E0E0E0"/>
<path d="M1396.74 582.982C1396.75 583.042 1396.11 583.159 1394.88 583.329C1393.46 583.502 1391.69 583.723 1389.51 583.99C1384.84 584.507 1378.08 585.158 1369.71 585.809C1352.96 587.144 1329.8 588.453 1304.19 589.384C1278.58 590.278 1255.38 590.626 1238.58 590.489C1230.18 590.435 1223.39 590.268 1218.7 590.088C1216.51 589.975 1214.72 589.885 1213.3 589.811C1212.06 589.728 1211.41 589.658 1211.42 589.598C1211.42 589.537 1212.07 589.494 1213.31 589.461C1214.74 589.447 1216.52 589.431 1218.71 589.411C1223.64 589.374 1230.37 589.32 1238.58 589.26C1255.36 589.083 1278.54 588.543 1304.13 587.648C1329.72 586.717 1352.87 585.602 1369.62 584.584C1377.81 584.06 1384.53 583.633 1389.45 583.319C1391.64 583.182 1393.42 583.072 1394.85 582.982C1396.08 582.922 1396.73 582.922 1396.74 582.982Z" fill="#E0E0E0"/>
<path d="M1370.38 622.56C1370.39 622.68 1368.44 622.981 1364.89 623.425C1361.35 623.865 1356.21 624.423 1349.85 624.99C1337.14 626.162 1319.53 627.374 1300.07 628.165C1280.6 628.946 1262.95 629.159 1250.18 629.016C1243.8 628.959 1238.63 628.822 1235.07 628.665C1231.5 628.508 1229.53 628.365 1229.53 628.245C1229.53 628.125 1231.5 628.041 1235.07 627.988C1238.94 627.934 1244.03 627.868 1250.18 627.784C1262.93 627.611 1280.55 627.203 1300 626.426C1319.44 625.634 1337.03 624.62 1349.75 623.762C1355.89 623.348 1360.97 623.007 1364.83 622.747C1368.39 622.517 1370.37 622.443 1370.38 622.56Z" fill="#E0E0E0"/>
<path d="M1310.55 671.385C1310.57 671.619 1306.34 672.24 1299.48 672.944C1292.62 673.652 1283.12 674.409 1272.62 674.937C1262.1 675.458 1252.57 675.645 1245.68 675.625C1238.78 675.605 1234.52 675.404 1234.52 675.171C1234.51 674.924 1238.77 674.69 1245.65 674.396C1253.03 674.069 1262.29 673.658 1272.53 673.204C1282.77 672.64 1292.02 672.13 1299.39 671.722C1306.26 671.329 1310.52 671.138 1310.55 671.385Z" fill="#E0E0E0"/>
<path d="M1234.05 555.533C1234.04 556.031 1223.8 556.141 1211.2 556.668C1198.59 557.176 1188.38 557.907 1188.33 557.409C1188.27 556.952 1198.46 555.44 1211.13 554.929C1223.8 554.402 1234.07 555.073 1234.05 555.533Z" fill="#E0E0E0"/>
<path d="M1374.87 553.731C1374.87 554.211 1361.59 554.549 1345.21 554.488C1328.83 554.425 1315.55 553.988 1315.55 553.507C1315.56 553.026 1328.83 552.689 1345.22 552.749C1361.6 552.809 1374.87 553.25 1374.87 553.731Z" fill="#E0E0E0"/>
<path d="M1380 756.848C1380.05 756.958 1378.96 757.572 1376.96 758.594C1374.96 759.632 1371.99 760.991 1368.28 762.549C1360.85 765.674 1350.29 769.362 1338.29 772.136C1326.28 774.893 1315.18 776.198 1307.13 776.642C1303.11 776.869 1299.85 776.943 1297.59 776.886C1295.34 776.846 1294.1 776.766 1294.1 776.646C1294.09 776.369 1299.06 776.175 1307.04 775.414C1315.01 774.66 1325.99 773.174 1337.9 770.44C1349.8 767.687 1360.33 764.215 1367.83 761.401C1375.33 758.597 1379.88 756.594 1380 756.848Z" fill="#E0E0E0"/>
<path d="M478.315 1211.18C558.122 1211.18 622.817 1149.46 622.817 1073.33C622.817 997.204 558.122 935.488 478.315 935.488C398.509 935.488 333.813 997.204 333.813 1073.33C333.813 1149.46 398.509 1211.18 478.315 1211.18Z" fill="#E0E0E0"/>
<path d="M448.874 740.976C425.949 742.171 416.95 766.068 414.209 771.402C411.469 776.736 411.038 782.914 410.537 788.889C410.033 794.865 409.326 801.07 406.138 806.154C401.091 814.205 390.493 818.367 387.602 827.423C384.334 837.661 392.719 848.613 390.486 859.124C389.288 864.766 385.168 869.409 383.71 874.993C382.191 880.821 383.773 887.12 386.804 892.324C394.335 905.256 409.94 911.751 424.897 912.285C439.852 912.819 454.482 908.346 468.775 903.92" fill="#263238"/>
<path d="M549.749 770.677C547.505 775.531 549.625 781.422 553.143 785.448C556.662 789.474 561.388 792.208 565.551 795.559C569.713 798.91 573.538 803.333 574.022 808.657C574.466 813.544 572.01 818.394 572.677 823.258C574.39 835.755 594.317 839.504 595.379 852.071C596.087 860.44 587.498 868.127 589.878 876.182C590.789 879.269 593.179 881.659 594.842 884.417C600.496 893.806 596.661 906.761 588.466 914.041C580.271 921.321 568.879 923.888 557.93 924.379C548.72 924.793 538.259 923.287 532.838 915.834C527.875 909.014 528.893 899.711 529.884 891.336C534.514 852.222 533.726 812.69 532.932 773.311" fill="#263238"/>
<path d="M454.896 951.701C455.07 931.149 454.879 909.512 454.879 909.512C454.879 909.512 428.456 904.808 423.372 870.207C418.522 837.207 426.747 766.228 426.747 766.228C465.027 751.13 508.13 756.972 534.948 787.781L530.775 954.668C530.291 974.042 513.248 989.056 492.509 988.379C471.559 987.694 454.729 971.281 454.896 951.701Z" fill="#FFBE9D"/>
<path d="M433.94 820.727C433.83 823.067 435.719 825.087 438.159 825.247C440.596 825.407 442.662 823.645 442.772 821.305C442.883 818.968 440.993 816.942 438.557 816.782C436.116 816.625 434.05 818.391 433.94 820.727Z" fill="#263238"/>
<path d="M426.813 817.303C427.354 817.887 430.742 815.443 435.509 815.51C444.478 816.809 444.315 818.181 444.265 817.423C444.522 817.166 443.974 816.118 442.462 814.993C440.977 813.871 438.43 812.766 435.462 812.746C432.491 812.73 429.981 813.791 428.536 814.896C427.054 816.001 426.546 817.042 426.813 817.303Z" fill="#263238"/>
<path d="M482.725 822.136C482.615 824.476 484.504 826.496 486.944 826.656C489.381 826.816 491.447 825.054 491.557 822.714C491.667 820.377 489.778 818.351 487.341 818.191C484.905 818.031 482.835 819.796 482.725 822.136Z" fill="#263238"/>
<path d="M476.53 818.948C477.074 819.533 480.462 817.089 485.225 817.156C489.988 817.156 493.457 819.649 493.981 819.069C494.238 818.812 493.694 817.763 492.178 816.639C490.693 815.517 488.146 814.412 485.178 814.392C482.208 814.375 479.697 815.437 478.249 816.542C476.777 817.65 476.266 818.688 476.53 818.948Z" fill="#263238"/>
<path d="M458.821 853.143C458.848 852.873 455.891 852.325 451.094 851.657C449.879 851.517 448.731 851.264 448.534 850.429C448.257 849.548 448.781 848.239 449.388 846.831C450.567 843.897 451.802 840.826 453.097 837.604C458.247 824.466 461.993 813.658 461.462 813.454C460.931 813.25 456.325 823.735 451.174 836.873C449.932 840.115 448.747 843.202 447.619 846.156C447.142 847.535 446.331 849.094 446.932 850.926C447.249 851.841 448.133 852.512 448.911 852.729C449.689 852.976 450.373 852.996 450.974 853.039C455.804 853.357 458.801 853.413 458.821 853.143Z" fill="#263238"/>
<path d="M454.879 909.512C454.879 909.512 478.098 911.277 501.278 897.708C501.278 897.708 489.781 921.305 455.25 917.673L454.879 909.512Z" fill="#EB996E"/>
<path d="M460.704 864.655C462.443 862.409 465.461 861.201 468.442 861.555C470.508 861.802 472.587 862.823 473.822 864.522C475.061 866.221 475.295 868.614 474.136 870.207C472.828 871.999 470.137 872.386 467.868 871.715C465.601 871.041 463.658 869.522 461.816 868.007C461.305 867.59 460.784 867.152 460.47 866.582C460.157 866.011 460.097 865.27 460.497 864.806" fill="#EB996E"/>
<path d="M472.814 856.604C472.04 856.551 471.97 861.725 467.5 865.347C463.037 868.982 457.526 868.334 457.48 869.058C457.403 869.382 458.695 870.077 461.025 870.167C463.308 870.27 466.649 869.576 469.386 867.363C472.113 865.143 473.312 862.152 473.512 860.029C473.729 857.866 473.168 856.578 472.814 856.604Z" fill="#263238"/>
<path d="M519.944 763.13C507.306 781.155 473.846 799.688 449.886 803.991C452.683 800.309 467.4 791.236 470.197 787.551C459.336 795.662 443.794 806.511 429.384 807.245C427.681 807.332 425.835 807.329 424.43 806.474C422.521 805.309 422.13 803.049 421.91 801.047C420.979 792.601 421.563 778.125 422.908 769.746C424.25 761.368 428.102 753.029 435.372 747.412C444.605 740.282 457.817 738.519 470.264 738.222C480.705 737.972 491.467 738.589 501.011 742.358C510.554 746.126 518.715 753.57 520.114 762.523" fill="#263238"/>
<path d="M556.178 843.88C557.917 834.941 559.305 826.455 559.629 820.791C560.647 802.966 555.5 737.177 494.044 742.471L491.564 761.188C491.564 761.188 482.067 825.257 521.82 825.731C521.82 825.731 524.016 844.818 542.018 863.387C542.018 863.387 552.442 863.073 556.178 843.88Z" fill="#263238"/>
<path d="M521.82 825.731C525.521 825.06 529.423 825.207 532.928 826.572C536.433 827.938 539.501 830.591 540.98 834.05C542.465 837.518 542.265 841.56 540.946 845.092C539.628 848.627 537.261 851.691 534.547 854.308C532.598 856.187 530.385 857.899 527.791 858.681C525.198 859.462 522.16 859.171 520.11 857.399" fill="#FFBE9D"/>
<path d="M523.602 848.146C523.178 848.279 524.757 850.532 528.145 849.661C529.774 849.251 531.38 847.842 532.361 846.066C533.349 844.264 534 842.281 534.27 839.958C534.531 837.654 534.033 835.198 532.785 833.439C531.593 831.646 529.627 830.571 527.965 830.518C524.493 830.401 523.388 832.794 523.782 832.868C524.056 833.151 525.418 831.926 527.688 832.501C529.861 832.924 531.967 835.952 531.453 839.677C530.996 843.473 529.497 846.934 527.464 847.779C525.345 848.827 523.836 847.842 523.602 848.146Z" fill="#EB996E"/>
<path d="M528.526 756.374C533.229 759.058 538.993 759.816 544.227 758.437C549.465 757.062 554.111 753.567 556.885 748.92C558.678 745.92 559.706 742.281 558.828 738.9C557.626 734.277 553.13 731.152 548.507 729.951C541.797 728.205 534.197 729.877 529.13 734.604C524.059 739.33 521.876 747.064 524.126 753.62C526.376 760.176 533.145 765.016 540.065 764.619" fill="#263238"/>
<path d="M534.13 856.013C530.709 858.48 527.251 860.987 524.577 864.252C521.903 867.516 520.067 871.675 520.454 875.874C520.671 878.224 521.569 880.544 521.229 882.881C520.761 886.092 518.124 888.469 516.385 891.209C511.889 898.293 513.822 908.236 519.506 914.405C525.191 920.577 533.826 923.361 542.215 923.635C547.078 923.795 552.185 923.111 556.171 920.32C561.919 916.298 564.129 908.757 564.276 901.741" fill="#263238"/>
<path d="M538.303 770.16C538.483 770.267 537.264 772.777 534.681 776.459C532.107 780.141 528.058 784.921 522.844 789.413C517.617 793.896 512.28 797.181 508.254 799.17C504.225 801.17 501.561 801.998 501.481 801.804C501.231 801.3 511.492 796.964 521.709 788.095C532.01 779.333 537.842 769.836 538.303 770.16Z" fill="#455A64"/>
<path d="M544.678 769.823C544.868 769.843 544.745 773.114 543.547 778.245C542.362 783.368 539.888 790.311 535.739 797.234C531.566 804.147 526.59 809.585 522.617 813.03C518.642 816.495 515.814 818.134 515.704 817.977C515.294 817.546 526.142 810.006 534.25 796.337C542.522 782.781 544.104 769.659 544.678 769.823Z" fill="#455A64"/>
<path d="M411.245 797.642C411.756 797.605 412.413 803.39 414.409 810.216C416.359 817.059 418.886 822.303 418.432 822.543C418.051 822.78 414.757 817.757 412.737 810.697C410.684 803.65 410.798 797.645 411.245 797.642Z" fill="#455A64"/>
<path d="M558.464 915.737C558.554 915.527 560.013 917.296 563.548 917.369C565.26 917.386 567.42 916.892 569.429 915.517C571.432 914.165 573.075 911.738 573.882 908.77C574.69 905.786 574.707 902.311 573.946 898.71C573.225 895.088 571.819 891.339 570.581 887.254C569.376 883.185 568.325 878.608 569.099 873.802C569.867 868.908 573.038 864.943 574.583 860.55C576.159 856.164 575.525 851.307 573.595 847.378C571.619 843.396 568.298 840.502 564.446 839.016C562.533 838.198 560.557 837.511 558.718 836.509C556.892 835.528 555.186 834.163 554.148 832.414C552.008 828.895 552.092 825.073 552.082 821.912C552.142 818.678 552.316 815.847 551.738 813.424C551.221 811 550.316 809.018 549.235 807.676C546.991 804.925 544.618 805.119 544.732 804.892C544.728 804.862 545.246 804.782 546.187 805.002C547.125 805.206 548.5 805.847 549.749 807.235C550.997 808.614 552.049 810.677 552.686 813.204C553.387 815.744 553.294 818.761 553.31 821.909C553.377 825.037 553.45 828.655 555.363 831.633C557.232 834.697 561.118 835.969 565.067 837.531C569.139 839.033 572.994 842.288 575.117 846.607C577.247 850.883 577.971 856.23 576.222 861.114C574.487 865.901 571.439 869.716 570.775 874.075C570.04 878.425 570.972 882.794 572.117 886.79C573.285 890.809 574.667 894.637 575.358 898.423C576.089 902.191 576.012 905.913 575.061 909.098C574.109 912.279 572.243 914.889 569.964 916.311C567.707 917.736 565.36 918.154 563.521 918.03C561.659 917.923 560.313 917.262 559.526 916.722C558.728 916.191 558.464 915.737 558.464 915.737Z" fill="#455A64"/>
<path d="M534.367 913.39C534.521 913.293 534.804 914.462 536.423 915.196C537.879 915.9 541.127 915.947 542.899 913.44C544.705 910.917 544.425 906.668 542.358 902.992C540.456 899.217 536.674 895.525 535.709 890.011C535.198 887.347 535.836 884.313 537.568 882.31C539.197 880.297 541.12 878.952 542.368 877.306C544.885 873.978 545.099 869.809 544.692 866.648C544.264 863.407 543.336 860.85 542.779 859.074C542.191 857.298 541.894 856.297 542.008 856.254C542.115 856.21 542.625 857.118 543.41 858.831C544.164 860.55 545.292 863.073 545.907 866.468C546.477 869.789 546.477 874.332 543.643 878.275C542.225 880.187 540.282 881.596 538.904 883.365C537.478 885.081 537.011 887.37 537.421 889.73C538.206 894.527 541.757 898.169 543.777 902.255C545.937 906.277 546.224 911.17 543.89 914.165C542.762 915.7 541.05 916.338 539.655 916.481C538.226 916.621 536.977 916.318 536.11 915.797C534.327 914.709 534.304 913.34 534.367 913.39Z" fill="#455A64"/>
<path d="M403.521 904.668C403.434 904.741 402.449 903.8 400.804 901.954C399.208 900.088 396.778 897.351 394.979 893.179C394.091 891.096 393.51 888.599 393.577 885.892C393.637 883.211 394.435 880.197 396.518 877.804C398.587 875.404 401.588 874.165 403.397 871.916C405.267 869.692 405.504 866.428 404.779 863.327C404.058 860.166 402.603 857.332 401.117 854.505C399.679 851.667 398.357 848.783 397.873 845.746C397.339 842.731 398.006 839.564 399.592 837.317C401.131 835.041 403.06 833.485 404.679 832.016C408.047 829.249 409.953 826.232 410.377 823.885C410.844 821.538 410.04 820.253 410.234 820.207C410.274 820.187 410.497 820.464 410.738 821.088C410.985 821.705 411.202 822.713 411.045 823.992C410.821 826.569 408.845 829.99 405.51 832.924C403.935 834.453 402.115 836.042 400.8 838.108C399.452 840.148 398.951 842.775 399.452 845.492C399.926 848.216 401.194 850.953 402.633 853.733C404.105 856.484 405.704 859.535 406.475 862.95C407.279 866.291 407.046 870.267 404.719 872.997C402.449 875.664 399.465 876.819 397.719 878.869C395.913 880.868 395.132 883.502 395.016 885.952C394.895 888.422 395.356 890.742 396.117 892.725C397.666 896.727 399.899 899.554 401.324 901.527C402.803 903.49 403.618 904.588 403.521 904.668Z" fill="#455A64"/>
<path d="M542.725 760.737C542.255 760.977 539.931 755.863 534.587 751.898C529.313 747.832 523.762 746.991 523.866 746.47C523.796 746.026 529.911 746.126 535.635 750.509C541.414 754.828 543.173 760.683 542.725 760.737Z" fill="#E8505B"/>
<path d="M547.549 728.775C547.722 728.665 548.841 729.971 549.745 732.564C550.653 735.118 551.17 739.053 550.039 743.156C548.904 747.258 546.437 750.369 544.348 752.095C542.245 753.854 540.612 754.401 540.522 754.218C540.382 753.984 541.747 753.073 543.503 751.204C545.256 749.358 547.335 746.41 548.363 742.695C549.388 738.976 549.118 735.381 548.56 732.898C548.013 730.391 547.308 728.906 547.549 728.775Z" fill="#455A64"/>
<path opacity="0.3" d="M378.042 1139.4C378.042 1139.4 460.974 1218.16 510.273 1203.9C559.572 1189.64 574.163 1152.65 574.163 1152.65L575.358 1139.41L570.418 1136.18L380.619 1120.81L378.042 1139.4Z" fill="black"/>
<path d="M328.977 1065.63L344.969 1024.62L402.292 1060.63L351.214 1139.4C351.214 1139.4 330.439 1112.42 328.977 1065.63Z" fill="#EB996E"/>
<path d="M393.667 952.318C420.338 938.385 454.879 934.37 454.879 934.37C464.907 954.438 496.501 956.985 515.631 943.289L531.763 932.384C531.763 932.384 534.26 932.284 538.523 932.661C576.259 935.999 607.145 964.181 614.84 1001.27C617.64 1014.78 619.7 1030.27 618.872 1044.64C616.776 1081.1 579.01 1084.4 579.01 1084.4C579.01 1084.4 577.067 1120.45 574.517 1149.56V1149.56C572.621 1171.32 561.335 1187.57 541.487 1196.67C526.716 1203.45 518.565 1206.58 499.385 1209.65C451.021 1217.38 404.566 1199.02 373.933 1166.21C379.661 1131.48 385.135 1086.51 384.745 1084.49C384.661 1084.07 384.808 1083.83 384.808 1083.83L347.379 1050.6L326.166 1032.79C326.166 1032.79 372.718 963.694 393.667 952.318Z" fill="#E8505B"/>
<path d="M440.045 974.789C439.905 975.133 436.851 972.226 430.792 972.229C427.861 972.239 424.23 973.087 421.249 975.54C419.763 976.735 418.498 978.421 417 980.104C415.534 981.749 413.635 983.628 410.941 984.123C408.247 984.63 405.754 983.442 403.891 982.233C401.969 981.005 400.323 979.656 398.634 978.688C395.333 976.665 391.577 976.856 388.84 977.834C386.053 978.812 384.204 980.484 383.149 981.759C382.097 983.058 381.717 983.942 381.573 983.882C381.497 983.859 381.66 982.871 382.602 981.362C383.546 979.883 385.405 977.914 388.403 976.685C391.3 975.457 395.62 975.077 399.418 977.293C401.281 978.314 402.97 979.663 404.789 980.791C406.585 981.926 408.605 982.801 410.627 982.413C412.65 982.06 414.292 980.557 415.728 978.965C417.187 977.373 418.522 975.627 420.241 974.292C423.656 971.615 427.658 970.857 430.806 971.004C434 971.151 436.46 972.132 437.956 973.044C439.468 973.972 440.099 974.729 440.045 974.789Z" fill="#FAFAFA"/>
<path d="M478.078 1024.62C477.835 1024.9 475.872 1021.17 470.127 1019.24C467.347 1018.31 463.635 1017.96 460.026 1019.33C458.237 1019.99 456.502 1021.18 454.542 1022.3C452.626 1023.39 450.226 1024.56 447.519 1024.17C444.805 1023.79 442.822 1021.87 441.44 1020.13C440.012 1018.35 438.884 1016.54 437.595 1015.09C435.115 1012.11 431.493 1011.1 428.589 1011.15C425.635 1011.18 423.349 1012.18 421.943 1013.05C420.535 1013.94 419.887 1014.66 419.77 1014.56C419.703 1014.51 420.174 1013.63 421.553 1012.5C422.921 1011.4 425.315 1010.13 428.542 1009.92C431.68 1009.68 435.893 1010.7 438.787 1014.02C440.225 1015.58 441.397 1017.4 442.759 1019.05C444.101 1020.7 445.73 1022.17 447.776 1022.45C449.806 1022.76 451.842 1021.86 453.711 1020.81C455.6 1019.77 457.423 1018.54 459.479 1017.82C463.571 1016.38 467.604 1016.94 470.541 1018.08C473.522 1019.24 475.541 1020.96 476.666 1022.3C477.791 1023.66 478.152 1024.58 478.078 1024.62Z" fill="#FAFAFA"/>
<path d="M562.557 951.654C562.49 952.017 558.891 949.824 552.97 951.11C550.109 951.74 546.738 953.336 544.344 956.367C543.146 957.849 542.268 959.765 541.157 961.728C540.072 963.647 538.613 965.884 536.086 966.938C533.559 968.003 530.872 967.369 528.796 966.585C526.656 965.793 524.764 964.822 522.908 964.231C519.256 962.953 515.624 963.934 513.157 965.47C510.641 967.015 509.185 969.041 508.428 970.51C507.676 972.002 507.49 972.947 507.336 972.917C507.256 972.91 507.209 971.912 507.807 970.236C508.417 968.591 509.819 966.271 512.487 964.438C515.057 962.622 519.199 961.341 523.382 962.699C525.418 963.303 527.357 964.261 529.373 964.979C531.37 965.707 533.526 966.137 535.422 965.326C537.321 964.552 538.61 962.736 539.678 960.877C540.766 959.011 541.701 957.021 543.099 955.352C545.87 952.014 549.622 950.422 552.729 949.901C555.884 949.367 558.494 949.804 560.15 950.382C561.819 950.973 562.597 951.58 562.557 951.654Z" fill="#FAFAFA"/>
<path d="M523.575 1006.42C523.328 1006.65 521.906 1003.76 517.58 1002.12C515.487 1001.34 512.673 1000.96 509.9 1001.88C508.528 1002.32 507.159 1003.18 505.6 1003.98C504.081 1004.76 502.149 1005.61 499.996 1005.2C497.839 1004.79 496.344 1003.19 495.333 1001.79C494.284 1000.36 493.487 998.93 492.559 997.775C490.796 995.438 488.109 994.534 485.893 994.45C481.27 994.313 479.133 996.931 478.98 996.63C478.91 996.573 479.287 995.889 480.382 995.038C481.47 994.213 483.372 993.282 485.903 993.219C488.356 993.122 491.637 994.06 493.797 996.757C494.865 998.025 495.713 999.467 496.698 1000.77C497.669 1002.08 498.837 1003.22 500.326 1003.49C503.394 1004.03 506.211 1001.27 509.416 1000.35C512.673 999.374 515.801 999.968 518.041 1000.98C522.684 1003.12 523.749 1006.46 523.575 1006.42Z" fill="#FAFAFA"/>
<path d="M437.602 1052.56C437.358 1052.79 435.933 1049.89 431.607 1048.26C429.514 1047.47 426.7 1047.09 423.926 1048.02C422.557 1048.46 421.185 1049.31 419.627 1050.11C418.108 1050.89 416.175 1051.74 414.022 1051.33C411.866 1050.93 410.37 1049.33 409.359 1047.93C408.311 1046.49 407.513 1045.07 406.585 1043.91C404.823 1041.57 402.132 1040.67 399.919 1040.58C395.296 1040.45 393.16 1043.07 393.006 1042.76C392.936 1042.71 393.313 1042.02 394.408 1041.17C395.496 1040.35 397.399 1039.42 399.929 1039.35C402.382 1039.26 405.664 1040.19 407.823 1042.89C408.892 1044.16 409.739 1045.6 410.724 1046.91C411.695 1048.21 412.864 1049.35 414.353 1049.62C417.424 1050.16 420.237 1047.4 423.442 1046.49C426.7 1045.51 429.828 1046.1 432.067 1047.11C436.71 1049.26 437.779 1052.59 437.602 1052.56Z" fill="#FAFAFA"/>
<path d="M517.971 1053.59C517.814 1053.89 515.527 1051.61 510.911 1051.47C508.678 1051.4 505.891 1051.96 503.567 1053.73C502.412 1054.59 501.391 1055.84 500.179 1057.1C498.994 1058.33 497.439 1059.76 495.272 1060.07C493.103 1060.39 491.167 1059.35 489.758 1058.36C488.303 1057.34 487.084 1056.25 485.833 1055.46C483.409 1053.82 480.572 1053.83 478.452 1054.47C474.033 1055.83 472.858 1059 472.617 1058.77C472.534 1058.74 472.668 1057.97 473.429 1056.81C474.193 1055.67 475.692 1054.18 478.065 1053.3C480.358 1052.41 483.763 1052.24 486.68 1054.09C488.102 1054.94 489.371 1056.04 490.726 1056.95C492.068 1057.88 493.543 1058.58 495.039 1058.35C498.116 1057.87 499.889 1054.34 502.623 1052.44C505.39 1050.46 508.541 1050.01 510.988 1050.25C516.058 1050.76 518.148 1053.57 517.971 1053.59Z" fill="#FAFAFA"/>
<path d="M491.424 1090.25C491.267 1090.55 488.98 1088.27 484.364 1088.13C482.131 1088.06 479.344 1088.62 477.02 1090.39C475.865 1091.25 474.844 1092.5 473.632 1093.77C472.447 1094.99 470.892 1096.42 468.725 1096.73C466.556 1097.05 464.62 1096.02 463.211 1095.02C461.756 1094 460.537 1092.91 459.285 1092.12C456.862 1090.48 454.025 1090.49 451.905 1091.13C447.486 1092.49 446.311 1095.67 446.07 1095.43C445.987 1095.4 446.12 1094.63 446.881 1093.47C447.646 1092.33 449.145 1090.84 451.518 1089.96C453.811 1089.08 457.216 1088.9 460.133 1090.75C461.555 1091.61 462.824 1092.7 464.179 1093.62C465.521 1094.54 466.996 1095.24 468.492 1095.01C471.569 1094.53 473.342 1091 476.076 1089.1C478.843 1087.12 481.994 1086.67 484.441 1086.9C489.511 1087.42 491.601 1090.23 491.424 1090.25Z" fill="#FAFAFA"/>
<path d="M435.362 1181.25C435.118 1181.48 433.653 1178.61 429.307 1177.04C427.204 1176.28 424.383 1175.94 421.623 1176.91C420.257 1177.37 418.899 1178.24 417.353 1179.07C415.845 1179.87 413.925 1180.74 411.766 1180.36C409.603 1179.99 408.084 1178.41 407.056 1177.03C405.988 1175.6 405.166 1174.19 404.222 1173.05C402.426 1170.74 399.725 1169.87 397.512 1169.82C392.889 1169.75 390.79 1172.4 390.629 1172.1C390.559 1172.04 390.926 1171.35 392.008 1170.48C393.086 1169.64 394.975 1168.69 397.502 1168.59C399.956 1168.46 403.247 1169.35 405.447 1172.02C406.535 1173.27 407.399 1174.7 408.404 1175.99C409.396 1177.28 410.577 1178.4 412.073 1178.65C415.15 1179.15 417.928 1176.35 421.119 1175.39C424.363 1174.37 427.498 1174.92 429.751 1175.9C434.424 1177.97 435.539 1181.28 435.362 1181.25Z" fill="#FAFAFA"/>
<path d="M500.96 1200.61C500.797 1200.9 498.547 1198.59 493.93 1198.38C491.697 1198.29 488.903 1198.8 486.553 1200.54C485.385 1201.38 484.35 1202.62 483.119 1203.87C481.917 1205.08 480.342 1206.49 478.172 1206.77C475.995 1207.05 474.076 1205.99 472.684 1204.98C471.242 1203.94 470.04 1202.83 468.799 1202.02C466.399 1200.35 463.561 1200.32 461.432 1200.93C456.995 1202.23 455.777 1205.39 455.537 1205.15C455.453 1205.11 455.597 1204.35 456.378 1203.2C457.156 1202.08 458.678 1200.61 461.061 1199.76C463.364 1198.91 466.773 1198.78 469.663 1200.67C471.075 1201.54 472.327 1202.65 473.669 1203.59C474.997 1204.53 476.463 1205.25 477.962 1205.04C481.046 1204.6 482.868 1201.11 485.629 1199.24C488.423 1197.3 491.581 1196.89 494.024 1197.16C499.088 1197.75 501.137 1200.59 500.96 1200.61Z" fill="#FAFAFA"/>
<path d="M284.791 924.556C286.818 926.943 360.207 1025.08 360.207 1025.08L349.876 1030.93L274.564 934.046L284.791 924.556Z" fill="#263238"/>
<path d="M571.245 994.57C571.245 994.57 502.409 1113.28 497.756 1115.46C488.593 1119.76 382.969 1028.49 372.898 1019.76C371.509 1017.9 368.645 1013.99 363.017 1006.2C363.017 1006.2 354.686 968.07 345.79 971.001C336.898 973.932 350.664 990.378 344.872 1004.87C339.081 1019.36 312.557 984.8 311.492 981.699L304.653 972.76C304.653 972.76 297.479 993.098 297.967 1001.59C299.522 1028.79 325.261 1061.15 325.261 1061.15C325.261 1061.15 429.854 1192.21 509.035 1196.66C531.84 1197.93 575.401 1132.28 602.496 1083.76C618.858 1054.46 611.264 1024.69 584.147 1004.92L571.245 994.57Z" fill="#FFBE9D"/>
<path d="M310.961 1006.42C310.731 1006.57 307.837 1002.41 305.08 996.817C302.306 991.229 300.754 986.406 301.014 986.312C301.295 986.206 303.267 990.819 306.014 996.353C308.745 1001.89 311.218 1006.26 310.961 1006.42Z" fill="#EB996E"/>
<path d="M568.007 961.548C565.287 963.18 501.277 1082.01 501.277 1082.01L583.673 1146.55C583.673 1146.55 605.106 1093.75 616.412 1050.83C619.479 1039.18 617.897 1008.04 613.568 996.032C607.413 978.965 598.13 983.215 584.23 973.217L568.007 961.548Z" fill="#E8505B"/>
<g opacity="0.7">
<path d="M595.075 961.548C595.025 961.621 594.267 961.09 592.725 960.316C591.206 959.538 588.733 958.597 585.482 958.794C582.234 958.901 578.412 960.479 574.73 963.283C571.032 966.087 567.42 970.056 564.005 974.836C560.524 979.583 557.65 985.368 554.135 991.403C550.683 997.465 547.001 1003.93 543.129 1010.73C535.335 1024.35 526.786 1039.28 517.807 1054.97C512.33 1064.49 507.012 1073.73 502.012 1082.43L501.798 1081.35C524.116 1098.98 543.54 1114.33 557.546 1125.4C564.336 1130.85 569.803 1135.24 573.722 1138.38C575.495 1139.85 576.916 1141.02 578.011 1141.92C578.976 1142.74 579.467 1143.19 579.433 1143.23C579.403 1143.27 578.853 1142.9 577.828 1142.16C576.69 1141.32 575.211 1140.22 573.365 1138.85C569.373 1135.79 563.801 1131.54 556.882 1126.25C542.782 1115.3 523.228 1100.12 500.757 1082.67L500.179 1082.23L500.543 1081.59C505.527 1072.89 510.831 1063.64 516.292 1054.12C525.311 1038.46 533.9 1023.55 541.727 1009.96C545.646 1003.19 549.375 996.754 552.873 990.715C556.421 984.75 559.409 978.902 563.014 974.119C566.545 969.312 570.291 965.32 574.156 962.506C577.998 959.692 582.044 958.126 585.458 958.12C588.873 958.023 591.4 959.114 592.892 960.006C593.683 960.396 594.184 960.863 594.561 961.107C594.918 961.374 595.092 961.524 595.075 961.548Z" fill="black"/>
</g>
<path d="M570.474 1072.97C570.227 1073.2 568.805 1070.31 564.479 1068.68C562.386 1067.89 559.572 1067.51 556.798 1068.44C555.43 1068.88 554.058 1069.73 552.499 1070.53C550.98 1071.31 549.048 1072.16 546.895 1071.75C544.738 1071.35 543.239 1069.75 542.231 1068.35C541.183 1066.91 540.385 1065.48 539.457 1064.33C537.695 1061.99 535.008 1061.09 532.795 1061C528.172 1060.87 526.035 1063.48 525.882 1063.18C525.812 1063.13 526.189 1062.44 527.284 1061.59C528.372 1060.77 530.275 1059.84 532.805 1059.77C535.258 1059.67 538.54 1060.61 540.699 1063.31C541.767 1064.58 542.615 1066.02 543.6 1067.33C544.571 1068.63 545.74 1069.77 547.228 1070.04C550.299 1070.58 553.113 1067.82 556.318 1066.9C559.576 1065.93 562.703 1066.52 564.943 1067.53C569.58 1069.68 570.648 1073.01 570.474 1072.97Z" fill="#FAFAFA"/>
<path d="M608.134 1057.6C607.836 1057.76 607.242 1054.58 603.52 1051.85C601.718 1050.53 599.111 1049.4 596.19 1049.55C594.751 1049.6 593.199 1050.05 591.487 1050.41C589.815 1050.75 587.722 1051.04 585.762 1050.07C583.796 1049.1 582.785 1047.15 582.191 1045.53C581.57 1043.87 581.182 1042.28 580.602 1040.91C579.534 1038.19 577.19 1036.59 575.081 1035.91C570.668 1034.54 567.904 1036.48 567.834 1036.15C567.784 1036.08 568.328 1035.52 569.613 1034.99C570.885 1034.49 572.968 1034.11 575.421 1034.73C577.811 1035.3 580.715 1037.09 582.067 1040.27C582.755 1041.78 583.182 1043.4 583.776 1044.92C584.36 1046.44 585.175 1047.85 586.537 1048.52C589.347 1049.86 592.805 1047.97 596.137 1047.95C599.538 1047.88 602.389 1049.3 604.271 1050.88C608.164 1054.19 608.29 1057.69 608.134 1057.6Z" fill="#FAFAFA"/>
<path d="M610.066 1008.48C609.769 1008.63 609.175 1005.46 605.453 1002.73C603.651 1001.41 601.044 1000.28 598.123 1000.43C596.684 1000.48 595.132 1000.93 593.42 1001.28C591.747 1001.62 589.654 1001.92 587.695 1000.95C585.729 999.975 584.717 998.029 584.123 996.41C583.502 994.744 583.115 993.155 582.534 991.79C581.466 989.066 579.123 987.467 577.013 986.793C572.6 985.414 569.837 987.357 569.766 987.027C569.713 986.953 570.261 986.396 571.546 985.872C572.817 985.371 574.9 984.99 577.354 985.611C579.744 986.182 582.648 987.968 584 991.149C584.687 992.658 585.111 994.277 585.709 995.799C586.293 997.318 587.111 998.733 588.469 999.394C591.28 1000.74 594.738 998.843 598.069 998.827C601.471 998.763 604.321 1000.18 606.204 1001.76C610.1 1005.07 610.226 1008.57 610.066 1008.48Z" fill="#FAFAFA"/>
<path d="M591.837 1121.41C591.54 1121.56 590.95 1118.39 587.224 1115.66C585.422 1114.33 582.815 1113.21 579.894 1113.35C578.455 1113.41 576.903 1113.86 575.191 1114.21C573.518 1114.55 571.426 1114.85 569.466 1113.87C567.5 1112.9 566.489 1110.96 565.894 1109.34C565.274 1107.67 564.886 1106.08 564.306 1104.72C563.237 1101.99 560.894 1100.4 558.785 1099.72C554.368 1098.34 551.608 1100.29 551.538 1099.95C551.484 1099.88 552.032 1099.32 553.317 1098.8C554.589 1098.3 556.672 1097.92 559.125 1098.54C561.515 1099.11 564.419 1100.9 565.771 1104.08C566.459 1105.59 566.886 1107.2 567.483 1108.73C568.068 1110.25 568.882 1111.66 570.244 1112.32C573.054 1113.67 576.513 1111.77 579.844 1111.75C583.245 1111.69 586.096 1113.11 587.979 1114.68C591.867 1117.99 591.994 1121.49 591.837 1121.41Z" fill="#FAFAFA"/>
</svg>
