<svg width="522" height="480" viewBox="0 0 522 480" fill="none" xmlns="http://www.w3.org/2000/svg">
<path d="M345.014 82.9319C347.499 68.9711 337.205 55.8017 322.023 53.5171C306.841 51.2325 292.519 60.6979 290.034 74.6587C287.55 88.6194 297.843 101.789 313.026 104.074C328.208 106.358 342.53 96.8927 345.014 82.9319Z" fill="#EBEBEB"/>
<path d="M345.049 83.3209C347.42 69.9995 337.598 57.4332 323.111 55.2532C308.624 53.0733 294.958 62.1052 292.587 75.4265C290.217 88.7479 300.039 101.314 314.526 103.494C329.013 105.674 342.679 96.6422 345.049 83.3209Z" fill="#DBDBDB"/>
<path d="M328.186 100.571C340.922 95.8015 347.042 82.441 341.854 70.7299C336.667 59.0187 322.137 53.3918 309.402 58.1617C296.666 62.9317 290.546 76.2922 295.734 88.0033C300.921 99.7145 315.451 105.341 328.186 100.571Z" fill="white"/>
<path d="M319.124 58.1415H318.487V61.6119H319.124V58.1415Z" fill="#EBEBEB"/>
<path d="M307.541 60.8452L306.989 61.1384L308.875 64.1441L309.428 63.8509L307.541 60.8452Z" fill="#EBEBEB"/>
<path d="M298.957 68.4933L298.639 69.0005L301.908 70.7358L302.227 70.2286L298.957 68.4933Z" fill="#EBEBEB"/>
<path d="M299.486 79.0848H295.712V79.6704H299.486V79.0848Z" fill="#EBEBEB"/>
<path d="M301.911 87.997L298.642 89.7334L298.961 90.2405L302.229 88.5041L301.911 87.997Z" fill="#EBEBEB"/>
<path d="M308.857 94.609L306.972 97.6154L307.525 97.9083L309.41 94.9019L308.857 94.609Z" fill="#EBEBEB"/>
<path d="M319.124 97.1415H318.487V100.612H319.124V97.1415Z" fill="#EBEBEB"/>
<path d="M328.749 94.6057L328.196 94.899L330.084 97.9044L330.636 97.6111L328.749 94.6057Z" fill="#EBEBEB"/>
<path d="M335.687 88.0079L335.368 88.515L338.637 90.2502L338.955 89.7431L335.687 88.0079Z" fill="#EBEBEB"/>
<path d="M341.899 79.0848H338.124V79.6704H341.899V79.0848Z" fill="#EBEBEB"/>
<path d="M338.634 68.4982L335.366 70.2334L335.684 70.7405L338.952 69.0053L338.634 68.4982Z" fill="#EBEBEB"/>
<path d="M330.077 60.8481L328.192 63.8545L328.744 64.1475L330.63 61.1411L330.077 60.8481Z" fill="#EBEBEB"/>
<path d="M322.506 72.0437L311.582 91.7911L312.15 92.0566L323.074 72.3092L322.506 72.0437Z" fill="#EBEBEB"/>
<path d="M317.538 71.5269L316.706 71.6801L321.361 93.0747L322.193 92.9216L317.538 71.5269Z" fill="#DBDBDB"/>
<path d="M236.999 244.629H57.75V54.3024H236.999V244.629ZM61.926 240.789H232.823V58.1424H61.926V240.789Z" fill="#EBEBEB"/>
<path d="M147.835 59.1455H143.659V242.709H147.835V59.1455Z" fill="#EBEBEB"/>
<path d="M240.784 62.0649H53.9644V67.4121H240.784V62.0649Z" fill="#EBEBEB"/>
<path d="M240.784 68.0803H53.9644V73.4275H240.784V68.0803Z" fill="#EBEBEB"/>
<path d="M240.784 74.0967H53.9644V79.4439H240.784V74.0967Z" fill="#EBEBEB"/>
<path d="M240.784 80.1119H53.9644V85.4591H240.784V80.1119Z" fill="#EBEBEB"/>
<path d="M240.784 86.1273H53.9644V91.4745H240.784V86.1273Z" fill="#EBEBEB"/>
<path d="M240.784 92.1427H53.9644V97.4899H240.784V92.1427Z" fill="#EBEBEB"/>
<path d="M240.784 98.1591H53.9644V103.506H240.784V98.1591Z" fill="#EBEBEB"/>
<path d="M240.784 104.174H53.9644V109.522H240.784V104.174Z" fill="#EBEBEB"/>
<path d="M240.784 110.191H53.9644V115.538H240.784V110.191Z" fill="#EBEBEB"/>
<path d="M228.381 60.9801H227.337V184.232H228.381V60.9801Z" fill="#263238"/>
<path d="M229.715 188.704H226.008L226.937 183.808H228.785L229.715 188.704Z" fill="#263238"/>
<path d="M232.144 60.9801H231.1V239.283H232.144V60.9801Z" fill="#263238"/>
<path d="M233.475 242.882H229.769L230.698 237.986H232.546L233.475 242.882Z" fill="#263238"/>
<path d="M247.264 53.5516H47.4834V64.7385H247.264V53.5516Z" fill="#DBDBDB"/>
<path d="M479.694 97.5966H367.066V228.016H479.694V97.5966Z" fill="#EBEBEB"/>
<path d="M465.358 124.545H381.016V127.011H465.358V124.545Z" fill="#DBDBDB"/>
<path d="M452.439 129.705H381.016V132.171H452.439V129.705Z" fill="#DBDBDB"/>
<path d="M435.483 134.865H381.016V137.331H435.483V134.865Z" fill="#DBDBDB"/>
<path d="M462.415 140.025H381.016V142.491H462.415V140.025Z" fill="#DBDBDB"/>
<path d="M455.492 145.185H381.016V147.651H455.492V145.185Z" fill="#DBDBDB"/>
<path d="M458.299 155.505H381.016V157.971H458.299V155.505Z" fill="#DBDBDB"/>
<path d="M410.623 160.665H381.016V163.131H410.623V160.665Z" fill="#DBDBDB"/>
<path d="M440.719 165.825H381.016V168.291H440.719V165.825Z" fill="#DBDBDB"/>
<path d="M462.415 170.985H381.016V173.451H462.415V170.985Z" fill="#DBDBDB"/>
<path d="M451.208 176.144H381.016V178.61H451.208V176.144Z" fill="#DBDBDB"/>
<path d="M457.073 186.464H381.016V188.93H457.073V186.464Z" fill="#DBDBDB"/>
<path d="M427.059 191.624H381.016V194.09H427.059V191.624Z" fill="#DBDBDB"/>
<path d="M427.059 207.246H381.016V209.712H427.059V207.246Z" fill="#DBDBDB"/>
<path d="M458.258 217.554C462.968 217.554 466.787 214.043 466.787 209.711C466.787 205.379 462.968 201.868 458.258 201.868C453.547 201.868 449.728 205.379 449.728 209.711C449.728 214.043 453.547 217.554 458.258 217.554Z" fill="#D14852"/>
<path d="M393.56 107.649C394.636 107.649 395.626 107.993 396.389 108.535C396.528 108.638 396.552 108.834 396.44 108.938C396.339 109.076 396.14 109.088 396.014 108.996C395.339 108.513 394.487 108.213 393.561 108.213C391.37 108.213 389.617 109.79 389.617 111.759C389.617 113.682 391.371 115.26 393.561 115.26C394.488 115.26 395.339 114.983 395.989 114.477C396.141 114.385 396.34 114.408 396.428 114.546C396.553 114.65 396.529 114.857 396.39 114.949C395.627 115.49 394.637 115.824 393.561 115.824C391.044 115.824 389.004 114.005 389.004 111.759C389.002 109.468 391.042 107.66 393.56 107.649Z" fill="#A6A6A6"/>
<path d="M402.643 107.649C404.983 107.649 406.825 109.479 406.837 111.735C406.825 113.992 404.984 115.823 402.643 115.823C400.275 115.823 398.423 113.992 398.41 111.735C398.423 109.479 400.275 107.649 402.643 107.649ZM402.643 115.26C404.571 115.26 406.197 113.705 406.211 111.736C406.197 109.744 404.571 108.225 402.643 108.225C400.652 108.225 399.023 109.744 399.023 111.736C399.023 113.705 400.652 115.26 402.643 115.26Z" fill="#A6A6A6"/>
<path d="M409.761 108.949V115.547C409.761 115.696 409.622 115.823 409.46 115.823C409.297 115.823 409.16 115.696 409.16 115.547V108.155C409.122 108.039 409.16 107.924 409.272 107.844C409.41 107.763 409.61 107.786 409.697 107.913L415.006 114.683V108.12C415.006 107.97 415.145 107.844 415.307 107.844C415.482 107.844 415.62 107.97 415.62 108.12V115.547C415.62 115.696 415.482 115.823 415.307 115.823C415.206 115.823 415.131 115.789 415.069 115.719C415.056 115.708 415.031 115.696 415.019 115.673L409.761 108.949Z" fill="#A6A6A6"/>
<path d="M420.922 108.328H418.281C418.118 108.328 417.98 108.202 417.98 108.04C417.98 107.891 418.118 107.764 418.281 107.764H424.166C424.329 107.764 424.466 107.891 424.466 108.04C424.466 108.202 424.329 108.328 424.166 108.328H421.524V115.548C421.524 115.697 421.387 115.824 421.224 115.824C421.061 115.824 420.923 115.697 420.923 115.548V108.328H420.922Z" fill="#A6A6A6"/>
<path d="M431.131 114.004C431.131 113.416 430.807 113.048 430.417 112.784C430.029 112.53 429.566 112.404 429.402 112.382C429.365 112.37 429.352 112.358 429.34 112.358H427.211V115.548C427.211 115.697 427.073 115.824 426.898 115.824C426.735 115.824 426.597 115.697 426.597 115.548V108.04C426.597 107.902 426.722 107.775 426.874 107.764H426.898H426.935H429.377C430.754 107.764 431.869 108.788 431.869 110.067C431.869 110.988 431.281 111.782 430.429 112.151C430.466 112.174 430.504 112.186 430.554 112.209C431.13 112.508 431.732 113.096 431.732 114.005C431.732 114.477 431.782 114.764 431.843 114.938C431.893 115.076 431.956 115.122 431.969 115.134C432.106 115.122 432.256 115.191 432.307 115.318C432.343 115.468 432.269 115.629 432.106 115.687C432.094 115.687 432.031 115.698 431.956 115.698H431.931C431.768 115.698 431.506 115.583 431.367 115.33C431.219 115.064 431.131 114.684 431.131 114.004ZM429.378 108.328H427.212V111.806H429.316H429.428C430.443 111.782 431.269 111.011 431.269 110.067C431.269 109.099 430.417 108.328 429.378 108.328Z" fill="#A6A6A6"/>
<path d="M439.4 113.74H435.406L434.63 115.64C434.58 115.755 434.467 115.824 434.342 115.824C434.318 115.824 434.268 115.813 434.229 115.813C434.078 115.755 433.991 115.582 434.054 115.444L437.096 107.971C437.146 107.868 437.271 107.798 437.397 107.798C437.534 107.798 437.66 107.868 437.697 107.971L440.74 115.444C440.801 115.582 440.727 115.755 440.577 115.813C440.527 115.813 440.503 115.824 440.465 115.824C440.352 115.824 440.227 115.755 440.177 115.64L439.4 113.74ZM435.63 113.175H439.175L437.409 108.846L435.63 113.175Z" fill="#A6A6A6"/>
<path d="M446.367 107.649C447.443 107.649 448.433 107.993 449.196 108.535C449.335 108.638 449.359 108.834 449.247 108.938C449.146 109.076 448.946 109.088 448.821 108.996C448.145 108.513 447.294 108.213 446.367 108.213C444.175 108.213 442.422 109.79 442.422 111.759C442.422 113.682 444.176 115.26 446.367 115.26C447.294 115.26 448.145 114.983 448.795 114.477C448.946 114.385 449.146 114.408 449.233 114.546C449.359 114.65 449.335 114.857 449.196 114.949C448.433 115.49 447.443 115.824 446.367 115.824C443.85 115.824 441.81 114.005 441.81 111.759C441.809 109.468 443.85 107.66 446.367 107.649Z" fill="#A6A6A6"/>
<path d="M454.121 108.328H451.48C451.317 108.328 451.179 108.202 451.179 108.04C451.179 107.891 451.317 107.764 451.48 107.764H457.365C457.528 107.764 457.666 107.891 457.666 108.04C457.666 108.202 457.528 108.328 457.365 108.328H454.724V115.548C454.724 115.697 454.586 115.824 454.423 115.824C454.26 115.824 454.122 115.697 454.122 115.548V108.328H454.121Z" fill="#A6A6A6"/>
<path d="M268.298 351.499H475.122L479.424 273.463H263.996L268.298 351.499Z" fill="#EBEBEB"/>
<path d="M465.32 309.184H378.852L377.231 282.092H467.211L465.32 309.184ZM379.841 308.224H464.34L466.098 283.052H378.334L379.841 308.224Z" fill="#DBDBDB"/>
<path d="M463.724 340.352H382.239L380.915 315.897H465.385L463.724 340.352ZM383.232 339.392H462.743L464.274 316.857H382.012L383.232 339.392Z" fill="#DBDBDB"/>
<path d="M430.411 298.576H415.882L414.965 292.043H431.328L430.411 298.576ZM416.8 297.616H429.494L430.141 293.003H416.152L416.8 297.616Z" fill="#DBDBDB"/>
<path d="M430.411 331.391H415.882L414.965 324.856H431.328L430.411 331.391ZM416.8 330.431H429.494L430.141 325.816H416.152L416.8 330.431Z" fill="#DBDBDB"/>
<path d="M363.612 309.184H277.145L275.522 282.092H365.505L363.612 309.184ZM278.134 308.224H362.633L364.391 283.052H276.626L278.134 308.224Z" fill="#DBDBDB"/>
<path d="M362.017 340.352H280.532L279.208 315.897H363.678L362.017 340.352ZM281.525 339.392H361.036L362.567 316.857H280.305L281.525 339.392Z" fill="#DBDBDB"/>
<path d="M328.705 298.576H314.175L313.259 292.043H329.621L328.705 298.576ZM315.093 297.616H327.787L328.434 293.003H314.446L315.093 297.616Z" fill="#DBDBDB"/>
<path d="M328.705 331.391H314.175L313.259 324.856H329.621L328.705 331.391ZM315.093 330.431H327.787L328.434 325.816H314.446L315.093 330.431Z" fill="#DBDBDB"/>
<path d="M286.846 351.499L285.547 360L282.935 377.082H277.828V351.499H286.846Z" fill="#EBEBEB"/>
<path d="M286.846 351.499L285.547 360H277.828V351.499H286.846Z" fill="#DBDBDB"/>
<path d="M456.574 351.499L457.872 360L460.485 377.082H465.593V351.499H456.574Z" fill="#EBEBEB"/>
<path d="M456.574 351.499L457.872 360H465.593V351.499H456.574Z" fill="#DBDBDB"/>
<path d="M261 453.992C365.038 453.992 449.377 443.889 449.377 431.427C449.377 418.965 365.038 408.862 261 408.862C156.962 408.862 72.6226 418.965 72.6226 431.427C72.6226 443.889 156.962 453.992 261 453.992Z" fill="#EBEBEB"/>
<path d="M88.1949 406.722C119.344 406.722 144.595 401.159 144.595 394.297C144.595 387.435 119.344 381.872 88.1949 381.872C57.0461 381.872 31.7949 387.435 31.7949 394.297C31.7949 401.159 57.0461 406.722 88.1949 406.722Z" fill="#EBEBEB"/>
<path d="M34.8696 377.082L91.4022 376.849L147.935 376.764L261 376.603L374.065 376.763L430.598 376.847L487.13 377.082L430.598 377.317L374.065 377.401L261 377.561L147.935 377.4L91.4022 377.316L34.8696 377.082Z" fill="#263238"/>
<path d="M89.8567 210.826C89.8567 210.826 61.7804 207.212 68.344 176.047C68.344 176.047 99.7121 182.521 89.8567 210.826Z" fill="#E8505B"/>
<path opacity="0.1" d="M89.8567 210.826C89.8567 210.826 61.7804 207.212 68.344 176.047C68.344 176.047 99.7121 182.521 89.8567 210.826Z" fill="black"/>
<path d="M88.4377 204.321C87.8896 202.744 87.2423 201.197 86.5261 199.676C86.5042 199.477 86.4718 199.278 86.4541 199.087C86.4123 198.658 86.3737 198.229 86.3382 197.799C86.2589 196.869 86.1952 195.939 86.1357 195.008C86.0166 193.147 85.8861 191.283 85.8559 189.418C85.8538 189.317 85.6857 189.322 85.6847 189.422C85.6669 191.289 85.6366 193.152 85.7149 195.017C85.7546 195.948 85.812 196.88 85.8799 197.81C85.8945 198.016 85.9122 198.223 85.9279 198.43C84.3588 195.324 82.4597 192.356 80.2987 189.578C79.334 188.338 78.3192 187.146 77.2283 185.999C76.1091 184.821 74.9262 183.7 73.7945 182.534C73.7215 182.459 73.5993 182.575 73.6766 182.649C75.7416 184.629 77.4485 186.979 79.0876 189.263C79.9406 190.45 80.7455 191.67 81.5128 192.908C81.4251 192.876 81.3374 192.846 81.2518 192.813C80.9188 192.686 80.5868 192.56 80.2506 192.442C79.4885 192.172 78.7243 191.905 77.9591 191.644C76.4526 191.13 74.944 190.624 73.4427 190.099C73.3529 190.067 73.2903 190.211 73.3801 190.245C74.873 190.792 76.3502 191.371 77.8254 191.957C78.55 192.245 79.2755 192.53 80.0001 192.817C80.3634 192.961 80.7298 193.096 81.0963 193.234C81.3416 193.325 81.5828 193.438 81.8406 193.475C82.4065 194.41 82.9682 195.348 83.4839 196.305C84.7826 198.715 85.9394 201.205 86.9145 203.743C86.9834 203.921 87.0492 204.1 87.117 204.278C86.4238 203.848 85.5395 203.567 84.816 203.259C83.8503 202.848 82.8773 202.45 81.9106 202.041C79.9427 201.208 77.9852 200.365 76.0976 199.385C76.0016 199.335 75.918 199.474 76.0151 199.523C77.9444 200.492 79.8351 201.524 81.7676 202.488C82.7333 202.97 83.7042 203.439 84.6939 203.879C85.5061 204.241 86.4196 204.744 87.331 204.85C88.209 207.234 88.9461 209.647 89.1706 212.172C89.4838 215.697 89.4483 219.25 89.5381 222.782C89.5391 222.845 89.6351 222.839 89.6404 222.78C89.9202 219.576 90.0768 216.342 90.0935 213.126C90.1091 210.066 89.4462 207.221 88.4377 204.321Z" fill="#263238"/>
<path d="M84.1145 185.993C83.8952 187.807 83.6979 189.664 83.8347 191.489C83.8389 191.54 83.9172 191.537 83.9203 191.487C84.0331 189.664 84.0508 187.847 84.2805 186.032C84.293 185.931 84.127 185.892 84.1145 185.993Z" fill="#263238"/>
<path d="M76.0872 187.553C74.8438 187.068 73.6077 186.612 72.476 185.922C72.3842 185.866 72.2996 186.007 72.3936 186.06C73.5273 186.71 74.7405 187.345 76.0402 187.663C76.1091 187.679 76.1551 187.579 76.0872 187.553Z" fill="#263238"/>
<path d="M90.7536 260.305C90.7306 257.452 90.6722 254.6 90.6356 251.746C90.5771 242.272 90.4926 232.798 90.3078 223.324C90.1606 215.802 89.9685 208.283 89.7357 200.763C89.7346 200.72 89.7044 200.689 89.6647 200.667C89.6532 198.612 89.6438 196.559 89.6292 194.506C89.6292 194.454 89.5624 194.429 89.4956 194.43C89.4277 194.431 89.3609 194.458 89.3609 194.509C89.3473 196.567 89.3327 198.624 89.3191 200.681C89.2857 200.704 89.2565 200.731 89.2544 200.77C88.842 214.155 88.4735 227.544 88.3868 240.932C88.3691 243.655 88.3712 246.376 88.3576 249.099C88.2584 257.828 88.2146 266.557 88.249 275.287C88.2386 276.677 88.2208 278.066 88.2156 279.456C88.1843 287.442 88.3054 295.428 88.3085 303.415C88.3085 303.845 88.8274 304.058 89.3797 304.078C90.0092 304.101 90.6805 303.871 90.6805 303.379C90.6836 294.572 90.7463 285.765 90.7452 276.958C90.7765 271.406 90.7985 265.856 90.7536 260.305Z" fill="#263238"/>
<path d="M79.0285 251.637C79.0285 251.637 65.5254 242.436 52.7082 248.652C39.891 254.868 37.8813 278.833 37.8813 278.833C37.8813 278.833 56.7015 281.308 68.553 270.935C79.9744 260.939 79.0285 251.637 79.0285 251.637Z" fill="#E8505B"/>
<path d="M82.7096 252.205C80.2656 251.261 77.5439 251.027 74.8869 251.266C74.3492 251.156 73.7771 251.154 73.2321 251.118C72.5974 251.075 71.9637 251.032 71.3289 250.986C70.0166 250.892 68.7033 250.82 67.391 250.73C64.7267 250.547 62.0551 250.397 59.397 250.151C59.302 250.142 59.2822 250.295 59.3783 250.306C62.0091 250.616 64.6285 250.96 67.2688 251.205C68.626 251.331 69.9842 251.46 71.3446 251.549C71.664 251.57 71.996 251.603 72.3322 251.637C71.9282 251.72 71.5273 251.808 71.1337 251.91C69.0165 252.461 66.9754 253.252 65.0148 254.196C63.951 254.372 62.8944 254.646 61.8504 254.871C60.18 255.233 58.5159 255.63 56.8559 256.03C53.5767 256.82 50.332 257.708 47.0778 258.579C46.9714 258.608 47.0204 258.754 47.128 258.73C50.38 257.996 53.6488 257.324 56.9061 256.611C58.4898 256.264 60.0746 255.923 61.6552 255.564C62.0645 255.472 62.48 255.387 62.8965 255.3C59.2603 257.359 55.9884 260.001 53.298 262.974C50.6107 265.942 48.4716 269.192 46.6279 272.648C46.5809 272.736 46.7166 272.822 46.772 272.732C48.955 269.216 51.7007 265.904 54.8442 262.989C54.7857 263.154 54.7251 263.319 54.6677 263.484C54.4161 264.215 54.1676 264.946 53.9171 265.678C53.417 267.14 52.9117 268.601 52.4367 270.07C52.4043 270.169 52.5662 270.202 52.6027 270.108C53.1717 268.691 53.7114 267.265 54.2553 265.84C54.5226 265.141 54.7899 264.442 55.0571 263.743C55.196 263.381 55.3286 263.017 55.4622 262.653C55.5029 262.541 55.5509 262.43 55.5927 262.32C57.1096 260.971 58.7038 259.705 60.3815 258.566C62.5959 257.063 65.0159 255.794 67.5496 254.788C67.5027 255.003 67.4609 255.219 67.4129 255.423C67.2803 255.99 67.1425 256.555 67.0162 257.122C66.752 258.297 66.5036 259.475 66.254 260.654C65.7456 263.057 65.4303 265.491 64.9407 267.895C64.9208 267.994 65.0816 268.032 65.1067 267.933C65.7122 265.517 66.4931 263.138 67.0788 260.716C67.3711 259.504 67.6687 258.294 67.9422 257.079C68.0696 256.512 68.1927 255.944 68.317 255.375C68.3869 255.058 68.4673 254.743 68.507 254.425C68.7523 254.336 68.9924 254.231 69.2399 254.146C72.7832 252.941 76.6993 252.064 80.4754 252.731C84.0887 253.369 87.1852 255.598 88.6029 258.72C88.7261 258.99 89.1897 258.822 89.1208 258.545C88.3858 255.567 85.6756 253.352 82.7096 252.205Z" fill="#263238"/>
<path d="M62.0366 262.438C61.6545 264.011 61.2755 265.585 60.8976 267.158C60.5364 268.661 60.0906 270.214 59.9538 271.75C59.9486 271.811 60.0446 271.811 60.0634 271.762C60.6147 270.282 60.8819 268.669 61.2108 267.137C61.5428 265.584 61.8748 264.031 62.2036 262.477C62.2235 262.378 62.0606 262.338 62.0366 262.438Z" fill="#263238"/>
<path d="M48.975 266.437C47.2555 267.239 45.5883 268.151 43.7926 268.808C43.6788 268.849 43.7498 269.002 43.8625 268.95C45.5925 268.157 47.3819 267.455 49.0157 266.497C49.0585 266.473 49.0189 266.417 48.975 266.437Z" fill="#263238"/>
<path d="M82.0646 234.741C82.0646 234.741 65.56 235.71 57.8825 225.701C50.2049 215.692 51.9275 201.401 51.9275 201.401C51.9275 201.401 69.2641 203.339 76.1493 210.525C83.0345 217.713 82.0646 234.741 82.0646 234.741Z" fill="#E8505B"/>
<path d="M89.8113 249.716C89.2402 248.09 88.5313 246.488 87.8642 244.893C87.2232 243.361 86.5383 241.846 85.8107 240.346C84.3282 237.288 82.6912 234.301 80.8632 231.405C79.6991 229.561 78.4505 227.771 77.1653 226.007C77.1392 225.738 77.0807 225.469 77.0369 225.199C76.9596 224.729 76.8866 224.259 76.8062 223.789C76.6423 222.828 76.4596 221.87 76.2852 220.911C75.9052 218.816 75.4354 216.734 75.0721 214.636C75.0554 214.538 74.8852 214.539 74.9009 214.64C75.2339 216.709 75.4594 218.794 75.7757 220.866C75.9303 221.884 76.0754 222.903 76.2435 223.92C76.304 224.288 76.3677 224.654 76.4314 225.022C73.9091 221.645 71.1968 218.391 68.2673 215.284C67.8727 214.865 67.4655 214.456 67.0625 214.043C67.0218 213.927 66.9592 213.814 66.909 213.696C66.7869 213.407 66.6679 213.118 66.5499 212.827C66.3077 212.225 66.0707 211.621 65.8348 211.018C65.3712 209.829 64.9568 208.63 64.606 207.409C64.5778 207.311 64.416 207.356 64.4421 207.455C64.7751 208.7 65.1269 209.944 65.5237 211.174C65.7147 211.768 65.9266 212.355 66.1553 212.938C66.1939 213.035 66.2336 213.132 66.2722 213.23C64.1623 211.116 61.9626 209.078 59.7399 207.064C59.6606 206.993 59.5447 207.106 59.6219 207.179C63.9347 211.239 67.7474 215.723 71.3168 220.352C70.9138 220.233 70.5004 220.139 70.0943 220.067C68.8237 219.841 67.5417 219.675 66.2586 219.525C63.5693 219.21 60.8883 218.898 58.2094 218.509C58.1019 218.494 58.058 218.643 58.1676 218.662C60.7254 219.126 63.2592 219.656 65.7993 220.191C66.9978 220.445 68.2005 220.661 69.4073 220.879C70.4127 221.06 71.345 221.343 72.3055 221.638C72.5717 221.989 72.8484 222.335 73.1125 222.688C74.3235 224.31 75.4855 225.963 76.6235 227.63C76.0628 227.527 75.5001 227.429 74.9395 227.328C73.6658 227.1 72.3848 226.888 71.1049 226.694C68.5878 226.313 66.0676 225.911 63.5808 225.391C63.4732 225.369 63.4315 225.52 63.539 225.543C66.0634 226.088 68.5638 226.724 71.0683 227.338C72.2763 227.633 73.4946 227.905 74.7161 228.153C75.3268 228.276 75.9386 228.401 76.5514 228.516C76.8156 228.566 77.0609 228.63 77.2948 228.634C79.7054 232.229 81.9698 235.908 84.063 239.663C84.9838 241.314 85.8691 242.983 86.7283 244.662C87.6105 246.385 88.3653 248.145 89.1797 249.893C89.3425 250.241 89.9449 250.097 89.8113 249.716Z" fill="#263238"/>
<path d="M72.9183 214.836C72.603 213.388 72.271 211.944 71.9223 210.503C71.8983 210.403 71.7365 210.45 71.7584 210.549C72.0716 211.971 72.3691 213.396 72.65 214.824C72.9287 216.241 73.1521 217.692 73.5864 219.076C73.5948 219.101 73.6386 219.095 73.6365 219.068C73.553 217.649 73.221 216.227 72.9183 214.836Z" fill="#263238"/>
<path d="M63.2902 214.414C62.5239 214.064 61.7158 213.779 60.9182 213.495C60.5006 213.347 60.083 213.197 59.6664 213.045C59.4535 212.967 59.2415 212.889 59.0286 212.81C58.8031 212.726 58.5264 212.664 58.3322 212.529C58.208 212.443 58.1286 212.643 58.2529 212.662C58.4961 212.699 58.7342 212.835 58.9586 212.928C59.1664 213.013 59.3752 213.099 59.5829 213.185C59.9849 213.349 60.3858 213.515 60.7877 213.679C61.5832 214.002 62.3944 214.328 63.2254 214.566C63.3215 214.595 63.381 214.455 63.2902 214.414Z" fill="#263238"/>
<path d="M98.9585 222.808C98.9585 222.808 108.949 205.651 124.144 202.994C139.339 200.338 148.64 214.714 148.64 214.714C148.64 214.714 137.557 227.73 123.612 230.002C109.666 232.274 98.9585 222.808 98.9585 222.808Z" fill="#E8505B"/>
<path d="M134.328 210.683C130.391 210.187 126.358 210.245 122.411 210.814C122.638 210.699 122.865 210.584 123.088 210.48C124.217 209.954 125.337 209.419 126.459 208.883C128.793 207.768 131.151 206.579 133.594 205.68C133.708 205.638 133.638 205.489 133.524 205.538C131.147 206.556 128.683 207.409 126.299 208.417C125.105 208.921 123.933 209.447 122.773 210.012C122.023 210.378 121.192 210.724 120.456 211.161C117.118 211.79 113.858 212.766 110.797 214.112C111.431 213.478 112.066 212.845 112.697 212.209C114.113 210.783 115.506 209.287 117.062 207.987C117.144 207.919 117.02 207.81 116.938 207.878C115.347 209.207 113.668 210.436 112.126 211.816C111.378 212.486 110.663 213.18 109.964 213.896C109.617 214.252 109.268 214.62 108.937 215.001C102.328 218.303 96.7064 223.289 92.9981 229.315C90.8903 232.74 89.4193 236.444 88.5632 240.298C88.5413 240.394 88.6927 240.448 88.725 240.348C90.8109 233.871 94.7499 227.785 99.8958 222.966C105.478 217.738 112.53 213.96 120.255 212.135C124.841 211.051 129.583 210.674 134.305 210.961C134.501 210.97 134.517 210.706 134.328 210.683Z" fill="#263238"/>
<path opacity="0.1" d="M148.643 214.716C148.643 214.716 137.557 227.734 123.608 230.003C112.971 231.738 104.22 226.636 100.667 224.124L99.8999 222.965C99.8999 222.965 107.093 217.389 120.702 214.172C134.311 210.955 148.643 214.716 148.643 214.716Z" fill="black"/>
<path d="M125.502 204.566C124.348 205.213 123.201 205.858 122.127 206.614C121.069 207.359 120.087 208.169 119.196 209.08C119.117 209.161 119.24 209.264 119.327 209.194C120.335 208.389 121.349 207.583 122.397 206.819C123.426 206.071 124.473 205.329 125.593 204.7C125.687 204.647 125.597 204.514 125.502 204.566Z" fill="#263238"/>
<path d="M133.842 207.47C133.279 207.686 132.704 207.873 132.141 208.088C131.577 208.303 131.013 208.519 130.45 208.734C130.329 208.78 130.386 208.96 130.509 208.915C131.075 208.704 131.64 208.494 132.206 208.282C132.772 208.071 133.325 207.832 133.893 207.621C133.993 207.583 133.943 207.431 133.842 207.47Z" fill="#263238"/>
<path d="M96.9653 244.4C96.9653 244.4 99.6348 261.419 113.552 267.372C127.47 273.326 144.438 267.372 144.438 267.372C144.438 267.372 137.765 230.55 96.9653 244.4Z" fill="#E8505B"/>
<path d="M134.848 256.302C133.564 256.167 132.288 255.966 131.018 255.753C130.393 255.648 129.77 255.54 129.148 255.427C128.832 255.371 128.502 255.3 128.171 255.247C127.796 254.926 127.427 254.599 127.043 254.288C124.408 252.153 121.552 250.26 118.531 248.614C116.887 247.717 115.181 246.914 113.43 246.203C113.518 246.207 113.605 246.211 113.693 246.215C115.22 246.275 116.746 246.333 118.274 246.397C121.329 246.528 124.382 246.589 127.436 246.771C127.545 246.778 127.541 246.62 127.432 246.613C124.367 246.422 121.319 246.113 118.26 245.87C116.775 245.753 115.293 245.629 113.808 245.507C113.044 245.443 112.28 245.384 111.516 245.323C111.319 245.308 111.124 245.286 110.928 245.266C110.135 244.993 109.335 244.736 108.526 244.505C104.72 243.419 100.638 242.988 96.7369 243.907C93.2353 244.732 89.7421 246.841 88.8349 250.235C88.8036 250.353 89.0019 250.434 89.0562 250.315C90.3612 247.478 93.7855 246.051 96.8758 245.461C98.9533 245.065 101.081 245.086 103.178 245.348C103.264 246.22 103.622 247.116 103.881 247.921C104.266 249.118 104.646 250.318 105.04 251.512C105.829 253.903 106.698 256.27 107.467 258.665C107.498 258.763 107.658 258.718 107.631 258.62C106.985 256.232 106.439 253.821 105.813 251.428C105.505 250.253 105.185 249.081 104.868 247.907C104.664 247.156 104.495 246.268 104.166 245.488C105.39 245.685 106.6 245.953 107.778 246.271C109.916 246.849 112.024 247.567 114.086 248.396C114.29 249.61 114.584 250.812 114.888 252.008C115.269 253.51 115.693 254.999 116.21 256.467C116.242 256.56 116.387 256.517 116.366 256.424C116.345 256.331 116.324 256.238 116.305 256.146C116.305 256.144 116.301 256.144 116.301 256.142C115.989 254.75 115.655 253.363 115.337 251.973C115.08 250.853 114.843 249.727 114.578 248.607C116.307 249.322 118.006 250.102 119.651 250.97C119.684 251.316 119.777 251.672 119.831 251.987C119.931 252.571 120.047 253.153 120.163 253.734C120.425 255.047 120.709 256.356 121.052 257.653C121.71 260.151 122.45 262.65 123.445 265.054C123.425 265.083 123.416 265.12 123.447 265.153C123.473 265.181 123.499 265.21 123.526 265.237C123.586 265.302 123.685 265.227 123.667 265.158C123.023 262.636 122.288 260.135 121.685 257.603C121.385 256.34 121.082 255.076 120.805 253.808C120.667 253.174 120.541 252.538 120.411 251.902C120.374 251.724 120.346 251.529 120.315 251.333C122.193 252.355 124.011 253.461 125.734 254.656C128.703 256.717 131.548 259.071 134.03 261.62C134.129 261.722 134.326 261.578 134.234 261.467C133.173 260.185 132.117 258.93 130.916 257.747C130.217 257.056 129.49 256.39 128.749 255.737C128.825 255.749 128.905 255.763 128.98 255.775C129.631 255.875 130.285 255.965 130.94 256.045C132.228 256.204 133.519 256.32 134.81 256.455C134.915 256.466 134.958 256.313 134.848 256.302Z" fill="#263238"/>
<path d="M125.067 262.072V262.071C125.045 261.923 125.019 261.777 124.987 261.631C124.948 261.442 124.848 261.262 124.819 261.074C124.818 261.07 124.816 261.071 124.815 261.068C124.528 259.931 124.286 258.786 124.064 257.634C124.048 257.555 123.909 257.579 123.912 257.656C123.972 259.176 124.381 260.684 124.971 262.099C124.99 262.144 125.077 262.139 125.07 262.085C125.068 262.081 125.067 262.076 125.067 262.072Z" fill="#263238"/>
<path d="M113.418 261.799C113.415 261.752 113.375 261.729 113.335 261.727C112.945 260.22 112.569 258.711 112.231 257.194C112.053 256.396 111.872 255.599 111.706 254.799C111.616 254.369 111.53 253.938 111.447 253.506C111.375 253.134 111.338 252.736 111.147 252.399C111.115 252.342 111.002 252.355 110.992 252.421C110.876 253.137 111.196 254.003 111.34 254.705C111.51 255.536 111.687 256.366 111.885 257.192C112.289 258.871 112.747 260.543 113.262 262.196C113.291 262.288 113.454 262.268 113.447 262.169C113.437 262.046 113.427 261.923 113.418 261.799Z" fill="#263238"/>
<path d="M133.579 251.4C131.037 251.079 128.497 250.741 125.949 250.457C125.842 250.446 125.798 250.596 125.907 250.61C128.445 250.955 130.993 251.244 133.537 251.553C133.646 251.566 133.688 251.413 133.579 251.4Z" fill="#263238"/>
<path d="M89.8347 204.484C89.8347 204.484 81.3188 170.126 121.464 156.224C121.464 156.224 132.585 201.448 89.8347 204.484Z" fill="#E8505B"/>
<path d="M98.5008 184.999C98.6522 184.91 98.7973 184.826 98.932 184.758C99.691 184.374 100.445 183.981 101.201 183.592L105.857 181.197C108.921 179.621 111.945 177.983 115.03 176.44C115.128 176.392 115.037 176.258 114.941 176.306C111.85 177.851 108.706 179.298 105.596 180.809L100.994 183.046C100.367 183.35 99.74 183.654 99.1147 183.959C100.454 181.624 101.884 179.334 103.457 177.13C105.555 174.187 107.853 171.383 110.248 168.64C110.358 168.515 110.178 168.353 110.05 168.467C106.509 171.582 103.443 175.145 100.767 178.931C100.77 178.81 100.774 178.688 100.78 178.572C100.826 177.718 100.85 176.863 100.863 176.007C100.891 174.331 100.803 172.651 100.857 170.976C100.86 170.874 100.69 170.879 100.686 170.98C100.611 172.63 100.395 174.275 100.293 175.925C100.242 176.748 100.204 177.571 100.177 178.396C100.163 178.841 100.117 179.348 100.135 179.837C99.3078 181.046 98.5144 182.274 97.7627 183.518C96.4253 185.735 95.2279 188.056 94.1745 190.437C94.1348 189.581 94.0784 188.726 94.0231 187.871C93.903 185.989 93.6535 184.117 93.5669 182.235C93.5627 182.134 93.3936 182.137 93.3957 182.239C93.4385 184.12 93.3435 186.003 93.4061 187.885C93.4374 188.826 93.4698 189.766 93.5366 190.705C93.5617 191.05 93.5804 191.402 93.6065 191.754C92.3276 194.838 91.2993 198.01 90.5748 201.196C89.7918 204.636 89.4744 208.084 89.0798 211.571C89.0766 211.595 89.1194 211.595 89.1226 211.57C89.4744 208.461 90.3315 205.322 91.2534 202.318C91.7503 200.697 92.2734 199.083 92.8392 197.483C94.5096 196.759 96.109 195.856 97.722 195.035C99.3966 194.181 101.082 193.347 102.76 192.5C106.107 190.811 109.451 189.092 112.908 187.599C113.008 187.556 112.916 187.424 112.818 187.465C109.317 188.922 105.79 190.309 102.355 191.896C100.644 192.686 98.9612 193.531 97.2929 194.395C95.8992 195.117 94.4668 195.84 93.1347 196.67C93.5251 195.601 93.9302 194.536 94.3749 193.484C95.5922 190.598 96.9682 187.762 98.5008 184.999Z" fill="#263238"/>
<path d="M95.1163 177.144C95.1079 177.043 94.9377 177.046 94.9451 177.148C95.0891 179.108 95.1612 181.067 95.3877 183.021C95.4002 183.131 95.5808 183.13 95.5756 183.017C95.5015 181.052 95.2729 179.103 95.1163 177.144Z" fill="#263238"/>
<path d="M114.364 183.705C111.85 184.635 109.316 185.518 106.816 186.481C106.746 186.508 106.777 186.612 106.85 186.587C109.387 185.714 111.889 184.762 114.413 183.856C114.515 183.819 114.466 183.667 114.364 183.705Z" fill="#263238"/>
<path d="M118.178 167.859C115.722 168.906 113.339 170.065 111.039 171.381C110.923 171.448 111.033 171.612 111.152 171.548C113.48 170.296 115.851 169.095 118.268 167.993C118.368 167.948 118.276 167.818 118.178 167.859Z" fill="#263238"/>
<path d="M117.573 278.779H59.6787V334.893H117.573V278.779Z" fill="#455A64"/>
<path d="M58.6557 298.635H55.6938V394.751H58.6557V298.635Z" fill="#263238"/>
<path d="M121.245 298.635H118.283V394.751H121.245V298.635Z" fill="#263238"/>
<path d="M91.5258 298.635H88.564V394.751H91.5258V298.635Z" fill="#263238"/>
<path d="M119.763 331.296H57.1743V339.065H119.763V331.296Z" fill="#263238"/>
<path d="M350.393 363.362C350.393 363.362 350.385 404.703 350.386 404.732C350.43 412.638 350.314 419.57 349.891 423.151C349.892 423.17 349.893 423.189 349.883 423.208C349.724 424.56 349.523 425.422 349.262 425.654C349.242 425.674 349.232 425.693 349.211 425.703C346.661 427.31 277.963 429.472 275.54 428.805C273.106 428.149 274.99 421.735 277.584 419.696C280.198 417.655 306.087 406.011 306.087 406.011L306.521 364.688L350.393 363.362Z" fill="#AD6359"/>
<path d="M350.387 396.244C350.387 396.244 350.385 404.703 350.386 404.731C350.43 412.637 350.314 419.569 349.891 423.15C349.892 423.169 349.893 423.188 349.883 423.208C349.641 424.543 349.419 425.425 349.262 425.653C349.242 425.673 349.232 425.692 349.211 425.703C346.661 427.309 277.963 429.472 275.54 428.804C273.106 428.148 274.99 421.734 277.584 419.695C280.198 417.654 306.087 406.01 306.087 406.01L305.961 397.397L350.387 396.244Z" fill="#C7C7C7"/>
<path d="M275.539 428.807C277.967 429.475 346.659 427.313 349.216 425.703C350.199 425.106 350.439 415.884 350.383 404.732C350.381 404.616 350.38 404.499 350.378 404.383L306.043 405.323L306.086 406.014C306.086 406.014 280.195 417.656 277.585 419.7C274.996 421.735 273.111 428.149 275.539 428.807Z" fill="#263238"/>
<path d="M276.226 426.333C287.795 425.707 334.525 424.187 346.013 424.377C346.107 424.379 346.109 424.436 346.015 424.444C334.562 425.294 287.821 426.467 276.232 426.508C275.987 426.508 275.981 426.347 276.226 426.333Z" fill="#455A64"/>
<path d="M302.366 406.254C306.894 405.328 312.491 405.796 316.083 408.672C316.222 408.783 316.048 408.964 315.899 408.926C311.355 407.764 307.126 407.059 302.403 406.783C302.071 406.763 302.042 406.32 302.366 406.254Z" fill="#455A64"/>
<path d="M299.146 408.18C303.673 407.254 309.27 407.722 312.863 410.598C313.002 410.709 312.827 410.89 312.678 410.851C308.133 409.69 303.904 408.985 299.182 408.709C298.85 408.688 298.821 408.246 299.146 408.18Z" fill="#455A64"/>
<path d="M295.924 410.106C300.451 409.181 306.048 409.648 309.641 412.525C309.781 412.636 309.606 412.816 309.457 412.778C304.912 411.616 300.683 410.912 295.961 410.635C295.629 410.615 295.6 410.172 295.924 410.106Z" fill="#455A64"/>
<path d="M354.333 210.077L354.292 212.813L352.611 333.639L352.6 334.099L351.609 406.474L303.522 405.59L312.803 210.221L312.928 207.61L313.398 184.944H354.01L354.333 210.077Z" fill="#455A64"/>
<path d="M305.532 398.215C313.039 398.154 310.884 398.075 318.392 398.092C322.066 398.101 346.21 398.177 349.634 398.737C349.71 398.75 349.709 398.867 349.632 398.877C346.192 399.362 322.055 398.899 318.381 398.825C310.875 398.676 313.032 398.643 305.529 398.416C305.389 398.412 305.391 398.216 305.532 398.215Z" fill="#263238"/>
<path d="M327.071 222.786C327.071 222.689 326.909 222.693 326.909 222.79C326.888 234.352 326.397 240.835 326.092 252.393C325.787 263.95 325.421 275.507 325.081 287.063C324.401 310.165 323.387 333.256 322.459 356.349C321.938 369.3 321.275 382.253 320.51 395.193C320.505 395.28 320.65 395.275 320.657 395.189C322.481 372.118 324.228 349.039 325.222 325.924C326.216 302.829 326.941 279.727 327.058 256.613C327.124 243.646 327.047 235.755 327.071 222.786Z" fill="#263238"/>
<path d="M354.328 210.08L352.616 333.641L320.388 184.947H354.004L354.328 210.08Z" fill="#263238"/>
<path d="M404.325 361.124C404.325 361.124 410.383 402.088 410.388 402.117C411.591 409.945 412.494 416.828 412.599 420.429C412.603 420.448 412.606 420.467 412.6 420.488C412.642 421.846 412.569 422.727 412.343 422.988C412.327 423.01 412.319 423.031 412.301 423.043C410.009 424.951 342.257 435.616 339.757 435.256C337.251 434.908 338.176 428.319 340.446 425.976C342.737 423.63 366.681 408.88 366.681 408.88L361.049 367.881L404.325 361.124Z" fill="#AD6359"/>
<path d="M409.144 393.708C409.144 393.708 410.384 402.089 410.389 402.117C411.592 409.945 412.495 416.828 412.6 420.429C412.604 420.448 412.607 420.467 412.601 420.488C412.556 421.84 412.466 422.743 412.344 422.988C412.328 423.01 412.32 423.031 412.302 423.043C410.01 424.951 342.257 435.616 339.758 435.256C337.251 434.908 338.176 428.319 340.447 425.976C342.738 423.63 366.682 408.88 366.682 408.88L365.292 400.361L409.144 393.708Z" fill="#C7C7C7"/>
<path d="M339.758 435.257C342.261 435.618 410.008 424.955 412.305 423.041C413.191 422.328 412.077 413.16 410.385 402.118C410.366 402.003 410.347 401.888 410.328 401.773L366.538 408.204L366.682 408.883C366.682 408.883 342.736 423.631 340.449 425.979C338.183 428.318 337.256 434.906 339.758 435.257Z" fill="#263238"/>
<path d="M340.075 432.721C351.448 430.666 397.526 423.362 408.938 422.124C409.031 422.115 409.041 422.172 408.95 422.191C397.727 424.454 351.586 431.414 340.108 432.893C339.865 432.924 339.835 432.765 340.075 432.721Z" fill="#455A64"/>
<path d="M363.031 409.582C367.381 408.104 372.996 407.872 376.978 410.276C377.132 410.369 376.986 410.569 376.833 410.551C372.16 409.963 367.866 409.79 363.146 410.101C362.814 410.124 362.72 409.688 363.031 409.582Z" fill="#455A64"/>
<path d="M360.122 411.89C364.473 410.412 370.087 410.18 374.069 412.584C374.224 412.677 374.078 412.878 373.924 412.858C369.251 412.27 364.957 412.097 360.237 412.408C359.904 412.431 359.81 411.997 360.122 411.89Z" fill="#455A64"/>
<path d="M357.213 414.199C361.563 412.72 367.178 412.489 371.16 414.893C371.314 414.986 371.168 415.186 371.015 415.166C366.342 414.579 362.048 414.406 357.329 414.717C356.996 414.74 356.902 414.304 357.213 414.199Z" fill="#455A64"/>
<path d="M317.529 184.909C317.529 184.909 317.529 184.918 317.54 184.947C317.717 185.715 320.557 197.83 323.501 208.237C325.641 215.84 327.844 222.521 329.107 223.213C330.538 223.99 337.511 226.832 339.85 227.725L350.52 321.565L364.962 408.518L412.169 401.773L378.572 211.529L373.101 184.909H317.529Z" fill="#455A64"/>
<path d="M365.243 399.828C372.655 398.732 370.512 398.95 377.937 397.932C381.571 397.432 405.453 394.176 408.931 394.258C409.007 394.26 409.026 394.376 408.952 394.397C405.63 395.35 381.69 398.224 378.046 398.658C370.6 399.545 372.728 399.216 365.272 400.027C365.133 400.043 365.104 399.849 365.243 399.828Z" fill="#263238"/>
<path d="M392.57 373.866C391.399 367.834 390.225 361.802 389.018 355.775C386.604 343.716 384.154 331.662 381.692 319.611C376.761 295.484 371.88 271.348 367.109 247.194C364.416 233.554 364.487 234.834 362.127 221.141C362.11 221.046 361.946 221.059 361.964 221.154C364.222 233.326 363.153 230.655 365.285 242.847C367.395 254.919 369.651 266.972 371.998 279.007C376.714 303.188 381.66 327.334 386.667 351.466C388.07 358.231 389.493 364.991 390.933 371.749C392.402 378.643 394.075 385.496 395.614 392.374C395.649 392.527 395.912 392.511 395.883 392.352C394.751 386.195 393.764 380.016 392.57 373.866Z" fill="#263238"/>
<path d="M379.571 222.036C378.315 221.739 376.972 221.645 375.692 221.459C374.657 221.308 373.626 221.14 372.603 220.933C370.676 220.542 368.727 219.95 367.152 218.822C365.378 217.552 364.475 215.626 363.618 213.774C363.108 212.674 362.583 211.582 362.05 210.492C361.792 209.963 361.531 209.436 361.265 208.91C360.953 208.296 360.524 207.656 360.296 207.013C360.262 206.919 360.099 206.969 360.139 207.056C360.342 207.484 360.427 207.973 360.576 208.422C360.75 208.952 360.914 209.485 361.092 210.014C361.411 210.957 361.722 211.905 362.06 212.843C362.669 214.527 363.21 216.295 364.245 217.81C366.139 220.582 369.525 221.699 372.911 222.092C373.881 222.205 374.86 222.269 375.836 222.32C377.045 222.383 378.33 222.482 379.535 222.346C379.717 222.326 379.771 222.083 379.571 222.036Z" fill="#263238"/>
<path d="M325.396 221.513C330.374 223.089 335.178 225.326 339.772 227.67C339.952 227.762 339.833 228.019 339.638 227.942C334.795 226.03 329.857 224.2 325.135 222.045C324.763 221.875 325.014 221.392 325.396 221.513Z" fill="#263238"/>
<path d="M323.937 191.011C323.951 190.858 324.244 190.823 324.243 190.989C324.204 196.276 324.571 200.928 325.055 205.868C325.281 208.163 327.288 220.838 331.613 219.915C332.337 219.76 332.707 219.105 332.821 218.101C332.958 216.894 332.464 215.413 332.247 214.213C331.766 211.559 331.381 208.897 331.134 206.216C330.671 201.212 330.648 196.208 331.31 191.22C331.332 191.055 331.589 191.068 331.589 191.234C331.583 198.161 331.78 205.075 332.906 211.936C333.447 215.234 335.253 220.197 331.503 220.705C327.682 221.221 325.212 212.907 324.746 210.633C323.444 204.285 323.391 197.433 323.937 191.011Z" fill="#263238"/>
<path d="M331.498 220.256C331.89 221.107 332.204 221.993 332.471 222.883C332.679 223.574 332.961 224.322 332.875 225.043C332.859 225.183 332.657 225.197 332.576 225.102C332.068 224.51 331.854 223.701 331.57 223C331.241 222.188 330.893 221.381 330.589 220.56C330.388 220.016 331.257 219.731 331.498 220.256Z" fill="#263238"/>
<path d="M379.066 214.32C373.345 213.974 312.928 207.61 312.928 207.61L313.398 184.944H317.543C317.532 184.915 317.532 184.906 317.532 184.906H373.104L378.575 211.526L379.066 214.32Z" fill="#263238"/>
<path d="M336.757 132.879C329.843 152.778 318.135 173.309 314.755 177.353C305.68 188.215 278.426 198.919 270.1 200.3C266.507 200.896 257.87 179.54 260.106 176.597C262.341 173.653 296.214 161.758 297.872 160.175C299.024 159.074 313.319 142.138 322.962 131.921C334.946 119.225 338.572 127.654 336.757 132.879Z" fill="#AD6359"/>
<path d="M267.338 172.459L280.717 197.447C280.717 197.447 309.17 186.106 315.947 178.01C322.723 169.913 335 142.485 336.841 133.76C338.683 125.034 335.51 118.782 322.781 131.552C310.051 144.322 299.515 157.036 297.232 159.165C294.949 161.292 267.338 172.459 267.338 172.459Z" fill="#EBEBEB"/>
<path d="M268.468 171.189L284.505 197.048C284.505 197.048 309.546 186.034 315.946 178.771C322.347 171.509 332.87 149.346 336.168 137.37C339.466 125.393 337.535 116.893 322.78 131.551C308.025 146.209 299.693 156.851 296.655 159.245C295.255 160.349 268.468 171.189 268.468 171.189Z" fill="#37474F"/>
<path d="M275.217 173.582C276.032 173.582 276.693 172.975 276.693 172.226C276.693 171.477 276.032 170.869 275.217 170.869C274.403 170.869 273.742 171.477 273.742 172.226C273.742 172.975 274.403 173.582 275.217 173.582Z" fill="#263238"/>
<path d="M282.161 170.645C282.975 170.645 283.636 170.038 283.636 169.288C283.636 168.539 282.975 167.932 282.161 167.932C281.346 167.932 280.686 168.539 280.686 169.288C280.686 170.038 281.346 170.645 282.161 170.645Z" fill="#263238"/>
<path d="M336.168 137.366C332.869 149.347 322.345 171.504 315.946 178.771C313.21 181.872 307.093 185.654 300.964 188.976L333.255 123.946C338.235 122.698 338.413 129.226 336.168 137.366Z" fill="#263238"/>
<path d="M382.224 204.809C382.057 204.982 309.833 205.184 309.175 204.502C308.257 203.542 324.564 131.59 331.976 122.7C333.563 120.8 338.794 120.272 343.241 120.78C344.473 120.915 345.642 121.136 346.665 121.424C346.686 121.433 346.728 121.443 346.78 121.452C347.814 121.76 348.691 122.144 349.296 122.585C361.668 131.667 372.078 163.412 374.509 172.945C378.54 188.651 382.819 204.185 382.224 204.809Z" fill="#EBEBEB"/>
<path d="M349.055 121.707C349.055 121.707 343.171 151.184 342.147 158.845C341.123 166.507 342.627 206.963 342.627 206.963L387.98 210.052C387.98 210.052 378.184 183.267 378.068 181.565C378.068 181.565 369.915 149.482 362.291 136.078C357.374 127.432 349.055 121.707 349.055 121.707Z" fill="#37474F"/>
<path d="M387.982 210.048L367.415 208.646L352.736 124.675V124.656L352.778 124.714L361.986 135.562C362.091 135.734 362.195 135.907 362.289 136.08C369.921 149.482 378.064 181.565 378.064 181.565C378.179 183.264 387.982 210.048 387.982 210.048Z" fill="#263238"/>
<path d="M331.503 122.355C331.503 122.355 326.686 152.194 326.165 154.667C325.644 157.141 318.354 205.803 318.354 205.803L307.013 206.129L312.925 183.878C312.925 183.878 326.099 128.708 331.503 122.355Z" fill="#37474F"/>
<path d="M338.134 138.732L334.915 132.97L330.765 137.138L331.78 141.284L335.88 141.769L338.134 138.732Z" fill="#263238"/>
<path d="M335.88 141.769L337.841 184.149L329.202 198.164L324.718 182.39L331.78 141.284L335.88 141.769Z" fill="#263238"/>
<path d="M334.046 258.879L333.989 308.644L423.318 308.721L423.375 258.957L334.046 258.879Z" fill="#44576D"/>
<path opacity="0.1" d="M334.044 258.881L334.019 282.315L423.347 282.397L423.373 258.963L334.044 258.881Z" fill="black"/>
<path d="M331.92 274.801L425.473 274.887L425.498 251.66L331.945 251.574L331.92 274.801Z" fill="#44576D"/>
<path d="M359.047 238.344L359.032 251.592L365.808 251.599L365.816 244.063L391.655 244.087L391.647 251.623L398.422 251.628L398.437 238.381L359.047 238.344Z" fill="#263238"/>
<path d="M406.531 280.414L412.629 280.42L412.641 269.326L406.543 269.321L406.531 280.414Z" fill="#263238"/>
<path d="M344.751 280.361L350.849 280.367L350.861 269.273L344.763 269.267L344.751 280.361Z" fill="#263238"/>
<path d="M359.036 130.582C379.181 147.389 391.973 171.402 392.831 176.246C394.908 187.967 397.566 208.509 397.114 217.529C396.947 220.865 369.418 216.814 369.476 213.244C369.653 202.066 368.03 177.494 367.959 177.066C367.464 174.059 361.473 160.548 355.416 145.905C349.356 131.254 350.556 123.509 359.036 130.582Z" fill="#AD6359"/>
<path d="M366.566 248.251C369.257 249.488 371.422 247.429 371.422 247.429C371.422 247.429 372.615 249.346 374.833 249.929C377.374 250.598 379.629 247.228 379.629 247.228C379.629 247.228 381.275 248.938 383.685 249.338C386.188 249.753 388.99 246.651 388.99 246.651C388.99 246.651 391.468 247.459 393.828 246.441C396.424 245.32 398.632 238.466 399.172 234.519C399.712 230.573 397.222 218.913 396.992 216.647L369.476 213.244C369.476 213.244 361.58 230.309 361.662 235.032C361.731 239.011 363.546 246.863 366.566 248.251Z" fill="#AD6359"/>
<path d="M371.006 247.199C369.828 242.985 370.071 238.68 370.047 234.371C370.047 234.275 370.21 234.275 370.208 234.372C370.178 238.658 371.074 242.894 371.23 247.172C371.234 247.29 371.037 247.312 371.006 247.199Z" fill="#263238"/>
<path d="M379.282 247.102C379.047 246.141 379.156 245.112 379.205 244.137C379.256 243.086 379.327 242.038 379.415 240.989C379.593 238.89 379.823 236.796 380.119 234.709C380.133 234.616 380.289 234.612 380.281 234.709C380.108 236.801 379.969 238.895 379.891 240.991C379.853 242.04 379.825 243.089 379.803 244.139C379.783 245.115 379.851 246.147 379.594 247.101C379.557 247.243 379.317 247.247 379.282 247.102Z" fill="#263238"/>
<path d="M388.995 246.562C388.754 245.734 388.99 244.73 389.081 243.889C389.183 242.935 389.28 241.98 389.371 241.024C389.553 239.114 389.735 237.204 389.844 235.288C389.849 235.193 390.011 235.192 390.006 235.289C389.906 237.236 389.834 239.183 389.715 241.129C389.656 242.084 389.593 243.039 389.522 243.995C389.462 244.807 389.488 245.827 389.1 246.575C389.078 246.616 389.008 246.603 388.995 246.562Z" fill="#263238"/>
<path d="M368.12 213.357L398.637 214.873C398.637 214.873 396.386 184.147 393.969 175.618C391.552 167.088 370.866 138.646 358.67 128.33C347.197 118.625 347.215 126.695 351.539 138.071C355.861 149.447 366.661 176.95 367.03 178.956C367.399 180.964 368.12 213.357 368.12 213.357Z" fill="#37474F"/>
<path d="M369.493 207.698C370.657 207.597 371.841 207.701 373.01 207.7C374.182 207.7 375.351 207.745 376.523 207.792C378.777 207.883 381.031 208.004 383.281 208.138C385.534 208.271 387.786 208.407 390.038 208.547C392.364 208.691 394.743 208.733 397.052 209.047C397.154 209.06 397.153 209.193 397.047 209.196C394.717 209.283 392.35 209.093 390.022 209.007C387.724 208.924 385.426 208.84 383.129 208.748C380.832 208.656 378.534 208.552 376.24 208.42C375.111 208.355 373.988 208.278 372.863 208.169C371.734 208.061 370.583 208.045 369.47 207.837C369.373 207.82 369.414 207.705 369.493 207.698Z" fill="#263238"/>
<path d="M335.998 132.201C337.19 132.157 345.095 126.471 347.526 122.042C347.691 121.738 347.079 118.61 346.532 114.777C346.209 112.45 345.911 109.851 345.823 107.462C345.808 106.972 344.024 107.929 344.024 107.929L340.69 108.78L329.66 111.604C329.66 111.604 331.444 116.562 331.567 120.729C331.573 121.077 331.547 121.402 331.491 121.713C331.487 121.758 331.475 121.812 331.473 121.876C331.212 123.748 334.049 132.272 335.998 132.201Z" fill="#AD6359"/>
<path d="M331.492 121.713C331.488 121.758 331.476 121.812 331.474 121.876C331.987 121.927 332.543 121.937 333.152 121.906C344.116 121.343 345.02 108.472 345.02 108.472L340.69 108.779L329.66 111.603C329.66 111.603 331.444 116.561 331.567 120.728C331.574 121.077 331.548 121.402 331.492 121.713Z" fill="#263238"/>
<path d="M345.379 87.2044C348.011 92.208 347.564 107.814 344.074 111.779C339.015 117.526 329.451 119.376 323.816 113.514C318.355 107.833 319.329 87.504 323.346 83.7801C329.265 78.2937 341.49 79.8144 345.379 87.2044Z" fill="#AD6359"/>
<path d="M330.82 98.5919C330.829 98.5525 330.909 98.6438 330.905 98.687C330.845 99.7372 330.967 100.95 331.993 101.319C332.025 101.331 332.02 101.384 331.982 101.378C330.724 101.19 330.579 99.5788 330.82 98.5919Z" fill="#263238"/>
<path d="M331.866 97.5148C333.707 97.4226 333.772 100.816 332.066 100.902C330.386 100.985 330.322 97.5916 331.866 97.5148Z" fill="#263238"/>
<path d="M324.204 98.8713C324.194 98.8309 324.115 98.9221 324.117 98.9653C324.173 100.016 324.046 101.228 323.018 101.594C322.985 101.605 322.99 101.658 323.028 101.652C324.288 101.469 324.441 99.8581 324.204 98.8713Z" fill="#263238"/>
<path d="M323.162 97.7894C321.32 97.6905 321.242 101.084 322.947 101.175C324.627 101.266 324.705 97.8719 323.162 97.7894Z" fill="#263238"/>
<path d="M333.293 95.9395C332.787 95.831 332.342 95.6544 331.854 95.4998C331.304 95.3251 330.847 95.2387 330.48 94.7942C330.284 94.5552 330.355 94.1212 330.589 93.9235C331.134 93.4636 331.864 93.5232 332.536 93.7084C333.264 93.9091 333.77 94.2355 334.196 94.8134C334.609 95.3721 333.959 96.0816 333.293 95.9395Z" fill="#263238"/>
<path d="M321.702 96.1036C322.213 96.0182 322.668 95.8617 323.163 95.7302C323.721 95.5814 324.183 95.5151 324.573 95.0879C324.783 94.8585 324.735 94.4217 324.512 94.2134C323.993 93.7295 323.259 93.7554 322.578 93.91C321.84 94.077 321.317 94.3794 320.861 94.9372C320.417 95.4767 321.029 96.2159 321.702 96.1036Z" fill="#263238"/>
<path d="M332.063 108.333C331.794 108.584 331.528 108.927 331.113 108.966C330.716 109.003 330.247 108.846 329.879 108.721C329.843 108.709 329.807 108.745 329.83 108.776C330.135 109.174 330.764 109.417 331.293 109.323C331.808 109.232 332.057 108.816 332.174 108.378C332.191 108.318 332.102 108.297 332.063 108.333Z" fill="#263238"/>
<path d="M330.801 105.204C330.179 106.127 329.247 106.642 328.232 106.839C327.779 106.93 327.302 106.953 326.834 106.921C326.742 106.921 326.649 106.913 326.565 106.897C326.482 106.889 326.407 106.882 326.314 106.865C326.18 106.85 326.105 106.749 326.08 106.634V106.626C326.08 106.588 326.08 106.557 326.088 106.519C326.088 106.519 326.088 106.519 326.088 106.511V106.419C326.048 105.61 326.11 104.378 326.11 104.378C325.792 104.531 324.164 105.236 324.182 104.813C324.343 101.309 324.521 97.4111 325.486 93.9542C325.511 93.839 325.704 93.862 325.695 93.9772C325.685 97.3506 325.031 100.7 324.963 104.09C325.483 103.899 326.329 103.546 326.791 103.547C326.916 103.579 326.625 105.927 326.674 106.289C326.674 106.289 326.674 106.305 326.682 106.328C328.165 106.477 329.271 106.049 330.69 105.112C330.776 105.051 330.868 105.12 330.801 105.204Z" fill="#263238"/>
<path d="M327.345 106.502C327.345 106.502 328.144 107.459 329.22 107.791C329.616 107.915 330.042 107.959 330.483 107.843C331.393 107.607 331.4 106.836 331.221 106.18C331.074 105.639 330.793 105.178 330.793 105.178C330.793 105.178 329.48 106.346 327.345 106.502Z" fill="#263238"/>
<path d="M329.219 107.791C329.615 107.915 330.041 107.959 330.482 107.843C331.392 107.607 331.399 106.836 331.22 106.18C330.242 106.287 329.286 106.914 329.219 107.791Z" fill="#EB9481"/>
<path d="M321.01 88.9728C321.608 87.6279 322.303 86.2714 323.171 85.992C324.038 85.7126 324.653 87.6595 326.642 87.7478C329.327 87.8678 330.58 85.5792 334.325 85.2739C339.705 84.8352 342.163 88.9315 342.439 95.9578C342.685 102.233 346.822 102.752 346.822 102.752C346.822 102.752 349.035 88.8653 344.695 84.3552C340.355 79.8461 330.579 77.9914 324.132 82.4794C321.782 84.1162 321.01 88.9728 321.01 88.9728Z" fill="#263238"/>
<path d="M343.328 100.34C343.328 100.34 346.347 94.9536 348.955 95.879C351.564 96.8045 349.798 104.288 347.091 105.618C344.384 106.949 342.996 104.668 342.996 104.668L343.328 100.34Z" fill="#AD6359"/>
<path d="M348.391 98.0122C348.436 98.0026 348.453 98.0602 348.416 98.0803C346.526 99.0739 345.724 100.909 345.247 102.768C345.742 102.013 346.497 101.54 347.583 102.068C347.64 102.096 347.601 102.178 347.543 102.173C346.701 102.113 346.128 102.317 345.665 102.989C345.336 103.464 345.147 104.038 344.939 104.566C344.87 104.742 344.534 104.694 344.575 104.496C344.578 104.482 344.582 104.466 344.585 104.452C344.191 102.114 345.689 98.5882 348.391 98.0122Z" fill="#263238"/>
<path d="M331.436 122.074L335.377 130.964L347.318 119.736L350.717 123.324C350.717 123.324 339.053 141.149 338.977 140.345L334.99 132.72L329.273 138.042L329.708 124.709L331.436 122.074Z" fill="#EBEBEB"/>
<path d="M329.082 131.44C329.235 129.241 329.32 127.022 329.582 124.832C329.592 124.754 329.724 124.719 329.745 124.811C330.23 126.933 329.6 135.34 329.615 137.356C329.623 137.348 329.632 137.34 329.64 137.333C329.878 137.102 334.939 132.65 334.989 132.72C335.853 133.931 338.779 139.483 338.979 139.988C340.824 137.157 347.895 126.863 350.08 124.186C350.143 124.109 350.272 124.172 350.223 124.261C348.595 127.251 339.238 141.111 339.094 141.073C338.996 141.143 335.36 134.303 334.926 133.011C334.069 133.98 328.962 139.004 328.944 138.678C328.821 136.472 328.93 133.642 329.082 131.44Z" fill="#263238"/>
<path d="M196.58 131.23C209.714 155.073 223.06 212.414 224.307 220.084C225.153 225.289 195.342 230.01 195.343 226.397C195.344 221.771 189.328 167.643 189.9 146.253C190.216 134.459 193.867 126.304 196.58 131.23Z" fill="#EB9481"/>
<path d="M195.216 224.113C194.735 227.251 195.872 238.126 198.113 246.233C199.201 250.167 203.625 261.158 206.973 260.621C210.32 260.084 209.336 256.767 209.336 256.767C209.336 256.767 211.96 261.153 215.277 260.331C218.593 259.509 216.878 254.393 216.878 254.393C216.878 254.393 219.93 258.717 223.174 257.679C226.418 256.642 223.755 251.764 223.755 251.764C223.755 251.764 226.347 255.836 228.628 253.948C231.371 251.676 225.672 244.663 224.708 240.258C224.488 239.258 221.836 219.693 221.836 219.693L195.216 224.113Z" fill="#EB9481"/>
<path d="M223.775 251.673C219.597 246.507 218.741 243.582 218.216 237.262C218.206 237.139 218.003 237.125 218.002 237.254C217.904 243.486 218.403 247.297 223.514 251.871C223.764 252.095 223.975 251.918 223.775 251.673Z" fill="#263238"/>
<path d="M216.97 254.65C213.14 248.935 212.181 245.771 211.101 239.189C211.086 239.096 210.913 239.109 210.92 239.205C211.391 245.743 211.983 249.535 216.625 254.782C216.836 255.019 217.145 254.911 216.97 254.65Z" fill="#263238"/>
<path d="M209.046 256.282C205.772 250.503 204.558 247.075 204.402 240.562C204.399 240.408 204.154 240.398 204.142 240.553C203.599 247.209 205.079 251.497 208.844 256.355C209.101 256.686 209.251 256.645 209.046 256.282Z" fill="#263238"/>
<path d="M224.117 218.717C224.117 218.717 228.921 225.467 230.321 228.859C231.721 232.252 231.875 246.663 228.492 246.87C224.124 247.138 222.253 238.835 221.915 234.659C221.915 234.659 211.812 235.287 209.067 229.595C206.322 223.903 224.117 218.717 224.117 218.717Z" fill="#EB9481"/>
<path d="M227.264 246.581C223.09 244.183 223.03 238.674 222.372 234.645C222.322 234.339 222.036 234.268 221.79 234.35C217.536 234.352 211.534 233.219 208.966 229.832C208.891 229.733 208.728 229.817 208.789 229.927C211.007 233.902 216.804 235.459 221.463 235.182C222.067 239.323 222.391 244.846 227.241 246.62C227.27 246.629 227.291 246.596 227.264 246.581Z" fill="#263238"/>
<path d="M227.162 217.104L193.306 221.894C193.306 221.894 187.907 164.094 187.714 144.692C187.519 125.263 195.093 120.536 203.228 140.383C211.365 160.229 227.162 217.104 227.162 217.104Z" fill="#455A64"/>
<path d="M193.172 217.033C207.021 214.17 222.053 213.091 224.658 212.732C224.781 212.715 224.796 212.899 224.671 212.911C222.096 213.141 205.066 216.086 193.186 217.23C193.049 217.243 193.039 217.061 193.172 217.033Z" fill="#263238"/>
<path d="M268.184 428.759C265.833 429.459 196.983 428.504 194.453 426.98C194.151 426.808 194.106 421.089 194.195 413.242L190.842 366.648L234.411 366.767L237.85 407.128C237.85 407.128 247.622 411.275 255.684 414.899C255.695 414.908 255.705 414.907 255.705 414.917C260.667 417.144 264.987 419.171 265.974 419.911C268.546 421.85 270.535 428.069 268.184 428.759Z" fill="#EB9481"/>
<path d="M268.184 428.759C265.833 429.459 196.983 428.504 194.454 426.98C194.151 426.808 194.106 421.089 194.195 413.242C211.205 416.728 256.551 422.373 257.881 419.093C258.407 417.786 257.326 416.293 255.705 414.918C260.667 417.145 264.987 419.171 265.974 419.912C268.546 421.85 270.535 428.069 268.184 428.759Z" fill="#263238"/>
<path d="M172.444 197.088C172.444 197.088 184.762 317.492 185.061 318.953C185.104 319.146 185.193 321.368 185.314 324.99C185.998 344.854 187.686 406.79 187.686 406.79H239.452C239.452 406.79 236.076 333.43 234.134 316.315C231.663 294.483 216.454 197.088 216.454 197.088H172.444Z" fill="#37474F"/>
<path d="M191.233 323.021C189.635 298.02 187.255 273.061 184.032 248.193C182.214 234.172 180.027 220.201 177.853 206.225C177.834 206.104 177.625 206.108 177.645 206.23C181.651 231.105 184.489 256.172 186.933 281.214C189.374 306.225 191.081 331.287 192.195 356.377C192.827 370.594 193.303 384.815 193.802 399.037C193.813 399.374 194.383 399.363 194.374 399.024C193.643 373.679 192.851 348.332 191.233 323.021Z" fill="#263238"/>
<path d="M236.185 399.12C234.83 398.957 233.357 399.008 231.981 398.965C230.427 398.916 228.87 398.904 227.316 398.849C224.319 398.744 221.322 398.675 218.32 398.63C212.279 398.539 206.22 398.571 200.182 398.746C198.519 398.794 196.857 398.853 195.195 398.909C193.424 398.968 191.647 399.118 189.875 399.11C189.742 399.109 189.747 399.256 189.881 399.255C192.923 399.246 196.004 399.497 199.047 399.598C202.044 399.698 205.042 399.748 208.042 399.786C214.082 399.864 220.144 399.814 226.178 399.61C227.842 399.553 229.505 399.532 231.168 399.485C232.055 399.46 232.94 399.413 233.827 399.381C234.618 399.353 235.406 399.402 236.191 399.309C236.328 399.294 236.317 399.135 236.185 399.12Z" fill="#263238"/>
<path d="M209.833 197.088L186.197 353.914C185.863 342.221 185.529 331.411 185.31 324.989C185.195 321.37 185.101 319.142 185.059 318.95C184.767 317.491 172.448 197.088 172.448 197.088H209.833Z" fill="#263238"/>
<path d="M181.467 437.107C179.004 436.922 115.847 411.697 114.149 409.397C113.941 409.131 116.292 403.836 119.654 396.623L133.58 351.483L173.873 366.357L162.51 406.415C162.51 406.415 169.796 413.699 175.723 419.893C175.729 419.906 175.739 419.909 175.735 419.917C179.383 423.729 182.524 427.126 183.125 428.158C184.69 430.857 183.926 437.3 181.467 437.107Z" fill="#EB9481"/>
<path d="M181.467 437.107C179.004 436.922 115.847 411.697 114.149 409.397C113.941 409.131 116.292 403.836 119.654 396.623C133.898 405.855 173.398 427.099 175.998 424.542C177.029 423.522 176.656 421.762 175.735 419.918C179.383 423.73 182.524 427.127 183.125 428.159C184.69 430.857 183.926 437.3 181.467 437.107Z" fill="#263238"/>
<path d="M115.119 391.98L165.62 406.419C165.62 406.419 190.278 326.84 192.17 308.143C194.043 289.627 195.849 251.79 196.649 224.342C196.649 224.342 205.088 219.75 207.221 217.246C209.249 214.866 211.289 205.705 215.504 197.088H153.722C138.953 223.456 150.068 235.19 150.068 240.943C150.068 268.706 145.498 305.561 144.05 311.016C141.019 322.429 115.119 391.98 115.119 391.98Z" fill="#37474F"/>
<path d="M165.51 396.223C164.247 395.743 162.809 395.442 161.492 395.074C160.005 394.657 158.504 394.276 157.019 393.853C154.153 393.038 151.277 392.26 148.39 391.503C142.578 389.98 136.718 388.571 130.835 387.304C129.215 386.956 127.593 386.618 125.971 386.277C124.244 385.914 122.485 385.636 120.776 385.207C120.647 385.174 120.61 385.318 120.741 385.349C123.683 386.062 126.587 387.037 129.499 387.858C132.367 388.667 135.247 389.427 138.135 390.178C143.948 391.688 149.818 393.081 155.704 394.317C157.327 394.658 158.939 395.032 160.559 395.383C161.423 395.57 162.292 395.734 163.157 395.915C163.93 396.076 164.677 396.31 165.463 396.407C165.599 396.425 165.632 396.269 165.51 396.223Z" fill="#263238"/>
<path d="M208.67 216.647C205.664 217.777 202.962 219.518 200.293 221.195C197.521 222.938 194.98 224.951 192.313 226.819C192.211 226.891 192.307 227.047 192.421 226.979C195.231 225.329 198.175 223.879 200.955 222.179C203.654 220.529 206.462 218.924 208.804 216.848C208.897 216.767 208.794 216.6 208.67 216.647Z" fill="#263238"/>
<path d="M209.049 200.668C208.692 202.437 208.224 204.187 207.81 205.946C207.42 207.595 207.133 209.279 206.659 210.909C206.199 212.491 205.467 213.941 204.145 215.07C203.442 215.672 202.666 216.204 201.915 216.755C201.511 217.051 201.074 217.337 200.653 217.638C200.708 217.404 200.752 217.166 200.798 216.925C200.927 216.255 201.05 215.583 201.172 214.912C201.444 213.422 201.703 211.931 201.952 210.437C202.439 207.502 202.889 204.536 203.555 201.63C203.583 201.511 203.389 201.466 203.356 201.584C202.56 204.463 201.682 207.312 200.99 210.216C200.651 211.641 199.439 218.673 199.385 219.17C199.329 219.684 199.282 220.199 199.262 220.716C199.243 221.225 199.133 221.795 199.26 222.294C199.293 222.422 199.462 222.401 199.52 222.315C199.523 222.317 199.526 222.319 199.529 222.32C199.807 221.871 199.876 221.287 200.015 220.791C200.155 220.289 200.279 219.78 200.376 219.27C200.412 219.085 200.44 218.897 200.468 218.709C201.221 218.288 201.923 217.732 202.627 217.262C203.386 216.757 204.16 216.265 204.877 215.709C206.252 214.644 207.111 213.34 207.624 211.764C208.155 210.127 208.319 208.4 208.525 206.71C208.768 204.712 208.946 202.703 209.248 200.712C209.266 200.596 209.074 200.547 209.049 200.668Z" fill="#263238"/>
<path d="M207.79 124.091C206.798 135.374 205.567 146.964 202.701 157.986C200.471 166.571 195.426 173.238 185.269 174.135C175.849 174.964 162.873 173.175 155.982 166.641C152.774 163.593 152.067 159.774 152.918 155.704C154.097 150.044 163.666 119.439 166.585 109.886C168.351 104.068 170.11 98.1638 172.988 92.687C179.025 81.1958 185.48 82.1117 186.414 81.9821C187.258 81.623 192.527 80.2137 199.284 83.1744C203.017 84.8102 205.416 87.5904 206.656 91.1049C210.299 101.397 208.714 113.525 207.79 124.091Z" fill="#263238"/>
<path d="M184.148 83.3943C175.868 85.7587 172.849 93.3379 169.92 100.103C165.845 109.521 161.943 119.005 158.545 128.651C156.911 133.287 155.39 137.96 154.022 142.669C152.713 147.177 151.009 151.948 150.655 156.625C150.07 164.356 157.173 168.802 164.398 170.823C164.749 170.922 164.928 170.436 164.58 170.325C160.489 169.029 156.355 167.413 153.652 164.149C150.186 159.964 151.367 155.22 152.555 150.496C154.575 142.457 157.092 134.53 159.916 126.7C162.742 118.86 165.873 111.114 169.132 103.42C172.235 96.096 175.154 86.305 184.179 83.521C184.262 83.495 184.235 83.3693 184.148 83.3943Z" fill="#263238"/>
<path d="M209.017 99.7354C208.41 93.695 205.954 87.5712 199.503 85.0272C199.49 85.0224 199.485 85.0397 199.497 85.0445C207.783 88.6742 208.596 97.6474 208.667 105.065C208.742 112.872 208.492 120.679 207.944 128.469C207.416 135.962 206.713 143.495 205.448 150.917C204.081 158.927 201.379 166.251 195.233 172.22C195.106 172.343 195.284 172.534 195.427 172.42C201.305 167.706 204.086 160.541 205.524 153.686C207.415 144.66 208.153 135.328 208.73 126.163C209.278 117.457 209.891 108.439 209.017 99.7354Z" fill="#263238"/>
<path d="M183.664 125.628C184.058 126.594 190.145 132.446 195.068 131.641C196.672 131.376 195.49 123.265 195.49 123.265L195.552 122.648L196.408 114.01L184.79 108.963L183.122 108.31C183.122 108.31 183.057 110.688 183.008 113.649C183.005 113.786 183.002 113.923 183.001 114.07C182.993 114.237 182.984 114.395 182.985 114.552C182.971 114.995 182.96 115.446 182.959 115.896C182.956 116.239 182.952 116.572 182.963 116.932C182.964 117.293 182.975 117.643 182.976 118.005C183.077 121.567 183.503 125.216 183.664 125.628Z" fill="#EB9481"/>
<path d="M183.011 113.649C186.569 120.017 192.759 122.049 195.553 122.648L196.409 114.01L184.791 108.963L183.123 108.31C183.123 108.31 183.059 110.688 183.011 113.649Z" fill="#263238"/>
<path d="M208.356 101.286C209.67 116.461 199.933 118.898 196.373 119.155C193.142 119.388 182.109 119.804 179.098 104.835C176.087 89.8656 183.345 84.5068 190.703 83.614C198.062 82.7212 207.043 86.11 208.356 101.286Z" fill="#EB9481"/>
<path d="M205.574 98.0602C205.186 98.0218 204.833 97.9268 204.453 97.8529C204.024 97.7693 203.672 97.7425 203.353 97.441C203.182 97.2788 203.193 96.9476 203.347 96.7796C203.709 96.3888 204.263 96.3716 204.784 96.4532C205.349 96.5415 205.761 96.7431 206.138 97.1396C206.503 97.5236 206.087 98.1101 205.574 98.0602Z" fill="#263238"/>
<path d="M194.588 98.2762C194.977 98.2311 195.326 98.1303 195.704 98.0496C196.132 97.9584 196.482 97.9258 196.795 97.6186C196.963 97.4535 196.947 97.1223 196.788 96.9581C196.418 96.5741 195.864 96.5664 195.345 96.6567C194.781 96.7546 194.374 96.9639 194.006 97.3661C193.649 97.7559 194.077 98.3357 194.588 98.2762Z" fill="#263238"/>
<path d="M197.174 102.103C197.163 102.063 197.087 102.155 197.09 102.197C197.163 103.232 197.057 104.428 196.049 104.803C196.018 104.815 196.023 104.867 196.061 104.861C197.299 104.662 197.423 103.072 197.174 102.103Z" fill="#263238"/>
<path d="M196.129 101.051C194.312 100.979 194.289 104.325 195.972 104.391C197.629 104.458 197.652 101.111 196.129 101.051Z" fill="#263238"/>
<path d="M195.414 101.223C195.095 101.411 194.781 101.744 194.398 101.776C193.954 101.814 193.622 101.462 193.334 101.124C193.304 101.088 193.273 101.118 193.272 101.162C193.257 101.803 193.521 102.462 194.268 102.563C194.949 102.654 195.442 102.089 195.621 101.445C195.654 101.325 195.542 101.148 195.414 101.223Z" fill="#263238"/>
<path d="M203.431 101.873C203.44 101.834 203.519 101.923 203.517 101.965C203.465 103.001 203.596 104.196 204.611 104.554C204.642 104.564 204.638 104.616 204.6 104.611C203.357 104.435 203.201 102.848 203.431 101.873Z" fill="#263238"/>
<path d="M204.453 100.804C206.268 100.7 206.359 104.046 204.677 104.142C203.024 104.236 202.932 100.89 204.453 100.804Z" fill="#263238"/>
<path d="M205.218 101.006C205.511 101.177 205.804 101.492 206.147 101.506C206.546 101.52 206.83 101.152 207.076 100.799C207.101 100.763 207.131 100.79 207.133 100.834C207.169 101.473 206.958 102.144 206.294 102.282C205.687 102.408 205.224 101.869 205.042 101.237C205.006 101.12 205.1 100.938 205.218 101.006Z" fill="#263238"/>
<path d="M197.092 110.304C197.347 110.559 197.598 110.906 198.004 110.957C198.395 111.006 198.862 110.865 199.229 110.754C199.265 110.744 199.299 110.779 199.275 110.81C198.96 111.193 198.331 111.413 197.814 111.304C197.309 111.198 197.08 110.781 196.98 110.347C196.966 110.285 197.054 110.267 197.092 110.304Z" fill="#263238"/>
<path d="M201.781 106.533C201.781 106.533 202.024 108.08 202.028 108.81C202.028 108.878 201.836 108.912 201.566 108.927C201.554 108.931 201.547 108.936 201.535 108.928C200.134 109.137 198.719 108.699 197.861 107.651C197.806 107.58 197.906 107.504 197.978 107.549C199.029 108.251 200.187 108.426 201.431 108.44C201.486 108.237 200.92 105.804 201.046 105.794C201.481 105.758 202.337 106.025 202.853 106.161C202.451 102.925 201.487 99.7748 201.138 96.5473C201.128 96.4321 201.307 96.3965 201.345 96.4993C202.608 99.7354 203.161 103.45 203.67 106.781C203.739 107.196 202.101 106.656 201.781 106.533Z" fill="#263238"/>
<path d="M203.059 102.884C202.806 100.411 204.047 98.2733 205.826 98.1197C207.605 97.9651 209.259 99.8525 209.512 102.325C209.766 104.798 208.523 106.935 206.744 107.09C204.965 107.244 203.312 105.357 203.059 102.884ZM203.713 102.828C203.932 104.969 205.264 106.611 206.683 106.488C208.102 106.365 209.078 104.523 208.858 102.381C208.639 100.239 207.306 98.5968 205.887 98.7197C204.468 98.8435 203.493 100.686 203.713 102.828Z" fill="#263238"/>
<path d="M190.796 103.946C190.543 101.473 192.38 99.2842 194.893 99.0663C197.404 98.8483 199.654 100.684 199.906 103.157C200.16 105.63 198.323 107.819 195.812 108.037C193.299 108.254 191.049 106.419 190.796 103.946ZM191.45 103.889C191.669 106.031 193.597 107.622 195.749 107.435C197.9 107.248 199.471 105.355 199.252 103.213C199.032 101.072 197.104 99.481 194.954 99.6672C192.802 99.8535 191.231 101.748 191.45 103.889Z" fill="#263238"/>
<path d="M199.646 102.773C202.008 101.773 203.186 102.412 203.196 102.42L203.551 101.912C203.494 101.876 202.093 101.072 199.371 102.225L199.646 102.773Z" fill="#263238"/>
<path d="M191.084 103.525L191.144 102.924C190.713 102.889 180.586 102.061 179.495 102.1C178.344 102.126 175.829 103.739 175.545 103.922L175.921 104.416C176.634 103.958 178.634 102.779 179.472 102.706C179.489 102.704 179.504 102.704 179.521 102.703C180.359 102.673 187.451 103.229 191.084 103.525Z" fill="#263238"/>
<path d="M179.573 103.745C181.364 103.647 186.024 99.1153 186.164 91.1636C186.164 91.1636 185.502 98.2964 184.919 99.3419C184.335 100.387 187.524 96.7921 187.734 90.3803C187.734 90.3803 191.597 92.9425 194.891 93.7902C198.184 94.6379 200.2 94.6081 200.434 94.3892C200.669 94.1704 195.823 92.7678 194.512 91.3787C194.512 91.3787 203.273 95.1208 207.311 95.402C207.779 95.4347 208.332 86.6017 202.088 82.8558C195.845 79.1099 185.957 83.1611 183.299 85.5236C183.299 85.5236 180.177 85.9336 176.786 90.1806C173.394 94.4276 177.645 103.851 179.573 103.745Z" fill="#263238"/>
<path d="M181.822 105.808C181.822 105.808 178.246 101.033 175.892 102.203C173.538 103.372 176.201 110.278 178.947 111.238C181.693 112.198 182.709 109.879 182.709 109.879L181.822 105.808Z" fill="#EB9481"/>
<path d="M176.708 104.164C176.664 104.16 176.655 104.217 176.694 104.231C178.618 104.963 179.621 106.615 180.32 108.326C179.751 107.666 178.972 107.301 178.01 107.922C177.96 107.955 178.007 108.028 178.061 108.017C178.854 107.867 179.423 107.997 179.952 108.583C180.327 108.997 180.582 109.521 180.849 109.999C180.938 110.158 181.25 110.075 181.186 109.892C181.181 109.879 181.176 109.864 181.17 109.851C181.237 107.588 179.349 104.41 176.708 104.164Z" fill="#263238"/>
<path d="M181.246 110.892C181.246 111.506 180.705 112.002 180.039 112.002C179.372 112.002 178.832 111.505 178.832 110.892C178.832 110.28 179.373 109.783 180.039 109.783C180.705 109.783 181.246 110.28 181.246 110.892Z" fill="white"/>
<path d="M218.175 202.224C218.175 202.224 162.572 202.982 148.77 202.09C148.77 202.09 160.024 143.434 174.87 128.611C175.444 128.035 176.029 127.507 176.624 127.027C177.532 126.326 177.407 120.73 177.835 120.346C178.273 119.952 196.303 122.102 196.533 122.506C196.752 122.909 197.692 128.189 197.692 128.189C201.784 132.979 214.949 149.578 216.505 156.422C218.039 163.286 213.206 170.851 213.206 170.851L218.175 202.224Z" fill="#455A64"/>
<path d="M170.639 139.07C167.358 153.648 169.305 185.199 176.941 190.933C189.496 200.361 219.577 203.118 227.98 204.031C231.605 204.424 238.812 182.625 236.385 179.812C233.959 176.999 196.884 172.616 195.124 171.128C193.9 170.093 188.152 151.059 183.189 140.326C176.482 125.821 171.848 133.698 170.639 139.07Z" fill="#EB9481"/>
<path d="M230.039 178.029C230.039 178.029 241.147 177.928 248.413 178.177C252.467 178.315 259.395 179.123 262.322 180.477C266.702 182.503 283.609 193.548 280.785 197.375C278.228 200.84 273.193 196.28 273.193 196.28C273.193 196.28 279.206 200.788 275.522 203.508C271.805 206.252 265.874 199.724 265.874 199.724C265.874 199.724 272.618 204.104 268.384 206.662C264.71 208.884 256.991 202.049 256.991 202.049C256.991 202.049 264.62 205.932 261.097 208.547C257.204 211.435 244.233 202.525 244.233 202.525C234.945 204.446 229.087 204.446 222.256 203.412C221.004 203.22 230.039 178.029 230.039 178.029Z" fill="#EB9481"/>
<path d="M267.728 201.247C267.239 200.752 266.736 200.269 266.245 199.776C265.281 198.808 264.333 197.871 263.251 197.013C262.205 196.184 261.123 195.401 260.013 194.647C258.841 193.849 257.573 193.158 256.425 192.334C256.333 192.268 256.232 192.392 256.329 192.454C257.495 193.209 258.544 194.166 259.607 195.038C260.66 195.902 261.7 196.781 262.74 197.659C263.757 198.518 264.829 199.307 265.871 200.137C266.39 200.551 266.89 200.987 267.389 201.421C267.857 201.828 268.304 202.309 268.841 202.635C268.895 202.668 268.952 202.601 268.923 202.556C268.617 202.07 268.139 201.661 267.728 201.247Z" fill="#263238"/>
<path d="M274.425 197.241C273.776 196.281 270.013 192.827 268.994 191.996C267.025 190.391 264.889 188.94 262.613 187.728C262.534 187.686 262.448 187.79 262.517 187.848C264.481 189.466 266.473 191.059 268.461 192.653C269.433 193.432 273.732 197.094 274.234 197.425C274.355 197.505 274.495 197.344 274.425 197.241Z" fill="#263238"/>
<path d="M261.544 205.163C260.877 204.275 257.319 201.065 256.34 200.316C255.421 199.614 251.248 197.14 249.922 196.612C249.838 196.578 249.752 196.681 249.826 196.732C251.854 198.111 253.902 199.453 255.857 200.921C256.809 201.636 260.428 204.688 261.402 205.299C261.491 205.355 261.602 205.24 261.544 205.163Z" fill="#263238"/>
<path d="M219.62 204.909L232.867 176.509C232.867 176.509 196.577 170.983 195.455 170.311C194.333 169.639 187.721 147.485 183.473 138.786C179.225 130.087 171.923 124.98 169.109 143.654C166.293 162.33 170.374 185.128 174.452 189.864C179.398 195.611 199.001 202.875 219.62 204.909Z" fill="#455A64"/>
<path d="M200.966 201.318C195.541 199.967 190.247 197.611 185.064 195.612C180.602 193.89 176.048 191.78 173.597 187.746C172.374 185.734 171.712 183.475 171.204 181.232C170.63 178.698 170.185 176.136 169.765 173.578C169.283 170.634 168.855 167.686 168.475 164.73C168.281 163.213 168.098 161.694 167.931 160.174C167.764 158.653 167.458 157.141 167.394 155.612C167.39 155.515 167.223 155.52 167.231 155.616C167.348 157.021 167.272 158.43 167.348 159.836C167.398 160.762 167.478 161.685 167.553 162.61C167.453 162.412 167.349 162.216 167.255 162.015C166.938 161.337 166.695 160.654 166.529 159.931C166.507 159.837 166.348 159.88 166.372 159.974C166.555 160.696 166.746 161.422 166.967 162.134C167.076 162.485 167.199 162.83 167.338 163.171C167.428 163.391 167.528 163.632 167.646 163.858C167.893 166.609 168.224 169.352 168.618 172.088C168.998 174.734 169.455 177.374 169.967 180.002C170.416 182.309 170.949 184.629 171.965 186.788C172.937 188.855 174.344 190.67 176.208 192.137C178.082 193.613 180.248 194.735 182.471 195.701C187.525 197.896 192.844 199.646 198.199 201.102C204.593 202.839 206.584 202.717 200.966 201.318Z" fill="#263238"/>
<path d="M214.594 173.545C213.257 173.382 197.461 170.331 196.889 170.174C196.174 169.978 195.872 169.552 195.621 168.941C195.139 167.766 194.705 166.572 194.243 165.39C193.448 163.358 192.651 161.329 191.826 159.308C191.816 158.86 191.732 158.395 191.681 157.961C191.617 157.421 191.523 156.882 191.426 156.346C191.215 155.185 190.848 154.045 190.681 152.879C190.665 152.77 190.488 152.799 190.521 152.903C190.89 154.022 190.969 155.236 191.086 156.396C191.133 156.857 191.165 157.32 191.202 157.782C190.712 156.605 190.223 155.427 189.715 154.257C189.122 152.892 188.437 151.516 187.963 150.112C187.932 150.019 187.768 150.066 187.807 150.156C188.347 151.406 188.728 152.748 189.159 154.035C189.593 155.333 190.046 156.626 190.504 157.916C191.406 160.462 192.361 162.991 193.318 165.52C193.781 166.744 194.226 167.976 194.719 169.19C195.107 170.146 195.66 170.771 196.763 171.043C199.51 171.722 212.929 173.772 214.559 173.825C214.732 173.831 214.768 173.566 214.594 173.545Z" fill="#263238"/>
<path d="M226.15 176.943C224.092 181.029 221.946 185.075 220.085 189.242C218.248 193.354 216.442 197.529 215.086 201.797C215.061 201.877 215.197 201.928 215.236 201.852C217.349 197.847 219.152 193.687 221 189.574C222.863 185.429 224.537 181.217 226.406 177.075C226.478 176.917 226.231 176.784 226.15 176.943Z" fill="#263238"/>
<path d="M265.186 173.701C263.59 174.532 254.444 172.208 250.742 174.754C248.281 176.446 245.881 180.5 245.361 185.823C244.824 191.312 249.552 191.031 251.285 188.664C254.243 184.623 256.829 179.034 256.829 179.034C259.143 179.414 261.775 180.247 261.775 180.247L265.186 173.701Z" fill="#AD6359"/>
<path d="M253.959 192.835C251.133 190.105 236.995 200.098 241.464 204.638C245.933 209.178 257.157 195.928 253.959 192.835Z" fill="#AD6359"/>
<path d="M258.68 196.744C255.856 194.014 241.716 204.008 246.185 208.548C250.654 213.087 261.879 199.837 258.68 196.744Z" fill="#AD6359"/>
<path d="M262.399 198.121C259.419 196.001 248.082 206.895 252.832 210.448C257.581 214.002 265.776 200.522 262.399 198.121Z" fill="#AD6359"/>
<path d="M266.439 198.679C263.022 197.482 255.836 210.534 261.334 212.602C266.833 214.67 270.309 200.033 266.439 198.679Z" fill="#AD6359"/>
<path d="M253.551 197.327C252.747 197.785 252.044 198.377 251.334 198.949C250.575 199.562 249.821 200.187 249.129 200.865C248.468 201.512 247.807 202.185 247.235 202.901C246.627 203.664 246.114 204.504 245.484 205.248C245.412 205.332 245.545 205.425 245.614 205.336C246.181 204.601 246.945 203.943 247.623 203.291C248.301 202.638 248.947 201.953 249.618 201.293C250.272 200.65 250.908 199.991 251.574 199.357C252.256 198.708 252.996 198.109 253.636 197.426C253.687 197.372 253.619 197.288 253.551 197.327Z" fill="#263238"/>
<path d="M259.163 198.544C258.559 199.402 256.434 202.715 255.791 203.55C255.144 204.391 254.469 205.218 253.78 206.03C253.081 206.855 252.419 207.748 251.641 208.511C251.569 208.581 251.687 208.685 251.759 208.615C252.543 207.846 253.396 207.154 254.14 206.346C254.875 205.549 255.562 204.724 256.213 203.867C256.867 203.004 258.914 199.554 259.321 198.602C259.358 198.515 259.212 198.474 259.163 198.544Z" fill="#263238"/>
<path d="M263.134 200.407C262.503 201.681 261.959 202.991 261.321 204.265C261.007 204.893 260.687 205.519 260.376 206.148C260.226 206.453 260.082 206.761 259.932 207.065C259.772 207.394 259.639 207.821 259.41 208.107C259.347 208.187 259.514 208.272 259.561 208.162C259.719 207.788 260.063 207.43 260.287 207.083C260.473 206.795 260.655 206.507 260.826 206.214C261.181 205.602 261.499 204.98 261.795 204.343C262.373 203.097 262.958 201.789 263.322 200.475C263.35 200.375 263.183 200.308 263.134 200.407Z" fill="#263238"/>
<path d="M272.303 91.295C270.816 104.363 258.083 113.854 243.872 112.487C238.128 111.935 233.022 109.692 229.069 106.345L216.123 108.092L222.6 97.8009C221.029 94.2844 220.366 90.3724 220.824 86.3433C222.311 73.2748 235.043 63.7842 249.255 65.1503C263.467 66.5183 273.789 78.2265 272.303 91.295Z" fill="white"/>
<path d="M272.303 91.295C271.762 95.639 270.035 99.8966 267.079 103.356C266.401 104.263 265.527 105.02 264.734 105.839C263.835 106.559 262.995 107.349 262.002 107.965C260.11 109.307 257.983 110.357 255.76 111.161C253.548 112.018 251.168 112.427 248.794 112.689C247.596 112.748 246.398 112.848 245.198 112.751C243.997 112.726 242.8 112.608 241.617 112.408C236.882 111.62 232.397 109.581 228.815 106.595L229.121 106.682L216.188 108.508L215.249 108.64L215.724 107.879L222.163 97.5676L222.133 97.9747C218.996 91.1827 219.704 83.0947 223.727 76.7673C225.733 73.5983 228.53 70.8681 231.832 68.8319C235.132 66.79 238.958 65.5094 242.875 65.0217C246.797 64.5436 250.832 64.871 254.577 66.0163C258.316 67.174 261.746 69.1219 264.556 71.6428C270.271 76.6377 273.143 84.1295 272.303 91.295ZM272.303 91.295C273.089 84.1238 270.16 76.6771 264.445 71.7513C261.608 69.287 258.173 67.4207 254.466 66.3379C250.753 65.2694 246.782 65.015 242.957 65.5449C239.135 66.0844 235.434 67.3929 232.269 69.4271C229.113 71.4652 226.45 74.1311 224.527 77.1926C222.566 80.2473 221.551 83.7475 221.243 87.2611C221 90.7862 221.626 94.3535 223.063 97.6271L223.157 97.8403L223.034 98.0351L216.519 108.306L216.055 107.678L229.013 106.01L229.192 105.987L229.319 106.097C232.744 109.054 237.079 111.118 241.71 111.967C242.867 112.181 244.04 112.316 245.221 112.359C246.4 112.474 247.581 112.393 248.762 112.355C251.106 112.133 253.468 111.768 255.674 110.955C257.888 110.193 260.029 109.192 261.916 107.862C262.909 107.256 263.747 106.475 264.649 105.764C265.443 104.954 266.32 104.205 267.002 103.307C269.972 99.8735 271.729 95.6361 272.303 91.295Z" fill="#263238"/>
<path d="M243.536 102.39L232.484 92.1014L236.198 88.728L242.654 94.7376L256.067 75.4012L260.469 77.9817L243.536 102.39Z" fill="#E8505B"/>
</svg>
