<svg width="522" height="481" viewBox="0 0 522 481" fill="none" xmlns="http://www.w3.org/2000/svg">
<path d="M453.89 423.079L435.052 413.373L426.075 431.032L434.624 435.437L431.448 441.686C429.079 446.346 430.91 452.059 435.541 454.444L440.14 456.814L447.607 442.126L455.206 427.178C455.967 425.681 455.377 423.845 453.89 423.079Z" fill="#E8505B"/>
<path d="M441.032 457.286L457.476 424.938L454.357 423.331L437.913 455.679L441.032 457.286Z" fill="white"/>
<path d="M427.841 433.436L429.675 429.379" stroke="white" stroke-width="0.75" stroke-miterlimit="10" stroke-linecap="round" stroke-linejoin="round"/>
<path d="M430.235 434.874L432.069 430.816" stroke="white" stroke-width="0.75" stroke-miterlimit="10" stroke-linecap="round" stroke-linejoin="round"/>
<path d="M432.713 436.361L434.546 432.303" stroke="white" stroke-width="0.75" stroke-miterlimit="10" stroke-linecap="round" stroke-linejoin="round"/>
<path d="M447.465 426.504C447.465 428.834 445.59 430.722 443.276 430.722C440.962 430.722 439.086 428.834 439.086 426.504C439.086 424.175 440.962 422.287 443.276 422.287C445.59 422.287 447.465 424.176 447.465 426.504Z" fill="white"/>
<path d="M508.837 301.488L499.61 291.326C498.483 290.085 496.569 289.998 495.335 291.133L479.716 305.508L493.011 320.151L500.098 313.627L504.139 318.078C507.649 321.943 513.605 322.212 517.443 318.679L521.257 315.169L508.837 301.488Z" fill="#E8505B"/>
<path d="M522 314.487L498.311 288.396L495.725 290.776L519.414 316.867L522 314.487Z" fill="white"/>
<path d="M495.867 319.325L492.732 316.176" stroke="white" stroke-width="0.75" stroke-miterlimit="10" stroke-linecap="round" stroke-linejoin="round"/>
<path d="M498.041 317.569L494.906 314.421" stroke="white" stroke-width="0.75" stroke-miterlimit="10" stroke-linecap="round" stroke-linejoin="round"/>
<path d="M500.291 315.754L497.156 312.606" stroke="white" stroke-width="0.75" stroke-miterlimit="10" stroke-linecap="round" stroke-linejoin="round"/>
<path d="M498.473 303.253C498.473 305.583 496.597 307.471 494.283 307.471C491.969 307.471 490.094 305.583 490.094 303.253C490.094 300.924 491.969 299.036 494.283 299.036C496.597 299.036 498.473 300.925 498.473 303.253Z" fill="white"/>
<path d="M402.181 356.546C408.195 372.263 428.002 377.009 440.404 365.705L494.906 321.875L476.392 301.938L436.726 330.038L425.932 272.691C423.414 258.97 422.184 245.397 414.802 233.589L402.466 217.007L350.807 222.215L341.536 218.613L336.225 281.561L330.4 339.764C328.962 354.132 334.849 368.255 346.041 377.286L424.113 435.995L436.726 411.627L371.491 352.056L383.896 308.754L402.181 356.546Z" fill="#455A64"/>
<path d="M365.208 248.16L380.136 321.874L383.896 308.752L365.208 248.16Z" fill="#344354"/>
<path d="M436.726 330.036L437.457 335.238L449.98 320.646L436.726 330.036Z" fill="#44576D"/>
<path d="M502.736 233.011H502.732C503.03 232.743 503.244 232.375 503.3 231.946C503.421 231.001 502.752 230.128 501.814 230.006L501.048 229.906C501.013 229.88 500.987 229.855 500.95 229.829C500.95 229.829 500.928 229.786 500.888 229.71C501.368 229.523 501.756 229.122 501.856 228.577C502.009 227.745 501.457 226.938 500.63 226.784L498.096 226.313C497.965 226.215 497.838 226.11 497.699 226.025C496.045 225.012 485.025 221.96 478.816 221.393C478.816 221.393 451.001 186.508 449.783 185.752L424.663 158.424L409.977 182.934L430.782 203.365C431.578 204.953 475.455 239.601 475.455 239.601V239.611L475.765 239.84L475.766 239.841L477.069 240.805C477.222 240.919 477.395 240.992 477.563 241.077C478.864 242.321 481.814 244.88 485.87 246.804C489.863 248.699 488.119 243.871 486.82 241.001L498.675 239.558L501.16 239.815C502.101 239.912 502.95 239.216 503.048 238.268C503.127 237.489 502.67 236.781 501.985 236.495C502.048 236.477 502.11 236.457 502.175 236.436L502.381 236.457C503.322 236.554 504.171 235.859 504.269 234.91C504.37 233.963 503.679 233.108 502.736 233.011Z" fill="#FFB380"/>
<path d="M295.567 110.781L281.823 70.0754C282.143 69.2605 282.672 68.255 283.592 67.208C286.289 64.1403 285.427 60.4083 285.427 60.4083C286.708 58.3166 288.308 56.4038 289.641 54.3394C289.78 54.1238 289.922 53.8905 289.896 53.6382C289.867 53.3575 289.636 53.1206 289.389 52.9382C287.953 51.877 286.092 52.1423 284.813 53.1254C284.064 53.701 283.459 54.4021 282.923 55.1424C282.667 55.493 281.736 56.5163 281.545 57.0884L283.685 42.4598C283.874 41.1605 283.025 39.9488 281.796 39.7676C281.181 39.6764 280.584 39.8588 280.116 40.2272C279.819 40.4605 279.584 40.7744 279.42 41.1332C279.407 41.0337 279.4 40.9745 279.4 40.9745C269.462 36.9961 266.937 59.7474 266.937 59.7474L265.846 70.2519L269.866 117.715C269.875 117.796 269.896 117.873 269.908 117.954C269.98 122.815 272.625 127.484 277.203 129.899L298.878 142.913L310.295 118.625L295.567 110.781ZM281.513 57.3016L281.512 57.3051L281.513 57.3016Z" fill="#FFB380"/>
<path d="M281.386 56.5841C281.386 56.5841 277.009 55.6378 275.417 59.7927L281.386 56.5841Z" fill="#22201F"/>
<path d="M279.719 41.1219C279.035 42.786 278.449 44.52 278.043 46.2693C277.837 47.1434 277.678 48.027 277.616 48.9023C277.552 49.7716 277.563 50.654 277.789 51.4203L277.791 51.4286C277.883 51.7425 277.705 52.0718 277.394 52.1653C277.082 52.2577 276.755 52.0789 276.662 51.765C276.66 51.7567 276.657 51.746 276.655 51.7377C276.409 50.7239 276.457 49.7432 276.563 48.7969C276.673 47.8482 276.881 46.9314 277.134 46.0336C277.636 44.2345 278.301 42.5136 279.083 40.827C279.165 40.6505 279.374 40.5735 279.549 40.6564C279.719 40.737 279.796 40.9371 279.725 41.1112L279.719 41.1219Z" fill="#22201F"/>
<path d="M277.265 40.8032C276.686 41.3504 276.199 42.17 275.845 42.9718C275.482 43.7903 275.236 44.6632 275.057 45.5491C274.865 46.4327 274.787 47.3423 274.725 48.2472C274.685 49.158 274.7 50.07 274.746 50.982V50.995C274.763 51.3219 274.512 51.6002 274.188 51.6156C273.863 51.6322 273.586 51.3799 273.571 51.053C273.571 51.0459 273.57 51.0365 273.57 51.0294C273.56 50.0759 273.583 49.1236 273.663 48.1714C273.766 47.2203 273.886 46.2692 274.128 45.3371C274.355 44.405 274.655 43.4835 275.083 42.6118C275.525 41.74 276.013 40.9216 276.819 40.2205C276.971 40.0878 277.2 40.1056 277.332 40.2584C277.46 40.4076 277.447 40.6303 277.306 40.7641L277.265 40.8032Z" fill="#22201F"/>
<path d="M274.318 41.9151C273.586 43.199 272.998 44.6084 272.585 46.0321C272.174 47.4605 271.964 48.9386 272.069 50.3706L272.07 50.3812C272.093 50.7081 271.85 50.9912 271.526 51.0161C271.202 51.0397 270.92 50.7946 270.896 50.4689C270.895 50.4582 270.895 50.4464 270.895 50.4369C270.864 48.8083 271.186 47.2295 271.698 45.7478C272.219 44.2626 272.89 42.865 273.741 41.5396C273.844 41.3797 274.057 41.3335 274.216 41.4378C274.37 41.5372 274.417 41.741 274.327 41.8985L274.318 41.9151Z" fill="#22201F"/>
<path d="M402.948 133.872C398.274 129.198 391.938 126.601 385.351 126.663L382.101 126.692C381.376 126.624 380.644 126.598 379.902 126.665L379.314 126.718L377.327 126.736L377.357 126.895L375.753 127.04L351.885 129.203C348.804 129.483 346.112 130.03 343.801 130.908V130.899L310.297 118.626L298.88 142.914L297.636 145.56L335.746 170.363C337.576 191.568 340.365 224.543 340.544 230.397C340.606 232.453 406.457 223.161 406.366 222.246C404.871 207.221 401.271 186.324 399.548 175.973L408.876 184.778L409.982 182.933L424.668 158.423L426.288 155.719L402.948 133.872Z" fill="#AAC7D8"/>
<path d="M321.311 160.969L339.337 166.401L338.15 198.706L335.744 170.363L321.311 160.969Z" fill="#9BB2C0"/>
<path d="M399.546 175.973L393.729 164.206V176.276L403.44 199.954L399.546 175.973Z" fill="#9BB2C0"/>
<path d="M403.831 98.9751C401.201 97.6793 397.813 96.3232 393.486 94.7159L383.489 80.4569C385.367 79.7498 387.19 78.5642 388.739 76.9048C393.225 72.0997 393.733 65.2455 389.875 61.5964C386.018 57.946 379.255 58.8829 374.769 63.6868C373.859 64.6628 373.121 65.724 372.541 66.8243C368.709 63.8384 363.228 61.7894 355.356 61.7598C335.832 61.6864 333.516 81.6685 333.516 81.6685C333.516 81.6685 336.343 82.5059 339.806 82.8778C340.985 83.0045 342.238 83.0768 343.478 83.0436L336.37 97.0919C330.335 100.387 326.281 102.831 323.703 105.135C321.267 107.313 322.217 111.251 325.293 112.336C327.384 113.074 329.723 114.684 331.596 118.031C335.74 125.439 351.427 127.55 365.133 122.281L365 122.81C380.254 127.744 397.876 123.351 401.183 114.754C402.148 112.246 403.46 110.548 404.834 109.401C408.326 106.488 407.904 100.981 403.831 98.9751Z" fill="#653D37"/>
<path d="M377.587 93.3794L377.53 93.878L377.526 93.8804C374.059 95.933 369.484 94.5081 367.994 90.7476C367.871 90.435 367.78 90.1021 367.7 89.7658C350.281 86.9185 351.974 78.5293 351.974 78.5293C350.389 83.0265 344.511 83.383 339.807 82.8784L337.01 99.3322C335.302 109.381 342.007 118.92 351.988 120.64C352.406 120.712 352.821 120.747 353.236 120.79L352.907 132.547C352.761 137.76 356.841 142.107 362.02 142.254C367.2 142.401 371.517 138.293 371.662 133.078L372.347 108.598C372.659 107.707 372.914 106.786 373.091 105.829H373.093L374.391 106.053C377.939 106.664 381.307 104.264 381.914 100.692C382.464 97.4668 380.57 94.3968 377.587 93.3794Z" fill="#FFB380"/>
<path opacity="0.46" d="M351.136 118.945C341.768 117.331 335.473 108.376 337.077 98.945L339.894 82.3704L337.011 99.3311C335.303 109.38 342.008 118.919 351.989 120.639C352.407 120.711 352.821 120.746 353.236 120.789L352.881 131.877L367.291 116.21L367.274 116.215C370.207 113.587 372.322 110.001 373.095 105.828L370.856 105.441C368.959 114.508 360.284 120.521 351.136 118.945Z" fill="#FF8B2E"/>
<path d="M377.448 97.3571L375.253 100.516L377.233 101.872" stroke="#FF8B2E" stroke-width="0.5" stroke-miterlimit="10" stroke-linecap="round"/>
<path d="M354.571 95.4695C354.473 96.0534 354.862 96.6077 355.442 96.7072C356.022 96.8067 356.573 96.4147 356.671 95.8308C356.77 95.2469 356.381 94.6926 355.801 94.5931C355.221 94.4936 354.67 94.8856 354.571 95.4695Z" fill="#1C3472"/>
<path d="M342.624 93.3233C342.525 93.9072 342.914 94.4615 343.494 94.561C344.074 94.6605 344.625 94.2684 344.724 93.6845C344.822 93.1006 344.433 92.5463 343.853 92.4468C343.273 92.3473 342.723 92.7405 342.624 93.3233Z" fill="#1C3472"/>
<path d="M349.926 101.279C348.73 101.077 347.738 101.086 346.816 100.16C345.958 99.2976 345.45 97.8182 346.054 96.7227C346.321 96.2394 346.877 95.9646 347.448 95.9966L348.614 96.063L350.686 89.9514" stroke="#FF8B2E" stroke-width="0.5" stroke-miterlimit="10" stroke-linecap="round"/>
<path d="M346.919 109.531C346.919 109.531 345.893 107.771 343.958 108.173" stroke="#FF8B2E" stroke-width="0.5" stroke-miterlimit="10" stroke-linecap="round"/>
<path d="M360.472 92.6636C359.969 92.6672 359.442 92.3805 358.918 92.133C358.394 91.8724 357.861 91.6237 357.391 91.4235C356.92 91.2234 356.371 91.0113 355.82 90.8159C355.277 90.6098 354.703 90.4274 354.361 90.065C354.03 89.7215 354.072 89.1578 354.805 88.7551C355.501 88.3559 356.946 88.215 358.507 88.8735C360.062 89.5391 360.949 90.6726 361.134 91.446C361.339 92.2491 360.953 92.666 360.472 92.6636Z" fill="#FFC727"/>
<path d="M341.724 88.6835C342.106 88.8161 342.581 88.7332 343.045 88.6799C343.511 88.616 343.98 88.5639 344.389 88.5331C344.8 88.5011 345.273 88.4821 345.742 88.475C346.209 88.4573 346.694 88.4667 347.046 88.2784C347.387 88.1019 347.498 87.6613 347.041 87.1651C346.611 86.6806 345.545 86.1998 344.186 86.3005C342.83 86.4071 341.865 87.0431 341.527 87.5855C341.168 88.1434 341.357 88.5615 341.724 88.6835Z" fill="#FFC727"/>
<path d="M357.282 100.105C357.282 100.105 354.709 102.151 351.862 103.2C349.015 104.25 352.371 108.679 356.764 107.324C361.158 105.969 359.573 99.0855 357.282 100.105Z" fill="white"/>
<path d="M342.334 94.3797C342.334 94.3797 343.612 94.1594 344.449 94.8155" stroke="#FF8B2E" stroke-width="0.25" stroke-miterlimit="10" stroke-linecap="round"/>
<path d="M354.347 96.5295C354.347 96.5295 355.625 96.3091 356.461 96.9653" stroke="#FF8B2E" stroke-width="0.25" stroke-miterlimit="10" stroke-linecap="round"/>
<path d="M181.589 461.021L170.195 455.42L174.521 446.5L153.15 435.994L143.582 455.722C142.849 457.233 143.472 459.057 144.973 459.795L163.625 468.964L186.183 480.054L187.301 477.748C190.312 471.541 187.754 464.052 181.589 461.021Z" fill="#E8505B"/>
<path d="M187.296 477.745L143.367 456.148L141.788 459.403L185.717 481L187.296 477.745Z" fill="#EAEAEA"/>
<path d="M171.021 456.419C170.551 456.329 170.415 455.722 170.794 455.427C172.372 454.201 175.552 452.126 176.251 454.68C176.955 457.253 173.026 456.804 171.021 456.419Z" stroke="#EAEAEA" stroke-width="0.75" stroke-miterlimit="10" stroke-linecap="round" stroke-linejoin="round"/>
<path d="M164.703 452.242C166.243 449.514 169.138 453.176 170.488 455.175C170.7 455.488 170.597 455.869 170.339 456.065C170.211 456.162 170.045 456.214 169.86 456.189C167.533 455.888 163.175 454.95 164.703 452.242Z" stroke="#EAEAEA" stroke-width="0.75" stroke-miterlimit="10" stroke-linecap="round" stroke-linejoin="round"/>
<path d="M170.476 456.356C170.476 456.356 169.116 460.13 165.762 460.266" stroke="#EAEAEA" stroke-width="0.75" stroke-miterlimit="10" stroke-linecap="round" stroke-linejoin="round"/>
<path d="M158.905 452.43C157.845 454.614 155.228 455.52 153.058 454.454C150.889 453.387 149.989 450.753 151.048 448.568C152.107 446.384 154.724 445.478 156.895 446.544C159.064 447.611 159.964 450.246 158.905 452.43Z" fill="#EAEAEA"/>
<path d="M34.5643 316.134L13.1441 312.023C11.503 311.708 9.91834 312.792 9.60542 314.445L5.71854 334.972L1.01758 359.799L3.52099 360.28C10.2607 361.574 16.7663 357.122 18.0509 350.336L20.4261 337.796L30.1115 339.655L34.5643 316.134Z" fill="#E8505B"/>
<path d="M3.5336 360.273L12.6899 311.926L9.15616 311.248L-0.000183902 359.595L3.5336 360.273Z" fill="#EAEAEA"/>
<path d="M19.6839 338.861C19.6474 338.38 20.1921 338.088 20.5732 338.38C22.1638 339.591 24.9872 342.136 22.7237 343.485C20.4438 344.843 19.8427 340.91 19.6839 338.861Z" stroke="#EAEAEA" stroke-width="0.75" stroke-miterlimit="10" stroke-linecap="round" stroke-linejoin="round"/>
<path d="M22.0274 331.625C25.0473 332.404 22.298 336.179 20.7369 338.016C20.4922 338.304 20.1004 338.304 19.8452 338.104C19.7181 338.006 19.6252 337.857 19.5993 337.671C19.277 335.331 19.0299 330.852 22.0274 331.625Z" stroke="#EAEAEA" stroke-width="0.75" stroke-miterlimit="10" stroke-linecap="round" stroke-linejoin="round"/>
<path d="M19.6019 338.313C19.6019 338.313 15.6279 337.984 14.6162 334.761" stroke="#EAEAEA" stroke-width="0.75" stroke-miterlimit="10" stroke-linecap="round" stroke-linejoin="round"/>
<path d="M26.8842 323.015C26.8842 325.732 24.6961 327.936 21.9962 327.936C19.2975 327.936 17.1094 325.733 17.1094 323.015C17.1094 320.296 19.2975 318.094 21.9962 318.094C24.6961 318.094 26.8842 320.297 26.8842 323.015Z" fill="#EAEAEA"/>
<path d="M204.75 305.754L179.665 244.865L155.331 238.753L121.405 235.174L95.8643 244.375L98.7312 329.049L33.8777 311.986C32.7872 312.302 29.2744 343.048 29.2744 343.048L109.257 365.303C121.407 368.768 134.499 363.15 139.936 351.676C142.679 345.887 144.387 339.546 144.898 333.952L148.095 304.787L165.074 324.298C165.074 324.298 149.895 436.984 150.182 437.01C150.182 437.01 176.739 452.192 176.916 451.492L206.889 335.053C209.324 325.308 208.573 315.035 204.75 305.754Z" fill="#46506C"/>
<path d="M152.59 263.771L155.012 312.736L148.004 305.619L152.59 263.771Z" fill="#394157"/>
<path d="M64.4532 230.932C64.2649 229.497 63.8238 228.157 62.9791 227.043C62.6685 226.633 62.3015 226.26 62.0791 225.797C61.6074 224.817 62.3497 223.046 62.558 222.008C62.7332 221.128 62.9097 220.248 63.085 219.368C62.9838 219.4 62.8944 219.455 62.7897 219.479L46.2117 223.199C46.1705 223.209 46.1317 223.203 46.0905 223.211C44.887 225.529 43.5777 229.464 44.2894 234.989L42.2412 247.024C42.1177 247.751 42.6071 248.447 43.3294 248.572L44.0141 248.69C44.7364 248.814 45.4282 248.322 45.5517 247.594L47.5963 235.581L45.3058 249.036C45.167 249.854 45.7176 250.638 46.5305 250.779L47.301 250.912C48.1139 251.052 48.8927 250.497 49.0327 249.679L48.7657 251.247C48.6268 252.066 49.1774 252.85 49.9903 252.989L50.7609 253.122C51.5738 253.262 52.3525 252.708 52.4914 251.889L55.0407 236.913L52.6478 250.969C52.509 251.787 53.0596 252.571 53.8725 252.711L54.643 252.844C55.4559 252.984 56.2347 252.429 56.3747 251.611L59.0052 236.255C59.4322 236.611 59.4499 238.749 59.5522 239.324C59.7981 240.696 60.3557 242.452 61.6062 242.569C63.0779 242.706 63.5661 241.087 63.7461 239.928C64.1532 237.295 64.8437 233.909 64.4532 230.932Z" fill="#FEAD6C"/>
<path d="M261.275 69.2569L242.541 64.5773L240.136 63.9768L218.272 108.058L179.905 114.738C175.677 111.914 170.709 110.085 165.299 109.61C159.472 109.098 153.644 108.585 147.818 108.073C138.627 107.266 127.228 104.283 118.338 107.261C112.646 109.167 107.008 112.522 101.593 115.137C97.4834 117.122 93.3766 119.111 89.2673 121.097C80.2325 125.465 71.1988 129.835 62.1639 134.203C60.6828 134.919 59.2017 135.635 57.7206 136.351C54.4854 137.916 52.2443 141.007 51.7503 144.585L41.4954 218.825C41.126 221.498 43.4789 223.713 46.0882 223.212C46.1293 223.204 46.1682 223.21 46.2093 223.2L62.7874 219.48C62.8921 219.456 62.9815 219.402 63.0827 219.369C64.2626 218.992 65.1943 218.06 65.5155 216.841L79.129 165.124L101.851 157.077C99.0739 180.443 94.6447 229.531 93.4871 242.503C93.333 244.229 94.6812 245.708 96.4035 245.712L180.269 245.987C182.038 245.993 183.523 244.649 183.705 242.877L192.604 156.025L233.951 135.367C239.706 133.753 243.818 129.118 245.067 123.641C245.099 123.552 245.141 123.471 245.172 123.381L262.643 69.6016L261.275 69.2569Z" fill="#44576D"/>
<path d="M262.409 58.5657C262.409 58.5657 265.022 32.2327 252.832 34.3102C252.832 34.3102 252.81 34.3753 252.771 34.4843C252.673 34.0378 252.483 33.6268 252.204 33.2904C251.764 32.761 251.132 32.408 250.416 32.3618C248.983 32.2683 247.73 33.4314 247.634 34.945L246.538 52.0029C246.461 51.31 245.653 49.9266 245.449 49.4671C245.02 48.5006 244.504 47.5602 243.796 46.7275C242.586 45.305 240.547 44.5518 238.668 45.4022C238.346 45.5479 238.027 45.7587 237.927 46.0702C237.838 46.3485 237.941 46.6482 238.047 46.9241C239.058 49.5819 240.407 52.1343 241.353 54.8099C241.353 54.8099 239.481 58.8179 241.794 62.9432C242.115 63.5165 242.347 64.0566 242.543 64.5777L261.277 69.2573L262.409 58.5657ZM246.521 52.2575C246.522 52.2551 246.521 52.2516 246.522 52.2492L246.521 52.2575Z" fill="#FFB380"/>
<path d="M246.838 51.4703C246.838 51.4703 252.012 51.4668 252.816 56.5503" stroke="#22201F" stroke-miterlimit="10" stroke-linecap="round"/>
<path d="M253.175 34.2315C253.646 36.3255 253.978 38.4325 254.108 40.5834C254.175 41.6565 254.185 42.7414 254.079 43.8334C253.97 44.9219 253.786 46.0341 253.27 47.1012C253.128 47.3949 252.776 47.5181 252.483 47.3748C252.191 47.2315 252.069 46.8774 252.211 46.5824C252.215 46.5753 252.218 46.5694 252.221 46.5623L252.227 46.5516C252.671 45.7214 252.892 44.7182 253.028 43.7138C253.165 42.7023 253.195 41.6612 253.169 40.6213C253.123 38.5403 252.872 36.4368 252.49 34.3854L252.488 34.3736C252.452 34.1817 252.577 33.9981 252.768 33.9614C252.954 33.9271 253.132 34.0479 253.175 34.2315Z" fill="#22201F"/>
<path d="M255.929 34.6245C256.656 35.5258 256.979 36.4887 257.264 37.4919C257.527 38.4904 257.682 39.5113 257.742 40.5311C257.819 41.5521 257.797 42.5719 257.752 43.5893C257.687 44.6043 257.573 45.6134 257.435 46.6178C257.39 46.9423 257.092 47.1674 256.771 47.1223C256.449 47.0773 256.225 46.7777 256.27 46.4543C256.271 46.4484 256.272 46.4413 256.273 46.4354L256.276 46.4212C256.446 45.4535 256.593 44.4835 256.692 43.5075C256.772 42.5328 256.83 41.5545 256.792 40.5809C256.772 39.6061 256.662 38.6373 256.45 37.698C256.243 36.7801 255.904 35.803 255.399 35.1279L255.359 35.0746C255.239 34.9135 255.271 34.6837 255.431 34.5629C255.584 34.4445 255.805 34.4729 255.929 34.6245Z" fill="#22201F"/>
<path d="M259.383 36.5503C260.041 38.2227 260.53 39.9353 260.762 41.7321C260.983 43.5051 260.976 45.4476 260.019 47.2076C259.863 47.4942 259.505 47.5996 259.221 47.4421C258.936 47.2846 258.831 46.9245 258.988 46.6379C258.992 46.6296 258.997 46.6201 259.003 46.6118L259.018 46.587C259.829 45.2687 259.981 43.5122 259.837 41.8304C259.701 40.1355 259.297 38.4228 258.747 36.8061L258.741 36.7884C258.68 36.6083 258.775 36.4117 258.954 36.3501C259.127 36.2909 259.316 36.3797 259.383 36.5503Z" fill="#22201F"/>
<path d="M218.272 108.058L223.262 117.4L213.741 108.847L218.272 108.058Z" fill="#334050"/>
<path d="M192.606 156.024L185.791 151.376L189.198 189.277L192.606 156.024Z" fill="#334050"/>
<path d="M101.852 157.074L107.901 153.72L98.5122 188.687L101.852 157.074Z" fill="#334050"/>
<path d="M197.173 55.0882C195.856 53.0084 193.259 52.1687 190.598 52.6673C192.966 47.9202 193.279 42.8154 190.93 38.6629C186.565 30.9512 174.739 29.4553 164.514 35.3193C160.075 37.8658 156.691 41.387 154.617 45.1818C154 45.5976 153.411 46.0583 152.861 46.5664C150.786 44.9923 147.402 45.0302 144.493 46.8969C140.962 49.1614 139.507 53.218 141.24 55.9564C141.293 56.0405 141.37 56.1021 141.428 56.1814C139 58.7125 138.626 62.8911 140.75 66.2453C141.913 68.0835 143.619 69.3355 145.465 69.9099C143.296 72.1757 142.595 75.2172 143.965 77.4321C145.669 80.1894 149.933 80.6193 153.485 78.3914C157.038 76.1636 158.537 72.1236 156.831 69.3663C156.575 68.9505 156.242 68.6106 155.877 68.3074C156.619 66.9856 157.261 65.5063 157.798 64.0708C163.421 67.8988 172.348 67.8135 180.316 63.2429C180.978 62.8627 181.61 62.4541 182.223 62.0312C182.781 62.0312 183.318 62.0312 183.831 62.0312C183.964 62.4671 184.138 62.8911 184.39 63.2867C186.236 66.2027 190.593 66.7298 194.122 64.4652C197.653 62.203 199.017 58.003 197.173 55.0882Z" fill="#512F2A"/>
<path d="M159.816 57.2827C159.816 57.2827 156.296 73.8466 149.986 72.6966C149.454 72.5995 147.467 69.4584 147.041 68.7774C144.502 69.4691 142.532 71.6709 142.289 74.4637C141.98 78.0383 144.607 81.1888 148.157 81.5003L149.688 81.6353L149.071 88.7524L146.755 115.48C146.392 119.675 149.475 123.374 153.642 123.74L161.11 124.396C165.277 124.762 168.951 121.658 169.314 117.462L170.575 102.917L172.087 103.049C178.769 103.637 184.658 98.6588 185.242 91.9325L185.316 91.0798L187.793 62.4929C186.753 62.3579 185.473 62.0346 184.043 62.0334C175.776 62.0227 160.666 62.2371 159.816 57.2827Z" fill="#FEAD6C"/>
<path d="M172.099 74.5736C172.049 75.1575 171.537 75.5898 170.957 75.5389C170.377 75.4879 169.948 74.9727 169.998 74.3888C170.049 73.8049 170.561 73.3726 171.14 73.4235C171.72 73.4744 172.15 73.9897 172.099 74.5736Z" fill="#0E0E0E"/>
<path d="M184.733 75.6838C184.682 76.2677 184.171 76.7 183.591 76.6491C183.011 76.5982 182.581 76.0829 182.632 75.499C182.683 74.9151 183.194 74.4828 183.774 74.5337C184.354 74.5847 184.784 75.0999 184.733 75.6838Z" fill="black"/>
<path d="M176.476 70.7708L178.99 79.501C179.045 79.6929 179.016 79.8919 178.905 80.0612C178.504 80.6724 177.242 81.9563 173.954 81.2445" stroke="#FF8B2E" stroke-miterlimit="10" stroke-linecap="round"/>
<path d="M161.918 68.2168C162.611 68.43 163.458 68.2523 164.286 68.128C165.118 67.9847 165.955 67.8615 166.688 67.7798C167.422 67.698 168.268 67.6329 169.11 67.5902C169.946 67.5298 170.815 67.5156 171.436 67.1568C172.036 66.8192 172.208 66.0221 171.359 65.161C170.557 64.3201 168.616 63.5242 166.188 63.7895C163.764 64.0654 162.072 65.2653 161.5 66.2602C160.888 67.2823 161.251 68.019 161.918 68.2168Z" fill="#FFC727"/>
<path d="M185.485 66.8395C184.979 67.0918 184.305 67.0622 183.651 67.0716C182.993 67.0669 182.332 67.0787 181.758 67.1095C181.182 67.1391 180.524 67.1972 179.871 67.2706C179.22 67.3298 178.55 67.4305 178.027 67.2315C177.524 67.0468 177.291 66.4557 177.837 65.6859C178.348 64.9373 179.741 64.0786 181.644 63.9732C183.543 63.8773 184.996 64.5867 185.56 65.2796C186.16 65.9903 185.973 66.6038 185.485 66.8395Z" fill="#FFC727"/>
<path d="M147.402 72.3994L148.715 75.9811L146.481 76.7782" stroke="#FF8B2E" stroke-miterlimit="10" stroke-linecap="round"/>
<path d="M172.139 75.6169C172.139 75.6169 170.974 75.1586 169.56 75.5163" stroke="#FF8B2E" stroke-width="0.5" stroke-miterlimit="10" stroke-linecap="round"/>
<path d="M184.95 76.796C184.95 76.796 183.785 76.3376 182.371 76.6953" stroke="#FF8B2E" stroke-width="0.5" stroke-miterlimit="10" stroke-linecap="round"/>
<path d="M164.594 80.9034C164.594 80.9034 167.949 83.0318 171.508 83.9249C175.066 84.8179 171.596 90.5812 166.137 89.52C160.68 88.4588 161.709 79.9737 164.594 80.9034Z" fill="#FF8B2E"/>
<path d="M164.744 84.2778C165.932 84.7966 166.478 86.1883 165.962 87.3857" stroke="#FEAD6C" stroke-width="0.5" stroke-miterlimit="10" stroke-linecap="round"/>
<path opacity="0.64" d="M172.967 101.513L161.729 100.525C155.457 99.9747 150.816 94.4092 151.363 88.0951L151.907 81.8308L149.688 81.6354L149.071 88.7525C148.556 94.7029 152.368 100.022 157.878 101.578L169.619 111.056L170.327 102.893L172.087 103.048C178.769 103.636 184.658 98.6577 185.242 91.9314L185.316 91.0787C184.766 97.3927 179.238 102.064 172.967 101.513Z" fill="#FF8B2E"/>
<path d="M266.376 1C266.376 1 273.083 15.5587 268.024 27.5544" stroke="#E8505B" stroke-miterlimit="10" stroke-linecap="round"/>
<path d="M253.909 14.077C253.909 14.077 261.712 23.3569 260.96 29.1782" stroke="#E8505B" stroke-miterlimit="10" stroke-linecap="round"/>
<path d="M284.867 18.7838C284.867 18.7838 275.253 26.1425 274.736 31.99" stroke="#E8505B" stroke-miterlimit="10" stroke-linecap="round"/>
</svg>
