<svg width="522" height="480" viewBox="0 0 522 480" fill="none" xmlns="http://www.w3.org/2000/svg">
<path d="M171.652 38.9933V109.448H61.6066L57.6426 39.4867L171.652 38.9933Z" fill="#E0E0E0"/>
<path d="M57.6421 39.4864L57.6421 109.3H167.687V39.4864H57.6421Z" fill="white"/>
<path d="M168.21 109.779H57.1206V39.0068H168.21V109.779ZM58.1646 108.819H167.166V39.9668H58.1646V108.819Z" fill="#E0E0E0"/>
<path d="M155.769 48.1603H69.561V100.626H155.769V48.1603Z" fill="white"/>
<path d="M155.768 48.1603C155.768 48.1603 155.62 48.169 155.343 48.1738C155.051 48.1766 154.646 48.1814 154.118 48.1872C153.026 48.1939 151.44 48.2026 149.383 48.215C145.243 48.2294 139.222 48.2506 131.618 48.2765C116.416 48.3043 94.8968 48.3437 69.561 48.3898L69.8105 48.1603C69.8178 64.1904 69.8251 81.9514 69.8324 100.62V100.626L69.561 100.377C102.081 100.396 132.063 100.413 155.768 100.428L155.552 100.626C155.6 84.6605 155.639 71.569 155.666 62.4528C155.69 57.8966 155.709 54.337 155.721 51.8966C155.732 50.6909 155.74 49.7654 155.745 49.1232C155.754 48.4944 155.768 48.1603 155.768 48.1603C155.768 48.1603 155.784 48.4656 155.791 49.081C155.796 49.7146 155.805 50.6285 155.815 51.8179C155.828 54.2477 155.847 57.792 155.871 62.329C155.898 71.4749 155.937 84.6077 155.984 100.626L155.985 100.826H155.768C132.063 100.84 102.081 100.858 69.561 100.877H69.2896V100.626V100.62C69.2979 81.9514 69.3052 64.1904 69.3115 48.1603V47.9299H69.561C94.9636 47.976 116.539 48.0154 131.781 48.0432C139.361 48.0701 145.363 48.0902 149.49 48.1046C151.524 48.1171 153.094 48.1258 154.174 48.1325C154.69 48.1382 155.087 48.143 155.372 48.1459C155.64 48.1507 155.768 48.1603 155.768 48.1603Z" fill="#E0E0E0"/>
<path d="M57.6427 39.2909C57.6887 39.2362 58.409 39.671 59.5344 40.4179C60.6599 41.1658 62.1935 42.2256 63.8483 43.4438C65.504 44.663 66.9594 45.815 67.9846 46.6781C69.0098 47.5411 69.609 48.1104 69.561 48.1613C69.4587 48.2678 66.8132 46.2614 63.5079 43.8346C60.2016 41.4096 57.5456 39.4042 57.6427 39.2909Z" fill="#E0E0E0"/>
<path d="M167.687 39.4867C167.78 39.5952 165.188 41.6246 161.897 44.0198C158.606 46.416 155.862 48.2688 155.769 48.1613C155.676 48.0528 158.268 46.0234 161.56 43.6282C164.85 41.232 167.594 39.3782 167.687 39.4867Z" fill="#E0E0E0"/>
<path d="M167.6 109.309C163.51 106.261 159.42 103.213 155.331 100.165L167.6 109.309Z" fill="white"/>
<path d="M155.331 100.165C155.425 100.058 158.249 102.018 161.636 104.543C165.025 107.069 167.695 109.203 167.6 109.309C167.506 109.417 164.683 107.457 161.294 104.931C157.906 102.406 155.236 100.272 155.331 100.165Z" fill="#E0E0E0"/>
<path d="M57.6426 109.299C57.5497 109.19 60.1148 107.182 63.3721 104.814C66.6304 102.444 69.3458 100.612 69.4398 100.72C69.5327 100.829 66.9676 102.836 63.7093 105.206C60.452 107.575 57.7355 109.407 57.6426 109.299Z" fill="#E0E0E0"/>
<path d="M87.0645 64.5063V82.0734H141.308V64.5063H87.0645Z" fill="#E0E0E0"/>
<path d="M283.937 103.592H224.144V183.286H283.937V103.592Z" fill="#E0E0E0"/>
<path d="M280.94 103.592H221.147V183.286H280.94V103.592Z" fill="#F5F5F5"/>
<path d="M273.513 112.223H228.577V174.655H273.513V112.223Z" fill="white"/>
<path d="M273.513 174.655C273.513 174.655 273.507 174.549 273.504 174.349C273.502 174.143 273.499 173.849 273.496 173.464C273.492 172.68 273.486 171.531 273.478 170.04C273.469 167.048 273.455 162.687 273.438 157.18C273.42 146.172 273.394 130.582 273.365 112.224L273.514 112.361C259.785 112.365 244.573 112.369 228.584 112.374H228.579L228.742 112.224C228.729 135.776 228.718 157.491 228.708 174.656L228.579 174.537C242.264 174.563 253.481 174.585 261.286 174.599C265.191 174.612 268.24 174.622 270.322 174.63C271.357 174.636 272.15 174.64 272.694 174.643C273.23 174.646 273.513 174.655 273.513 174.655C273.513 174.655 273.249 174.663 272.72 174.667C272.182 174.67 271.398 174.675 270.372 174.681C268.297 174.687 265.257 174.698 261.365 174.711C253.54 174.727 242.295 174.748 228.577 174.774H228.447V174.655C228.438 157.49 228.427 135.775 228.414 112.223V112.073H228.577H228.582C244.571 112.078 259.784 112.082 273.512 112.086H273.661V112.223C273.631 130.618 273.606 146.239 273.588 157.269C273.57 162.764 273.558 167.114 273.548 170.099C273.54 171.578 273.535 172.717 273.531 173.495C273.526 173.873 273.523 174.162 273.522 174.365C273.519 174.56 273.513 174.655 273.513 174.655Z" fill="#E0E0E0"/>
<path d="M281.109 103.592C281.144 103.617 280.738 104.161 280.043 105.015C279.349 105.87 278.362 107.031 277.238 108.288C276.112 109.545 275.061 110.656 274.282 111.447C273.503 112.238 273 112.709 272.967 112.682C272.932 112.654 273.375 112.135 274.108 111.309C274.91 110.415 275.896 109.314 276.987 108.098C278.077 106.881 279.063 105.78 279.863 104.885C280.604 104.065 281.073 103.566 281.109 103.592Z" fill="#E0E0E0"/>
<path d="M273.742 174.453C275.974 177.716 278.608 180.747 281.579 183.467L273.742 174.453Z" fill="white"/>
<path d="M281.579 183.467C281.549 183.494 281.016 183.068 280.212 182.323C279.408 181.579 278.344 180.508 277.256 179.257C276.168 178.005 275.266 176.815 274.653 175.93C274.039 175.045 273.705 174.473 273.74 174.453C273.781 174.43 274.183 174.961 274.843 175.812C275.502 176.662 276.428 177.826 277.509 179.071C278.591 180.314 279.621 181.401 280.379 182.179C281.137 182.958 281.613 183.436 281.579 183.467Z" fill="#E0E0E0"/>
<path d="M221.139 183.223C223.75 180.261 226.36 177.299 228.971 174.337L221.139 183.223Z" fill="white"/>
<path d="M228.971 174.337C229.041 174.389 227.345 176.42 225.182 178.874C223.018 181.329 221.209 183.275 221.139 183.223C221.069 183.171 222.766 181.14 224.929 178.686C227.092 176.232 228.901 174.285 228.971 174.337Z" fill="#E0E0E0"/>
<path d="M221.148 103.592C221.219 103.541 222.92 105.412 224.949 107.771C226.978 110.13 228.566 112.084 228.495 112.135C228.425 112.186 226.723 110.316 224.694 107.956C222.666 105.597 221.078 103.643 221.148 103.592Z" fill="#E0E0E0"/>
<path d="M259.512 124.899H244.466V164.182H259.512V124.899Z" fill="#E0E0E0"/>
<path d="M276.384 255.538H169.026V442.149H276.384V255.538Z" fill="#E0E0E0"/>
<path d="M244.522 255.538H137.164V442.149H244.522V255.538Z" fill="#F5F5F5"/>
<path d="M236.618 293.95H144.469V264.37H236.619V293.95H236.618ZM145.6 292.908H235.487V265.41H145.6V292.908Z" fill="#E0E0E0"/>
<path d="M203.488 270.783H178.848C175.995 270.783 173.682 268.657 173.682 266.033V264.889H208.653V266.033C208.654 268.657 206.342 270.783 203.488 270.783Z" fill="#EBEBEB"/>
<path d="M236.618 331.524H144.469V301.944H236.619V331.524H236.618ZM145.6 330.484H235.487V302.986H145.6V330.484Z" fill="#E0E0E0"/>
<path d="M203.488 308.359H178.848C175.995 308.359 173.682 306.232 173.682 303.609V302.464H208.653V303.609C208.654 306.232 206.341 308.359 203.488 308.359Z" fill="#EBEBEB"/>
<path d="M236.618 369.101H144.469V339.52H236.619V369.101H236.618ZM145.6 368.059H235.487V340.561H145.6V368.059Z" fill="#E0E0E0"/>
<path d="M203.488 345.934H178.848C175.995 345.934 173.682 343.808 173.682 341.184V340.04H208.653V341.184C208.654 343.808 206.342 345.934 203.488 345.934Z" fill="#EBEBEB"/>
<path d="M236.618 406.675H144.469V377.095H236.619V406.675H236.618ZM145.6 405.635H235.487V378.136H145.6V405.635Z" fill="#E0E0E0"/>
<path d="M203.488 383.509H178.849C175.996 383.509 173.683 381.383 173.683 378.759V377.615H208.654V378.759C208.654 381.383 206.34 383.509 203.488 383.509Z" fill="#EBEBEB"/>
<path d="M249.012 248.554H132.402V257.849H249.012V248.554Z" fill="#EBEBEB"/>
<path d="M284.078 248.554H249.012V257.849H284.078V248.554Z" fill="#E0E0E0"/>
<path d="M142.806 442.15H137.164V451.682H142.806V442.15Z" fill="#E0E0E0"/>
<path d="M177.666 442.15H172.024V451.682H177.666V442.15Z" fill="#E0E0E0"/>
<path d="M241.339 442.15H235.697V451.682H241.339V442.15Z" fill="#E0E0E0"/>
<path d="M273.175 442.15H267.534V451.682H273.175V442.15Z" fill="#E0E0E0"/>
<path d="M236.563 223.738L247.43 249.301L240.675 249.274L235.26 233.563L236.563 223.738Z" fill="#E0E0E0"/>
<path d="M199.454 200.118L195.719 249.099L234.285 249.84L238.624 200.118H199.454Z" fill="#EBEBEB"/>
<path d="M203.313 204.061L200.203 244.833L228.872 246.067L232.878 203.82L203.313 204.061Z" fill="#FAFAFA"/>
<path d="M209.604 209.827L207.278 238.485H223.093L225.883 209.827H209.604Z" fill="#E0E0E0"/>
<path d="M478.194 32.8637H336.605V266.751H478.194V32.8637Z" fill="#EBEBEB"/>
<path d="M471.077 39.6461H342.263V259.784H471.077V39.6461Z" fill="#FAFAFA"/>
<path d="M471.077 42.239L342.263 192.912V39.6461H471.077V42.239Z" fill="#F5F5F5"/>
<path d="M473.875 102.973H342.263V105.318H473.875V102.973Z" fill="#EBEBEB"/>
<path d="M473.875 155.397H342.263V157.74H473.875V155.397Z" fill="#EBEBEB"/>
<path d="M473.875 207.82H342.263V210.163H473.875V207.82Z" fill="#EBEBEB"/>
<path d="M403.416 104.145V266.026H409.924V104.145H403.416Z" fill="#EBEBEB"/>
<path d="M370.016 39.6461H367.067V104.146H370.016V39.6461Z" fill="#EBEBEB"/>
<path d="M395.444 39.6461H392.496V104.146H395.444V39.6461Z" fill="#EBEBEB"/>
<path d="M420.873 39.6461H417.925V104.146H420.873V39.6461Z" fill="#EBEBEB"/>
<path d="M446.302 39.6461H443.354V104.146H446.302V39.6461Z" fill="#EBEBEB"/>
<path d="M336.606 28.897H330.617V268.199H336.606V28.897Z" fill="#F5F5F5"/>
<path d="M484.182 268.86L478.193 266.751V28.897H484.182V268.86Z" fill="#E0E0E0"/>
<path d="M484.182 26.4816H330.617V32.8627H484.182V26.4816Z" fill="#E0E0E0"/>
<path d="M488.236 269.647H326.368V275.592H488.236V269.647Z" fill="#E0E0E0"/>
<path d="M478.193 266.751L488.236 269.647H326.368L336.606 266.751H478.193Z" fill="#EBEBEB"/>
<path d="M53.5887 286.137C46.1523 286.284 41.66 294.089 41.2768 300.921C40.8947 307.751 42.9159 314.735 41.0931 321.366C38.7775 329.787 30.6583 336.119 28.5473 344.584C26.0564 354.569 32.4759 364.525 33.2996 374.742C33.7005 379.712 32.7724 384.796 34.0336 389.643C36.1591 397.816 45.0707 404.028 54.2026 403.701C63.3355 403.375 71.6948 396.545 73.123 388.244C74.4551 380.504 70.3501 372.529 72.15 364.87C73.4811 359.208 77.9463 354.252 78.0246 348.46C78.1175 341.569 72.0174 335.888 70.583 329.123C69.1495 322.356 72.5373 315.534 72.7294 308.641C73.076 296.276 67.0166 286.854 53.5887 286.137Z" fill="#EBEBEB"/>
<path d="M57.2732 318.414C57.2972 318.416 57.2868 318.794 57.2429 319.512C57.1886 320.286 57.1135 321.331 57.0195 322.65C56.7961 325.433 56.4808 329.358 56.0945 334.182C55.3 343.917 54.2195 357.369 53.1243 372.23C52.0313 387.097 51.1303 400.559 50.4893 410.305C50.1656 415.132 49.9026 419.06 49.7157 421.846C49.6155 423.162 49.5361 424.21 49.4766 424.982C49.415 425.699 49.3701 426.075 49.3461 426.074C49.3221 426.072 49.319 425.695 49.3357 424.976C49.3618 424.201 49.3983 423.153 49.4422 421.834C49.5747 419.044 49.7627 415.113 49.9923 410.28C50.506 400.526 51.3276 387.057 52.4217 372.186C53.5169 357.321 54.6768 343.873 55.5976 334.144C56.0778 329.328 56.4693 325.408 56.746 322.628C56.8953 321.314 57.0143 320.271 57.1009 319.501C57.1907 318.786 57.2492 318.412 57.2732 318.414Z" fill="#E0E0E0"/>
<path d="M44.151 451.507H59.9279C68.6756 451.507 75.7664 444.987 75.7664 436.943V407.871H28.3135V436.943C28.3135 444.986 35.4043 451.507 44.151 451.507Z" fill="#E0E0E0"/>
<path d="M28.3132 418.603C28.3279 418.587 28.5909 418.761 29.0701 419.103C29.5974 419.49 30.2833 419.992 31.13 420.612C32.9465 421.98 35.4458 423.862 38.438 426.115L38.1749 426.097C42.1128 423.885 46.815 421.245 51.8701 418.406L51.8982 418.391L52.0454 418.309L52.1885 418.396C56.8698 421.226 61.24 423.868 64.9295 426.098L64.6632 426.107C67.9424 423.858 70.685 421.977 72.677 420.612C73.6072 419.99 74.3609 419.488 74.9372 419.103C75.4634 418.762 75.7505 418.588 75.7651 418.605C75.7797 418.623 75.5208 418.832 75.0228 419.206C74.4653 419.615 73.7377 420.149 72.8388 420.807C70.8761 422.208 68.1732 424.139 64.942 426.444L64.8136 426.536L64.6747 426.453C60.9716 424.241 56.5868 421.62 51.8888 418.813L52.178 418.818L52.1498 418.834C47.077 421.646 42.3592 424.262 38.4066 426.453L38.2667 426.531L38.1446 426.435C35.2036 424.127 32.7461 422.198 30.9598 420.797C30.1465 420.141 29.4867 419.609 28.9793 419.2C28.5304 418.827 28.2976 418.62 28.3132 418.603Z" fill="white"/>
<path d="M28.3132 414.24C28.3279 414.224 28.5909 414.397 29.0701 414.74C29.5974 415.126 30.2833 415.629 31.13 416.249C32.9465 417.617 35.4458 419.499 38.438 421.751L38.1749 421.733C42.1128 419.521 46.815 416.881 51.8701 414.042L51.8982 414.027L52.0454 413.945L52.1885 414.032C56.8698 416.862 61.24 419.504 64.9295 421.734L64.6632 421.742C67.9424 419.494 70.685 417.612 72.677 416.247C73.6072 415.626 74.3609 415.124 74.9372 414.739C75.4634 414.397 75.7505 414.224 75.7651 414.241C75.7797 414.259 75.5208 414.468 75.0228 414.842C74.4653 415.251 73.7377 415.785 72.8388 416.443C70.8761 417.844 68.1732 419.774 64.942 422.08L64.8136 422.172L64.6747 422.089C60.9716 419.876 56.5868 417.256 51.8888 414.449L52.178 414.454L52.1498 414.469C47.077 417.282 42.3592 419.898 38.4066 422.089L38.2667 422.167L38.1446 422.071C35.2036 419.763 32.7461 417.834 30.9598 416.433C30.1465 415.777 29.4867 415.245 28.9793 414.836C28.5304 414.464 28.2976 414.257 28.3132 414.24Z" fill="white"/>
<path d="M28.3132 423.04C28.3279 423.024 28.5909 423.198 29.0701 423.54C29.5974 423.926 30.2833 424.429 31.13 425.05C32.9465 426.418 35.4458 428.299 38.438 430.552L38.1749 430.534C42.1128 428.322 46.815 425.682 51.8701 422.844L51.8982 422.828L52.0454 422.747L52.1885 422.833C56.8698 425.663 61.24 428.305 64.9295 430.535L64.6632 430.544C67.9424 428.295 70.685 426.414 72.677 425.049C73.6072 424.428 74.3609 423.925 74.9372 423.54C75.4634 423.199 75.7505 423.025 75.7651 423.042C75.7797 423.06 75.5208 423.269 75.0228 423.643C74.4653 424.052 73.7377 424.586 72.8388 425.244C70.8761 426.645 68.1732 428.576 64.942 430.882L64.8136 430.973L64.6747 430.89C60.9716 428.678 56.5868 426.058 51.8888 423.251L52.178 423.255L52.1498 423.271C47.077 426.084 42.3592 428.7 38.4066 430.89L38.2667 430.968L38.1446 430.872C35.2036 428.564 32.7461 426.636 30.9598 425.234C30.1465 424.578 29.4867 424.046 28.9793 423.637C28.5304 423.264 28.2976 423.058 28.3132 423.04Z" fill="white"/>
<path d="M493.672 450.29C493.672 450.428 392.563 450.54 267.866 450.54C143.127 450.54 42.0386 450.427 42.0386 450.29C42.0386 450.153 143.127 450.04 267.866 450.04C392.563 450.039 493.672 450.152 493.672 450.29Z" fill="#263238"/>
<path d="M286.243 64.9258C286.319 65.0448 283.38 66.7546 279.68 68.7437C275.979 70.7338 272.918 72.2496 272.843 72.1306C272.767 72.0115 275.705 70.3018 279.407 68.3117C283.106 66.3226 286.168 64.8058 286.243 64.9258Z" fill="#263238"/>
<path d="M269.572 48.8208C269.703 48.889 267.489 52.729 264.628 57.3984C261.765 62.0688 259.34 65.7984 259.209 65.7312C259.078 65.663 261.291 61.824 264.154 57.1536C267.016 52.4842 269.442 48.7536 269.572 48.8208Z" fill="#263238"/>
<path d="M248.133 43.8221C248.283 43.8269 248.264 47.953 248.091 53.0381C247.919 58.1251 247.657 62.2435 247.506 62.2387C247.356 62.2349 247.375 58.1088 247.548 53.0218C247.721 47.9376 247.982 43.8182 248.133 43.8221Z" fill="#263238"/>
<path d="M231.192 63.7613C231.091 63.864 228.885 62.208 226.263 60.0614C223.64 57.9149 221.596 56.0918 221.695 55.9882C221.796 55.8854 224.002 57.5414 226.624 59.688C229.247 61.8336 231.292 63.6576 231.192 63.7613Z" fill="#263238"/>
<path d="M219.92 74.1274C219.905 74.1878 219.151 74.1082 217.972 73.8125C216.792 73.5197 215.193 72.983 213.544 72.1718C211.895 71.3578 210.524 70.4304 209.605 69.6902C208.684 68.9501 208.193 68.4182 208.24 68.3731C208.353 68.256 210.555 70.1482 213.8 71.7312C217.03 73.3392 219.962 73.9766 219.92 74.1274Z" fill="#263238"/>
<path d="M421.251 267.747L428.961 274.875C428.961 274.875 432.281 282.73 433.524 284.88C436.085 289.309 436.521 289.103 437.031 288.741C438.401 287.768 432.846 280.794 434.985 281.656C437.124 282.518 440.7 290.913 442.086 289.841C443.892 288.445 437.932 281.243 437.477 280.598C437.034 279.973 438.018 279.327 438.394 279.928C438.937 280.793 444.88 289.746 446.667 288.391C447.659 287.639 446.026 286.127 446.026 286.127C446.026 286.127 439.796 278.127 440.663 277.513C441.543 276.89 445.374 281.473 446.546 283.103C447.705 284.714 449.009 284.861 449.359 283.797C449.597 283.071 446.134 278.003 444.933 276.416C443.732 274.829 440.355 270.531 443.894 271.405C447.433 272.278 450.512 271.722 451.23 271.04C451.95 270.357 451.178 269.188 450.056 269.365C449.15 269.507 447.56 269.314 446.371 269.123C445.39 268.966 444.443 268.663 443.577 268.213C442.567 267.689 441.734 267.209 441.036 266.783L429.44 255.95" fill="#936754"/>
<path d="M341.315 105.877C335.702 107.757 330.706 116.109 330.503 122.085C330.385 125.564 331.016 129.609 328.277 132.012C325.871 134.122 322.032 133.835 318.985 135.057C315.652 136.393 313.408 139.741 313.608 143.08C313.718 144.905 314.483 146.723 314.115 148.519C313.283 152.574 307.624 153.889 304.866 157.144C302.34 160.126 302.64 164.569 304.757 167.809C306.875 171.049 310.475 173.246 314.221 174.802C320.01 177.205 326.427 178.322 332.77 178.029C337.318 177.819 342.125 176.738 345.197 173.647C349.116 169.701 349.114 163.768 349.044 158.425C348.826 141.763 350.133 125.085 352.947 108.625" fill="#263238"/>
<path d="M262.377 96.8323L255.571 88.9651C255.571 88.9651 253.215 80.8205 252.238 78.5578C250.224 73.896 249.768 74.0554 249.216 74.3645C247.738 75.193 252.42 82.6886 250.398 81.6144C248.376 80.5402 245.831 71.8339 244.324 72.7584C242.36 73.9622 247.42 81.7267 247.794 82.4131C248.159 83.0794 247.104 83.6218 246.802 82.9853C246.366 82.0704 241.537 72.5693 239.596 73.7347C238.521 74.3808 239.961 76.0493 239.961 76.0493C239.961 76.0493 245.192 84.6336 244.256 85.1549C243.306 85.6848 240.05 80.7398 239.081 79.0013C238.123 77.2829 236.845 77.0035 236.37 78.0259C236.046 78.7229 238.879 84.1123 239.881 85.8115C240.883 87.5107 243.723 92.1245 240.311 90.8976C236.898 89.6698 233.773 89.9088 232.976 90.5146C232.179 91.1203 232.806 92.3606 233.942 92.2992C234.859 92.2493 236.417 92.6035 237.575 92.9136C238.53 93.169 239.435 93.5664 240.242 94.1011C241.183 94.7242 241.953 95.2867 242.595 95.7802L252.818 107.725" fill="#936754"/>
<path d="M433.681 251.468C431.515 246.471 385.686 174.43 385.686 174.43C384.312 170.639 359.114 158.609 359.114 158.609C359.114 158.609 316.507 141.202 311.925 135.699C307.344 130.196 284.895 104.919 280.313 102.392C275.732 99.864 270.348 99.648 270.348 99.648L259.291 90.2064L245.12 100.893C246.495 101.736 252.408 112.306 252.408 112.306C252.408 112.306 253.601 119.114 256.808 123.748C260.015 128.382 309.408 172.064 309.408 172.064C309.408 172.064 307.722 210.252 309.059 218.337C311.024 230.21 320.183 235.018 320.183 235.018C320.849 236.366 367.915 232.957 367.915 232.957C367.915 232.957 376.523 232.05 376.523 224.726L377.143 216.084C382.461 225.783 398.744 255.322 401.704 258.789C405.253 262.946 417.474 266.959 417.474 266.959L424.964 271.671L437.163 263.147C437.163 263.145 435.778 256.309 433.681 251.468Z" fill="#374658"/>
<path d="M322.131 199.286C321.055 200.25 318.867 199.787 317.242 198.253C315.618 196.719 315.173 194.696 316.249 193.732C317.325 192.769 319.513 193.232 321.137 194.766C322.762 196.299 323.207 198.324 322.131 199.286Z" fill="#FAFAFA"/>
<path d="M331.689 182.018C330.293 181.509 329.923 179.331 330.862 177.153C331.802 174.974 333.693 173.622 335.09 174.131C336.485 174.639 336.856 176.817 335.917 178.996C334.978 181.173 333.085 182.527 331.689 182.018Z" fill="#FAFAFA"/>
<path d="M323.046 163.416C321.828 164.224 319.877 163.652 318.689 162.138C317.5 160.624 317.523 158.742 318.74 157.933C319.956 157.125 321.908 157.697 323.097 159.211C324.285 160.725 324.262 162.608 323.046 163.416Z" fill="#FAFAFA"/>
<path d="M303.524 145.526C303.884 146.868 302.761 148.275 301.016 148.67C299.272 149.066 297.566 148.301 297.206 146.96C296.846 145.62 297.969 144.212 299.713 143.817C301.458 143.42 303.164 144.186 303.524 145.526Z" fill="#FAFAFA"/>
<path d="M296.265 130.218C294.765 130.15 293.623 128.731 293.712 127.049C293.802 125.366 295.091 124.058 296.591 124.126C298.09 124.194 299.233 125.612 299.142 127.295C299.053 128.977 297.763 130.286 296.265 130.218Z" fill="#FAFAFA"/>
<path d="M278.682 131.91C278.454 133.275 276.413 134.118 274.124 133.794C271.835 133.47 270.164 132.102 270.393 130.737C270.622 129.372 272.662 128.529 274.951 128.853C277.24 129.177 278.91 130.546 278.682 131.91Z" fill="#FAFAFA"/>
<path d="M271.059 111.03C269.569 110.857 268.511 109.625 268.696 108.28C268.881 106.934 270.238 105.984 271.728 106.157C273.217 106.33 274.275 107.56 274.09 108.906C273.905 110.251 272.548 111.203 271.059 111.03Z" fill="#FAFAFA"/>
<path d="M256.816 107.058C255.506 107.734 253.829 107.27 253.069 106.024C252.307 104.777 252.752 103.219 254.062 102.543C255.372 101.868 257.049 102.331 257.81 103.578C258.57 104.824 258.125 106.382 256.816 107.058Z" fill="#FAFAFA"/>
<path d="M338.986 155.437C338.194 156.612 336.591 157.014 335.405 156.338C334.218 155.661 333.897 154.162 334.689 152.988C335.48 151.815 337.082 151.413 338.269 152.089C339.455 152.765 339.776 154.264 338.986 155.437Z" fill="#FAFAFA"/>
<path d="M357.595 196.17C356.32 196.901 354.548 196.402 353.635 195.055C352.722 193.708 353.015 192.024 354.289 191.293C355.562 190.563 357.335 191.063 358.249 192.41C359.162 193.756 358.869 195.441 357.595 196.17Z" fill="#FAFAFA"/>
<path d="M369.271 208.147C368.334 209.226 366.299 209.164 364.725 208.008C363.15 206.852 362.634 205.041 363.571 203.962C364.508 202.884 366.542 202.945 368.117 204.101C369.691 205.258 370.208 207.069 369.271 208.147Z" fill="#FAFAFA"/>
<path d="M333.39 231.027C331.897 231.18 330.54 230.076 330.356 228.562C330.173 227.048 331.234 225.697 332.727 225.544C334.219 225.392 335.577 226.496 335.76 228.01C335.942 229.524 334.882 230.875 333.39 231.027Z" fill="#FAFAFA"/>
<path d="M341.595 213.064C340.533 214.041 338.189 213.468 336.36 211.787C334.53 210.104 333.908 207.949 334.97 206.973C336.031 205.998 338.375 206.569 340.205 208.252C342.034 209.933 342.656 212.088 341.595 213.064Z" fill="#FAFAFA"/>
<path d="M318.366 223.726C316.866 223.78 315.576 222.119 315.486 220.017C315.397 217.913 316.54 216.165 318.041 216.111C319.54 216.058 320.83 217.717 320.919 219.821C321.009 221.923 319.866 223.672 318.366 223.726Z" fill="#FAFAFA"/>
<path d="M366.421 230.132C365.216 230.957 363.035 230.136 361.55 228.3C360.065 226.465 359.837 224.309 361.042 223.484C362.246 222.66 364.427 223.48 365.912 225.316C367.398 227.152 367.626 229.308 366.421 230.132Z" fill="#FAFAFA"/>
<path d="M388.287 211.859C387.327 212.92 385.213 212.758 383.565 211.499C381.918 210.238 381.36 208.356 382.321 207.295C383.28 206.234 385.394 206.395 387.043 207.656C388.69 208.915 389.248 210.798 388.287 211.859Z" fill="#FAFAFA"/>
<path d="M399.621 213.078C398.165 212.742 397.412 210.898 397.941 208.959C398.47 207.02 400.079 205.72 401.536 206.055C402.991 206.39 403.744 208.235 403.216 210.175C402.686 212.113 401.076 213.413 399.621 213.078Z" fill="#FAFAFA"/>
<path d="M412.454 250.214C411.056 249.71 410.737 247.393 411.74 245.037C412.744 242.68 414.69 241.179 416.089 241.683C417.487 242.186 417.807 244.504 416.802 246.86C415.799 249.216 413.852 250.718 412.454 250.214Z" fill="#FAFAFA"/>
<path d="M430.061 262.078C429.534 262.573 428.812 262.793 428.108 262.84C427.397 262.882 426.698 262.754 426.07 262.418C425.439 262.084 424.97 261.59 424.656 261.003C424.349 260.417 424.197 259.733 424.402 259.066C424.604 258.405 425.168 257.893 425.983 257.685C426.791 257.474 427.843 257.585 428.793 258.09C429.743 258.596 430.371 259.379 430.575 260.128C430.785 260.883 430.584 261.588 430.061 262.078Z" fill="#FAFAFA"/>
<path d="M380.75 181.638C382.182 181.221 384.046 182.932 384.913 185.456C385.781 187.981 385.325 190.365 383.892 190.782C382.461 191.197 380.597 189.489 379.729 186.963C378.861 184.438 379.319 182.054 380.75 181.638Z" fill="#FAFAFA"/>
<path d="M423.22 266.79C424.39 268.114 425.846 269.221 427.479 270.032L423.22 266.79Z" fill="#455A64"/>
<path d="M427.48 270.032C427.42 270.152 426.215 269.723 425.004 268.795C423.788 267.874 423.104 266.867 423.221 266.789C423.344 266.7 424.187 267.53 425.351 268.41C426.507 269.297 427.552 269.904 427.48 270.032Z" fill="#263238"/>
<path d="M430.886 267.457C430.793 267.564 429.899 267.042 428.959 266.222C428.017 265.404 427.403 264.612 427.513 264.52C427.625 264.426 428.407 265.056 429.332 265.86C430.255 266.665 430.981 267.348 430.886 267.457Z" fill="#263238"/>
<path d="M434.176 265.257C434.066 265.347 433.374 264.796 432.716 263.964C432.056 263.132 431.699 262.356 431.826 262.288C431.957 262.217 432.512 262.86 433.155 263.67C433.796 264.481 434.291 265.164 434.176 265.257Z" fill="#263238"/>
<path d="M376.278 195.681C376.349 195.674 376.562 196.896 376.789 198.885C377.017 200.874 377.244 203.63 377.352 206.681C377.458 209.733 377.425 212.498 377.338 214.497C377.251 216.495 377.125 217.727 377.054 217.725C376.976 217.722 376.966 216.487 376.954 214.491C376.942 212.495 376.914 209.74 376.809 206.698C376.701 203.656 376.535 200.906 376.406 198.914C376.278 196.922 376.201 195.687 376.278 195.681Z" fill="#263238"/>
<path d="M345.293 234.892C345.263 234.944 344.689 234.746 343.881 234.227C343.074 233.711 342.062 232.836 341.242 231.668C340.425 230.496 339.979 229.287 339.804 228.398C339.625 227.507 339.668 226.944 339.732 226.94C339.901 226.911 340.103 229.155 341.699 231.397C343.254 233.663 345.391 234.763 345.293 234.892Z" fill="#263238"/>
<path d="M350.389 228.545C350.531 228.535 350.73 229.893 350.416 231.541C350.112 233.193 349.43 234.411 349.299 234.357C349.153 234.304 349.587 233.047 349.88 231.457C350.184 229.869 350.232 228.55 350.389 228.545Z" fill="#263238"/>
<path d="M252.536 106.883C252.411 106.958 251.089 105.315 249.585 103.212C248.081 101.108 246.962 99.3418 247.088 99.2659C247.213 99.1901 248.535 100.834 250.039 102.937C251.545 105.04 252.662 106.807 252.536 106.883Z" fill="#263238"/>
<path d="M256.688 102.866C256.568 102.949 255.254 101.534 253.752 99.7066C252.249 97.8778 251.129 96.3283 251.249 96.2457C251.369 96.1622 252.684 97.5773 254.186 99.4061C255.688 101.233 256.808 102.782 256.688 102.866Z" fill="#263238"/>
<path d="M261.272 97.4419C261.17 97.5446 259.914 96.648 258.466 95.4403C257.017 94.2326 255.925 93.1709 256.025 93.0682C256.127 92.9664 257.383 93.8621 258.831 95.0698C260.28 96.2774 261.373 97.3392 261.272 97.4419Z" fill="#263238"/>
<path d="M337.184 444.33L336.963 433.163L359.71 432.648L360.222 448.983L358.813 449.099C352.545 449.56 326.907 451.044 322.679 449.968C317.964 448.769 337.184 444.33 337.184 444.33Z" fill="#E8505B"/>
<g opacity="0.4">
<path d="M351.969 449.006C352.246 447.252 353.259 445.604 354.752 444.481C356.245 443.359 358.103 442.742 360.028 442.84L360.189 448.686L351.969 449.006Z" fill="black"/>
</g>
<path opacity="0.4" d="M327.801 446.809C327.801 446.809 321.076 448.759 321.948 449.766C322.82 450.773 348.791 450.171 360.221 448.984L360.172 448.518L329.885 449.457C329.885 449.457 329.126 446.83 327.801 446.809Z" fill="black"/>
<path d="M360.529 448.497C360.53 448.505 360.395 448.522 360.139 448.545C359.802 448.572 359.434 448.6 359.018 448.633C357.896 448.704 356.517 448.79 354.888 448.892C351.399 449.089 346.576 449.301 341.244 449.429C335.911 449.555 331.081 449.574 327.586 449.543C325.955 449.519 324.572 449.498 323.448 449.481C323.03 449.468 322.661 449.457 322.324 449.446C322.067 449.435 321.931 449.425 321.932 449.417C321.932 449.409 322.068 449.401 322.325 449.395C322.663 449.391 323.032 449.387 323.45 449.383C324.574 449.378 325.957 449.371 327.587 449.364C331.081 449.348 335.908 449.302 341.238 449.175C346.566 449.048 351.389 448.863 354.879 448.713C356.508 448.643 357.889 448.582 359.012 448.534C359.429 448.519 359.799 448.505 360.136 448.494C360.393 448.487 360.529 448.488 360.529 448.497Z" fill="#263238"/>
<path d="M329.901 449.781C329.817 449.793 329.728 448.886 329.079 447.985C328.448 447.072 327.584 446.627 327.63 446.562C327.645 446.499 328.63 446.87 329.311 447.847C330.002 448.815 329.97 449.795 329.901 449.781Z" fill="#263238"/>
<path d="M336.526 446.495C336.462 446.533 336.131 446.182 335.787 445.709C335.442 445.236 335.214 444.821 335.277 444.781C335.341 444.742 335.672 445.094 336.016 445.568C336.361 446.041 336.59 446.456 336.526 446.495Z" fill="#263238"/>
<path d="M338.344 445.556C338.293 445.609 337.929 445.398 337.528 445.083C337.127 444.768 336.842 444.47 336.892 444.417C336.942 444.364 337.307 444.575 337.708 444.89C338.108 445.205 338.393 445.503 338.344 445.556Z" fill="#263238"/>
<path d="M339.453 443.555C339.456 443.626 338.926 443.7 338.27 443.722C337.614 443.744 337.08 443.704 337.077 443.634C337.074 443.564 337.604 443.489 338.26 443.468C338.917 443.447 339.451 443.485 339.453 443.555Z" fill="#263238"/>
<path d="M339.816 442.154C339.843 442.216 339.271 442.47 338.501 442.539C337.732 442.612 337.116 442.469 337.13 442.403C337.14 442.33 337.744 442.356 338.474 442.286C339.204 442.221 339.79 442.085 339.816 442.154Z" fill="#263238"/>
<path d="M335.704 444.688C335.706 444.716 335.148 444.793 334.243 444.713C333.792 444.674 333.256 444.588 332.678 444.434C332.391 444.348 332.091 444.284 331.778 444.117C331.631 444.032 331.467 443.911 331.404 443.708C331.338 443.509 331.449 443.279 331.611 443.166C332.99 442.468 334.409 443.158 334.945 443.81C335.241 444.142 335.38 444.469 335.446 444.696C335.511 444.924 335.51 445.056 335.494 445.058C335.443 445.076 335.381 444.531 334.797 443.927C334.509 443.631 334.078 443.346 333.529 443.21C333.009 443.081 332.273 443.06 331.789 443.36C331.562 443.523 331.659 443.772 331.921 443.908C332.165 444.045 332.479 444.125 332.751 444.211C333.309 444.373 333.827 444.475 334.266 444.537C335.147 444.659 335.704 444.646 335.704 444.688Z" fill="#263238"/>
<path d="M335.329 444.763C335.308 444.779 335.083 444.44 335.135 443.834C335.162 443.536 335.27 443.182 335.507 442.843C335.757 442.539 336.078 442.12 336.706 442.13C337.046 442.162 337.22 442.513 337.173 442.74C337.154 442.977 337.044 443.181 336.942 443.347C336.734 443.688 336.496 443.965 336.274 444.177C335.827 444.599 335.469 444.765 335.452 444.74C335.426 444.708 335.737 444.492 336.127 444.058C336.322 443.84 336.532 443.565 336.717 443.237C336.91 442.948 337.034 442.435 336.665 442.382C336.299 442.358 335.934 442.702 335.718 442.976C335.497 443.272 335.378 443.588 335.329 443.859C335.231 444.406 335.377 444.753 335.329 444.763Z" fill="#263238"/>
<path d="M359.909 442.784C359.904 442.831 359.255 442.741 358.23 442.877C357.214 443.004 355.809 443.422 354.602 444.351C353.396 445.284 352.705 446.484 352.392 447.382C352.069 448.286 352.053 448.89 352 448.885C351.984 448.884 351.971 448.735 351.988 448.464C352.005 448.192 352.064 447.801 352.205 447.33C352.477 446.395 353.167 445.13 354.423 444.158C355.683 443.189 357.157 442.785 358.205 442.7C358.733 442.654 359.163 442.668 359.457 442.7C359.752 442.732 359.911 442.768 359.909 442.784Z" fill="#263238"/>
<path d="M357.312 434.134C357.388 434.131 357.529 436.053 357.627 438.425C357.725 440.798 357.743 442.724 357.666 442.727C357.59 442.73 357.449 440.808 357.352 438.435C357.253 436.063 357.236 434.137 357.312 434.134Z" fill="#263238"/>
<path d="M349.051 447.034C349.062 447.099 347.586 447.357 345.738 447.414C343.89 447.475 342.399 447.312 342.405 447.246C342.41 447.172 343.898 447.221 345.729 447.16C347.56 447.104 349.04 446.96 349.051 447.034Z" fill="#263238"/>
<path d="M353.509 446.924C353.565 446.974 353.395 447.216 353.252 447.534C353.103 447.849 353.034 448.13 352.955 448.127C352.882 448.128 352.829 447.8 352.998 447.435C353.165 447.069 353.458 446.874 353.509 446.924Z" fill="#263238"/>
<path d="M355.136 444.962C355.192 445.01 355.051 445.231 354.822 445.455C354.594 445.68 354.362 445.824 354.306 445.776C354.251 445.728 354.392 445.507 354.621 445.283C354.85 445.058 355.081 444.915 355.136 444.962Z" fill="#263238"/>
<path d="M357.517 444.028C357.503 444.099 357.2 444.104 356.869 444.22C356.535 444.328 356.302 444.505 356.241 444.459C356.178 444.421 356.362 444.12 356.774 443.982C357.185 443.842 357.538 443.963 357.517 444.028Z" fill="#263238"/>
<path d="M359.216 443.574C359.246 443.638 359.118 443.748 358.931 443.82C358.744 443.892 358.569 443.898 358.54 443.833C358.511 443.769 358.638 443.658 358.825 443.586C359.012 443.515 359.187 443.509 359.216 443.574Z" fill="#263238"/>
<path d="M391.055 443.626L389.267 432.578L411.75 429.365L414.554 445.502L413.173 445.784C407.022 446.987 381.808 451.503 377.464 450.94C372.62 450.311 391.055 443.626 391.055 443.626Z" fill="#E8505B"/>
<g opacity="0.4">
<path d="M406.374 446.506C406.402 444.732 407.176 442.979 408.499 441.687C409.821 440.397 411.577 439.565 413.5 439.433L414.482 445.211L406.374 446.506Z" fill="black"/>
</g>
<path opacity="0.4" d="M382.1 447.199C382.1 447.199 375.705 449.932 376.711 450.827C377.717 451.721 403.386 448.039 414.554 445.503L414.44 445.046L384.539 449.577C384.539 449.577 383.418 447.061 382.1 447.199Z" fill="black"/>
<path d="M414.791 444.983C414.793 444.992 414.661 445.024 414.411 445.077C414.081 445.143 413.718 445.216 413.311 445.298C412.209 445.501 410.853 445.751 409.252 446.046C405.821 446.655 401.067 447.439 395.798 448.199C390.527 448.958 385.74 449.55 382.271 449.936C380.65 450.106 379.276 450.249 378.159 450.366C377.743 450.402 377.375 450.435 377.039 450.465C376.782 450.485 376.647 450.491 376.646 450.482C376.645 450.473 376.778 450.45 377.032 450.414C377.367 450.37 377.733 450.322 378.146 450.267C379.26 450.129 380.63 449.958 382.247 449.757C385.709 449.326 390.489 448.707 395.756 447.949C401.022 447.188 405.778 446.433 409.218 445.869C410.823 445.605 412.185 445.382 413.291 445.2C413.703 445.136 414.068 445.078 414.401 445.026C414.654 444.99 414.789 444.974 414.791 444.983Z" fill="#263238"/>
<path d="M384.6 449.896C384.518 449.917 384.302 449.029 383.533 448.213C382.778 447.382 381.859 447.044 381.896 446.974C381.901 446.91 382.931 447.161 383.742 448.048C384.565 448.927 384.67 449.902 384.6 449.896Z" fill="#263238"/>
<path d="M390.708 445.85C390.65 445.896 390.273 445.587 389.864 445.159C389.456 444.731 389.171 444.347 389.229 444.3C389.286 444.254 389.663 444.563 390.072 444.991C390.48 445.419 390.765 445.804 390.708 445.85Z" fill="#263238"/>
<path d="M392.378 444.704C392.337 444.762 391.945 444.595 391.504 444.331C391.062 444.067 390.737 443.805 390.779 443.747C390.821 443.688 391.212 443.855 391.654 444.119C392.096 444.383 392.42 444.645 392.378 444.704Z" fill="#263238"/>
<path d="M393.198 442.588C393.21 442.657 392.695 442.794 392.048 442.894C391.401 442.994 390.865 443.019 390.853 442.95C390.84 442.881 391.355 442.744 392.002 442.645C392.651 442.544 393.185 442.519 393.198 442.588Z" fill="#263238"/>
<path d="M393.36 441.155C393.395 441.213 392.864 441.532 392.11 441.692C391.357 441.856 390.727 441.787 390.731 441.72C390.731 441.647 391.332 441.602 392.047 441.445C392.764 441.295 393.324 441.089 393.36 441.155Z" fill="#263238"/>
<path d="M389.64 444.156C389.646 444.184 389.102 444.326 388.194 444.355C387.741 444.37 387.198 444.348 386.603 444.264C386.305 444.212 385.999 444.185 385.666 444.057C385.509 443.989 385.329 443.889 385.238 443.696C385.145 443.506 385.223 443.265 385.367 443.133C386.636 442.277 388.139 442.793 388.764 443.376C389.103 443.671 389.288 443.979 389.386 444.195C389.482 444.414 389.5 444.544 389.484 444.548C389.436 444.572 389.297 444.039 388.634 443.509C388.308 443.25 387.84 443.019 387.275 442.949C386.742 442.883 386.009 442.95 385.571 443.304C385.369 443.493 385.5 443.728 385.779 443.831C386.041 443.938 386.363 443.98 386.646 444.034C387.222 444.128 387.75 444.167 388.194 444.176C389.081 444.193 389.632 444.115 389.64 444.156Z" fill="#263238"/>
<path d="M389.276 444.276C389.259 444.293 388.987 443.985 388.953 443.377C388.938 443.078 388.997 442.715 389.183 442.35C389.388 442.019 389.647 441.564 390.27 441.5C390.612 441.492 390.835 441.819 390.819 442.05C390.833 442.286 390.753 442.502 390.674 442.679C390.516 443.042 390.318 443.345 390.128 443.58C389.744 444.052 389.413 444.259 389.392 444.237C389.362 444.208 389.64 443.958 389.967 443.48C390.129 443.241 390.299 442.943 390.436 442.596C390.587 442.286 390.637 441.763 390.264 441.755C389.897 441.775 389.584 442.159 389.408 442.455C389.229 442.775 389.156 443.103 389.146 443.378C389.129 443.934 389.322 444.259 389.276 444.276Z" fill="#263238"/>
<path d="M413.372 439.392C413.375 439.439 412.719 439.429 411.721 439.684C410.733 439.932 409.397 440.511 408.331 441.577C407.266 442.645 406.75 443.917 406.565 444.845C406.372 445.78 406.44 446.381 406.389 446.382C406.372 446.383 406.339 446.236 406.318 445.965C406.296 445.694 406.3 445.298 406.374 444.815C406.513 443.855 407.018 442.519 408.129 441.406C409.241 440.295 410.646 439.719 411.675 439.511C412.192 439.403 412.62 439.365 412.916 439.362C413.209 439.358 413.372 439.377 413.372 439.392Z" fill="#263238"/>
<path d="M409.582 431.124C409.657 431.112 410.067 433 410.498 435.342C410.928 437.683 411.216 439.591 411.141 439.602C411.066 439.614 410.657 437.725 410.225 435.384C409.795 433.043 409.507 431.135 409.582 431.124Z" fill="#263238"/>
<path d="M403.204 444.896C403.224 444.959 401.796 445.39 399.972 445.666C398.149 445.946 396.646 445.961 396.643 445.895C396.638 445.821 398.12 445.693 399.926 445.415C401.735 445.143 403.183 444.825 403.204 444.896Z" fill="#263238"/>
<path d="M407.608 444.257C407.672 444.3 407.536 444.561 407.439 444.892C407.336 445.222 407.306 445.509 407.228 445.516C407.155 445.526 407.057 445.206 407.173 444.824C407.287 444.443 407.552 444.215 407.608 444.257Z" fill="#263238"/>
<path d="M408.946 442.119C409.008 442.161 408.899 442.396 408.704 442.646C408.508 442.897 408.299 443.066 408.237 443.026C408.176 442.985 408.284 442.749 408.48 442.499C408.676 442.248 408.885 442.078 408.946 442.119Z" fill="#263238"/>
<path d="M411.175 440.91C411.171 440.982 410.873 441.022 410.561 441.177C410.244 441.324 410.037 441.527 409.971 441.488C409.904 441.459 410.043 441.137 410.432 440.951C410.821 440.765 411.187 440.843 411.175 440.91Z" fill="#263238"/>
<path d="M412.798 440.258C412.836 440.318 412.725 440.443 412.549 440.536C412.374 440.629 412.202 440.656 412.163 440.596C412.126 440.535 412.236 440.411 412.412 440.317C412.586 440.223 412.759 440.197 412.798 440.258Z" fill="#263238"/>
<path d="M399.231 235.908C398.237 236.944 396.171 236.76 394.616 235.499C393.061 234.237 392.606 232.375 393.6 231.339C394.592 230.304 396.658 230.487 398.213 231.75C399.769 233.011 400.224 234.874 399.231 235.908Z" fill="#FAFAFA"/>
<path d="M367.915 232.957C367.915 232.957 379.8 250.22 381.509 256.828C383.219 263.436 414.895 438.045 414.895 438.045L385.8 439.667L346.279 268.86L362.177 438.43L333.546 440.627C333.546 440.627 310.783 261.156 312.816 256.381C314.848 251.606 320.183 235.017 320.183 235.017L367.915 232.957Z" fill="#455A64"/>
<path d="M346.038 267.759C346.048 267.757 346.039 267.911 345.806 268.054C345.584 268.182 345.119 268.256 344.685 267.954C344.259 267.644 344.097 267.048 343.999 266.444C343.884 265.815 343.758 265.12 343.62 264.363C343.069 261.276 342.344 257.009 341.577 252.29C340.81 247.57 340.146 243.293 339.69 240.194C339.486 238.716 339.315 237.482 339.181 236.52C339.072 235.651 339.031 235.167 339.067 235.163C339.105 235.158 339.217 235.631 339.39 236.491C339.568 237.447 339.797 238.673 340.07 240.142C340.622 243.228 341.346 247.497 342.114 252.217C342.881 256.935 343.545 261.212 343.999 264.311C344.108 265.072 344.208 265.771 344.299 266.404C344.369 267.016 344.494 267.535 344.822 267.807C345.144 268.07 345.555 268.051 345.753 267.967C345.966 267.875 346.016 267.746 346.038 267.759Z" fill="#263238"/>
<path d="M343.062 238.588C343.039 238.569 343.106 238.436 343.34 238.295C343.569 238.156 343.988 238.037 344.49 238.137C344.976 238.213 345.601 238.622 345.709 239.292C345.828 239.919 345.533 240.702 344.771 241.068C344 241.407 343.15 241.173 342.655 240.74C342.125 240.293 342.041 239.639 342.157 239.201C342.411 238.268 343.124 238.06 343.119 238.119C343.183 238.178 342.642 238.485 342.536 239.259C342.488 239.63 342.596 240.095 342.993 240.398C343.372 240.706 344.021 240.852 344.528 240.62C345.031 240.39 345.284 239.812 345.215 239.362C345.162 238.894 344.773 238.589 344.39 238.477C343.58 238.242 343.099 238.658 343.062 238.588Z" fill="#263238"/>
<path d="M368.248 124.523C369.38 116.217 362.845 108.626 353.673 107.822C345.028 107.065 337.345 112.984 336.049 120.88C334.913 127.802 333.937 134.79 333.972 137.327C334.078 144.98 338.947 147.959 340.92 148.854C341.371 149.058 342.613 149.29 343.111 149.355C343.142 149.359 343.163 149.387 343.157 149.414L341.309 158.198C340.471 163.954 343.965 169.088 350.214 169.925C356.484 170.766 361.385 166.344 362.342 160.585L368.248 124.523Z" fill="#936754"/>
<path d="M337.975 124.679C337.85 125.312 338.329 125.93 339.046 126.062C339.76 126.194 340.441 125.791 340.567 125.158C340.692 124.525 340.213 123.906 339.499 123.774C338.784 123.641 338.101 124.046 337.975 124.679Z" fill="#263238"/>
<path d="M337.969 122.956C338.107 123.134 339.205 122.593 340.614 122.785C342.023 122.959 342.951 123.763 343.13 123.625C343.216 123.564 343.095 123.259 342.693 122.897C342.298 122.538 341.589 122.145 340.71 122.03C339.832 121.917 339.047 122.115 338.574 122.363C338.092 122.611 337.901 122.875 337.969 122.956Z" fill="#263238"/>
<path d="M351.308 126.669C351.183 127.302 351.662 127.92 352.379 128.052C353.093 128.184 353.774 127.781 353.9 127.148C354.025 126.516 353.546 125.896 352.832 125.764C352.115 125.632 351.434 126.037 351.308 126.669Z" fill="#263238"/>
<path d="M351.778 125.054C351.916 125.233 353.015 124.692 354.423 124.884C355.832 125.057 356.76 125.862 356.939 125.724C357.024 125.663 356.906 125.358 356.502 124.996C356.107 124.636 355.398 124.243 354.52 124.129C353.642 124.016 352.857 124.213 352.384 124.461C351.903 124.709 351.71 124.973 351.778 125.054Z" fill="#263238"/>
<path d="M345.143 133.976C345.161 133.903 344.308 133.646 342.916 133.289C342.562 133.207 342.232 133.095 342.207 132.862C342.16 132.612 342.366 132.276 342.602 131.914C343.067 131.158 343.555 130.367 344.065 129.538C346.111 126.15 347.648 123.344 347.499 123.27C347.349 123.195 345.57 125.881 343.524 129.269C343.028 130.105 342.554 130.903 342.103 131.666C341.908 132.023 341.606 132.419 341.711 132.939C341.768 133.199 342.004 133.414 342.226 133.501C342.446 133.597 342.647 133.628 342.824 133.662C344.24 133.924 345.126 134.049 345.143 133.976Z" fill="#263238"/>
<path d="M343.168 149.362C343.168 149.362 348.542 150.501 355.942 147.653C355.942 147.653 352.747 153.976 342.67 151.729L343.168 149.362Z" fill="#7C5142"/>
<path d="M345.244 137.177C345.848 136.629 346.789 136.41 347.656 136.616C348.258 136.758 348.833 137.112 349.132 137.62C349.43 138.128 349.405 138.788 348.999 139.179C348.541 139.62 347.728 139.626 347.084 139.36C346.44 139.094 345.927 138.61 345.441 138.131C345.306 137.998 345.171 137.86 345.1 137.694C345.03 137.528 345.041 137.324 345.178 137.212" fill="#7C5142"/>
<path d="M349.147 135.427C348.92 135.384 348.694 136.79 347.227 137.612C345.763 138.439 344.157 138.061 344.114 138.257C344.079 138.343 344.434 138.579 345.119 138.688C345.79 138.8 346.807 138.732 347.705 138.229C348.6 137.724 349.073 136.954 349.216 136.383C349.369 135.804 349.253 135.433 349.147 135.427Z" fill="#263238"/>
<path d="M351.505 122.701C351.587 123.072 353.021 123.094 354.644 123.498C356.277 123.873 357.539 124.497 357.808 124.211C357.93 124.072 357.75 123.71 357.265 123.297C356.785 122.885 355.984 122.447 355.008 122.212C354.032 121.98 353.101 122.003 352.463 122.147C351.82 122.29 351.471 122.526 351.505 122.701Z" fill="#263238"/>
<path d="M338.907 120.379C339.108 120.707 340.127 120.532 341.296 120.674C342.471 120.779 343.42 121.161 343.696 120.883C343.82 120.747 343.711 120.431 343.324 120.095C342.943 119.761 342.266 119.438 341.461 119.353C340.655 119.268 339.918 119.442 339.465 119.69C339.004 119.936 338.82 120.221 338.907 120.379Z" fill="#263238"/>
<path d="M382.293 163.814C380.99 161.67 378.6 160.152 377.613 157.87C375.921 153.963 378.911 149.63 379.66 145.509C380.18 144.415 380.636 143.4 380.872 142.742C381.8 140.152 381.807 136.042 380.47 133.607C379.227 131.343 376.079 129.093 375.169 126.898C373.768 123.518 374.803 122.64 373.728 115.591C373.119 111.594 367.319 106.049 361.236 106.912C359.322 104.872 356.613 103.818 353.93 103.362C347.35 102.245 340.182 104.59 336.246 110.061C334.43 112.585 333.34 115.984 334.417 119.008C336.14 121.426 341.605 119.933 344.906 118.272C348.383 120.391 353.215 119.471 355.623 116.232C356.312 117.038 357.261 117.45 358.255 117.531C358.36 118.426 358.482 119.177 358.554 119.658C358.885 121.862 362.488 125.052 362.529 127.277C362.606 131.466 359.105 131.675 358.138 135.769C357.409 138.852 359.955 140.659 360.437 143.783C360.511 144.261 360.202 145.022 359.903 145.79C358.492 148.322 357.312 150.997 357.591 153.79C357.855 156.43 359.411 158.867 359.554 161.514C359.805 166.146 355.838 169.919 353.523 174.039C351.398 177.818 350.614 182.221 351.316 186.426C360.601 187.947 370.005 188.856 379.432 189.144C380.073 189.163 380.774 189.162 381.272 188.792C381.836 188.372 381.941 187.633 382.005 186.969C382.461 182.234 382.916 177.5 383.373 172.765C383.664 169.725 383.911 166.476 382.293 163.814Z" fill="#263238"/>
<path d="M311.101 249.516C305.411 251.667 301.953 256.899 298.889 261.804C295.151 267.785 291.414 273.767 287.676 279.749C286.19 282.129 284.652 284.701 284.897 287.437C285.128 290.019 286.967 292.301 289.258 293.807C291.549 295.313 294.268 296.156 296.963 296.911C300.313 297.849 303.786 298.691 307.274 298.401C310.762 298.11 314.308 296.476 315.854 293.587C317.147 291.169 316.873 288.323 316.568 285.642C315.488 276.152 314.408 266.66 313.328 257.17C313.048 254.71 312.769 252.25 312.489 249.79" fill="#263238"/>
<path d="M290.921 274.882C290.97 274.841 291.174 275.315 291.968 275.651C292.725 275.964 294.159 276.062 295.39 275.189C296.655 274.344 297.5 272.745 298.525 271.05C299.561 269.342 300.69 267.48 301.875 265.525C304.266 261.612 306.457 258.083 308.066 255.54C308.839 254.34 309.486 253.335 309.997 252.542C310.463 251.84 310.737 251.46 310.769 251.477C310.802 251.494 310.591 251.906 310.181 252.638C309.711 253.452 309.114 254.484 308.401 255.714C306.878 258.3 304.74 261.857 302.349 265.77C301.151 267.718 300.009 269.574 298.962 271.276C297.921 272.938 297.019 274.589 295.616 275.475C294.221 276.396 292.666 276.222 291.874 275.825C291.464 275.62 291.209 275.372 291.077 275.186C290.948 274.999 290.908 274.887 290.921 274.882Z" fill="#455A64"/>
<path d="M297.755 298.187C297.61 298.152 300.587 287.274 304.406 273.894C308.225 260.508 311.439 249.69 311.584 249.726C311.729 249.761 308.752 260.636 304.933 274.02C301.115 287.4 297.9 298.221 297.755 298.187Z" fill="#455A64"/>
<path d="M290.734 275.207C291.695 274.169 291.435 272.382 290.213 271.612C288.989 270.842 287.084 271.266 286.379 272.464C285.675 273.663 286.331 275.362 287.701 275.882C289.071 276.402 290.84 275.627 291.262 274.32" fill="#E8505B"/>
<path d="M373.117 166.822C373.145 166.844 372.917 167.148 372.453 167.707C371.956 168.287 371.265 169.094 370.388 170.119C368.568 172.192 365.962 175.212 362.78 178.969C359.591 182.721 355.877 187.247 351.84 192.329C347.827 197.428 343.503 203.092 339.121 209.134C334.756 215.19 330.748 221.049 327.189 226.427C323.654 231.818 320.554 236.718 318.026 240.874C315.49 245.026 313.471 248.404 312.096 250.748C311.408 251.889 310.866 252.786 310.477 253.432C310.096 254.041 309.88 254.353 309.846 254.338C309.813 254.322 309.963 253.98 310.282 253.341C310.627 252.675 311.109 251.748 311.72 250.57C312.98 248.168 314.898 244.735 317.353 240.533C319.798 236.327 322.836 231.38 326.331 225.952C329.85 220.538 333.842 214.65 338.217 208.581C342.608 202.524 346.967 196.863 351.033 191.785C355.124 186.722 358.907 182.232 362.179 178.53C365.443 174.824 368.143 171.869 370.064 169.87C371.009 168.897 371.752 168.13 372.287 167.578C372.803 167.06 373.088 166.8 373.117 166.822Z" fill="#263238"/>
<path d="M127.846 122.072C126.308 119.94 123.222 118.868 120.536 119.533C117.85 120.2 115.767 122.553 115.603 125.106C115.525 126.326 115.839 127.581 115.478 128.757C114.985 130.361 113.131 131.51 111.328 131.327C111.982 132.156 112.918 132.795 113.971 133.13C113.451 132.82 112.687 133.268 112.621 133.835C112.555 134.401 113.017 134.931 113.578 135.172C114.139 135.414 114.78 135.429 115.4 135.43C118.412 135.435 121.654 135.114 123.929 133.298C126.383 131.339 127.096 128.156 127.665 125.213" fill="#263238"/>
<path d="M154.806 110.442C157.949 110.273 160.859 112.025 163.025 114.126C165.19 116.226 166.866 118.73 169.112 120.757C170.789 122.27 172.818 123.564 173.834 125.512C175.45 128.61 174.097 132.616 176.133 135.498C177.279 137.122 179.312 138.069 180.496 139.67C181.977 141.674 181.868 144.306 181.533 146.71C181.3 148.379 180.933 150.141 179.687 151.373C178.712 152.336 177.327 152.841 175.973 153.265C165.754 156.469 154.454 156.692 144.095 153.892" fill="#263238"/>
<path d="M133.176 129.784C132.045 121.478 138.579 113.888 147.75 113.084C156.396 112.327 164.079 118.246 165.374 126.142C166.51 133.064 167.486 140.052 167.452 142.589C167.345 150.241 162.477 153.221 160.503 154.116C160.052 154.32 158.811 154.551 158.313 154.617C158.281 154.62 158.26 154.648 158.267 154.676L160.115 163.461C160.953 169.216 157.459 174.35 151.209 175.188C144.939 176.028 140.038 171.607 139.081 165.848L133.176 129.784Z" fill="#FFBE9D"/>
<path d="M163.94 130.617C163.802 130.795 162.704 130.254 161.295 130.446C159.886 130.62 158.958 131.424 158.779 131.286C158.693 131.225 158.814 130.92 159.216 130.558C159.611 130.199 160.321 129.805 161.199 129.691C162.077 129.578 162.864 129.776 163.335 130.023C163.818 130.272 164.009 130.536 163.94 130.617Z" fill="#263238"/>
<path d="M151.406 133.114C151.269 133.292 150.168 132.751 148.762 132.943C147.353 133.116 146.425 133.921 146.246 133.783C146.16 133.722 146.278 133.417 146.683 133.055C147.079 132.696 147.788 132.302 148.666 132.188C149.544 132.075 150.329 132.274 150.802 132.52C151.282 132.769 151.474 133.033 151.406 133.114Z" fill="#263238"/>
<path d="M156.281 139.236C156.263 139.164 157.116 138.907 158.509 138.55C158.863 138.468 159.193 138.356 159.218 138.123C159.265 137.872 159.058 137.536 158.822 137.174C158.357 136.419 157.87 135.628 157.359 134.798C155.313 131.411 153.776 128.604 153.926 128.531C154.075 128.456 155.854 131.142 157.9 134.53C158.396 135.367 158.87 136.164 159.321 136.927C159.516 137.284 159.819 137.679 159.713 138.2C159.656 138.46 159.42 138.675 159.199 138.762C158.979 138.858 158.777 138.889 158.601 138.923C157.183 139.185 156.298 139.309 156.281 139.236Z" fill="#263238"/>
<path d="M158.255 154.623C158.255 154.623 152.882 155.763 145.482 152.915C145.482 152.915 148.677 159.238 158.753 156.991L158.255 154.623Z" fill="#EB996E"/>
<path d="M156.18 142.438C155.575 141.89 154.635 141.671 153.767 141.876C153.166 142.019 152.591 142.373 152.292 142.881C151.993 143.388 152.018 144.049 152.426 144.44C152.884 144.88 153.696 144.887 154.34 144.621C154.984 144.355 155.499 143.87 155.984 143.391C156.117 143.259 156.255 143.121 156.325 142.955C156.395 142.788 156.383 142.584 156.247 142.473" fill="#EB996E"/>
<path d="M152.277 140.688C152.505 140.645 152.73 142.051 154.197 142.873C155.662 143.7 157.268 143.322 157.31 143.518C157.346 143.604 156.991 143.84 156.306 143.949C155.635 144.06 154.618 143.993 153.72 143.49C152.824 142.985 152.351 142.214 152.208 141.645C152.056 141.065 152.171 140.695 152.277 140.688Z" fill="#263238"/>
<path d="M150.435 128.899C150.352 129.27 148.92 129.292 147.296 129.696C145.663 130.07 144.401 130.694 144.132 130.408C144.01 130.27 144.189 129.908 144.675 129.494C145.155 129.083 145.956 128.645 146.932 128.41C147.908 128.177 148.839 128.2 149.477 128.344C150.12 128.487 150.469 128.724 150.435 128.899Z" fill="#263238"/>
<path d="M162.517 126.623C162.315 126.95 161.296 126.775 160.127 126.917C158.953 127.021 158.004 127.404 157.727 127.126C157.604 126.99 157.712 126.674 158.1 126.338C158.481 126.004 159.156 125.681 159.962 125.596C160.767 125.512 161.505 125.685 161.958 125.933C162.42 126.18 162.603 126.466 162.517 126.623Z" fill="#263238"/>
<path d="M167.008 124.427C165.286 126.844 159.82 125.351 156.518 123.69C153.042 125.809 148.21 124.889 145.802 121.65C143.913 123.862 140.077 123.132 138.678 120.638C137.279 118.145 138.067 114.715 139.989 112.534C141.91 110.353 144.721 109.252 147.496 108.78C154.075 107.663 161.242 110.008 165.179 115.479C166.996 118.004 168.086 121.403 167.008 124.427Z" fill="#263238"/>
<path d="M140.481 112.362C134.293 111.276 128.317 116.949 127.698 121.009C126.623 128.057 127.659 128.937 126.257 132.316C125.347 134.511 122.199 136.762 120.955 139.025C119.618 141.46 119.625 145.571 120.554 148.161C121.337 150.346 124.531 156.442 124.531 156.442C124.531 156.442 133.739 156.164 138.449 155.056C139.623 154.78 140.875 154.377 141.774 153.627C142.664 152.883 140.821 150.297 140.99 149.2C141.472 146.076 144.017 144.27 143.289 141.186C142.322 137.092 138.82 136.884 138.898 132.694C138.938 130.47 142.542 127.279 142.873 125.076C143.203 122.872 144.593 115.2 140.481 112.362Z" fill="#263238"/>
<path d="M127.45 127.263C127.606 127.226 127.284 125.851 127.319 124.144C127.337 122.436 127.699 121.071 127.544 121.03C127.415 120.982 126.796 122.344 126.775 124.138C126.741 125.93 127.32 127.307 127.45 127.263Z" fill="#E8505B"/>
<path d="M127.639 124.875C127.635 124.903 127.868 124.976 128.305 125.017C128.742 125.059 129.387 125.067 130.167 124.926C130.942 124.788 131.856 124.498 132.742 123.967C133.636 123.452 134.468 122.643 135.1 121.714C135.748 120.793 136.302 119.918 137.012 119.288C137.712 118.645 138.483 118.207 139.162 117.912C140.536 117.325 141.517 117.299 141.504 117.208C141.502 117.18 141.259 117.148 140.821 117.183C140.384 117.217 139.749 117.32 139.01 117.588C138.275 117.854 137.434 118.287 136.665 118.957C135.877 119.622 135.277 120.545 134.645 121.44C133.455 123.289 131.536 124.255 130.082 124.583C128.614 124.929 127.644 124.783 127.639 124.875Z" fill="#455A64"/>
<path d="M112.529 133.573C112.517 133.595 112.776 133.757 113.326 133.817C113.868 133.87 114.705 133.748 115.528 133.238C116.368 132.751 117.1 131.825 117.528 130.72C117.985 129.617 118.194 128.35 118.596 127.109C118.992 125.874 119.64 124.748 120.622 124.149C121.596 123.537 122.734 123.42 123.625 123.513C125.474 123.732 126.234 124.719 126.295 124.625C126.314 124.613 126.173 124.362 125.762 124.034C125.357 123.705 124.651 123.324 123.681 123.162C122.725 123.017 121.469 123.094 120.344 123.765C119.199 124.434 118.486 125.681 118.075 126.963C117.657 128.26 117.467 129.507 117.056 130.562C116.668 131.625 116.046 132.465 115.306 132.949C114.58 133.451 113.837 133.613 113.333 133.622C112.826 133.625 112.545 133.531 112.529 133.573Z" fill="#455A64"/>
<path d="M127.48 124.023C127.479 124.049 127.755 124.095 128.239 123.994C128.722 123.897 129.392 123.589 130.016 123.01C130.651 122.44 131.197 121.584 131.622 120.614C132.069 119.653 132.435 118.557 133.146 117.61C134.583 115.682 136.942 114.878 138.565 114.755C140.234 114.61 141.251 114.986 141.276 114.89C141.287 114.862 141.049 114.747 140.585 114.614C140.12 114.486 139.415 114.372 138.539 114.402C136.825 114.441 134.264 115.231 132.697 117.328C131.925 118.365 131.573 119.493 131.158 120.442C130.764 121.404 130.295 122.203 129.737 122.768C128.627 123.944 127.446 123.942 127.48 124.023Z" fill="#455A64"/>
<path d="M130.006 156.694C130.038 156.664 129.557 156.221 128.781 155.353C128.011 154.485 126.947 153.168 126.041 151.351C125.15 149.546 124.42 147.181 124.701 144.56C124.957 141.972 126.211 139.094 128.775 137.188C130.05 136.237 131.507 135.521 132.749 134.564C134.024 133.64 134.913 132.334 135.327 131.028C135.771 129.721 135.919 128.44 136.09 127.269C136.258 126.096 136.45 125.013 136.795 124.073C137.441 122.165 138.85 121.016 139.943 120.589C141.056 120.144 141.774 120.304 141.768 120.237C141.77 120.226 141.603 120.181 141.274 120.173C140.947 120.161 140.45 120.201 139.862 120.41C138.693 120.794 137.152 121.979 136.432 123.957C136.049 124.926 135.831 126.035 135.644 127.211C135.453 128.386 135.287 129.642 134.849 130.886C134.431 132.138 133.627 133.305 132.407 134.187C131.22 135.098 129.764 135.808 128.432 136.799C125.727 138.813 124.439 141.834 124.202 144.517C123.938 147.246 124.738 149.676 125.693 151.5C126.665 153.339 127.794 154.642 128.622 155.48C129.035 155.901 129.38 156.208 129.62 156.408C129.861 156.608 129.994 156.707 130.006 156.694Z" fill="#455A64"/>
<path d="M175.028 153.009C175.045 153.017 175.123 152.913 175.259 152.703C175.404 152.499 175.572 152.175 175.779 151.752C176.163 150.9 176.579 149.58 176.582 147.91C176.589 146.254 176.157 144.218 174.85 142.335C174.211 141.385 173.334 140.555 172.524 139.658C171.713 138.766 170.956 137.775 170.68 136.597C170.129 134.22 170.977 131.825 170.802 129.616C170.715 127.413 170.046 125.456 169.102 124.03C168.165 122.593 167.043 121.677 166.221 121.151C165.806 120.888 165.473 120.702 165.234 120.597C164.999 120.485 164.872 120.434 164.863 120.448C164.835 120.492 165.322 120.737 166.094 121.307C166.861 121.871 167.908 122.799 168.769 124.208C169.638 125.605 170.243 127.497 170.301 129.634C170.349 130.702 170.209 131.816 170.075 132.995C169.949 134.168 169.832 135.433 170.151 136.71C170.455 138.002 171.287 139.072 172.116 139.973C172.95 140.883 173.814 141.691 174.429 142.586C175.697 144.364 176.157 146.313 176.198 147.915C176.244 149.532 175.898 150.828 175.582 151.684C175.252 152.54 174.982 152.986 175.028 153.009Z" fill="#455A64"/>
<path d="M148.82 109.644C148.826 109.75 150.375 109.477 152.812 109.851C155.205 110.22 158.574 111.368 161.082 113.942C163.533 116.555 164.647 119.65 165.054 121.859C165.464 124.102 165.151 125.519 165.258 125.528C165.289 125.533 165.391 125.188 165.482 124.546C165.564 123.903 165.591 122.96 165.434 121.808C165.111 119.528 164.04 116.335 161.488 113.611C158.86 110.916 155.34 109.791 152.868 109.502C151.615 109.352 150.587 109.384 149.89 109.457C149.193 109.524 148.816 109.618 148.82 109.644Z" fill="#455A64"/>
<path d="M157.717 120.892C157.748 120.895 157.818 120.59 157.848 120.031C157.881 119.471 157.829 118.651 157.58 117.668C157.112 115.728 155.583 113.047 152.635 111.436C149.674 109.846 146.381 109.916 144.31 110.481C143.254 110.756 142.449 111.113 141.933 111.411C141.416 111.707 141.161 111.911 141.179 111.934C141.232 112.024 142.332 111.272 144.406 110.823C146.432 110.364 149.563 110.364 152.361 111.867C155.145 113.388 156.663 115.906 157.209 117.758C157.788 119.643 157.605 120.894 157.717 120.892Z" fill="#455A64"/>
<path d="M102.911 275.11C102.672 275.848 102.417 276.722 102.168 277.763C101.954 278.656 101.916 279.578 102.04 280.485C102.191 281.586 102.455 283.041 102.868 283.796C103.381 284.731 102.39 285.752 101.469 285.319C100.549 284.887 99.0702 282.343 98.9418 278.975C98.8134 275.607 95.3337 279.835 94.035 281.355C92.7363 282.875 88.4799 287.404 87.6551 287.407C86.4462 287.412 86.2186 286.221 87.5538 284.731C88.9058 283.223 92.5504 278.513 91.6442 277.922C90.7516 277.339 84.2569 285.158 84.2569 285.158C84.2569 285.158 83.1628 287.037 82.0906 286.384C80.1571 285.208 87.7282 277.363 88.4684 276.633C88.9831 276.125 88.0236 275.45 87.5027 276.022C86.9661 276.611 81.222 283.96 79.2405 282.78C77.7214 281.875 85.4022 276.274 85.6725 274.14C85.9429 272.007 80.3168 278.933 78.9043 278.013C78.3781 277.67 78.0367 277.348 81.8922 273.8C83.7631 272.077 90.9604 266.859 90.9604 266.859L105.562 219.959H124.733L102.911 275.11Z" fill="#FFBE9D"/>
<path d="M260.277 84.6643C258.819 83.807 253.552 90.9667 253.714 88.824C253.876 86.6813 261.263 80.7552 259.699 79.9171C257.66 78.8237 252.296 86.4125 251.791 87.024C251.3 87.6173 250.307 86.9846 250.796 86.4557C251.498 85.6944 258.661 77.5315 256.67 76.44C255.567 75.8352 254.57 77.7581 254.57 77.7581C254.57 77.7581 248.48 85.849 247.559 85.3046C246.624 84.7526 250.025 79.8912 251.299 78.3264C252.557 76.7808 252.268 75.6019 251.061 75.6576C250.237 75.696 246.216 80.4029 244.996 81.9773C243.777 83.5517 240.516 87.9245 240.216 84.5654C239.916 81.2074 238.311 78.7296 237.369 78.337C236.427 77.9443 235.49 79.007 236.049 79.9181C236.5 80.6544 236.839 82.0973 237.044 83.1898C237.214 84.0912 237.224 85.0128 237.056 85.9152C236.859 86.9664 236.649 87.8496 236.448 88.5965L233.986 92.3098C233.986 92.3098 215.97 121.645 212.931 125.838C209.892 130.03 187.475 147.498 187.475 147.498L189.25 170.556L225.836 140.842L248.249 97.3949L248.804 96.3226C248.804 96.3226 255.727 90.7997 257.509 88.9987C261.177 85.2912 260.82 84.984 260.277 84.6643Z" fill="#FFBE9D"/>
<path d="M182.494 184.558L210.61 157.631L199.467 135.431L161.058 160.629L160.368 158.67L137.989 161.279V164.916L137.348 164.988C137.348 164.988 116.05 168.548 111.768 183.216C108.812 193.346 102.692 212.213 99.188 222.919L124.734 224.974L131.226 205.313C131.226 205.313 135.306 213.87 135.071 217.916C134.836 221.963 130.628 235.106 130.628 235.106L180.516 239.397L179.779 200.683L182.494 184.558Z" fill="#BAC0C6"/>
<path d="M180.465 188.414C180.465 188.553 164.843 188.664 145.577 188.664C126.304 188.664 110.686 188.552 110.686 188.414C110.686 188.276 126.305 188.165 145.577 188.165C164.843 188.165 180.465 188.276 180.465 188.414Z" fill="#F5F5F5"/>
<path d="M181.911 184.515C181.911 184.653 166.289 184.764 147.023 184.764C127.75 184.764 112.131 184.652 112.131 184.515C112.131 184.377 127.751 184.265 147.023 184.265C166.289 184.265 181.911 184.377 181.911 184.515Z" fill="#F5F5F5"/>
<path d="M93.9317 415.762L88.5843 437.989L78.8417 454.449C78.1391 455.635 78.6767 457.12 80.011 457.684C80.7585 458 81.6187 457.966 82.3307 457.588C86.8638 455.18 103.489 446.245 103.782 444.598C104.12 442.691 111.115 421.496 111.115 421.496L93.9317 415.762Z" fill="#E8505B"/>
<path opacity="0.6" d="M80.0122 457.684L104.181 443.106L103.931 444.043C103.715 444.853 103.197 445.568 102.462 446.055C100.495 447.361 94.979 450.856 82.4051 457.605C81.6732 457.997 80.7722 458.028 80.0122 457.684Z" fill="white"/>
<g opacity="0.6">
<path d="M101.149 434.861C100.444 435.108 100.024 435.901 100.263 436.559C100.502 437.217 101.376 437.617 102.086 437.381C102.795 437.145 103.332 436.207 103.013 435.578C102.695 434.949 101.641 434.531 101.014 434.916" fill="white"/>
</g>
<path d="M88.0852 449.264C87.9327 449.294 87.6999 448.014 86.4356 447.068C85.2027 446.088 83.7912 446.1 83.7974 445.956C83.7912 445.898 84.1409 445.794 84.7235 445.848C85.3008 445.898 86.0953 446.154 86.7854 446.684C87.4734 447.217 87.8858 447.891 88.0403 448.405C88.199 448.924 88.1499 449.259 88.0852 449.264Z" fill="#263238"/>
<path d="M85.5829 451.837C85.443 451.908 84.8636 451.015 83.7069 450.406C82.5647 449.774 81.4351 449.745 81.433 449.598C81.3934 449.469 82.6764 449.262 83.9814 449.975C85.2958 450.676 85.7239 451.807 85.5829 451.837Z" fill="#263238"/>
<path d="M92.2854 446.188C92.1445 446.268 91.2602 444.89 89.5522 443.799C87.863 442.684 86.155 442.379 86.1895 442.231C86.1822 442.104 88.0499 442.2 89.8654 443.391C91.6945 444.565 92.418 446.151 92.2854 446.188Z" fill="#263238"/>
<path d="M94.5245 439.556C94.4253 439.674 93.2331 438.864 91.5199 438.417C89.8129 437.948 88.3346 438.042 88.32 437.893C88.2824 437.771 89.8369 437.436 91.6723 437.937C93.5118 438.421 94.6289 439.47 94.5245 439.556Z" fill="#263238"/>
<path d="M96.2745 433.068C96.1659 433.179 95.0269 432.14 93.1811 431.805C91.3426 431.432 89.8476 431.964 89.7964 431.822C89.7693 431.768 90.1065 431.549 90.7392 431.38C91.3677 431.209 92.3 431.127 93.2928 431.317C94.2846 431.509 95.1031 431.927 95.6042 432.315C96.1095 432.703 96.3235 433.027 96.2745 433.068Z" fill="#263238"/>
<path d="M93.5529 430.579C93.5226 430.572 93.5466 430.263 93.7429 429.735C93.9392 429.212 94.3181 428.461 95.05 427.708C95.4195 427.356 95.8309 426.889 96.5794 426.749C96.9521 426.677 97.4345 426.846 97.6412 427.203C97.8479 427.551 97.8406 427.934 97.755 428.287C97.3551 429.684 95.6826 430.746 93.9131 430.561C92.1435 430.346 90.8228 429.088 90.4637 427.723C90.3979 427.376 90.3969 426.968 90.684 426.636C90.9679 426.3 91.4962 426.261 91.8261 426.393C92.5141 426.652 92.8638 427.132 93.2084 427.507C93.8734 428.307 94.2137 429.066 94.3912 429.595C94.5676 430.127 94.5875 430.436 94.5572 430.443C94.457 430.481 94.2398 429.22 92.9098 427.729C92.5684 427.378 92.1811 426.945 91.6789 426.784C91.4346 426.705 91.1945 426.748 91.0556 426.914C90.9157 427.071 90.8928 427.36 90.9565 427.636C91.2686 428.757 92.4786 429.904 93.9778 430.065C95.4676 430.236 96.9365 429.3 97.2695 428.177C97.3457 427.906 97.3395 427.615 97.2246 427.417C97.1119 427.223 96.8864 427.126 96.6421 427.159C96.1284 427.227 95.691 427.62 95.3308 427.949C93.8849 429.345 93.6541 430.625 93.5529 430.579Z" fill="#263238"/>
<path d="M171.442 422.76L169.997 440.522C169.997 440.522 189.145 447.838 189.225 451.144L151.672 449.805L152.689 422.045L171.442 422.76Z" fill="#E8505B"/>
<g opacity="0.6">
<path d="M158.448 438.612C157.713 438.768 157.179 439.501 157.319 440.183C157.459 440.865 158.266 441.371 159.003 441.226C159.74 441.081 160.411 440.219 160.188 439.555C159.966 438.893 158.983 438.347 158.306 438.65" fill="white"/>
</g>
<path opacity="0.6" d="M151.672 449.805L151.894 447.011L187.817 449.34C187.817 449.34 189.46 450.068 189.226 451.144L151.672 449.805Z" fill="white"/>
<path d="M170.613 440.368C170.599 440.536 169.679 440.58 168.754 441.09C167.815 441.578 167.319 442.292 167.153 442.219C166.985 442.181 167.301 441.182 168.433 440.582C169.559 439.975 170.659 440.215 170.613 440.368Z" fill="#263238"/>
<path d="M174.488 442.007C174.523 442.172 173.716 442.43 173.064 443.122C172.39 443.795 172.2 444.561 172.017 444.546C171.844 444.566 171.758 443.575 172.588 442.73C173.409 441.878 174.491 441.846 174.488 442.007Z" fill="#263238"/>
<path d="M176.542 446.421C176.374 446.451 176.154 445.599 176.664 444.693C177.168 443.783 178.048 443.45 178.119 443.593C178.217 443.735 177.639 444.211 177.232 444.961C176.808 445.702 176.725 446.412 176.542 446.421Z" fill="#263238"/>
<path d="M170.454 436.287C170.37 436.438 169.539 436.176 168.5 436.203C167.46 436.212 166.64 436.502 166.55 436.355C166.449 436.229 167.264 435.633 168.488 435.616C169.712 435.59 170.549 436.158 170.454 436.287Z" fill="#263238"/>
<path opacity="0.3" d="M171.152 426.278L170.898 429.444L152.448 428.63L152.545 425.773L171.152 426.278Z" fill="black"/>
<path d="M170.673 432.699C170.672 432.769 169.943 432.847 168.793 432.623C168.221 432.511 167.548 432.313 166.849 431.997C166.499 431.839 166.143 431.652 165.791 431.432C165.622 431.323 165.422 431.213 165.24 431.004C165.044 430.821 164.948 430.37 165.194 430.104C165.398 429.846 165.742 429.743 166.014 429.747C166.29 429.749 166.513 429.808 166.715 429.862C167.13 429.971 167.516 430.112 167.869 430.273C168.573 430.598 169.14 430.999 169.559 431.382C170.399 432.155 170.67 432.795 170.606 432.826C170.521 432.878 170.119 432.335 169.258 431.691C168.829 431.37 168.278 431.035 167.617 430.762C167.286 430.626 166.929 430.508 166.55 430.417C166.157 430.307 165.818 430.292 165.71 430.452C165.67 430.512 165.664 430.537 165.743 430.646C165.825 430.748 165.982 430.851 166.148 430.958C166.472 431.17 166.799 431.355 167.12 431.516C167.762 431.839 168.38 432.064 168.912 432.222C169.975 432.536 170.68 432.608 170.673 432.699Z" fill="#263238"/>
<path d="M170.425 432.932C170.359 432.956 170.021 432.339 169.999 431.245C169.99 430.702 170.079 430.047 170.335 429.36C170.465 429.017 170.636 428.668 170.858 428.327C171.093 427.994 171.38 427.547 172.094 427.497C172.466 427.497 172.763 427.775 172.859 428.007C172.973 428.245 172.99 428.447 173.025 428.649C173.077 429.055 173.052 429.449 172.977 429.813C172.828 430.544 172.475 431.144 172.098 431.571C171.327 432.44 170.553 432.613 170.539 432.556C170.482 432.469 171.134 432.166 171.733 431.326C172.027 430.912 172.297 430.362 172.397 429.722C172.447 429.403 172.456 429.064 172.404 428.722C172.361 428.352 172.223 428.051 172.073 428.083C171.886 428.074 171.557 428.339 171.391 428.627C171.186 428.929 171.019 429.241 170.886 429.547C170.624 430.163 170.497 430.757 170.449 431.26C170.356 432.272 170.525 432.91 170.425 432.932Z" fill="#263238"/>
<path d="M132.617 228.534C132.617 228.534 120.732 245.796 119.022 252.404C117.489 258.326 91.4907 387.042 86.112 413.688C85.5597 416.424 87.3377 419.097 90.2358 419.898L113.744 426.398C117.062 427.316 120.525 425.433 121.25 422.316L150.25 297.617L141.755 421.165C141.499 424.885 144.781 428.002 148.832 427.887L171.865 427.235C175.416 427.134 178.299 424.571 178.519 421.31C180.523 391.555 189.524 256.209 187.716 251.96C185.683 247.185 180.349 230.595 180.349 230.595L132.617 228.534Z" fill="#263238"/>
<path d="M123.213 416.226C123.206 416.26 122.694 416.2 121.773 416.062C120.852 415.927 119.526 415.699 117.894 415.391C114.628 414.777 110.142 413.8 105.255 412.494C100.368 411.183 96.0135 409.791 92.8993 408.698C91.3416 408.152 90.0899 407.689 89.2348 407.349C88.3777 407.011 87.911 406.81 87.9246 406.777C87.9382 406.745 88.432 406.885 89.311 407.168C90.2882 407.483 91.5368 407.885 93.0308 408.366C96.1732 409.373 100.534 410.707 105.407 412.014C110.281 413.316 114.739 414.344 117.977 415.045C119.519 415.378 120.807 415.654 121.816 415.871C122.721 416.068 123.22 416.193 123.213 416.226Z" fill="#455A64"/>
<path d="M94.0639 408.331C93.9679 408.426 92.9615 407.499 92.5804 405.975C92.1837 404.455 92.6358 403.212 92.7673 403.259C92.926 403.285 92.7412 404.469 93.1087 405.861C93.4543 407.258 94.1934 408.243 94.0639 408.331Z" fill="#455A64"/>
<path d="M96.96 403.74C97.104 403.747 97.1322 404.921 96.6802 406.293C96.2354 407.668 95.5088 408.634 95.3856 408.566C95.2478 408.498 95.7354 407.466 96.1592 406.15C96.5935 404.837 96.8044 403.728 96.96 403.74Z" fill="#455A64"/>
<path d="M170.732 410.249C170.88 410.227 171.18 411.235 171.403 412.5C171.625 413.766 171.686 414.809 171.538 414.831C171.389 414.853 171.089 413.845 170.866 412.58C170.644 411.315 170.583 410.271 170.732 410.249Z" fill="#455A64"/>
<path d="M173.533 409.048C173.684 409.05 173.789 410.132 173.768 411.464C173.748 412.796 173.611 413.874 173.46 413.872C173.31 413.87 173.204 412.788 173.225 411.456C173.245 410.124 173.383 409.046 173.533 409.048Z" fill="#455A64"/>
<path d="M160.587 234.553C160.605 234.554 160.607 234.788 160.596 235.233C160.576 235.727 160.549 236.373 160.517 237.178C160.442 238.866 160.282 241.308 160.045 244.322C159.566 250.35 158.672 258.665 157.215 267.792C155.752 276.921 154.041 285.126 152.705 291.042C152.035 294 151.469 296.389 151.054 298.035C150.852 298.818 150.69 299.447 150.566 299.928C150.449 300.36 150.378 300.585 150.36 300.581C150.342 300.577 150.376 300.346 150.459 299.907C150.557 299.42 150.686 298.786 150.846 297.995C151.207 296.28 151.71 293.895 152.327 290.972C153.566 285.041 155.215 276.835 156.677 267.719C158.131 258.605 159.084 250.308 159.661 244.293C159.929 241.327 160.147 238.907 160.305 237.165C160.38 236.364 160.439 235.719 160.486 235.227C160.533 234.784 160.568 234.552 160.587 234.553Z" fill="#455A64"/>
<path d="M181.557 235.172C181.557 235.189 181.376 235.209 181.031 235.231C180.623 235.25 180.125 235.272 179.522 235.3C178.21 235.351 176.312 235.398 173.967 235.432C169.275 235.503 162.791 235.5 155.633 235.316C148.473 235.131 141.998 234.802 137.318 234.49C134.977 234.334 133.086 234.191 131.78 234.072C131.178 234.013 130.682 233.964 130.277 233.925C129.934 233.886 129.754 233.857 129.756 233.84C129.757 233.822 129.94 233.818 130.286 233.824C130.694 233.839 131.192 233.856 131.795 233.877C133.188 233.942 135.063 234.03 137.342 234.136C142.025 234.358 148.496 234.631 155.649 234.816C162.799 234.998 169.276 235.058 173.965 235.078C176.247 235.089 178.124 235.098 179.519 235.105C180.123 235.115 180.621 235.123 181.029 235.129C181.374 235.141 181.555 235.155 181.557 235.172Z" fill="#455A64"/>
<path d="M164.576 234.323C164.614 234.324 164.618 234.905 164.592 235.956C164.551 237.089 164.498 238.588 164.434 240.399C164.276 244.151 164.022 249.331 163.707 255.051C163.537 257.914 163.421 260.632 163.213 263.121C162.992 265.603 162.424 267.863 161.387 269.532C160.375 271.209 159.048 272.253 158.044 272.77C157.543 273.037 157.118 273.18 156.83 273.265C156.536 273.34 156.382 273.37 156.376 273.353C156.356 273.3 156.987 273.171 157.933 272.604C158.876 272.051 160.112 271.005 161.047 269.363C162.005 267.734 162.521 265.537 162.713 263.082C162.891 260.62 162.994 257.883 163.164 255.025C163.479 249.305 163.794 244.127 164.05 240.38C164.185 238.572 164.296 237.076 164.381 235.944C164.472 234.899 164.538 234.321 164.576 234.323Z" fill="#455A64"/>
<path d="M137.734 244.977C137.766 244.978 137.784 245.374 137.727 246.089C137.673 246.804 137.51 247.836 137.147 249.077C136.442 251.546 134.721 254.89 131.571 257.597C128.417 260.303 124.672 261.654 121.944 262.131C120.572 262.38 119.442 262.458 118.663 262.459C117.884 262.462 117.455 262.419 117.456 262.389C117.451 262.289 119.185 262.362 121.862 261.786C124.519 261.229 128.135 259.86 131.199 257.232C134.26 254.602 135.991 251.378 136.777 248.978C137.585 246.562 137.625 244.966 137.734 244.977Z" fill="#455A64"/>
<path d="M187.558 263.049C187.545 263.081 187.255 263.012 186.736 262.858C186.213 262.714 185.483 262.428 184.619 262.009C183.749 261.597 182.773 261.003 181.762 260.256C180.771 259.491 179.755 258.563 178.834 257.477C177.928 256.379 177.212 255.239 176.661 254.161C176.135 253.072 175.759 252.052 175.55 251.173C175.331 250.298 175.218 249.576 175.2 249.075C175.171 248.574 175.173 248.298 175.209 248.295C175.311 248.287 175.4 249.39 175.921 251.084C176.174 251.933 176.577 252.915 177.115 253.965C177.675 255.004 178.384 256.105 179.265 257.172C180.161 258.228 181.136 259.139 182.085 259.904C183.051 260.65 183.98 261.26 184.808 261.702C186.455 262.599 187.592 262.961 187.558 263.049Z" fill="#455A64"/>
<path d="M145.753 248.124C145.753 248.124 145.747 248.27 145.712 248.555C145.67 248.86 145.612 249.277 145.537 249.813C145.369 250.943 145.126 252.567 144.816 254.648C144.187 258.846 143.202 264.91 141.917 272.394C139.352 287.363 135.442 307.993 130.374 330.641C125.292 353.295 120.016 373.668 115.938 388.351C113.901 395.693 112.199 401.621 110.973 405.706C110.364 407.729 109.888 409.309 109.558 410.408C109.396 410.926 109.27 411.331 109.177 411.627C109.088 411.9 109.029 412.038 109.029 412.038C109.029 412.038 109.052 411.892 109.123 411.613C109.203 411.314 109.312 410.905 109.452 410.381C109.76 409.277 110.201 407.688 110.768 405.655C111.931 401.556 113.576 395.615 115.564 388.264C119.546 373.564 124.761 353.186 129.841 330.54C134.906 307.9 138.875 287.289 141.536 272.338C142.869 264.863 143.912 258.807 144.605 254.618C144.959 252.543 145.236 250.924 145.428 249.798C145.525 249.265 145.6 248.85 145.655 248.546C145.711 248.267 145.753 248.124 145.753 248.124Z" fill="#455A64"/>
<path d="M164.851 416.102C164.842 416.101 164.847 415.963 164.865 415.694C164.888 415.403 164.92 415.007 164.96 414.502C165.058 413.429 165.199 411.891 165.38 409.922C165.77 405.921 166.331 400.175 167.023 393.086C168.396 378.87 170.562 359.25 172.191 337.53C172.992 326.666 173.539 316.304 173.77 306.873C174.011 297.442 173.934 288.947 173.74 281.815C173.494 274.685 173.144 268.92 172.839 264.94C172.683 262.97 172.562 261.431 172.478 260.357C172.443 259.851 172.417 259.455 172.397 259.164C172.383 258.895 172.38 258.756 172.389 258.755C172.398 258.755 172.42 258.892 172.453 259.159C172.485 259.45 172.53 259.844 172.586 260.347C172.695 261.42 172.85 262.956 173.049 264.924C173.418 268.902 173.828 274.668 174.123 281.802C174.366 288.938 174.484 297.442 174.27 306.881C174.067 316.321 173.535 326.692 172.732 337.562C171.104 359.295 168.876 378.91 167.405 393.118C166.641 400.201 166.021 405.942 165.589 409.939C165.365 411.904 165.191 413.439 165.068 414.511C165.005 415.015 164.956 415.407 164.919 415.698C164.884 415.966 164.861 416.103 164.851 416.102Z" fill="#455A64"/>
<path d="M179.117 413.865C179.134 414.002 170.861 414.952 160.642 415.988C150.42 417.024 142.123 417.752 142.106 417.614C142.089 417.477 150.36 416.527 160.583 415.491C170.801 414.456 179.1 413.728 179.117 413.865Z" fill="#455A64"/>
<path d="M468.988 425.861C468.997 425.856 468.934 425.717 468.803 425.451C468.655 425.161 468.457 424.772 468.205 424.278C467.696 423.241 467.035 421.671 466.447 419.582C465.284 415.407 464.877 409.026 466.597 401.447C467.396 397.652 468.683 393.582 470.255 389.267C471.803 384.944 473.601 380.357 475.07 375.398C476.522 370.452 477.669 365.081 477.447 359.453C477.224 353.813 475.408 348.182 473.411 342.579C471.418 336.966 469.357 331.479 468.739 325.961C468.041 320.453 469.323 315.045 472.053 310.614C474.696 306.135 478.021 302.306 480.511 298.338C483.039 294.384 484.619 290.318 485.595 286.537C487.483 278.913 486.822 272.488 485.917 268.255C484.936 263.998 483.843 261.798 483.843 261.798C483.832 261.802 483.874 261.947 483.966 262.227C484.069 262.532 484.209 262.942 484.386 263.464C484.751 264.552 485.225 266.176 485.675 268.297C486.502 272.522 487.086 278.902 485.159 286.442C484.165 290.181 482.577 294.194 480.058 298.093C477.576 302.013 474.235 305.827 471.539 310.358C468.753 314.839 467.413 320.422 468.122 326.017C468.743 331.629 470.82 337.152 472.809 342.757C474.806 348.356 476.6 353.927 476.827 359.473C477.054 365.015 475.935 370.333 474.506 375.256C473.061 380.191 471.284 384.779 469.755 389.114C468.203 393.443 466.931 397.546 466.156 401.367C464.482 409.002 464.96 415.448 466.206 419.637C466.837 421.735 467.54 423.301 468.088 424.326C468.364 424.812 468.583 425.193 468.744 425.478C468.897 425.736 468.978 425.866 468.988 425.861Z" fill="#263238"/>
<path d="M477.131 302.251C477.131 302.251 482.185 287.39 473.119 278.69C472.8 278.385 472.241 278.529 472.158 278.945C471.674 281.399 471.068 288.874 477.131 302.251Z" fill="#E8505B"/>
<path d="M474.102 283.641C474.017 283.656 474.161 284.701 474.443 286.382C474.775 288.271 475.165 290.487 475.595 292.937C476.018 295.387 476.401 297.603 476.727 299.491C477.003 301.169 477.169 302.21 477.262 302.203C477.344 302.197 477.335 301.14 477.172 299.441C477.005 297.743 476.679 295.407 476.22 292.843C475.764 290.279 475.278 287.97 474.883 286.307C474.488 284.644 474.189 283.625 474.102 283.641Z" fill="#263238"/>
<path d="M471.194 337.301C471.194 337.301 468.102 321.992 455.664 318.2C455.228 318.067 454.806 318.435 454.945 318.838C455.765 321.215 459.032 328.083 471.194 337.301Z" fill="#E8505B"/>
<path d="M459.053 322.153C458.985 322.204 459.644 323.066 460.749 324.43C462.002 325.956 463.474 327.748 465.101 329.727C466.72 331.711 468.186 333.505 469.435 335.034C470.533 336.398 471.208 337.247 471.287 337.202C471.357 337.162 470.811 336.23 469.802 334.799C468.791 333.371 467.315 331.446 465.606 329.376C463.899 327.306 462.295 325.475 461.099 324.174C459.904 322.873 459.121 322.102 459.053 322.153Z" fill="#263238"/>
<path d="M474.555 375.706C474.555 375.706 476.434 360.231 465.728 353.281C465.353 353.037 464.833 353.277 464.838 353.7C464.872 356.193 465.83 363.637 474.555 375.706Z" fill="#E8505B"/>
<path d="M467.721 357.969C467.64 357.999 467.999 359 468.624 360.6C469.343 362.396 470.185 364.503 471.116 366.832C472.039 369.162 472.876 371.271 473.587 373.067C474.207 374.667 474.586 375.659 474.674 375.636C474.754 375.616 474.526 374.58 474.013 372.941C473.496 371.303 472.692 369.067 471.71 366.631C470.731 364.194 469.775 362.013 469.041 360.449C468.309 358.885 467.803 357.938 467.721 357.969Z" fill="#263238"/>
<path d="M465.185 414.335C465.185 414.335 466.459 398.809 455.491 392.215C455.105 391.983 454.595 392.241 454.618 392.663C454.748 395.154 455.995 402.562 465.185 414.335Z" fill="#E8505B"/>
<path d="M457.665 396.834C457.586 396.867 457.984 397.856 458.67 399.435C459.457 401.206 460.381 403.284 461.402 405.581C462.415 407.879 463.332 409.959 464.113 411.731C464.795 413.308 465.211 414.288 465.3 414.262C465.378 414.24 465.11 413.211 464.534 411.59C463.954 409.971 463.063 407.763 461.987 405.36C460.913 402.957 459.873 400.809 459.079 399.271C458.287 397.731 457.746 396.802 457.665 396.834Z" fill="#263238"/>
<path d="M484.393 289.194C484.393 289.194 499.403 281.987 499.697 269.94C499.707 269.517 499.2 269.254 498.822 269.495C496.591 270.913 490.41 275.799 484.393 289.194Z" fill="#E8505B"/>
<path d="M496.581 274.078C496.508 274.033 495.805 274.865 494.711 276.236C493.491 277.787 492.06 279.606 490.479 281.616C488.893 283.621 487.456 285.437 486.234 286.982C485.137 288.348 484.454 289.191 484.523 289.247C484.585 289.296 485.394 288.543 486.585 287.237C487.774 285.928 489.343 284.067 490.993 281.957C492.645 279.849 494.078 277.902 495.079 276.469C496.081 275.038 496.653 274.123 496.581 274.078Z" fill="#263238"/>
<path d="M468.276 321.109C468.276 321.109 483.734 314.753 484.824 302.746C484.862 302.324 484.374 302.033 483.979 302.252C481.658 303.542 475.166 308.075 468.276 321.109Z" fill="#E8505B"/>
<path d="M481.439 306.702C481.369 306.653 480.613 307.445 479.43 308.751C478.111 310.231 476.563 311.967 474.851 313.885C473.135 315.799 471.582 317.53 470.259 319.004C469.074 320.306 468.336 321.109 468.403 321.169C468.461 321.222 469.317 320.516 470.594 319.278C471.868 318.038 473.556 316.267 475.342 314.254C477.129 312.242 478.689 310.379 479.783 309.005C480.877 307.631 481.508 306.75 481.439 306.702Z" fill="#263238"/>
<path d="M477.171 356.708C477.171 356.708 487.784 344.576 482.806 333.429C482.632 333.037 482.052 332.984 481.81 333.344C480.384 335.465 476.848 342.219 477.171 356.708Z" fill="#E8505B"/>
<path d="M481.752 338.369C481.666 338.355 481.385 339.376 480.979 341.035C480.537 342.904 480.018 345.099 479.445 347.524C478.865 349.946 478.34 352.138 477.892 354.005C477.483 355.66 477.223 356.684 477.311 356.709C477.39 356.731 477.802 355.744 478.325 354.108C478.845 352.471 479.47 350.187 480.063 347.647C480.658 345.107 481.124 342.795 481.417 341.113C481.713 339.432 481.839 338.384 481.752 338.369Z" fill="#263238"/>
<path d="M466.657 398.601C466.657 398.601 481.997 392.006 482.866 379.983C482.897 379.561 482.403 379.279 482.013 379.503C479.717 380.83 473.309 385.462 466.657 398.601Z" fill="#E8505B"/>
<path d="M479.555 383.991C479.484 383.943 478.743 384.747 477.584 386.072C476.291 387.571 474.775 389.331 473.1 391.276C471.419 393.215 469.898 394.97 468.601 396.466C467.44 397.786 466.717 398.6 466.785 398.658C466.844 398.71 467.688 397.991 468.941 396.733C470.191 395.475 471.847 393.678 473.596 391.637C475.346 389.598 476.872 387.71 477.941 386.319C479.01 384.93 479.626 384.039 479.555 383.991Z" fill="#263238"/>
<path d="M436.105 337.383C436.09 337.384 436.084 337.5 436.085 337.726C436.092 337.997 436.102 338.324 436.112 338.722C436.157 339.658 436.218 340.92 436.294 342.497C436.491 345.816 436.768 350.444 437.098 355.98L437.099 355.993L437.102 356.012C438.197 361.646 441.318 367.891 445.509 373.955C448.584 378.42 451.807 382.481 454.587 386.258C457.385 390.024 459.746 393.512 461.393 396.603C463.05 399.689 464.013 402.341 464.577 404.194C464.846 405.124 465.049 405.849 465.166 406.346C465.292 406.84 465.368 407.099 465.39 407.096C465.412 407.092 465.377 406.827 465.291 406.323C465.215 405.818 465.05 405.082 464.816 404.137C464.323 402.256 463.416 399.559 461.797 396.423C460.189 393.283 457.849 389.748 455.072 385.958C452.312 382.155 449.106 378.088 446.047 373.644C441.877 367.612 438.773 361.462 437.637 355.918L437.642 355.95C437.219 350.419 436.866 345.796 436.612 342.48C436.473 340.908 436.363 339.647 436.281 338.713C436.239 338.317 436.202 337.992 436.173 337.722C436.141 337.498 436.118 337.382 436.105 337.383Z" fill="#263238"/>
<path d="M445.237 372.795C445.237 372.795 438.742 358.416 446.913 348.996C447.2 348.666 447.772 348.763 447.896 349.171C448.619 351.574 449.957 358.968 445.237 372.795Z" fill="#E8505B"/>
<path d="M446.42 354.01C446.334 354.001 446.135 355.041 445.906 356.73C445.676 358.42 445.418 360.759 445.216 363.35C445.013 365.942 444.919 368.295 444.919 370C444.923 371.706 445.018 372.76 445.101 372.758C445.194 372.757 445.256 371.707 445.367 370.013C445.506 368.105 445.669 365.866 445.848 363.391C446.036 360.916 446.206 358.675 446.351 356.767C446.466 355.07 446.508 354.018 446.42 354.01Z" fill="#263238"/>
<g opacity="0.3">
<path d="M445.237 372.795C445.237 372.795 438.742 358.416 446.913 348.996C447.2 348.666 447.772 348.763 447.896 349.171C448.619 351.574 449.957 358.968 445.237 372.795Z" fill="black"/>
</g>
<path d="M465.359 407.445C465.359 407.445 460.152 392.629 469.128 383.849C469.443 383.541 470.005 383.68 470.091 384.096C470.601 386.546 471.282 394.015 465.359 407.445Z" fill="#E8505B"/>
<path d="M468.195 388.81C468.11 388.794 467.82 389.816 467.443 391.482C467.065 393.149 466.602 395.461 466.172 398.029C465.741 400.597 465.439 402.936 465.29 404.636C465.144 406.336 465.146 407.394 465.228 407.399C465.321 407.405 465.476 406.363 465.736 404.682C466.042 402.791 466.402 400.572 466.8 398.119C467.205 395.666 467.572 393.445 467.884 391.554C468.147 389.871 468.281 388.824 468.195 388.81Z" fill="#263238"/>
<g opacity="0.3">
<path d="M465.359 407.445C465.359 407.445 460.152 392.629 469.128 383.849C469.443 383.541 470.005 383.68 470.091 384.096C470.601 386.546 471.282 394.015 465.359 407.445Z" fill="black"/>
</g>
<path d="M436.965 355.222C436.965 355.222 423.093 346.293 424.493 334.312C424.542 333.892 425.082 333.691 425.424 333.974C427.436 335.646 432.88 341.225 436.965 355.222Z" fill="#E8505B"/>
<g opacity="0.3">
<path d="M436.965 355.222C436.965 355.222 423.093 346.293 424.493 334.312C424.542 333.892 425.082 333.691 425.424 333.974C427.436 335.646 432.88 341.225 436.965 355.222Z" fill="black"/>
</g>
<path d="M427.002 338.786C426.924 338.821 427.362 339.797 428.155 341.336C428.946 342.875 430.094 344.976 431.436 347.263C432.776 349.55 434.07 351.583 435.065 353.022C436.063 354.459 436.759 355.302 436.827 355.26C436.905 355.213 436.345 354.296 435.45 352.812C434.454 351.133 433.285 349.164 431.993 346.986C430.708 344.805 429.544 342.83 428.554 341.149C427.661 339.659 427.08 338.75 427.002 338.786Z" fill="#263238"/>
<path d="M459.766 392.756C459.766 392.756 443.036 390.357 438.554 379.035C438.396 378.637 438.785 378.239 439.227 378.355C441.835 379.041 449.394 381.845 459.766 392.756Z" fill="#E8505B"/>
<g opacity="0.3">
<path d="M459.766 392.756C459.766 392.756 443.036 390.357 438.554 379.035C438.396 378.637 438.785 378.239 439.227 378.355C441.835 379.041 449.394 381.845 459.766 392.756Z" fill="black"/>
</g>
<path d="M442.949 382.035C442.896 382.098 443.757 382.796 445.205 383.857C446.653 384.918 448.69 386.34 450.99 387.849C453.289 389.36 455.424 390.66 457.007 391.548C458.591 392.435 459.62 392.909 459.661 392.844C459.708 392.771 458.767 392.173 457.252 391.204C455.554 390.101 453.56 388.806 451.359 387.374C449.16 385.936 447.169 384.636 445.474 383.527C443.958 382.552 443.002 381.971 442.949 382.035Z" fill="#263238"/>
<path d="M479.561 421.069L474.763 450.013L455.598 449.984L449.141 421.069H479.561Z" fill="#455A64"/>
<path d="M462.07 430.361C462.561 429.677 462.903 428.847 462.958 427.94C463.029 427.053 462.653 425.977 461.659 425.452C460.668 424.926 459.39 425.116 458.448 425.695C457.463 426.283 456.888 427.312 456.612 428.353C456.336 429.41 456.306 430.51 456.373 431.623C456.451 432.735 456.675 433.876 457.151 434.965C457.614 436.055 458.362 437.085 459.373 437.88C460.379 438.671 461.669 439.236 463.061 439.296C464.454 439.354 465.785 438.911 466.896 438.272C468.015 437.626 468.966 436.808 469.758 435.893C470.543 434.978 471.134 433.884 471.208 432.712C471.269 431.564 470.829 430.368 469.848 429.646C468.854 428.903 467.444 428.957 466.452 429.455C465.43 429.928 464.671 430.829 464.492 431.815C464.124 433.801 465.384 435.591 466.915 436.397C468.483 437.22 470.189 437.244 471.541 437.012C472.915 436.766 474 436.269 474.838 435.826C475.676 435.374 476.28 434.961 476.684 434.676C477.086 434.389 477.286 434.226 477.276 434.214C477.264 434.199 477.043 434.338 476.622 434.598C476.201 434.855 475.58 435.242 474.738 435.662C473.896 436.075 472.819 436.536 471.49 436.747C470.179 436.949 468.551 436.891 467.104 436.104C465.698 435.35 464.564 433.654 464.919 431.893C465.084 431.028 465.752 430.253 466.662 429.835C467.552 429.401 468.731 429.378 469.546 429.996C470.366 430.6 470.769 431.662 470.706 432.689C470.637 433.725 470.099 434.738 469.352 435.602C468.598 436.468 467.674 437.258 466.62 437.865C465.567 438.468 464.339 438.867 463.083 438.815C461.831 438.762 460.647 438.25 459.71 437.515C458.768 436.776 458.069 435.822 457.626 434.79C457.172 433.761 456.951 432.668 456.872 431.594C456.801 430.519 456.828 429.446 457.081 428.46C457.332 427.482 457.854 426.561 458.702 426.05C459.531 425.531 460.636 425.376 461.439 425.8C462.258 426.226 462.601 427.112 462.551 427.927C462.513 428.75 462.205 429.535 461.758 430.175C460.815 431.452 459.445 432.236 458.185 432.636C456.913 433.048 455.723 433.099 454.78 433.01C452.872 432.81 451.975 432.166 451.948 432.237C451.944 432.245 451.998 432.28 452.109 432.344C452.222 432.404 452.383 432.508 452.613 432.609C453.072 432.815 453.786 433.073 454.756 433.196C455.72 433.317 456.95 433.294 458.279 432.892C459.599 432.497 461.041 431.713 462.07 430.361Z" fill="#263238"/>
</svg>
