<svg width="775" height="549" viewBox="0 0 775 549" fill="none" xmlns="http://www.w3.org/2000/svg">
<path d="M50.9005 541.67C50.9005 541.67 -5.07502 413.137 65.7179 316.002C136.511 218.866 93.3342 132.758 217.632 47.0314C377.398 -63.1552 531.498 45.5602 577.452 119.269C623.405 192.978 779.488 155.351 734.127 365.085C698.939 527.779 725.196 534.917 725.196 534.917L50.9005 541.67Z" fill="#F1EEFD"/>
<path d="M84.6271 506.899C84.6271 506.899 -14.71 456.275 9.22545 342.441C33.1609 228.607 130.642 201.595 170.732 209.952C245.872 225.615 123.109 271.828 93.7846 192.507C56.9903 92.9815 188.181 17.6294 309.793 37.13C387.951 49.6633 425.678 86.1595 495.154 109.092C564.383 131.943 593.418 101.338 565.836 83.6011C539.654 66.7625 444.594 94.234 477.233 131.886C521.925 183.44 629.63 103.564 713.106 192.507C796.581 281.449 724.114 393.268 659.94 402.593C595.765 411.916 623.904 322.06 724.114 393.269C824.324 464.478 697.744 541.674 697.744 541.674" stroke="#C3C8FF" stroke-miterlimit="10"/>
<path d="M766.733 548.791H7.38346C3.3517 548.791 0.0852051 545.603 0.0852051 541.672C0.0852051 537.739 3.35341 534.553 7.38346 534.553H774.031V541.672C774.031 545.603 770.763 548.791 766.733 548.791Z" fill="#372B29"/>
<path d="M280.266 548.791H7.38346C3.3517 548.791 0.0852051 545.603 0.0852051 541.672V534.553H287.566V541.672C287.566 545.603 284.298 548.791 280.266 548.791Z" fill="#72676F"/>
<path d="M393.707 263.136C361.189 324.091 324.651 348.924 324.651 348.924L356.205 398.065L411.306 342.211L393.707 263.136Z" fill="#72676F"/>
<path d="M474.333 248.587L393.706 263.136C388.6 411.938 386.686 534.533 386.686 534.533H531.408C531.408 534.533 535.607 306.673 512.326 256.957L474.333 248.587Z" fill="#72676F"/>
<path d="M464.972 324.417L504.252 321.175" stroke="#30333A" stroke-width="4" stroke-miterlimit="10"/>
<path d="M446.941 292.436C446.941 292.436 471.873 458.396 450.18 525.547" stroke="black" stroke-miterlimit="10"/>
<path d="M420.837 375.567C420.837 375.567 444.918 385.023 476.138 386.023C507.358 387.023 487.933 403.227 441.651 400.155" stroke="black" stroke-miterlimit="10"/>
<path d="M427.042 242.537L446.941 294.106L474.333 248.587L456.28 219.808L427.042 242.537Z" fill="#E9A394"/>
<path d="M446.941 294.106L484.086 284.103L474.333 248.587L446.941 294.106Z" fill="#5B5F68"/>
<path d="M431.465 253.996L411.306 275.96L446.941 294.106L431.465 253.996Z" fill="#5B5F68"/>
<path d="M356.205 398.065C356.205 398.065 367.979 374.116 342.699 343.269C328.681 326.164 322.222 296.646 322.222 296.646L301.161 299.771L320.447 398.067H356.205V398.065Z" fill="#E9A394"/>
<path d="M296.855 265.826L288.232 273.472L299.76 283.398L263.661 282.799L262.887 294.881L301.159 299.771L322.222 296.646L296.855 265.826Z" fill="#E9A394"/>
<path d="M303.164 284.644L268.529 270.708L266.293 276.71L295.202 288.56L303.164 284.644Z" fill="#E9A394"/>
<path d="M512.328 256.957C512.328 256.957 558.855 282.799 573.547 379.595L519.568 392.301L512.328 256.957Z" fill="#635760"/>
<path d="M411.279 179.518L393.707 223.378L407.144 227.411L411.279 252.116L454.178 242.537L460.379 175.484L411.279 179.518Z" fill="#E9A394"/>
<path d="M439.908 189.94H407.103L410.681 180.484L439.908 178.721V189.94Z" fill="#E37A82"/>
<path d="M457.05 209.95C457.05 209.95 436.121 205.727 436.121 184.606C436.121 184.606 405.067 188.729 394.347 172.286C381.649 152.809 401.054 130.426 417.08 134.974C417.08 134.974 406.981 144.738 422.319 145.885C433.257 146.704 453.245 132.509 460.38 146.238C460.38 146.238 515.435 158.504 474.335 208.542L457.05 209.95Z" fill="#72676F"/>
<path d="M436.12 182.936C436.12 182.936 394.609 190.76 385.927 161.722C380.851 144.746 398.295 135.079 398.295 135.079" stroke="#72676F" stroke-width="2" stroke-miterlimit="10"/>
<path d="M418.554 221.981C427.209 221.981 434.224 215.137 434.224 206.695C434.224 198.253 427.209 191.41 418.554 191.41C409.9 191.41 402.885 198.253 402.885 206.695C402.885 215.137 409.9 221.981 418.554 221.981Z" stroke="#16005C" stroke-width="0.5" stroke-miterlimit="10"/>
<path d="M433.382 201.749L455.7 202.941" stroke="#16005C" stroke-width="0.5" stroke-miterlimit="10"/>
<path d="M484.086 213.799C484.086 223.267 471.084 230.94 461.378 230.94C451.673 230.94 448.942 223.265 448.942 213.799C448.942 204.334 456.811 196.658 466.514 196.658C476.218 196.658 484.086 204.334 484.086 213.799Z" fill="#E9A394"/>
<path d="M567.105 381.11V460.154H526.7L523.337 391.412L567.105 381.11Z" fill="#E9A394"/>
<path d="M390.56 363.241L392.257 308.164L379.17 348.109L366.083 388.054L390.56 363.241Z" fill="#60595E"/>
<path d="M429.123 247.782L454.178 242.537L433.637 259.626L429.123 247.782Z" fill="#E37A82"/>
<path d="M414.305 213.799C415.962 213.799 417.305 211.067 417.305 207.697C417.305 204.327 415.962 201.595 414.305 201.595C412.649 201.595 411.306 204.327 411.306 207.697C411.306 211.067 412.649 213.799 414.305 213.799Z" fill="#040404"/>
<path d="M422.451 192.856C422.451 184.68 415.778 190.184 415.778 190.184L422.451 192.856Z" fill="#060606"/>
<path d="M415.776 229.055L425.32 226.576C425.32 226.576 429.41 261.109 415.776 229.055Z" fill="white"/>
<path d="M210.1 383.837C210.1 383.837 274.493 374.118 275.758 483.653C275.964 501.428 287.566 534.551 287.566 534.551H229.209L210.1 383.837Z" fill="#51403D"/>
<path d="M142.769 374.118L103.85 383.079L115.724 534.551H267.154C267.154 534.551 262.074 414.707 204.969 378.754L142.769 374.118Z" fill="#51403D"/>
<path d="M103.85 383.079C63.7357 392.003 73.1261 422.037 80.8711 483.71C60.8493 499.571 80.0579 506.711 80.0579 506.711C58.069 529.448 85.5004 534.551 85.5004 534.551H158.729C158.729 534.551 143.991 374.148 103.85 383.079Z" fill="#51403D"/>
<path d="M154.374 499.566L136.801 420.876" stroke="black" stroke-miterlimit="10"/>
<path d="M85.4988 534.551C85.4988 534.551 97.8628 506.861 136.939 492.94C169.339 481.398 216.732 511.36 247.07 482.89L252.689 514.944L158.728 534.551H85.4988Z" fill="#E9A394"/>
<path d="M214.313 296.105L243.284 339.121L224.693 345.594L221.48 380.552L165.61 361.618L170.875 290.511L214.313 296.105Z" fill="#E9A394"/>
<path d="M171.326 341.29L142.769 374.118L179.392 417.898L195.909 366.763L171.326 341.29Z" fill="#E37A82"/>
<path d="M180.876 320.965L221.741 307.136L214.313 296.105L173.944 300.203L180.876 320.965Z" fill="#E37A82"/>
<path d="M177.348 336.033C177.348 336.033 189.72 360.196 181.112 313.619C181.112 313.619 192.853 314.904 202.048 299.789C202.048 299.789 199.191 324.42 226.164 299.789C253.136 275.157 218.846 255.885 176.947 263.136C140.63 269.422 104.288 289.437 157.404 357.294L177.348 336.033Z" fill="#30333A"/>
<path d="M170.732 345.641C167.945 349.286 163.157 352.595 158.178 353.303C148.221 354.717 138.497 347.05 137.047 337.338C135.597 327.625 140.627 322.581 150.582 321.167C156.179 320.372 162.659 321.99 167.519 325.285C168.988 327.07 170.732 345.641 170.732 345.641Z" fill="#E9A394"/>
<path d="M210.146 332.215C211.637 331.82 212.097 328.809 211.174 325.49C210.25 322.171 208.293 319.8 206.802 320.195C205.311 320.589 204.851 323.6 205.774 326.919C206.698 330.239 208.655 332.61 210.146 332.215Z" fill="#30333A"/>
<path d="M198.819 317.76C198.819 317.76 197.368 309.773 204.969 313.619L198.819 317.76Z" fill="#30333A"/>
<path d="M138.196 375.46L144.826 368.032L142.394 362.526L157.403 357.296L200.461 378.418L202.047 394.545L194.76 392.299L182.865 435.549L138.196 375.46Z" fill="#51403D"/>
<path d="M177.077 386.021L202.047 394.545L200.461 378.418" stroke="black" stroke-miterlimit="10"/>
<path d="M181.112 313.619C181.112 313.619 186.135 342.135 193.482 347.999C195.894 349.924 200.46 345.026 221.48 344.615C234.332 344.365 234.321 388.126 217.266 386.871C200.211 385.617 174.293 375.245 170.409 343.348C167.004 315.365 181.112 313.619 181.112 313.619Z" fill="#30333A"/>
<path d="M202.047 353.303C202.047 353.303 206.381 361.177 214.924 355.843" stroke="#C4C6C5" stroke-miterlimit="10"/>
<path d="M299.512 516.542H155.759V526.931C155.759 531.139 159.257 534.549 163.569 534.549H299.512C303.826 534.549 307.322 531.138 307.322 526.931V524.16C307.324 519.954 303.826 516.542 299.512 516.542Z" fill="#8F858E"/>
<path d="M416.262 412.392H249.041C244.071 412.392 239.875 415.996 239.245 420.804L225.773 523.698C225.02 529.456 229.618 534.551 235.569 534.551H402.79C407.76 534.551 411.956 530.947 412.586 526.139L426.058 423.246C426.811 417.488 422.213 412.392 416.262 412.392Z" fill="#8F858E"/>
<path d="M424.355 412.392H257.133C252.163 412.392 247.967 415.996 247.337 420.804L233.865 523.698C233.112 529.456 237.711 534.551 243.661 534.551H410.883C415.853 534.551 420.049 530.947 420.679 526.139L434.151 423.246C434.904 417.488 430.305 412.392 424.355 412.392Z" fill="#30333A"/>
<path d="M344.769 484.527C351.733 478.082 352.556 467.899 346.608 461.784C340.659 455.669 330.192 455.937 323.228 462.382C316.265 468.828 315.442 479.01 321.39 485.125C327.338 491.24 337.805 490.973 344.769 484.527Z" fill="white"/>
<path d="M512.697 395.981L581.795 397.259L566.131 314.806L529.389 318.864C529.389 318.864 512.839 342.692 525.909 361.219C540.654 382.122 511.179 382.902 512.697 395.981Z" fill="#1A1C20"/>
<path d="M529.388 318.864C529.388 318.864 512.838 342.692 525.907 361.219C540.654 382.124 511.179 382.902 512.697 395.981" stroke="#575A5F" stroke-width="2" stroke-miterlimit="10"/>
<path d="M543.173 386.021C543.173 386.021 511.734 416.115 495.156 529.523H530.153L543.173 386.021Z" fill="#8F858E"/>
<path d="M626.263 377.638L612.581 529.523H510.936L523.589 471.514C523.589 471.514 484.891 451.819 543.173 386.021L557.658 378.754L620.591 374.118L626.263 377.638Z" fill="#9A8D98"/>
<path d="M543.173 453.997C543.173 453.997 537.08 464.177 542.938 472.35L534.312 529.523" stroke="black" stroke-miterlimit="10"/>
<path d="M528.967 471.776L587.841 473.471" stroke="black" stroke-miterlimit="10"/>
<path d="M599.448 500.366L593.221 427.312" stroke="black" stroke-miterlimit="10"/>
<path d="M626.263 377.638C626.263 377.638 631.876 384.527 638.375 400.5C647.589 423.151 658.579 464.071 657.858 529.521H612.581L626.263 377.638Z" fill="#9A8D98"/>
<path d="M657.858 534.533C657.858 534.533 635.236 484.065 578.334 498.508C516.204 514.277 493.133 511.33 493.133 511.33L488.423 534.533H657.858Z" fill="#E9A394"/>
<path d="M598.633 487.901L578.443 492.305L624.303 534.533H667.529C667.529 534.533 648.899 490.468 598.633 487.901Z" fill="#8F828D"/>
<path d="M599.881 500.999L609.497 498.133" stroke="black" stroke-miterlimit="10"/>
<path d="M493.133 511.33L463.611 505.376L442.449 534.533H488.423L493.133 511.33Z" fill="#E9A394"/>
<path d="M543.173 453.997L598.032 400.484L587.841 395.789L626.263 377.638L608.619 366.686H567.555L543.173 396.415L549.91 398.065L543.173 402.675V453.997Z" fill="#30333A"/>
<path d="M581.527 384.877L599.448 372.797L580.102 330.601L550.116 348.972L558.564 383.974L543.173 453.997L581.527 384.877Z" fill="#E9A394"/>
<path d="M552.529 358.969L573.573 348.264L554.785 368.314L552.529 358.969Z" fill="#E37A82"/>
<path d="M514.086 297.88L504.897 347.556H518.681L534.157 368.314L573.573 348.264L546.006 288.35L514.086 297.88Z" fill="#E9A394"/>
<path d="M511.859 309.926L510.936 315.384L547.287 310.546L546.73 303.751L511.859 309.926Z" fill="#E37A82"/>
<path d="M614.558 294.106C605.459 270.045 594.332 260.768 594.332 260.768C572.034 239.153 533.916 263.138 533.916 263.138C485.069 251.605 504.898 310.761 504.898 310.761L544.678 306.002C550.24 338.553 570.132 322.07 570.132 322.07L579.409 338.393C579.409 338.393 570.049 346.462 579.808 360.297C587.842 371.688 568.603 375.569 573.574 387.695L650.466 372.149C650.466 322.797 631.004 337.593 614.558 294.106Z" fill="#1A1C20"/>
<path d="M501.78 311.144C501.78 311.144 494.745 277.368 507.668 266.378C514.406 260.646 535.626 263.138 535.626 263.138" stroke="#575A5F" stroke-width="2" stroke-miterlimit="10"/>
<path d="M655.499 370.726C655.499 370.726 661.64 348.264 628.182 322.795" stroke="#575A5F" stroke-width="2" stroke-miterlimit="10"/>
<path d="M571.275 340.481C580.423 340.481 587.839 333.247 587.839 324.323C587.839 315.4 580.423 308.166 571.275 308.166C562.127 308.166 554.712 315.4 554.712 324.323C554.712 333.247 562.127 340.481 571.275 340.481Z" fill="#E9A394"/>
<path d="M528.967 345.729L539.235 343.269C539.235 343.269 542.839 371.838 528.967 345.729Z" fill="white"/>
<path d="M520.415 328.847C520.415 328.847 523.683 309.417 530.834 328.847" stroke="#1C145E" stroke-width="0.5" stroke-miterlimit="10"/>
<path d="M522.938 314.066C522.938 314.066 526.919 307.49 531.635 314.066H522.938Z" fill="#16005C"/>
<path d="M368.425 139.015C362.468 122.853 343.737 114.76 327.319 121.665C313.189 127.609 305.7 143.245 310.082 157.634C312.532 165.678 318.065 171.901 324.994 175.531C331.39 178.881 336.878 183.662 340.902 189.556L342.062 191.256L365.067 183.188L364.853 181.166C364.094 174.005 365.378 166.841 368.092 160.146C370.738 153.611 371.053 146.146 368.425 139.015Z" fill="#C3C8FF"/>
<path d="M368.425 139.015C362.468 122.853 343.737 114.76 327.319 121.665C313.189 127.609 305.7 143.245 310.082 157.634C312.532 165.678 318.065 171.901 324.994 175.531C331.39 178.881 336.878 183.662 340.902 189.556L342.062 191.256L365.067 183.188L364.853 181.166C364.094 174.005 365.378 166.841 368.092 160.146C370.738 153.611 371.053 146.146 368.425 139.015Z" fill="#72676F"/>
<path d="M347.325 184.638L328.988 159.411C328.988 159.411 329.322 154.302 335.077 155.112C340.833 155.922 344.269 164.783 340.162 163.354C336.055 161.924 334.601 151.508 342.374 149.92C350.145 148.332 352.742 165.555 348.448 162.236C344.154 158.918 345.06 147.953 353.382 147.863L358.265 184.247" stroke="white" stroke-miterlimit="10"/>
<path d="M364.532 200.431L353.73 204.22C349.623 205.661 345.094 203.581 343.619 199.574L341.335 193.379C339.857 189.372 341.99 184.955 346.098 183.516L356.9 179.726C361.007 178.285 365.534 180.366 367.011 184.372L369.295 190.568C370.771 194.574 368.639 198.99 364.532 200.431Z" fill="#30333A"/>
<path d="M367.076 174.117L334.543 185.525L340.253 201.017L372.785 189.608L367.076 174.117Z" fill="#30333A"/>
<path d="M338.75 111.549L335.504 93.3973" stroke="#C3C8FF" stroke-miterlimit="10"/>
<path d="M315.306 122.36L299.764 107.552" stroke="#C3C8FF" stroke-miterlimit="10"/>
<path d="M299.108 149.26L281.375 150.498" stroke="#C3C8FF" stroke-miterlimit="10"/>
<path d="M364.31 121.495L372.291 107.058" stroke="#C3C8FF" stroke-miterlimit="10"/>
<path d="M613.99 254.841H723.948C727.771 254.841 731.433 251.819 732.126 248.088L743.489 186.937C744.182 183.208 741.643 180.184 737.82 180.184H627.862C624.039 180.184 620.377 183.207 619.684 186.937L608.321 248.088C607.63 251.817 610.167 254.841 613.99 254.841Z" fill="#C3C8FF"/>
<path d="M702.142 222.264C705.352 219.404 705.97 214.967 703.524 212.354C701.077 209.742 696.491 209.942 693.282 212.802C690.072 215.662 689.453 220.099 691.9 222.711C694.347 225.324 698.932 225.124 702.142 222.264Z" fill="white"/>
<path d="M680.301 222.263C683.511 219.403 684.129 214.967 681.683 212.354C679.236 209.741 674.651 209.941 671.441 212.801C668.231 215.661 667.613 220.098 670.059 222.711C672.506 225.324 677.091 225.123 680.301 222.263Z" fill="white"/>
<path d="M658.46 222.263C661.67 219.403 662.289 214.966 659.842 212.353C657.395 209.741 652.81 209.941 649.6 212.801C646.39 215.661 645.772 220.098 648.218 222.71C650.665 225.323 655.251 225.123 658.46 222.263Z" fill="white"/>
<path d="M673.168 250.82L634.962 272.969L641.81 249.073L673.168 250.82Z" fill="#C3C8FF"/>
<path d="M259.758 245.776H149.8C145.977 245.776 142.315 242.754 141.621 239.023L130.259 177.873C129.565 174.143 132.104 171.119 135.927 171.119H245.886C249.709 171.119 253.37 174.142 254.064 177.873L265.426 239.023C266.12 242.752 263.583 245.776 259.758 245.776Z" fill="#C3C8FF"/>
<path d="M181.795 213.618C184.241 211.005 183.623 206.569 180.413 203.709C177.203 200.849 172.618 200.649 170.171 203.261C167.724 205.874 168.343 210.311 171.553 213.171C174.762 216.031 179.348 216.231 181.795 213.618Z" fill="white"/>
<path d="M203.635 213.618C206.082 211.005 205.463 206.569 202.253 203.709C199.044 200.849 194.458 200.648 192.012 203.261C189.565 205.874 190.184 210.311 193.393 213.171C196.603 216.031 201.188 216.231 203.635 213.618Z" fill="white"/>
<path d="M225.474 213.62C227.921 211.007 227.303 206.57 224.093 203.71C220.883 200.85 216.298 200.65 213.851 203.263C211.404 205.875 212.023 210.312 215.233 213.172C218.442 216.032 223.028 216.232 225.474 213.62Z" fill="white"/>
<path d="M220.533 241.755L226.564 263.136L250.957 240.259L220.533 241.755Z" fill="#C3C8FF"/>
</svg>
