<svg width="345" height="342" viewBox="0 0 345 342" fill="none" xmlns="http://www.w3.org/2000/svg">
<path d="M212.061 293C198.091 293 184.382 290.858 171.318 286.631C169.531 286.053 168.591 284.25 169.219 282.602C169.847 280.956 171.804 280.091 173.591 280.669C185.923 284.658 198.867 286.682 212.062 286.682C276.068 286.682 328.14 238.705 328.14 179.732C328.14 158.299 321.286 137.623 308.318 119.937C307.258 118.492 307.671 116.528 309.24 115.551C310.809 114.575 312.942 114.953 314.002 116.4C327.74 135.134 335 157.033 335 179.732C334.998 242.189 279.849 293 212.061 293Z" fill="#1E3F52"/>
<path d="M156.414 70.8535C155.925 70.8535 155.427 70.7561 154.954 70.5512C153.241 69.8073 152.506 67.9244 153.314 66.3462C161.657 50.0348 184.658 42.8727 185.632 42.5751C187.43 42.0251 189.37 42.9264 189.965 44.5833C190.559 46.2403 189.584 48.0265 187.787 48.5741C187.526 48.6552 166.586 55.2213 159.518 69.0392C158.934 70.1835 157.7 70.8535 156.414 70.8535Z" fill="#1E3F52"/>
<path d="M153.655 284.363H152.225C151.734 284.363 151.248 284.265 150.802 284.078C130.2 275.424 111.534 259.142 98.2466 238.234C85.2268 217.749 78.0562 194.035 78.0562 171.46C78.0562 108.353 133.781 57.0107 202.276 57.0107C228.611 57.0107 253.773 64.5085 275.039 78.6925C276.574 79.7153 276.917 81.6909 275.807 83.104C274.696 84.5178 272.554 84.8357 271.017 83.8105C250.928 70.4125 227.158 63.3299 202.275 63.3299C137.561 63.3299 84.914 111.836 84.914 171.46C84.914 215.35 112.175 259.002 150.224 276.808V231.025C136.362 213.067 107.463 167.31 137.62 129.492C176.533 80.693 250.381 107.597 258.676 110.825C282.629 120.151 288.957 137.663 293.387 154.798C297.143 169.335 295.768 173.048 293.211 177.902C292.689 178.894 292.195 179.832 291.747 181.02C289.848 186.048 294.542 196.771 302.209 204.923C306.594 209.584 308.39 213.099 308.032 216.32C307.61 220.126 304.332 222.432 301.7 224.287C300.649 225.028 299.55 225.749 298.488 226.447C296.378 227.835 292.896 230.123 292.37 231.257C294.484 236.072 294.811 242.685 289.612 246.945C290.515 251.984 287.437 254.242 285.502 255.66C284.869 256.125 284.431 256.459 284.129 256.771C285.936 259.096 287.868 262.828 287.716 267.169C287.559 271.688 285.265 275.773 280.898 279.309C275.394 283.764 263.678 283.492 245.077 278.476C230.096 274.436 214.731 268.373 206.125 264.409C186.447 255.343 187.81 226.535 187.878 225.313C187.974 223.571 189.596 222.229 191.478 222.318C193.368 222.408 194.824 223.891 194.728 225.632C194.714 225.891 193.528 251.54 209.192 258.757C217.544 262.604 232.458 268.49 247.003 272.41C269.292 278.42 275.116 275.576 276.369 274.562C279.256 272.225 280.766 269.671 280.861 266.967C280.987 263.367 278.599 260.331 277.752 259.552C276.968 258.829 276.611 257.804 276.794 256.798C277.384 253.536 279.699 251.839 281.232 250.715C283.049 249.382 283.376 249.143 282.478 246.659C281.969 245.255 282.589 243.714 283.967 242.951C288.616 240.381 286.667 235.076 285.96 233.512C283.662 228.429 289.423 224.643 294.505 221.303C295.522 220.636 296.572 219.945 297.534 219.268C299.407 217.948 301.098 216.682 301.209 215.676C301.29 214.953 300.853 213.13 297.027 209.064C288.825 200.343 282.153 187.199 285.27 178.945C285.85 177.406 286.482 176.206 287.041 175.146C288.815 171.778 290.097 169.345 286.716 156.264C282.527 140.056 277.027 124.83 256.007 116.648C248.225 113.619 178.946 88.3443 143.149 133.236C115.623 167.755 142.856 210.586 155.842 227.4C156.119 227.759 156.335 228.039 156.481 228.233C156.874 228.762 157.085 229.386 157.085 230.024V281.204C157.084 282.948 155.549 284.363 153.655 284.363Z" fill="#1E3F52"/>
<path d="M259.774 101.196C237.95 88.4129 230.932 62.5883 230.932 62.5883C230.932 62.5883 259.288 57.4914 281.113 70.2778C302.936 83.0635 309.955 108.887 309.955 108.887C309.955 108.887 281.595 113.983 259.774 101.196Z" fill="#1E3F52"/>
<path d="M296.262 113.049C285.929 113.049 270.891 111.456 257.933 103.862C235.217 90.5559 227.906 64.461 227.605 63.3564C227.377 62.5159 227.534 61.6247 228.039 60.894C228.544 60.1625 229.353 59.6538 230.276 59.4879C230.517 59.4443 236.278 58.4261 244.628 58.4261C254.959 58.4261 269.995 60.02 282.953 67.6121C305.67 80.9212 312.982 107.016 313.281 108.12C313.51 108.961 313.353 109.852 312.848 110.583C312.343 111.315 311.535 111.823 310.611 111.989C310.37 112.032 304.61 113.049 296.262 113.049ZM235.4 65.2003C238.083 72.3834 245.79 89.2604 261.614 98.5297C273.181 105.308 286.84 106.73 296.262 106.73C300.005 106.73 303.198 106.505 305.487 106.275C302.805 99.0921 295.097 82.2152 279.272 72.9443C267.707 66.1678 254.048 64.7454 244.627 64.7454C240.882 64.7454 237.69 64.9705 235.4 65.2003Z" fill="#1E3F52"/>
<path d="M246.746 74.1229C259.145 75.3062 276.494 79.5416 296.512 101.17C296.512 101.17 265.303 77.7398 246.746 74.1229Z" fill="#CAF9F4"/>
<path d="M263.439 80.2895C263.439 80.2895 277.477 91.257 278.718 99.6997C277.561 88.3957 270.332 82.7059 270.332 82.7059L263.439 80.2895Z" fill="#CAF9F4"/>
<path d="M156.273 205.112C156.209 203.216 156.437 201.906 156.801 201.91C155.963 200.968 155.227 199.946 154.582 198.875C154.786 201.074 155.368 203.169 156.273 205.112Z" fill="#CAF9F4"/>
<path d="M151.84 190.048C150.302 188.667 148.98 187.079 147.93 185.334C148.367 190.008 150.519 194.23 153.807 197.462C152.678 195.183 151.98 192.685 151.84 190.048Z" fill="#CAF9F4"/>
<path d="M263.745 148.55C263.341 146.153 262.481 143.895 261.252 141.852C261.307 142.432 261.341 143.017 261.341 143.61C261.341 144.424 261.282 145.222 261.182 146.01C262.113 146.787 262.968 147.639 263.745 148.55Z" fill="#CAF9F4"/>
<path d="M163.91 220.584C159.267 220.584 155.458 217.944 153.187 213.151C151.089 208.723 150.926 204.06 150.926 202.737C150.926 202.001 150.976 201.335 151.075 200.74C148.571 197.454 147.045 193.678 146.609 189.673C142.234 185.323 139.841 179.714 139.841 173.744C139.841 165.505 144.39 158.063 151.874 153.8C151.755 152.878 151.695 151.952 151.695 151.028C151.695 138.086 163.123 127.555 177.171 127.555C178.972 127.555 180.76 127.73 182.512 128.077C187.001 120.779 195.403 116.197 204.672 116.197C211.403 116.197 217.709 118.588 222.439 122.848C226.766 119.95 231.96 118.382 237.388 118.382C251.436 118.382 262.865 128.912 262.865 141.855C262.865 142.245 262.853 142.636 262.831 143.031C267.392 147.39 269.976 153.243 269.976 159.328C269.976 171.945 259.116 182.27 245.556 182.782C241.311 190.715 232.406 195.907 222.689 195.907C219.39 195.907 216.125 195.313 213.089 194.175C208.402 200.702 200.545 204.644 191.871 204.644C191.005 204.644 190.128 204.601 189.25 204.516C186.015 207.27 182.057 209.206 177.789 210.133C177.405 211.955 176.413 214.663 174.098 216.886C171.58 219.306 168.058 220.584 163.91 220.584ZM157.816 201.811C157.615 203.702 158.15 209.634 160.782 212.704C161.967 214.087 163.077 214.264 163.91 214.264C170.073 214.264 170.997 209.675 171.132 208.528C171.132 208.424 171.137 208.318 171.147 208.209C171.156 208.11 171.169 208.011 171.186 207.916C171.205 207.754 171.225 207.55 171.229 207.42C171.218 205.816 172.513 204.502 174.242 204.307C178.547 203.822 182.558 201.942 185.537 199.012C186.329 198.235 187.492 197.877 188.629 198.061C189.719 198.237 190.809 198.325 191.869 198.325C199.054 198.325 205.473 194.623 208.621 188.664C209.038 187.875 209.791 187.282 210.699 187.025C211.61 186.768 212.593 186.872 213.417 187.308C216.229 188.799 219.435 189.589 222.688 189.589C230.385 189.589 237.385 185.131 240.108 178.496C240.635 177.209 241.996 176.376 243.498 176.459C243.829 176.475 244.163 176.483 244.499 176.483C254.765 176.483 263.118 168.788 263.118 159.33C263.118 154.49 260.88 149.851 256.977 146.601C256.153 145.914 255.741 144.903 255.87 143.888C255.961 143.176 256.005 142.511 256.005 141.857C256.005 132.399 247.653 124.703 237.387 124.703C232.549 124.703 227.963 126.409 224.473 129.508C223.773 130.13 222.819 130.448 221.847 130.384C220.877 130.319 219.981 129.878 219.384 129.169C215.826 124.942 210.463 122.519 204.673 122.519C197.149 122.519 190.407 126.649 187.496 133.042C186.799 134.576 184.93 135.347 183.221 134.808C181.268 134.191 179.233 133.877 177.172 133.877C166.906 133.877 158.554 141.572 158.554 151.031C158.554 152.286 158.707 153.552 159.008 154.794C159.356 156.221 158.593 157.681 157.166 158.322C150.71 161.225 146.699 167.136 146.699 173.746C146.699 178.409 148.699 182.771 152.33 186.031C152.95 186.588 153.319 187.342 153.361 188.138C153.556 191.829 155.005 195.293 157.549 198.152C158.389 199.097 158.564 200.403 157.996 201.508C157.941 201.611 157.881 201.712 157.816 201.811ZM155.316 203.289C155.181 203.305 155.043 203.313 154.904 203.313C155.046 203.313 155.183 203.305 155.316 203.289Z" fill="#1E3F52"/>
<path d="M195.812 139.359C189.967 139.359 184.677 136.415 182.006 134.138C180.614 132.954 180.53 130.955 181.815 129.673C183.098 128.394 185.263 128.314 186.653 129.492C186.991 129.775 194.319 135.787 200.783 131.533C202.323 130.518 204.466 130.847 205.567 132.267C206.668 133.687 206.311 135.66 204.77 136.674C201.819 138.617 198.747 139.359 195.812 139.359Z" fill="#1E3F52"/>
<path d="M231.535 140.054C227.383 140.054 224.135 139.011 221.835 136.93C217.476 132.987 218.592 127.244 218.733 126.602C219.11 124.892 220.924 123.789 222.776 124.134C224.624 124.48 225.821 126.133 225.46 127.836C225.443 127.928 224.924 130.896 226.661 132.44C228.292 133.891 231.907 134.135 236.834 133.124C238.688 132.747 240.516 133.821 240.927 135.523C241.337 137.226 240.171 138.915 238.323 139.294C235.844 139.802 233.581 140.054 231.535 140.054Z" fill="#1E3F52"/>
<path d="M242.662 181.966C241.66 181.966 240.665 181.562 239.989 180.788C239.915 180.706 237.364 177.911 233.806 177.638C231.575 177.463 229.242 178.344 226.882 180.25C225.457 181.399 223.29 181.266 222.042 179.951C220.794 178.639 220.939 176.642 222.365 175.492C226.21 172.393 230.292 171 234.471 171.349C240.897 171.883 244.908 176.334 245.343 176.84C246.523 178.206 246.276 180.194 244.793 181.279C244.163 181.742 243.411 181.966 242.662 181.966Z" fill="#1E3F52"/>
<path d="M166.197 170.965C164.303 170.965 162.768 169.552 162.768 167.806C162.768 159.375 154.998 158.827 154.112 158.792C152.22 158.717 150.751 157.244 150.831 155.501C150.912 153.757 152.515 152.415 154.404 152.478C159.669 152.686 169.628 156.154 169.628 167.806C169.627 169.551 168.091 170.965 166.197 170.965Z" fill="#1E3F52"/>
<path d="M149.941 190.159C148.858 190.159 147.793 189.688 147.126 188.807C146.044 187.38 146.422 185.414 147.966 184.414C149.147 183.641 152.307 181.006 152.776 178.11C153.016 176.634 152.529 175.196 151.288 173.715C150.132 172.333 150.409 170.349 151.909 169.284C153.408 168.218 155.561 168.473 156.719 169.855C159.104 172.703 160.084 175.898 159.553 179.09C158.541 185.165 152.578 189.154 151.901 189.59C151.303 189.973 150.619 190.159 149.941 190.159Z" fill="#1E3F52"/>
<path d="M186.013 194.605C185.063 194.605 184.118 194.243 183.439 193.534C182.188 192.225 182.324 190.229 183.744 189.074C201.054 175.018 214.107 187.781 214.235 187.912C215.514 189.197 215.419 191.197 214.022 192.375C212.632 193.549 210.474 193.468 209.193 192.195C208.298 191.325 200.236 184.105 188.279 193.815C187.627 194.345 186.819 194.605 186.013 194.605Z" fill="#1E3F52"/>
<path d="M246.976 162.774C245.138 162.774 243.617 161.432 243.551 159.727C243.066 147.218 253.204 142.107 258.633 141.152C260.498 140.825 262.291 141.949 262.645 143.663C262.999 145.371 261.788 147.022 259.938 147.356C258.901 147.553 250.018 149.538 250.405 159.502C250.472 161.245 248.993 162.71 247.1 162.772C247.059 162.773 247.017 162.774 246.976 162.774Z" fill="#1E3F52"/>
<path d="M174.662 210.603C174.435 210.603 174.205 210.584 173.975 210.539C172.122 210.193 170.924 208.53 171.296 206.821C171.406 206.305 173.736 194.779 163.963 191.357C162.193 190.737 161.303 188.911 161.976 187.281C162.649 185.65 164.629 184.83 166.399 185.45C178.6 189.721 179.335 202.117 178.019 208.073C177.688 209.571 176.259 210.603 174.662 210.603Z" fill="#1E3F52"/>
<path d="M187.086 168.551C173.54 168.551 161.504 161.528 160.781 161.099C159.19 160.153 158.731 158.197 159.758 156.732C160.783 155.266 162.904 154.844 164.496 155.787C164.755 155.939 186.348 168.46 201.208 158.036C202.714 156.979 204.867 157.247 206.015 158.637C207.161 160.025 206.87 162.008 205.363 163.066C199.56 167.134 193.17 168.551 187.086 168.551Z" fill="#1E3F52"/>
<path d="M177.624 167.221C175.912 167.221 174.431 166.04 174.223 164.434C173.842 161.484 174.709 158.752 176.728 156.531C181.821 150.933 192.719 150.205 193.945 150.141C195.842 150.046 197.456 151.373 197.564 153.115C197.672 154.855 196.229 156.347 194.34 156.449C191.99 156.58 184.677 157.621 181.978 160.596C181.175 161.482 180.874 162.464 181.033 163.687C181.257 165.42 179.914 166.992 178.033 167.198C177.896 167.214 177.759 167.221 177.624 167.221Z" fill="#1E3F52"/>
<path d="M205.695 174.481C205.548 174.481 205.4 174.48 205.253 174.476C203.359 174.443 201.854 173.002 201.888 171.257C201.924 169.513 203.485 168.116 205.382 168.157C211.319 168.267 216.996 165.33 219.155 161.033C221.437 156.485 219.67 150.823 214.177 145.086C212.924 143.778 213.059 141.781 214.479 140.627C215.899 139.472 218.065 139.598 219.319 140.905C229.308 151.335 227.403 159.654 225.38 163.685C222.119 170.179 214.247 174.481 205.695 174.481Z" fill="#1E3F52"/>
<path d="M224.603 162.118C224.104 162.118 223.596 162.099 223.083 162.062C221.195 161.925 219.786 160.403 219.935 158.664C220.084 156.924 221.736 155.623 223.624 155.763C227.553 156.046 229.677 154.608 230.764 153.349C232.226 151.655 232.449 149.641 232.022 148.395C231.452 146.731 232.454 144.956 234.258 144.431C236.068 143.903 237.991 144.829 238.562 146.492C239.769 150.013 238.837 154.147 236.131 157.282C233.416 160.429 229.362 162.118 224.603 162.118Z" fill="#1E3F52"/>
<path d="M175.848 185.009C174.012 185.009 172.491 183.669 172.423 181.966C172.27 178.168 174.24 174.916 177.692 173.265C181.651 171.373 186.73 171.918 190.628 174.654C192.135 175.711 192.426 177.695 191.279 179.083C190.132 180.472 187.98 180.738 186.473 179.682C184.427 178.246 182.174 178.241 180.85 178.876C179.751 179.401 179.222 180.363 179.277 181.734C179.347 183.477 177.87 184.942 175.977 185.008C175.934 185.008 175.89 185.009 175.848 185.009Z" fill="#1E3F52"/>
<path d="M175.564 150.91C173.2 150.91 170.768 150.279 168.597 149.025C166.993 148.099 166.508 146.148 167.514 144.67C168.52 143.191 170.636 142.743 172.241 143.672C174.419 144.93 176.663 144.745 177.921 144.004C178.963 143.39 179.396 142.389 179.207 141.028C178.965 139.297 180.292 137.714 182.171 137.491C184.046 137.269 185.769 138.491 186.01 140.222C186.536 143.993 184.894 147.396 181.619 149.327C179.825 150.384 177.723 150.91 175.564 150.91Z" fill="#1E3F52"/>
<path d="M123.271 90.2185C122.174 90.2185 121.097 89.7355 120.433 88.8381C119.368 87.3962 119.769 85.4331 121.333 84.45C122.697 83.5916 155.151 63.5534 188.904 74.2436C190.695 74.8099 191.648 76.6078 191.033 78.2585C190.417 79.9085 188.465 80.788 186.675 80.2193C156.221 70.5753 125.504 89.48 125.198 89.6716C124.607 90.0409 123.935 90.2185 123.271 90.2185Z" fill="#1E3F52"/>
<path d="M192.307 22.2542C210.161 11.1044 233.938 14.7197 233.938 14.7197C233.938 14.7197 228.769 36.4031 210.913 47.5513C193.056 58.7003 169.28 55.0858 169.28 55.0858C169.28 55.0858 174.449 33.4001 192.307 22.2542Z" fill="#1E3F52"/>
<path d="M178.509 58.8047C172.743 58.8047 168.882 58.2282 168.72 58.2041C167.792 58.0623 166.968 57.5762 166.439 56.8588C165.912 56.1405 165.726 55.254 165.929 54.408C166.152 53.4717 171.608 31.356 190.382 19.6375C201.815 12.4988 215.359 11 224.708 11C230.472 11 234.334 11.5765 234.494 11.6014C235.423 11.7424 236.248 12.2285 236.775 12.9467C237.303 13.6642 237.487 14.5499 237.286 15.3974C237.063 16.333 231.608 38.4464 212.835 50.1672C201.402 57.3075 187.857 58.8047 178.509 58.8047ZM173.688 52.3359C175.024 52.42 176.659 52.4855 178.509 52.4855C186.897 52.4855 198.994 51.176 208.988 44.937C221.41 37.1813 227.331 23.7553 229.529 17.4711C228.192 17.387 226.557 17.3208 224.708 17.3208C216.32 17.3208 204.223 18.6311 194.231 24.87C181.808 32.6242 175.886 46.0502 173.688 52.3359Z" fill="#1E3F52"/>
<path d="M266.402 80.2762C248.896 78.6762 236.043 64.9759 236.043 64.9759C236.043 64.9759 251.567 53.8713 269.075 55.4737C286.581 57.0746 299.434 70.7748 299.434 70.7748C299.434 70.7748 283.908 81.8794 266.402 80.2762Z" fill="#1E3F52"/>
<path d="M269.907 83.5939C268.616 83.5939 267.322 83.5355 266.063 83.4202C247.411 81.7158 234.01 67.6401 233.449 67.0426C232.832 66.3867 232.538 65.5274 232.63 64.6643C232.723 63.802 233.197 63.0121 233.94 62.48C234.529 62.0586 248.57 52.1552 265.574 52.1552C266.864 52.1552 268.156 52.2136 269.414 52.3289C288.067 54.0349 301.468 68.1098 302.03 68.7081C302.645 69.364 302.94 70.2232 302.847 71.0871C302.755 71.9487 302.281 72.7386 301.538 73.2707C300.948 73.6921 286.907 83.5939 269.907 83.5939ZM241.401 65.4605C245.865 69.2651 255.326 76.0883 266.742 77.1322C267.776 77.2264 268.841 77.2747 269.907 77.2747C280.097 77.2747 289.361 72.9373 294.072 70.2848C289.605 66.4794 280.147 59.6608 268.737 58.6177C267.702 58.5227 266.638 58.4744 265.574 58.4744C255.333 58.4752 246.095 62.8087 241.401 65.4605Z" fill="#1E3F52"/>
<path d="M199.347 63.0705C197.875 63.0705 196.515 62.1903 196.065 60.8247C195.518 59.1537 196.542 57.3909 198.355 56.8853C207.18 54.4275 211.791 50.5053 216.248 46.7124C222.319 41.5476 228.596 36.2076 243.732 35.9201C245.628 35.8937 247.193 37.2694 247.232 39.0143C247.271 40.7593 245.767 42.2028 243.873 42.2386C231.339 42.477 226.733 46.3953 220.901 51.356C216.108 55.4332 210.675 60.0558 200.341 62.9342C200.01 63.0261 199.675 63.0705 199.347 63.0705Z" fill="#1E3F52"/>
<path d="M84.5263 152.012C84.3428 152.012 84.1585 152.011 83.9734 152.009C82.0794 151.985 80.5643 150.553 80.5897 148.808C80.6142 147.077 82.1445 145.689 84.0182 145.689C84.0334 145.689 84.0486 145.689 84.0638 145.69C98.2098 145.858 105.102 138.491 113.124 129.956C120.173 122.453 127.464 114.696 140.131 112.397C141.99 112.058 143.793 113.175 144.158 114.887C144.525 116.599 143.315 118.26 141.457 118.597C131.104 120.476 124.889 127.09 118.308 134.092C110.408 142.497 101.465 152.012 84.5263 152.012Z" fill="#1E3F52"/>
<path d="M101.923 113.742C100.25 113.742 98.7858 112.614 98.5338 111.043C98.2573 109.318 99.5501 107.714 101.421 107.456C101.712 107.414 118.054 104.963 124.841 93.2512C129.838 84.6261 128.648 72.9552 121.304 58.5632C120.498 56.985 121.235 55.1021 122.948 54.3598C124.662 53.6166 126.705 54.2951 127.511 55.8741C135.84 72.1972 136.967 85.7907 130.86 96.2784C122.381 110.84 103.236 113.597 102.426 113.707C102.257 113.731 102.089 113.742 101.923 113.742Z" fill="#1E3F52"/>
<path d="M252.531 43.8409C237.396 52.1014 218.233 48.0732 218.233 48.0732C218.233 48.0732 223.607 30.6564 238.747 22.3959C253.883 14.1362 273.045 18.1644 273.045 18.1644C273.045 18.1644 267.669 35.5836 252.531 43.8409Z" fill="#1E3F52"/>
<path d="M229.458 52.2152C222.597 52.2152 217.677 51.1963 217.47 51.1542C216.553 50.961 215.762 50.429 215.282 49.6835C214.804 48.9372 214.677 48.0437 214.935 47.2094C215.169 46.4483 220.868 28.4784 236.999 19.6765C245.564 15.0033 255.224 14.0218 261.82 14.0218C268.681 14.0218 273.602 15.0407 273.808 15.0828C274.726 15.2759 275.516 15.808 275.996 16.5535C276.475 17.299 276.601 18.1941 276.344 19.0284C276.11 19.7887 270.408 37.7601 254.279 46.5597C245.714 51.2344 236.054 52.2152 229.458 52.2152ZM222.86 45.5478C224.622 45.7339 226.89 45.896 229.458 45.896C235.196 45.896 243.556 45.0679 250.784 41.1231C260.654 35.7386 266.104 25.8765 268.41 20.6884C266.649 20.503 264.384 20.3418 261.821 20.3418C256.082 20.3418 247.723 21.1698 240.494 25.1147C230.581 30.524 225.152 40.369 222.86 45.5478Z" fill="#1E3F52"/>
<path d="M116.03 61.9986C118.567 43.9617 135.679 31.141 135.679 31.141C135.679 31.141 148.673 47.5576 146.135 65.5952C143.596 83.6329 126.485 96.4544 126.485 96.4544C126.485 96.4544 113.49 80.0355 116.03 61.9986Z" fill="#1E3F52"/>
<path d="M126.484 99.614C126.338 99.614 126.19 99.6055 126.044 99.5883C125.11 99.4769 124.268 99.0173 123.714 98.3162C123.15 97.6042 109.944 80.6595 112.631 61.5912C115.312 42.5237 132.774 29.2449 133.515 28.6887C134.246 28.1418 135.188 27.8933 136.12 28.0071C137.054 28.1185 137.896 28.5781 138.45 29.2784C139.013 29.9904 152.219 46.9328 149.536 66.0019C146.851 85.0702 129.39 98.3497 128.649 98.9059C128.033 99.3671 127.268 99.614 126.484 99.614ZM134.989 36.037C130.259 40.3994 121.146 50.2163 119.431 62.4045C117.714 74.5926 123.806 86.227 127.173 91.5584C131.905 87.1945 141.018 77.3776 142.734 65.1894C144.448 53.0012 138.356 41.3684 134.989 36.037Z" fill="#1E3F52"/>
<path d="M87.7039 211.927C87.3869 211.927 87.0639 211.885 86.7434 211.799C84.9256 211.312 83.8814 209.559 84.409 207.885C84.4547 207.74 88.9172 193.274 86.8119 176.88C84.0581 155.429 71.8204 140.853 50.4386 133.557C48.6622 132.951 47.7558 131.133 48.4136 129.496C49.0714 127.86 51.0431 127.024 52.8204 127.631C76.5476 135.727 90.6649 152.57 93.6486 176.337C95.8621 193.972 91.1941 209.017 90.9938 209.649C90.5583 211.031 89.1886 211.927 87.7039 211.927Z" fill="#1E3F52"/>
<path d="M80.0844 151.541C78.8863 151.541 77.7221 150.962 77.0922 149.93C62.7094 126.373 74.8795 99.5829 75.4046 98.4549C76.1511 96.8502 78.1693 96.1078 79.9077 96.7949C81.6477 97.482 82.4543 99.3391 81.7094 100.942C81.5488 101.292 70.4001 126.079 83.069 146.832C83.9982 148.353 83.4123 150.279 81.7619 151.135C81.2309 151.41 80.6534 151.541 80.0844 151.541Z" fill="#1E3F52"/>
<path d="M152.227 284.362C150.885 284.362 149.61 283.632 149.06 282.42C148.945 282.169 142.021 267.208 128.027 253.951C109.552 236.45 88.0254 230.002 64.042 234.791C62.1903 235.163 60.3649 234.077 59.9641 232.372C59.5634 230.667 60.7386 228.984 62.5903 228.614C88.7364 223.396 113.118 230.683 133.097 249.69C147.984 263.854 155.095 279.333 155.39 279.986C156.12 281.595 155.295 283.446 153.546 284.119C153.114 284.285 152.666 284.362 152.227 284.362Z" fill="#1E3F52"/>
<path d="M124.279 249.373C123.556 249.373 122.829 249.163 122.209 248.73C105.785 237.25 98.4468 215.899 104.761 197.961C105.345 196.301 107.279 195.393 109.081 195.93C110.882 196.468 111.869 198.251 111.285 199.911C105.842 215.375 112.179 233.789 126.353 243.697C127.863 244.751 128.158 246.732 127.013 248.123C126.34 248.943 125.315 249.373 124.279 249.373Z" fill="#1E3F52"/>
<path d="M106.207 91.6138C98.2452 114.283 72.8709 127.015 72.8709 127.015C72.8709 127.015 60.4066 103.001 68.3712 80.33C76.3341 57.6597 101.708 44.9269 101.708 44.9269C101.708 44.9269 114.173 68.9442 106.207 91.6138Z" fill="#1E3F52"/>
<path d="M72.8719 130.176C72.5168 130.176 72.1609 130.125 71.8159 130.022C70.9214 129.755 70.1841 129.161 69.7783 128.379C69.2448 127.353 56.8185 102.957 65.1094 79.3578C73.3987 55.7597 98.9834 42.6982 100.069 42.1529C100.895 41.7385 101.871 41.6544 102.765 41.9216C103.661 42.1888 104.397 42.7824 104.803 43.5645C105.336 44.5912 117.762 68.9901 109.471 92.5867C101.183 116.184 75.5978 129.246 74.5122 129.791C74.0041 130.046 73.4393 130.176 72.8719 130.176ZM100.078 49.5705C93.2002 53.767 77.408 64.87 71.635 81.303C65.8619 97.7367 71.5969 115.256 74.5038 122.372C81.3836 118.174 97.1741 107.072 102.945 90.6408C108.719 74.2086 102.984 56.6867 100.078 49.5705Z" fill="#1E3F52"/>
<path d="M43.3487 141.915C30.1488 135.949 24.4307 121.761 24.4307 121.761C24.4307 121.761 40.1079 117.247 53.3078 123.214C66.5077 129.182 72.2258 143.37 72.2258 143.37C72.2258 143.37 56.5461 147.884 43.3487 141.915Z" fill="#1E3F52"/>
<path d="M59.1412 148.165C52.668 148.165 46.8459 147.017 41.8364 144.751C27.5737 138.305 21.4675 123.488 21.2147 122.86C20.8866 122.048 20.9365 121.146 21.3508 120.368C21.7651 119.59 22.5091 119.003 23.4071 118.744C23.6599 118.671 29.6798 116.965 37.515 116.965C43.9873 116.965 49.8094 118.114 54.8181 120.377C69.0817 126.827 75.187 141.643 75.4398 142.27C75.7679 143.083 75.7188 143.984 75.3037 144.762C74.8894 145.541 74.1462 146.128 73.2483 146.386C72.9955 146.459 66.9756 148.165 59.1412 148.165ZM29.3179 123.968C31.7301 128.205 36.7997 135.436 44.8573 139.079C48.9191 140.916 53.7241 141.847 59.1403 141.847C62.3532 141.847 65.211 141.517 67.3374 141.168C64.9261 136.931 59.8556 129.697 51.7955 126.052C47.7346 124.216 42.9296 123.285 37.5133 123.285C34.3207 123.285 31.4545 123.617 29.3179 123.968Z" fill="#1E3F52"/>
<path d="M128.854 189.82C124.039 206.253 106.42 216.161 106.42 216.161C106.42 216.161 96.6089 199.428 101.426 182.994C106.243 166.558 123.861 156.651 123.861 156.651C123.861 156.651 133.673 173.383 128.854 189.82Z" fill="#1E3F52"/>
<path d="M106.42 219.321C106.121 219.321 105.821 219.284 105.526 219.211C104.618 218.984 103.85 218.426 103.403 217.662C102.976 216.933 92.9995 199.621 98.1148 182.171C103.229 164.719 121.307 154.385 122.074 153.953C122.877 153.501 123.846 153.373 124.755 153.599C125.663 153.825 126.431 154.385 126.878 155.148C127.305 155.876 137.282 173.191 132.165 190.641C127.052 208.091 108.974 218.425 108.206 218.856C107.664 219.163 107.045 219.321 106.42 219.321ZM122.459 161.433C117.437 164.994 107.927 172.935 104.737 183.817C101.534 194.745 105.417 205.988 107.816 211.383C112.839 207.821 122.355 199.88 125.544 188.995C128.735 178.114 124.855 166.843 122.459 161.433Z" fill="#1E3F52"/>
<path d="M81.2 252.486C62.742 253.214 47.1738 240.723 47.1738 240.723C47.1738 240.723 61.5295 227.057 79.9893 226.333C98.4499 225.607 114.016 238.096 114.016 238.096C114.016 238.096 99.6598 251.764 81.2 252.486Z" fill="#1E3F52"/>
<path d="M79.6421 255.677C60.807 255.677 45.5626 243.62 44.9226 243.106C44.2132 242.537 43.7888 241.723 43.7482 240.857C43.7084 239.992 44.0559 239.149 44.7104 238.526C45.3352 237.93 60.243 223.946 79.8442 223.176C99.4386 222.418 115.61 235.185 116.27 235.713C116.979 236.282 117.404 237.095 117.444 237.962C117.484 238.828 117.137 239.671 116.482 240.295C115.857 240.89 100.948 254.875 81.3466 255.643C80.7768 255.666 80.2069 255.677 79.6421 255.677ZM52.5397 240.507C57.7378 243.847 68.8104 249.814 81.0541 249.329C93.2774 248.851 103.77 242.042 108.646 238.307C103.445 234.968 92.3761 229.005 80.1367 229.491C67.8618 229.971 57.3971 236.774 52.5397 240.507Z" fill="#1E3F52"/>
<path d="M193.474 113.133C171.649 100.349 164.631 74.5257 164.631 74.5257C164.631 74.5257 192.988 69.4279 214.812 82.2143C236.636 95 243.654 120.825 243.654 120.825C243.654 120.825 215.295 125.921 193.474 113.133Z" fill="#1E3F52"/>
<path d="M229.962 124.986C219.628 124.986 204.591 123.392 191.633 115.798C168.917 102.492 161.605 76.3968 161.305 75.293C161.077 74.4517 161.233 73.5613 161.738 72.8298C162.243 72.0983 163.052 71.5904 163.974 71.4237C164.215 71.3801 169.977 70.3627 178.327 70.3627C188.659 70.3627 203.694 71.9557 216.654 79.5486C239.37 92.857 246.682 118.952 246.981 120.056C247.209 120.897 247.054 121.788 246.548 122.52C246.043 123.251 245.234 123.759 244.311 123.926C244.069 123.969 238.309 124.986 229.962 124.986ZM169.099 77.1376C171.781 84.32 179.488 101.197 195.314 110.467C206.88 117.244 220.539 118.667 229.962 118.667C233.705 118.667 236.898 118.442 239.187 118.213C236.505 111.029 228.798 94.1525 212.972 84.8809C201.406 78.1044 187.748 76.6827 178.327 76.6827C174.582 76.6827 171.389 76.9071 169.099 77.1376Z" fill="#1E3F52"/>
<path d="M170.459 77.9758C178.681 88.8 193 102.505 227.79 108.96C227.79 108.96 184.779 93.1437 170.459 77.9758Z" fill="#CAF9F4"/>
<path d="M186.519 89.9919C186.519 89.9919 206.334 96.8642 216.241 93.2972C203.26 98.5429 193.01 95.0281 193.01 95.0281L186.519 89.9919Z" fill="#CAF9F4"/>
<path d="M75.6807 114.825C85.321 105.253 96.7141 89.6522 96.2415 57.3379C96.2415 57.3379 88.6075 98.9207 75.6807 114.825Z" fill="#CAF9F4"/>
<path d="M84.9397 98.0272C84.9397 98.0272 88.0224 78.9581 82.2197 70.8799C90.4227 81.3457 88.8696 91.2008 88.8696 91.2008L84.9397 98.0272Z" fill="#CAF9F4"/>
<path d="M146.827 131.567C130.272 143.747 106.689 141.889 106.689 141.889C106.689 141.889 109.944 120.291 126.501 108.111C143.057 95.9325 166.639 97.7896 166.639 97.7896C166.639 97.7896 163.383 119.39 146.827 131.567Z" fill="#1E3F52"/>
<path d="M110.161 145.15C107.855 145.15 106.455 145.042 106.397 145.037C105.459 144.963 104.596 144.537 104.009 143.86C103.423 143.183 103.163 142.313 103.292 141.454C103.434 140.521 106.935 118.459 124.361 105.641C137.997 95.6099 156.041 94.5264 163.165 94.5264C165.471 94.5264 166.871 94.6354 166.93 94.6393C167.867 94.7133 168.73 95.1387 169.318 95.8164C169.905 96.4933 170.164 97.3635 170.035 98.2219C169.895 99.1552 166.391 121.219 148.967 134.035C135.331 144.068 117.286 145.15 110.161 145.15ZM162.473 100.851C155.657 100.922 140.171 102.097 128.639 110.58C117.176 119.012 112.495 132.496 110.853 138.827C117.668 138.757 133.154 137.581 144.685 129.097C156.148 120.667 160.83 107.183 162.473 100.851Z" fill="#1E3F52"/>
<path d="M113.976 136.454C124.871 133.553 139.665 127.186 153.805 104.848C153.805 104.848 129.959 130.459 113.976 136.454Z" fill="#CAF9F4"/>
<path d="M127.844 128.454C127.844 128.454 138.494 116.55 138.13 108.806C139.07 119.099 133.594 125.266 133.594 125.266L127.844 128.454Z" fill="#CAF9F4"/>
<path d="M75.7819 168.392C88.6174 183.921 86.0615 205.6 86.0615 205.6C86.0615 205.6 62.7004 202.107 49.864 186.577C37.0294 171.048 39.5853 149.369 39.5853 149.369C39.5853 149.369 62.9498 152.863 75.7819 168.392Z" fill="#1E3F52"/>
<path d="M89.6798 202.477C89.6266 204.6 89.4778 205.888 89.471 205.941C89.3695 206.803 88.8876 207.588 88.1393 208.114C87.3911 208.639 86.4407 208.857 85.5124 208.719C84.5037 208.568 60.6454 204.836 47.1361 188.49C36.5648 175.7 35.803 159.055 35.967 152.492C36.0203 150.369 36.17 149.081 36.1767 149.027C36.2782 148.166 36.7593 147.381 37.5084 146.856C38.2567 146.33 39.207 146.112 40.1354 146.25C41.1449 146.401 65.0057 150.134 78.5116 166.478C89.0829 179.267 89.843 195.914 89.6798 202.477ZM42.8122 153.275C42.7327 159.555 43.6526 173.846 52.5921 184.663C61.4783 195.415 76.0022 200.036 82.8338 201.694C82.9142 195.414 81.9934 181.123 73.0531 170.307C64.1695 159.556 49.6447 154.934 42.8122 153.275Z" fill="#1E3F52"/>
<path d="M80.3309 198.763C77.4343 188.66 70.8639 174.889 46.9507 161.35C46.9507 161.35 74.1935 183.904 80.3309 198.763Z" fill="#CAF9F4"/>
<path d="M71.9686 185.806C71.9686 185.806 59.2963 175.724 50.8853 175.881C62.0754 175.251 68.6416 180.437 68.6416 180.437L71.9686 185.806Z" fill="#CAF9F4"/>
<path d="M106.269 238.526C96.6847 235.117 82.225 232.244 58.7422 241.221C58.7422 241.221 91.1746 234.782 106.269 238.526Z" fill="#CAF9F4"/>
<path d="M91.508 237.295C91.508 237.295 76.7464 240.507 72.4048 246.278C77.8464 238.378 85.4643 236.693 85.4643 236.693L91.508 237.295Z" fill="#CAF9F4"/>
<path d="M225.735 44.0583C234.804 42.417 247.304 38.2143 260.502 21.0055C260.502 21.0055 239.172 40.2373 225.735 44.0583Z" fill="#CAF9F4"/>
<path d="M237.609 38.4706C237.609 38.4706 247.171 29.5035 247.472 23.1944C247.444 31.6107 242.523 36.259 242.523 36.259L237.609 38.4706Z" fill="#CAF9F4"/>
<path d="M129.542 86.4856C126.034 77.7827 123.155 64.6807 133.003 43.5722C133.003 43.5722 125.745 72.7986 129.542 86.4856Z" fill="#CAF9F4"/>
<path d="M128.419 73.1313C128.419 73.1313 132.022 59.833 138.218 55.9801C129.741 60.7998 127.852 67.6619 127.852 67.6619L128.419 73.1313Z" fill="#CAF9F4"/>
<path d="M179.688 49.8603C185.771 40.4617 196.704 28.3451 225.021 21.0826C225.021 21.0826 190.525 36.5355 179.688 49.8603Z" fill="#CAF9F4"/>
<path d="M192.167 39.0416C192.167 39.0416 208.087 32.2651 216.505 34.6613C205.436 31.0483 197.201 34.5211 197.201 34.5211L192.167 39.0416Z" fill="#CAF9F4"/>
<path d="M61.7972 139.429C57.6763 134.614 50.646 128.611 34.3389 126.47C34.3389 126.47 54.7255 132.749 61.7972 139.429Z" fill="#CAF9F4"/>
<path d="M54.009 134.253C54.009 134.253 44.629 131.551 40.1411 133.447C46.0063 130.699 50.8561 132.077 50.8561 132.077L54.009 134.253Z" fill="#CAF9F4"/>
<path d="M246.306 65.2813C255.123 62.6109 268.314 60.6268 289.06 69.7177C289.06 69.7177 260.113 62.5393 246.306 65.2813Z" fill="#CAF9F4"/>
<path d="M259.687 64.7945C259.687 64.7945 272.848 68.3156 276.48 73.7055C271.962 66.3463 265.171 64.5047 265.171 64.5047L259.687 64.7945Z" fill="#CAF9F4"/>
<path d="M109.247 206.258C107.862 197.802 107.943 185.487 121.137 168.16C121.137 168.16 108.619 193.257 109.247 206.258Z" fill="#CAF9F4"/>
<path d="M110.96 194.021C110.96 194.021 116.926 182.654 123.302 180.254C114.671 183.128 111.567 188.991 111.567 188.991L110.96 194.021Z" fill="#CAF9F4"/>
</svg>
