<svg width="856" height="835" viewBox="0 0 856 835" fill="none" xmlns="http://www.w3.org/2000/svg">
<path d="M97.9005 655.67C97.9005 655.67 41.925 527.137 112.718 430.002C183.511 332.866 140.334 246.758 264.632 161.031C424.398 50.8448 578.498 159.56 624.452 233.269C670.405 306.978 826.488 269.351 781.127 479.085C745.939 641.779 772.196 648.917 772.196 648.917L97.9005 655.67Z" fill="#F1EEFD"/>
<path d="M131.627 620.899C131.627 620.899 32.29 570.275 56.2254 456.441C80.1609 342.607 177.642 315.595 217.732 323.952C292.872 339.615 170.109 385.828 140.785 306.507C103.99 206.981 235.181 131.629 356.793 151.13C434.951 163.663 472.678 200.16 542.154 223.092C611.383 245.943 640.418 215.338 612.836 197.601C586.654 180.762 491.594 208.234 524.233 245.886C568.925 297.44 676.63 217.564 760.106 306.507C843.581 395.449 771.114 507.268 706.94 516.593C642.765 525.916 670.904 436.06 771.114 507.269C871.324 578.478 744.744 655.674 744.744 655.674" stroke="#C3C8FF" stroke-miterlimit="10"/>
<path d="M813.733 662.791H54.3835C50.3517 662.791 47.0852 659.603 47.0852 655.672C47.0852 651.739 50.3534 648.553 54.3835 648.553H821.031V655.672C821.031 659.603 817.763 662.791 813.733 662.791Z" fill="#372B29"/>
<path d="M327.266 662.791H54.3835C50.3517 662.791 47.0852 659.603 47.0852 655.672V648.553H334.566V655.672C334.566 659.603 331.298 662.791 327.266 662.791Z" fill="#72676F"/>
<path d="M440.707 377.136C408.189 438.091 371.651 462.924 371.651 462.924L403.205 512.065L458.306 456.211L440.707 377.136Z" fill="#72676F"/>
<path d="M521.333 362.587L440.706 377.136C435.6 525.938 433.686 648.533 433.686 648.533H578.408C578.408 648.533 582.607 420.673 559.326 370.957L521.333 362.587Z" fill="#72676F"/>
<path d="M511.972 438.417L551.252 435.175" stroke="#30333A" stroke-width="4" stroke-miterlimit="10"/>
<path d="M493.941 406.436C493.941 406.436 518.873 572.396 497.18 639.547" stroke="black" stroke-miterlimit="10"/>
<path d="M467.837 489.567C467.837 489.567 491.918 499.023 523.138 500.023C554.358 501.023 534.933 517.227 488.651 514.155" stroke="black" stroke-miterlimit="10"/>
<path d="M474.042 356.537L493.941 408.106L521.333 362.587L503.28 333.808L474.042 356.537Z" fill="#E9A394"/>
<path d="M493.941 408.106L531.086 398.103L521.333 362.587L493.941 408.106Z" fill="#5B5F68"/>
<path d="M478.465 367.996L458.306 389.96L493.941 408.106L478.465 367.996Z" fill="#5B5F68"/>
<path d="M403.205 512.065C403.205 512.065 414.979 488.116 389.699 457.269C375.681 440.164 369.222 410.646 369.222 410.646L348.161 413.771L367.447 512.067H403.205V512.065Z" fill="#E9A394"/>
<path d="M343.855 379.826L335.232 387.472L346.76 397.398L310.661 396.799L309.887 408.881L348.159 413.771L369.222 410.646L343.855 379.826Z" fill="#E9A394"/>
<path d="M350.164 398.644L315.529 384.708L313.293 390.71L342.202 402.56L350.164 398.644Z" fill="#E9A394"/>
<path d="M559.328 370.957C559.328 370.957 605.855 396.799 620.547 493.595L566.568 506.301L559.328 370.957Z" fill="#635760"/>
<path d="M458.279 293.518L440.707 337.378L454.144 341.411L458.279 366.116L501.178 356.537L507.379 289.484L458.279 293.518Z" fill="#E9A394"/>
<path d="M486.908 303.94H454.103L457.681 294.484L486.908 292.721V303.94Z" fill="#E37A82"/>
<path d="M504.05 323.95C504.05 323.95 483.121 319.727 483.121 298.606C483.121 298.606 452.067 302.729 441.347 286.286C428.649 266.809 448.054 244.426 464.08 248.974C464.08 248.974 453.981 258.738 469.319 259.885C480.257 260.704 500.245 246.509 507.38 260.238C507.38 260.238 562.435 272.504 521.335 322.542L504.05 323.95Z" fill="#72676F"/>
<path d="M483.12 296.936C483.12 296.936 441.609 304.76 432.927 275.722C427.851 258.746 445.295 249.079 445.295 249.079" stroke="#72676F" stroke-width="2" stroke-miterlimit="10"/>
<path d="M465.554 335.981C474.209 335.981 481.224 329.137 481.224 320.695C481.224 312.253 474.209 305.41 465.554 305.41C456.9 305.41 449.885 312.253 449.885 320.695C449.885 329.137 456.9 335.981 465.554 335.981Z" stroke="#16005C" stroke-width="0.5" stroke-miterlimit="10"/>
<path d="M480.382 315.749L502.7 316.941" stroke="#16005C" stroke-width="0.5" stroke-miterlimit="10"/>
<path d="M531.086 327.799C531.086 337.267 518.084 344.94 508.378 344.94C498.673 344.94 495.942 337.265 495.942 327.799C495.942 318.334 503.811 310.658 513.514 310.658C523.218 310.658 531.086 318.334 531.086 327.799Z" fill="#E9A394"/>
<path d="M614.105 495.11V574.154H573.7L570.337 505.412L614.105 495.11Z" fill="#E9A394"/>
<path d="M437.56 477.241L439.257 422.164L426.17 462.109L413.083 502.054L437.56 477.241Z" fill="#60595E"/>
<path d="M476.123 361.782L501.178 356.537L480.637 373.626L476.123 361.782Z" fill="#E37A82"/>
<path d="M461.305 327.799C462.962 327.799 464.305 325.067 464.305 321.697C464.305 318.327 462.962 315.595 461.305 315.595C459.649 315.595 458.306 318.327 458.306 321.697C458.306 325.067 459.649 327.799 461.305 327.799Z" fill="#040404"/>
<path d="M469.451 306.856C469.451 298.68 462.778 304.184 462.778 304.184L469.451 306.856Z" fill="#060606"/>
<path d="M462.776 343.055L472.32 340.576C472.32 340.576 476.41 375.109 462.776 343.055Z" fill="white"/>
<path d="M257.1 497.837C257.1 497.837 321.493 488.118 322.758 597.653C322.964 615.428 334.566 648.551 334.566 648.551H276.209L257.1 497.837Z" fill="#51403D"/>
<path d="M189.769 488.118L150.85 497.079L162.724 648.551H314.154C314.154 648.551 309.074 528.707 251.969 492.754L189.769 488.118Z" fill="#51403D"/>
<path d="M150.85 497.079C110.736 506.003 120.126 536.037 127.871 597.71C107.849 613.571 127.058 620.711 127.058 620.711C105.069 643.448 132.5 648.551 132.5 648.551H205.729C205.729 648.551 190.991 488.148 150.85 497.079Z" fill="#51403D"/>
<path d="M201.374 613.566L183.801 534.876" stroke="black" stroke-miterlimit="10"/>
<path d="M132.499 648.551C132.499 648.551 144.863 620.861 183.939 606.94C216.339 595.398 263.732 625.36 294.07 596.89L299.689 628.944L205.728 648.551H132.499Z" fill="#E9A394"/>
<path d="M261.313 410.105L290.284 453.121L271.693 459.594L268.48 494.552L212.61 475.618L217.875 404.511L261.313 410.105Z" fill="#E9A394"/>
<path d="M218.326 455.29L189.769 488.118L226.392 531.898L242.909 480.763L218.326 455.29Z" fill="#E37A82"/>
<path d="M227.876 434.965L268.741 421.136L261.313 410.105L220.944 414.203L227.876 434.965Z" fill="#E37A82"/>
<path d="M224.348 450.033C224.348 450.033 236.72 474.196 228.112 427.619C228.112 427.619 239.853 428.904 249.048 413.789C249.048 413.789 246.191 438.42 273.164 413.789C300.136 389.157 265.846 369.885 223.947 377.136C187.63 383.422 151.288 403.437 204.404 471.294L224.348 450.033Z" fill="#30333A"/>
<path d="M217.732 459.641C214.945 463.286 210.157 466.595 205.178 467.303C195.221 468.717 185.497 461.05 184.047 451.338C182.597 441.625 187.627 436.581 197.582 435.167C203.179 434.372 209.659 435.99 214.519 439.285C215.988 441.07 217.732 459.641 217.732 459.641Z" fill="#E9A394"/>
<path d="M257.146 446.215C258.637 445.82 259.097 442.809 258.174 439.49C257.25 436.171 255.293 433.8 253.802 434.195C252.311 434.589 251.851 437.6 252.774 440.919C253.698 444.239 255.655 446.61 257.146 446.215Z" fill="#30333A"/>
<path d="M245.819 431.76C245.819 431.76 244.368 423.773 251.969 427.619L245.819 431.76Z" fill="#30333A"/>
<path d="M185.196 489.46L191.826 482.032L189.394 476.526L204.403 471.296L247.461 492.418L249.047 508.545L241.76 506.299L229.865 549.549L185.196 489.46Z" fill="#51403D"/>
<path d="M224.077 500.021L249.047 508.545L247.461 492.418" stroke="black" stroke-miterlimit="10"/>
<path d="M228.112 427.619C228.112 427.619 233.135 456.135 240.482 461.999C242.894 463.924 247.46 459.026 268.48 458.615C281.332 458.365 281.321 502.126 264.266 500.871C247.211 499.617 221.293 489.245 217.409 457.348C214.004 429.365 228.112 427.619 228.112 427.619Z" fill="#30333A"/>
<path d="M249.047 467.303C249.047 467.303 253.381 475.177 261.924 469.843" stroke="#C4C6C5" stroke-miterlimit="10"/>
<path d="M346.512 630.542H202.759V640.931C202.759 645.139 206.257 648.549 210.569 648.549H346.512C350.826 648.549 354.322 645.138 354.322 640.931V638.16C354.324 633.954 350.826 630.542 346.512 630.542Z" fill="#8F858E"/>
<path d="M463.262 526.392H296.041C291.071 526.392 286.875 529.996 286.245 534.804L272.773 637.698C272.02 643.456 276.618 648.551 282.569 648.551H449.79C454.76 648.551 458.956 644.947 459.586 640.139L473.058 537.246C473.811 531.488 469.213 526.392 463.262 526.392Z" fill="#8F858E"/>
<path d="M471.355 526.392H304.133C299.163 526.392 294.967 529.996 294.337 534.804L280.865 637.698C280.112 643.456 284.711 648.551 290.661 648.551H457.883C462.853 648.551 467.049 644.947 467.679 640.139L481.151 537.246C481.904 531.488 477.305 526.392 471.355 526.392Z" fill="#30333A"/>
<path d="M391.769 598.527C398.733 592.082 399.556 581.899 393.608 575.784C387.659 569.669 377.192 569.937 370.228 576.382C363.265 582.828 362.442 593.01 368.39 599.125C374.338 605.24 384.805 604.973 391.769 598.527Z" fill="white"/>
<path d="M559.697 509.981L628.795 511.259L613.131 428.806L576.389 432.864C576.389 432.864 559.839 456.692 572.909 475.219C587.654 496.122 558.179 496.902 559.697 509.981Z" fill="#1A1C20"/>
<path d="M576.388 432.864C576.388 432.864 559.838 456.692 572.907 475.219C587.654 496.124 558.179 496.902 559.697 509.981" stroke="#575A5F" stroke-width="2" stroke-miterlimit="10"/>
<path d="M590.173 500.021C590.173 500.021 558.734 530.115 542.156 643.523H577.153L590.173 500.021Z" fill="#8F858E"/>
<path d="M673.263 491.638L659.581 643.523H557.936L570.589 585.514C570.589 585.514 531.891 565.819 590.173 500.021L604.658 492.754L667.591 488.118L673.263 491.638Z" fill="#9A8D98"/>
<path d="M590.173 567.997C590.173 567.997 584.08 578.177 589.938 586.35L581.312 643.523" stroke="black" stroke-miterlimit="10"/>
<path d="M575.967 585.776L634.841 587.471" stroke="black" stroke-miterlimit="10"/>
<path d="M646.448 614.366L640.221 541.312" stroke="black" stroke-miterlimit="10"/>
<path d="M673.263 491.638C673.263 491.638 678.876 498.527 685.375 514.5C694.589 537.151 705.579 578.071 704.858 643.521H659.581L673.263 491.638Z" fill="#9A8D98"/>
<path d="M704.858 648.533C704.858 648.533 682.236 598.065 625.334 612.508C563.204 628.277 540.133 625.33 540.133 625.33L535.423 648.533H704.858Z" fill="#E9A394"/>
<path d="M645.633 601.901L625.443 606.305L671.303 648.533H714.529C714.529 648.533 695.899 604.468 645.633 601.901Z" fill="#8F828D"/>
<path d="M646.881 614.999L656.497 612.133" stroke="black" stroke-miterlimit="10"/>
<path d="M540.133 625.33L510.611 619.376L489.449 648.533H535.423L540.133 625.33Z" fill="#E9A394"/>
<path d="M590.173 567.997L645.032 514.484L634.841 509.789L673.263 491.638L655.619 480.686H614.555L590.173 510.415L596.91 512.065L590.173 516.675V567.997Z" fill="#30333A"/>
<path d="M628.527 498.877L646.448 486.797L627.102 444.601L597.116 462.972L605.564 497.974L590.173 567.997L628.527 498.877Z" fill="#E9A394"/>
<path d="M599.529 472.969L620.573 462.264L601.785 482.314L599.529 472.969Z" fill="#E37A82"/>
<path d="M561.086 411.88L551.897 461.556H565.681L581.157 482.314L620.573 462.264L593.006 402.35L561.086 411.88Z" fill="#E9A394"/>
<path d="M558.859 423.926L557.936 429.384L594.287 424.546L593.73 417.751L558.859 423.926Z" fill="#E37A82"/>
<path d="M661.558 408.106C652.459 384.045 641.332 374.768 641.332 374.768C619.034 353.153 580.916 377.138 580.916 377.138C532.069 365.605 551.898 424.761 551.898 424.761L591.678 420.002C597.24 452.553 617.132 436.07 617.132 436.07L626.409 452.393C626.409 452.393 617.049 460.462 626.808 474.297C634.842 485.688 615.603 489.569 620.574 501.695L697.466 486.149C697.466 436.797 678.004 451.593 661.558 408.106Z" fill="#1A1C20"/>
<path d="M548.78 425.144C548.78 425.144 541.745 391.368 554.668 380.378C561.406 374.646 582.626 377.138 582.626 377.138" stroke="#575A5F" stroke-width="2" stroke-miterlimit="10"/>
<path d="M702.499 484.726C702.499 484.726 708.64 462.264 675.182 436.795" stroke="#575A5F" stroke-width="2" stroke-miterlimit="10"/>
<path d="M618.275 454.481C627.423 454.481 634.839 447.247 634.839 438.323C634.839 429.4 627.423 422.166 618.275 422.166C609.127 422.166 601.712 429.4 601.712 438.323C601.712 447.247 609.127 454.481 618.275 454.481Z" fill="#E9A394"/>
<path d="M575.967 459.729L586.235 457.269C586.235 457.269 589.839 485.838 575.967 459.729Z" fill="white"/>
<path d="M567.415 442.847C567.415 442.847 570.683 423.417 577.834 442.847" stroke="#1C145E" stroke-width="0.5" stroke-miterlimit="10"/>
<path d="M569.938 428.066C569.938 428.066 573.919 421.49 578.635 428.066H569.938Z" fill="#16005C"/>
<path d="M415.425 253.015C409.468 236.853 390.737 228.76 374.319 235.665C360.189 241.609 352.7 257.245 357.082 271.634C359.532 279.678 365.065 285.901 371.994 289.531C378.39 292.881 383.878 297.662 387.902 303.556L389.062 305.256L412.067 297.188L411.853 295.166C411.094 288.005 412.378 280.841 415.092 274.146C417.738 267.611 418.053 260.146 415.425 253.015Z" fill="#C3C8FF"/>
<path d="M415.425 253.015C409.468 236.853 390.737 228.76 374.319 235.665C360.189 241.609 352.7 257.245 357.082 271.634C359.532 279.678 365.065 285.901 371.994 289.531C378.39 292.881 383.878 297.662 387.902 303.556L389.062 305.256L412.067 297.188L411.853 295.166C411.094 288.005 412.378 280.841 415.092 274.146C417.738 267.611 418.053 260.146 415.425 253.015Z" fill="#72676F"/>
<path d="M394.325 298.638L375.988 273.411C375.988 273.411 376.322 268.302 382.077 269.112C387.833 269.922 391.269 278.783 387.162 277.354C383.055 275.924 381.601 265.508 389.374 263.92C397.145 262.332 399.742 279.555 395.448 276.236C391.154 272.918 392.06 261.953 400.382 261.863L405.265 298.247" stroke="white" stroke-miterlimit="10"/>
<path d="M411.532 314.431L400.73 318.22C396.623 319.661 392.094 317.581 390.619 313.574L388.335 307.379C386.857 303.372 388.99 298.955 393.098 297.516L403.9 293.726C408.007 292.285 412.534 294.366 414.011 298.372L416.295 304.568C417.771 308.574 415.639 312.99 411.532 314.431Z" fill="#30333A"/>
<path d="M414.076 288.117L381.543 299.525L387.253 315.017L419.785 303.608L414.076 288.117Z" fill="#30333A"/>
<path d="M385.75 225.549L382.504 207.397" stroke="#C3C8FF" stroke-miterlimit="10"/>
<path d="M362.306 236.36L346.764 221.552" stroke="#C3C8FF" stroke-miterlimit="10"/>
<path d="M346.108 263.26L328.375 264.498" stroke="#C3C8FF" stroke-miterlimit="10"/>
<path d="M411.31 235.495L419.291 221.058" stroke="#C3C8FF" stroke-miterlimit="10"/>
<path d="M660.99 368.841H770.948C774.771 368.841 778.433 365.819 779.126 362.088L790.489 300.937C791.182 297.208 788.643 294.184 784.82 294.184H674.862C671.039 294.184 667.377 297.207 666.684 300.937L655.321 362.088C654.63 365.817 657.167 368.841 660.99 368.841Z" fill="#C3C8FF"/>
<path d="M749.142 336.264C752.352 333.404 752.97 328.967 750.524 326.354C748.077 323.742 743.491 323.942 740.282 326.802C737.072 329.662 736.453 334.099 738.9 336.711C741.347 339.324 745.932 339.124 749.142 336.264Z" fill="white"/>
<path d="M727.301 336.263C730.511 333.403 731.129 328.967 728.683 326.354C726.236 323.741 721.651 323.941 718.441 326.801C715.231 329.661 714.613 334.098 717.059 336.711C719.506 339.324 724.091 339.123 727.301 336.263Z" fill="white"/>
<path d="M705.46 336.263C708.67 333.403 709.289 328.966 706.842 326.353C704.395 323.741 699.81 323.941 696.6 326.801C693.39 329.661 692.772 334.098 695.218 336.71C697.665 339.323 702.251 339.123 705.46 336.263Z" fill="white"/>
<path d="M720.168 364.82L681.962 386.969L688.81 363.073L720.168 364.82Z" fill="#C3C8FF"/>
<path d="M306.758 359.776H196.8C192.977 359.776 189.315 356.754 188.621 353.023L177.259 291.873C176.565 288.143 179.104 285.119 182.927 285.119H292.886C296.709 285.119 300.37 288.142 301.064 291.873L312.426 353.023C313.12 356.752 310.583 359.776 306.758 359.776Z" fill="#C3C8FF"/>
<path d="M228.795 327.618C231.241 325.005 230.623 320.569 227.413 317.709C224.203 314.849 219.618 314.649 217.171 317.261C214.724 319.874 215.343 324.311 218.553 327.171C221.762 330.031 226.348 330.231 228.795 327.618Z" fill="white"/>
<path d="M250.635 327.618C253.082 325.005 252.463 320.569 249.253 317.709C246.044 314.849 241.458 314.648 239.012 317.261C236.565 319.874 237.184 324.311 240.393 327.171C243.603 330.031 248.188 330.231 250.635 327.618Z" fill="white"/>
<path d="M272.474 327.62C274.921 325.007 274.303 320.57 271.093 317.71C267.883 314.85 263.298 314.65 260.851 317.263C258.404 319.875 259.023 324.312 262.233 327.172C265.442 330.032 270.028 330.232 272.474 327.62Z" fill="white"/>
<path d="M267.533 355.755L273.564 377.136L297.957 354.259L267.533 355.755Z" fill="#C3C8FF"/>
</svg>
